<svg width="25" height="24" viewBox="0 0 25 24" fill="none" xmlns="http://www.w3.org/2000/svg">
<mask id="mask0_663_3941" style="mask-type:alpha" maskUnits="userSpaceOnUse" x="0" y="0" width="25" height="24">
<rect x="0.623047" width="24" height="24" fill="#D9D9D9"/>
</mask>
<g mask="url(#mask0_663_3941)">
<path d="M7.996 12.75L13.1652 17.9192C13.3139 18.0679 13.3873 18.2419 13.3855 18.4412C13.3835 18.6406 13.305 18.8178 13.15 18.973C12.9948 19.1178 12.8192 19.1928 12.623 19.198C12.4268 19.2032 12.2512 19.1282 12.096 18.973L5.75575 12.6327C5.66208 12.5391 5.59608 12.4403 5.55775 12.3365C5.51925 12.2327 5.5 12.1205 5.5 12C5.5 11.8795 5.51925 11.7673 5.55775 11.6635C5.59608 11.5597 5.66208 11.4609 5.75575 11.3672L12.096 5.02699C12.2345 4.88849 12.406 4.81766 12.6105 4.81449C12.815 4.81133 12.9948 4.88216 13.15 5.02699C13.305 5.18216 13.3825 5.36033 13.3825 5.56149C13.3825 5.76283 13.305 5.94108 13.15 6.09624L7.996 11.25H19.373C19.5858 11.25 19.764 11.3218 19.9075 11.4655C20.0512 11.609 20.123 11.7872 20.123 12C20.123 12.2128 20.0512 12.391 19.9075 12.5345C19.764 12.6782 19.5858 12.75 19.373 12.75H7.996Z" fill="currentColor"/>
</g>
</svg>
