<svg width="20" height="20" viewBox="0 0 20 20" fill="none" xmlns="http://www.w3.org/2000/svg">
<circle cx="9.6" cy="9.79995" r="9.6" fill="#EAEFFF"/>
<path fill-rule="evenodd" clip-rule="evenodd" d="M14.4371 6.11094C14.8747 6.49062 15.0907 6.93222 15.0796 7.41654C15.0702 7.87782 14.8553 8.32566 14.56 8.74326C14.1668 9.30102 13.5658 9.8895 12.8939 10.4929L12.5217 10.8236L12.1395 11.1567L11.4361 11.7653L11.0262 12.1157C10.2774 12.7479 9.54734 13.3191 8.85775 13.6849C8.37586 13.9407 7.85908 14.1265 7.3268 14.1356C6.76792 14.1452 6.25834 13.958 5.82021 13.5783C5.16275 13.0085 4.88082 11.9732 5.04643 10.8687C5.20872 9.78582 5.80581 8.56326 7.02105 7.4511L7.19995 7.29174C8.52763 6.14454 10.0065 5.58726 11.3098 5.44038C12.5843 5.29686 13.7796 5.54118 14.4371 6.11094ZM13.6539 6.79014C13.3321 6.51126 12.5417 6.26982 11.4527 6.39222C11.2138 6.41878 10.9664 6.46374 10.7105 6.5271C10.8545 6.6711 11.0428 6.7743 11.2832 6.8439C11.3531 6.86322 11.4179 6.89438 11.4738 6.93557C11.5296 6.97676 11.5755 7.02715 11.6087 7.08383C11.6419 7.14051 11.6618 7.20234 11.6673 7.26573C11.6727 7.32913 11.6635 7.39283 11.6403 7.45313C11.6171 7.51343 11.5803 7.56913 11.532 7.61701C11.4837 7.66488 11.425 7.70397 11.3591 7.732C11.2933 7.76003 11.2217 7.77646 11.1485 7.78031C11.0753 7.78417 11.0019 7.77538 10.9326 7.75446C10.3732 7.59318 9.94226 7.3023 9.65424 6.89574C9.15018 7.12498 8.68219 7.40939 8.26176 7.74198C8.34983 7.85574 8.46781 7.98198 8.61071 8.10582C8.84556 8.30886 9.08595 8.4543 9.26209 8.52006L9.32468 8.54118C9.46409 8.58141 9.57934 8.66798 9.6451 8.78186C9.71085 8.89573 9.72171 9.02757 9.67529 9.14838C9.62887 9.26919 9.52897 9.36908 9.39757 9.42606C9.26617 9.48304 9.11403 9.49245 8.97462 9.45222C8.56585 9.33414 8.15154 9.06486 7.82807 8.78454C7.70569 8.67785 7.59065 8.56501 7.48355 8.44662C7.13104 8.81509 6.83433 9.2211 6.60065 9.65478C6.75075 9.9447 6.99723 10.1319 7.36668 10.2385C7.50419 10.28 7.61731 10.3668 7.68153 10.4801C7.74575 10.5933 7.75592 10.7239 7.70982 10.8437C7.66372 10.9634 7.56508 11.0625 7.43524 11.1197C7.30539 11.1768 7.1548 11.1874 7.01606 11.149C6.71326 11.0644 6.43251 10.9292 6.18966 10.7511C6.17157 10.8327 6.1568 10.9132 6.14535 10.9925C6.00355 11.9367 6.28216 12.6212 6.60397 12.9001C6.851 13.1141 7.0781 13.1799 7.30575 13.1761C7.55943 13.1717 7.87792 13.0796 8.27949 12.8665C8.80679 12.5871 9.38062 12.1537 10.0148 11.6281L10.3665 11.3319L10.9177 10.8581L11.6665 10.2077L12.0177 9.89766C12.7006 9.28806 13.2634 8.74086 13.6151 8.24262C13.861 7.89462 13.9674 7.61862 13.9724 7.39878C13.9768 7.20198 13.9009 7.0047 13.6539 6.79014Z" fill="#6881D5"/>
</svg>
