<svg width="16" height="17" viewBox="0 0 16 17" fill="none" xmlns="http://www.w3.org/2000/svg">
<path d="M8.00025 15.3218C9.38516 15.3218 10.739 14.9111 11.8905 14.1417C13.042 13.3723 13.9395 12.2787 14.4694 10.9992C14.9994 9.71973 15.1381 8.31182 14.8679 6.95353C14.5977 5.59523 13.9308 4.34756 12.9516 3.36828C11.9723 2.38901 10.7246 1.72211 9.36631 1.45193C8.00802 1.18175 6.60011 1.32042 5.32062 1.8504C4.04114 2.38038 2.94754 3.27787 2.17813 4.42937C1.40872 5.58088 0.998047 6.93469 0.998047 8.31959C0.998047 9.47729 1.27814 10.5681 1.77607 11.5305L0.998047 15.3218L4.78935 14.5438C5.75099 15.0409 6.84333 15.3218 8.00025 15.3218Z" stroke="currentColor" stroke-width="1.3" stroke-linecap="round" stroke-linejoin="round"/>
</svg>
