<svg width="112" height="93" viewBox="0 0 112 93" fill="none" xmlns="http://www.w3.org/2000/svg">
<path d="M64.8861 16.0576C66.9108 8.14694 72.5295 2.52702 78.9327 2.75904C86.7367 3.04245 92.7497 11.9105 92.3633 22.566C92.2442 25.8484 91.531 28.9177 90.3739 31.5853C93.3864 34.5186 95.9963 37.6821 97.9921 40.9672C99.407 42.381 101.967 44.9167 102.287 45.0731C102.725 45.2848 105.637 46.7749 105.684 46.7985L107.065 47.8433C107.081 47.8563 107.377 48.0894 107.581 48.5945C107.713 48.9225 107.756 49.4269 107.773 49.754C107.799 49.8333 107.814 49.9183 107.812 50.007C107.804 50.4396 107.773 50.9659 107.684 51.3249C107.509 52.0328 106.546 53.9382 106.538 53.9549L104.911 55.987C105.723 56.8568 106.273 57.7451 106.226 58.5283C106.062 61.2747 104.461 63.4102 104.437 63.443L102.599 66.0307C102.584 66.0541 101.893 67.1053 100.63 68.6375C100.117 69.2583 98.712 70.332 97.213 71.3972C88.5343 79.527 72.3997 85.1793 60.7133 86.7993C50.9585 88.1513 37.3548 85.5152 26.8899 80.2067C24.5981 79.565 21.4365 78.8167 17.4257 77.857C17.4154 77.8532 15.9131 77.2896 14.3077 75.9731C12.7205 74.6714 11.9767 74.0018 11.9551 73.9823L8.86615 70.4193L6.88818 66.8506C6.73012 66.5653 6.75749 66.213 6.95725 65.9552L8.54217 63.9142L5.56689 59.6403C5.38044 59.3725 5.37865 59.0451 5.51604 58.7881C5.52706 58.597 5.60777 58.4053 5.77125 58.2499L10.6475 53.6167L14.5638 48.511C16.3406 44.1704 18.7496 39.7596 21.6322 35.603C20.6382 33.4994 19.9155 31.1112 19.5591 28.5403C18.2188 18.8711 22.5594 10.2808 29.2533 9.35254C33.927 8.70488 38.5123 11.9635 41.3106 17.2805C44.106 15.8177 46.9878 14.7475 49.907 14.1748C54.2899 13.5673 59.4914 14.3037 64.8861 16.0576Z" fill="#EDEDED"/>
<path d="M64.8861 16.0576L64.7006 16.6282L65.3088 16.826L65.4674 16.2064L64.8861 16.0576ZM78.9327 2.75904L78.9545 2.15944L78.9545 2.15944L78.9327 2.75904ZM92.3633 22.566L92.9629 22.5877L92.9629 22.5877L92.3633 22.566ZM90.3739 31.5853L89.8235 31.3465L89.6587 31.7263L89.9553 32.0151L90.3739 31.5853ZM97.9921 40.9672L97.4793 41.2787L97.5168 41.3405L97.568 41.3917L97.9921 40.9672ZM102.287 45.0731L102.024 45.6123L102.026 45.6134L102.287 45.0731ZM105.684 46.7985L106.046 46.32L106.004 46.2883L105.957 46.2644L105.684 46.7985ZM107.065 47.8433L107.431 47.3685L107.427 47.3649L107.065 47.8433ZM107.581 48.5945L108.137 48.3706L108.137 48.3704L107.581 48.5945ZM107.773 49.754L107.173 49.7848L107.178 49.8655L107.203 49.9422L107.773 49.754ZM107.812 50.007L108.412 50.0191L108.412 50.019L107.812 50.007ZM107.684 51.3249L108.267 51.4692L108.267 51.4689L107.684 51.3249ZM106.538 53.9549L107.006 54.3299L107.045 54.2811L107.073 54.2254L106.538 53.9549ZM104.911 55.987L104.442 55.6119L104.118 56.0172L104.472 56.3966L104.911 55.987ZM106.226 58.5283L106.825 58.5641L106.825 58.564L106.226 58.5283ZM104.437 63.443L103.957 63.0821L103.952 63.0888L103.947 63.0956L104.437 63.443ZM102.599 66.0307L102.11 65.6834L102.104 65.6924L102.098 65.7017L102.599 66.0307ZM100.63 68.6375L101.093 69.0193L101.093 69.0192L100.63 68.6375ZM97.213 71.3972L96.8654 70.9081L96.8324 70.9316L96.8028 70.9593L97.213 71.3972ZM60.7133 86.7993L60.7957 87.3936L60.7957 87.3936L60.7133 86.7993ZM26.8899 80.2067L27.1614 79.6716L27.1086 79.6448L27.0517 79.6289L26.8899 80.2067ZM17.4257 77.857L17.2153 78.419L17.25 78.432L17.286 78.4406L17.4257 77.857ZM14.3077 75.9731L13.9273 76.437L13.9273 76.437L14.3077 75.9731ZM11.9551 73.9823L11.5018 74.3754L11.526 74.4033L11.5535 74.4281L11.9551 73.9823ZM8.86615 70.4193L8.34137 70.7101L8.37175 70.765L8.4128 70.8123L8.86615 70.4193ZM6.88818 66.8506L6.36335 67.1414L6.3634 67.1415L6.88818 66.8506ZM6.95725 65.9552L6.48335 65.5872L6.48299 65.5877L6.95725 65.9552ZM8.54217 63.9142L9.01607 64.2822L9.28676 63.9336L9.0346 63.5714L8.54217 63.9142ZM5.56689 59.6403L5.07446 59.9831L5.07447 59.9831L5.56689 59.6403ZM5.51604 58.7881L6.04519 59.0709L6.10745 58.9544L6.11505 58.8226L5.51604 58.7881ZM5.77125 58.2499L5.35796 57.8149L5.3578 57.8151L5.77125 58.2499ZM10.6475 53.6167L11.0608 54.0517L11.0949 54.0192L11.1236 53.9819L10.6475 53.6167ZM14.5638 48.511L15.0399 48.8761L15.0887 48.8125L15.1191 48.7383L14.5638 48.511ZM21.6322 35.603L22.1252 35.9449L22.3228 35.6601L22.1747 35.3467L21.6322 35.603ZM19.5591 28.5403L18.9648 28.6226L18.9648 28.6227L19.5591 28.5403ZM29.2533 9.35254L29.1709 8.75822L29.1709 8.75822L29.2533 9.35254ZM41.3106 17.2805L40.7797 17.56L41.0585 18.0897L41.5888 17.8121L41.3106 17.2805ZM49.907 14.1748L49.8247 13.5804L49.808 13.5827L49.7915 13.586L49.907 14.1748ZM63.2302 14.9255C62.9114 14.8348 62.5796 15.0197 62.4889 15.3384C62.3982 15.6572 62.5831 15.989 62.9018 16.0797L63.066 15.5026L63.2302 14.9255ZM59.253 15.2022C59.5783 15.2655 59.8932 15.0531 59.9565 14.7278C60.0198 14.4025 59.8074 14.0876 59.4821 14.0243L59.3675 14.6132L59.253 15.2022ZM55.654 13.4793C55.3239 13.4506 55.0331 13.695 55.0044 14.0252C54.9758 14.3553 55.2202 14.6461 55.5503 14.6748L55.6022 14.077L55.654 13.4793ZM51.8311 14.5966C52.162 14.5796 52.4165 14.2976 52.3995 13.9666C52.3825 13.6357 52.1004 13.3812 51.7695 13.3982L51.8003 13.9974L51.8311 14.5966ZM47.5145 14.132C47.1957 14.2223 47.0104 14.5539 47.1006 14.8728C47.1909 15.1916 47.5225 15.3769 47.8414 15.2867L47.6779 14.7093L47.5145 14.132ZM43.6182 16.8284C43.9208 16.6934 44.0566 16.3386 43.9216 16.036C43.7866 15.7334 43.4318 15.5975 43.1292 15.7325L43.3737 16.2805L43.6182 16.8284ZM40.8407 15.296C40.6595 15.0186 40.2877 14.9405 40.0102 15.1217C39.7328 15.3029 39.6547 15.6747 39.8359 15.9522L40.3383 15.6241L40.8407 15.296ZM37.4962 13.0846C37.7338 13.3156 38.1136 13.3102 38.3446 13.0726C38.5756 12.835 38.5703 12.4552 38.3327 12.2242L37.9144 12.6544L37.4962 13.0846ZM35.1033 9.85903C34.8092 9.7065 34.447 9.82133 34.2945 10.1155C34.142 10.4097 34.2568 10.7718 34.551 10.9243L34.8272 10.3917L35.1033 9.85903ZM31.119 9.89981C31.4492 9.92773 31.7395 9.6827 31.7674 9.3525C31.7953 9.02231 31.5503 8.732 31.2201 8.70408L31.1695 9.30195L31.119 9.89981ZM26.1704 9.71418C25.8759 9.86598 25.7601 10.2278 25.9119 10.5224C26.0637 10.8169 26.4256 10.9327 26.7201 10.7809L26.4453 10.2475L26.1704 9.71418ZM22.6962 14.5958C22.8757 14.3173 22.7954 13.9459 22.5168 13.7665C22.2382 13.587 21.8669 13.6673 21.6875 13.9459L22.1919 14.2709L22.6962 14.5958ZM19.3467 19.5741C19.2693 19.8963 19.4678 20.2202 19.79 20.2976C20.1122 20.375 20.4362 20.1765 20.5135 19.8543L19.9301 19.7142L19.3467 19.5741ZM19.9219 25.5761C19.9147 25.2448 19.6403 24.9821 19.309 24.9893C18.9777 24.9964 18.715 25.2708 18.7221 25.6021L19.322 25.5891L19.9219 25.5761ZM19.2911 30.4843C19.36 30.8084 19.6786 31.0152 20.0028 30.9463C20.3269 30.8774 20.5338 30.5587 20.4648 30.2346L19.878 30.3594L19.2911 30.4843ZM21.4736 33.6909C21.3568 33.3809 21.0106 33.2242 20.7006 33.3411C20.3905 33.458 20.2339 33.8041 20.3507 34.1142L20.9122 33.9025L21.4736 33.6909ZM20.0997 36.8017C19.9179 37.0788 19.9951 37.4507 20.2722 37.6325C20.5492 37.8143 20.9212 37.7371 21.103 37.4601L20.6013 37.1309L20.0997 36.8017ZM19.1771 40.5665C19.3443 40.2804 19.248 39.9129 18.9619 39.7457C18.6759 39.5784 18.3084 39.6747 18.1411 39.9608L18.6591 40.2636L19.1771 40.5665ZM16.3501 43.2189C16.1984 43.5135 16.3142 43.8753 16.6087 44.0271C16.9033 44.1788 17.2651 44.0631 17.4169 43.7685L16.8835 43.4937L16.3501 43.2189ZM15.8361 47.0603C15.9709 46.7576 15.8348 46.4029 15.5321 46.2681C15.2293 46.1333 14.8747 46.2695 14.7399 46.5722L15.288 46.8163L15.8361 47.0603ZM13.1086 49.4222C12.907 49.6852 12.9566 50.0618 13.2195 50.2635C13.4825 50.4652 13.8591 50.4155 14.0608 50.1526L13.5847 49.7874L13.1086 49.4222ZM12.1027 52.7054C12.3043 52.4425 12.2547 52.0659 11.9918 51.8642C11.7288 51.6625 11.3522 51.7122 11.1505 51.9751L11.6266 52.3403L12.1027 52.7054ZM9.01517 54.34C8.77494 54.5683 8.76523 54.9481 8.99348 55.1883C9.22173 55.4285 9.60151 55.4382 9.84174 55.21L9.42845 54.775L9.01517 54.34ZM7.4036 57.5266C7.64383 57.2983 7.65353 56.9185 7.42528 56.6783C7.19703 56.4381 6.81726 56.4284 6.57703 56.6566L6.99032 57.0916L7.4036 57.5266ZM5.18739 58.0079C4.9907 58.2746 5.04746 58.6502 5.31414 58.8469C5.58083 59.0436 5.95647 58.9868 6.15315 58.7201L5.67027 58.364L5.18739 58.0079ZM6.12053 58.7873C6.2032 58.4664 6.01008 58.1392 5.68918 58.0565C5.36829 57.9739 5.04114 58.167 4.95847 58.4879L5.5395 58.6376L6.12053 58.7873ZM4.8525 58.8689C4.78113 59.1925 4.9856 59.5127 5.30919 59.5841C5.63278 59.6555 5.95297 59.451 6.02434 59.1274L5.43842 58.9982L4.8525 58.8689ZM6.03085 59.2425C5.92123 58.9298 5.57886 58.7652 5.26614 58.8748C4.95343 58.9844 4.78879 59.3268 4.89842 59.6395L5.46463 59.441L6.03085 59.2425ZM5.81829 61.0516C6.00761 61.3236 6.38156 61.3905 6.65352 61.2012C6.92548 61.0119 6.99247 60.6379 6.80314 60.366L6.31071 60.7088L5.81829 61.0516ZM8.29078 62.5029C8.10145 62.2309 7.7275 62.164 7.45555 62.3533C7.18359 62.5426 7.1166 62.9166 7.30593 63.1885L7.79835 62.8457L8.29078 62.5029ZM7.67204 64.0564C7.46881 64.3182 7.51622 64.6951 7.77795 64.8983C8.03967 65.1016 8.4166 65.0542 8.61984 64.7924L8.14594 64.4244L7.67204 64.0564ZM7.82738 65.8129C8.03062 65.5512 7.9832 65.1743 7.72147 64.9711C7.45975 64.7678 7.08282 64.8152 6.87958 65.077L7.35348 65.445L7.82738 65.8129ZM6.28099 65.9456C6.16176 66.2548 6.31575 66.6021 6.62493 66.7213C6.93411 66.8406 7.2814 66.6866 7.40063 66.3774L6.84081 66.1615L6.28099 65.9456ZM7.39101 66.5015C7.32062 66.1777 7.00106 65.9722 6.67725 66.0426C6.35345 66.113 6.14801 66.4326 6.21839 66.7564L6.8047 66.6289L7.39101 66.5015ZM6.85789 68.0336C7.01853 68.3235 7.38371 68.4282 7.67354 68.2676C7.96337 68.1069 8.0681 67.7417 7.90746 67.4519L7.38267 67.7428L6.85789 68.0336ZM8.89644 69.2362C8.7358 68.9464 8.37062 68.8417 8.08079 69.0023C7.79096 69.163 7.68623 69.5282 7.84687 69.818L8.37166 69.5271L8.89644 69.2362ZM9.18503 71.7031C9.4021 71.9535 9.78104 71.9805 10.0314 71.7634C10.2818 71.5463 10.3088 71.1674 10.0917 70.917L9.63839 71.31L9.18503 71.7031ZM11.6362 72.6985C11.4192 72.4482 11.0402 72.4212 10.7898 72.6382C10.5395 72.8553 10.5124 73.2342 10.7295 73.4846L11.1829 73.0916L11.6362 72.6985ZM12.1441 74.944C12.3954 75.16 12.7742 75.1314 12.9902 74.8801C13.2062 74.6288 13.1775 74.25 12.9262 74.034L12.5352 74.489L12.1441 74.944ZM14.0962 75.0207C13.8412 74.809 13.463 74.8441 13.2513 75.099C13.0396 75.354 13.0747 75.7323 13.3296 75.9439L13.7129 75.4823L14.0962 75.0207ZM14.6884 77.0168C14.9589 77.2081 15.3333 77.1439 15.5247 76.8733C15.716 76.6028 15.6518 76.2284 15.3813 76.037L15.0348 76.5269L14.6884 77.0168ZM16.8705 76.9422C16.5758 76.7907 16.214 76.9067 16.0625 77.2013C15.9109 77.496 16.0269 77.8578 16.3216 78.0093L16.596 77.4758L16.8705 76.9422ZM19.6576 79.0079C19.9798 79.0852 20.3036 78.8865 20.3809 78.5643C20.4581 78.242 20.2594 77.9182 19.9372 77.841L19.7974 78.4245L19.6576 79.0079ZM24.6813 79.0009C24.3601 78.9194 24.0336 79.1137 23.9521 79.4348C23.8705 79.756 24.0648 80.0825 24.386 80.164L24.5336 79.5825L24.6813 79.0009ZM28.6046 81.7009C28.9057 81.8392 29.262 81.7073 29.4003 81.4062C29.5387 81.1051 29.4068 80.7489 29.1057 80.6105L28.8552 81.1557L28.6046 81.7009ZM33.0949 82.2739C32.7848 82.1569 32.4387 82.3135 32.3218 82.6236C32.2048 82.9336 32.3614 83.2797 32.6714 83.3967L32.8832 82.8353L33.0949 82.2739ZM36.8398 84.8158C37.1568 84.9125 37.4921 84.734 37.5889 84.4171C37.6856 84.1002 37.5071 83.7648 37.1902 83.6681L37.015 84.2419L36.8398 84.8158ZM41.3666 84.8021C41.0443 84.7252 40.7207 84.9242 40.6438 85.2466C40.567 85.5689 40.766 85.8925 41.0883 85.9694L41.2275 85.3857L41.3666 84.8021ZM45.4011 86.8553C45.7277 86.9115 46.038 86.6924 46.0943 86.3659C46.1506 86.0393 45.9315 85.729 45.6049 85.6727L45.503 86.264L45.4011 86.8553ZM49.8879 86.2629C49.5582 86.2292 49.2636 86.469 49.2299 86.7987C49.1962 87.1283 49.436 87.4229 49.7657 87.4567L49.8268 86.8598L49.8879 86.2629ZM54.1691 87.7369C54.5003 87.7444 54.775 87.482 54.7826 87.1507C54.7901 86.8194 54.5277 86.5447 54.1964 86.5372L54.1827 87.137L54.1691 87.7369ZM58.4995 86.4319C58.1691 86.4571 57.9217 86.7453 57.9469 87.0757C57.9721 87.4062 58.2604 87.6536 58.5908 87.6284L58.5452 87.0301L58.4995 86.4319ZM63.2934 86.9983C63.6197 86.9405 63.8373 86.6291 63.7796 86.3028C63.7218 85.9766 63.4104 85.7589 63.0841 85.8167L63.1888 86.4075L63.2934 86.9983ZM67.955 84.7892C67.633 84.8675 67.4355 85.192 67.5138 85.514C67.5921 85.836 67.9166 86.0335 68.2386 85.9552L68.0968 85.3722L67.955 84.7892ZM73.1105 84.6221C73.4276 84.5258 73.6065 84.1906 73.5101 83.8736C73.4138 83.5565 73.0786 83.3776 72.7616 83.4739L72.936 84.048L73.1105 84.6221ZM77.4878 81.8934C77.1766 82.0072 77.0167 82.3518 77.1305 82.663C77.2444 82.9742 77.589 83.1342 77.9002 83.0203L77.694 82.4568L77.4878 81.8934ZM82.5918 81.1459C82.8956 81.0136 83.0347 80.6601 82.9025 80.3563C82.7703 80.0524 82.4168 79.9133 82.1129 80.0456L82.3524 80.5957L82.5918 81.1459ZM86.606 77.9086C86.312 78.0615 86.1976 78.4238 86.3504 78.7178C86.5033 79.0118 86.8655 79.1262 87.1595 78.9734L86.8828 78.441L86.606 77.9086ZM91.5561 76.454C91.8361 76.2767 91.9192 75.906 91.7418 75.626C91.5645 75.3461 91.1938 75.263 90.9139 75.4404L91.235 75.9472L91.5561 76.454ZM94.9431 72.5725C94.6851 72.7805 94.6447 73.1582 94.8527 73.4162C95.0607 73.6741 95.4385 73.7145 95.6964 73.5065L95.3197 73.0395L94.9431 72.5725ZM98.4603 71.2368C98.7273 71.0405 98.7847 70.665 98.5885 70.398C98.3922 70.1309 98.0167 70.0736 97.7497 70.2698L98.105 70.7533L98.4603 71.2368ZM99.45 68.9442C99.198 69.1594 99.1681 69.5382 99.3833 69.7902C99.5985 70.0422 99.9772 70.072 100.229 69.8568L99.8396 69.4005L99.45 68.9442ZM101.614 68.3745C101.82 68.1148 101.776 67.7374 101.517 67.5315C101.257 67.3257 100.88 67.3693 100.674 67.6289L101.144 68.0017L101.614 68.3745ZM101.646 66.3486C101.451 66.6171 101.512 66.9922 101.78 67.1864C102.049 67.3806 102.424 67.3204 102.618 67.0519L102.132 66.7003L101.646 66.3486ZM103.548 65.7311C103.74 65.4609 103.676 65.0864 103.406 64.8945C103.136 64.7027 102.761 64.7662 102.569 65.0364L103.059 65.3838L103.548 65.7311ZM103.488 63.7426C103.296 64.0128 103.36 64.3873 103.63 64.5791C103.9 64.771 104.275 64.7074 104.467 64.4372L103.977 64.0899L103.488 63.7426ZM105.656 62.5903C105.809 62.2964 105.695 61.9341 105.401 61.7811C105.107 61.6281 104.745 61.7423 104.592 62.0362L105.124 62.3133L105.656 62.5903ZM105.454 59.7072C105.382 60.0306 105.586 60.3512 105.909 60.4233C106.232 60.4954 106.553 60.2917 106.625 59.9682L106.04 59.8377L105.454 59.7072ZM106.688 57.6179C106.584 57.3034 106.244 57.1333 105.93 57.2379C105.615 57.3424 105.445 57.6821 105.55 57.9965L106.119 57.8072L106.688 57.6179ZM104.918 56.9134C105.123 57.1738 105.5 57.2189 105.76 57.0141C106.021 56.8092 106.066 56.432 105.861 56.1715L105.389 56.5424L104.918 56.9134ZM105.786 55.854C105.993 55.5953 105.951 55.2177 105.692 55.0106C105.434 54.8035 105.056 54.8453 104.849 55.1039L105.317 55.479L105.786 55.854ZM105.663 54.0879C105.455 54.3465 105.497 54.7241 105.756 54.9313C106.015 55.1384 106.392 55.0966 106.599 54.8379L106.131 54.4629L105.663 54.0879ZM107.395 53.5699C107.538 53.2712 107.412 52.9128 107.114 52.7694C106.815 52.6261 106.456 52.7521 106.313 53.0508L106.854 53.3104L107.395 53.5699ZM106.89 51.7734C106.764 52.08 106.911 52.4305 107.217 52.5562C107.524 52.6819 107.874 52.5353 108 52.2287L107.445 52.0011L106.89 51.7734ZM108.339 51.0814C108.384 50.7532 108.155 50.4502 107.827 50.4047C107.499 50.3592 107.196 50.5884 107.15 50.9166L107.744 50.999L108.339 51.0814ZM107.202 50.3104C107.186 50.6414 107.442 50.9223 107.773 50.9378C108.104 50.9533 108.385 50.6975 108.401 50.3665L107.801 50.3384L107.202 50.3104ZM108.409 49.9003C108.386 49.5697 108.099 49.3208 107.768 49.3442C107.438 49.3677 107.189 49.6547 107.212 49.9852L107.811 49.9427L108.409 49.9003ZM107.208 49.9591C107.287 50.2809 107.612 50.4776 107.934 50.3985C108.255 50.3193 108.452 49.9943 108.373 49.6725L107.79 49.8158L107.208 49.9591ZM108.35 49.4064C108.32 49.0764 108.029 48.8327 107.699 48.8622C107.369 48.8917 107.125 49.1831 107.155 49.5132L107.752 49.4598L108.35 49.4064ZM107.081 49.0103C107.155 49.3334 107.477 49.5353 107.8 49.4614C108.123 49.3875 108.325 49.0658 108.251 48.7427L107.666 48.8765L107.081 49.0103ZM108.016 48.1069C107.862 47.8135 107.499 47.7003 107.206 47.8543C106.912 48.0082 106.799 48.3708 106.953 48.6643L107.484 48.3856L108.016 48.1069ZM106.773 48.3967C106.99 48.6476 107.369 48.6756 107.62 48.4592C107.87 48.2428 107.898 47.864 107.682 47.613L107.228 48.0048L106.773 48.3967ZM107.081 47.1037C106.817 46.9037 106.441 46.9559 106.241 47.2201C106.041 47.4844 106.093 47.8607 106.357 48.0606L106.719 47.5821L107.081 47.1037ZM105.667 47.5382C105.931 47.7382 106.307 47.686 106.507 47.4217C106.707 47.1575 106.655 46.7812 106.391 46.5812L106.029 47.0597L105.667 47.5382ZM105.108 45.8307C104.813 45.68 104.452 45.7971 104.301 46.0923C104.15 46.3874 104.268 46.7488 104.563 46.8995L104.835 46.3651L105.108 45.8307ZM102.866 46.0356C103.162 46.1855 103.523 46.0674 103.673 45.7719C103.823 45.4763 103.705 45.1153 103.409 44.9654L103.138 45.5005L102.866 46.0356ZM101.587 43.656C101.347 43.4278 100.967 43.4375 100.739 43.6778C100.511 43.918 100.521 44.2978 100.761 44.526L101.174 44.091L101.587 43.656ZM98.6233 42.4418C98.8588 42.675 99.2387 42.6732 99.4719 42.4377C99.7051 42.2023 99.7032 41.8224 99.4678 41.5892L99.0456 42.0155L98.6233 42.4418ZM96.8095 38.0921C96.6167 37.8226 96.2419 37.7604 95.9724 37.9531C95.7029 38.1459 95.6407 38.5207 95.8335 38.7902L96.3215 38.4411L96.8095 38.0921ZM92.0471 34.1616C92.2719 34.405 92.6515 34.4202 92.895 34.1954C93.1384 33.9706 93.1536 33.591 92.9288 33.3476L92.488 33.7546L92.0471 34.1616ZM91.7601 29.5941C91.8609 29.2784 91.6866 28.9408 91.3709 28.84C91.0553 28.7393 90.7177 28.9135 90.6169 29.2292L91.1885 29.4116L91.7601 29.5941ZM91.5828 24.8062C91.5419 25.135 91.7753 25.4348 92.1041 25.4757C92.4329 25.5167 92.7327 25.2833 92.7736 24.9544L92.1782 24.8803L91.5828 24.8062ZM92.9516 20.3352C92.9362 20.0042 92.6553 19.7484 92.3243 19.7639C91.9933 19.7793 91.7375 20.0602 91.7529 20.3912L92.3523 20.3632L92.9516 20.3352ZM91.1844 16.135C91.2571 16.4583 91.5782 16.6614 91.9015 16.5886C92.2247 16.5159 92.4278 16.1948 92.3551 15.8715L91.7697 16.0033L91.1844 16.135ZM90.9493 11.5812C90.8153 11.2781 90.461 11.141 90.1579 11.275C89.8548 11.409 89.7178 11.7633 89.8517 12.0664L90.4005 11.8238L90.9493 11.5812ZM87.7072 8.3904C87.9073 8.6545 88.2837 8.70636 88.5478 8.50622C88.8119 8.30608 88.8637 7.92974 88.6636 7.66563L88.1854 8.02802L87.7072 8.3904ZM85.4187 4.4533C85.15 4.25926 84.775 4.31972 84.5809 4.58834C84.3869 4.85696 84.4474 5.23202 84.716 5.42606L85.0673 4.93968L85.4187 4.4533ZM80.964 3.64977C81.2855 3.73021 81.6113 3.53482 81.6917 3.21336C81.7721 2.89189 81.5767 2.5661 81.2553 2.48566L81.1096 3.06772L80.964 3.64977ZM76.2138 2.40011C75.8897 2.46943 75.6832 2.78831 75.7525 3.11235C75.8219 3.43639 76.1407 3.64288 76.4648 3.57356L76.3393 2.98683L76.2138 2.40011ZM72.0072 5.65849C72.2722 5.45962 72.3259 5.08353 72.127 4.81847C71.9282 4.55341 71.5521 4.49974 71.287 4.69861L71.6471 5.17855L72.0072 5.65849ZM67.5767 8.60633C67.3876 8.87843 67.4549 9.25233 67.727 9.44145C67.9991 9.63056 68.373 9.56328 68.5621 9.29118L68.0694 8.94875L67.5767 8.60633ZM66.2301 13.7793C66.3468 13.4691 66.1898 13.1231 65.8797 13.0065C65.5695 12.8899 65.2235 13.0468 65.1069 13.357L65.6685 13.5681L66.2301 13.7793ZM64.8861 16.0576L65.0717 15.487C64.4553 15.2866 63.8412 15.0993 63.2302 14.9255L63.066 15.5026L62.9018 16.0797C63.4981 16.2493 64.098 16.4323 64.7006 16.6282L64.8861 16.0576ZM59.3675 14.6132L59.4821 14.0243C58.1799 13.771 56.9006 13.5874 55.654 13.4793L55.6022 14.077L55.5503 14.6748C56.7511 14.779 57.9884 14.9562 59.253 15.2022L59.3675 14.6132ZM51.8003 13.9974L51.7695 13.3982C51.1072 13.4323 50.4583 13.4926 49.8247 13.5804L49.907 14.1748L49.9894 14.7691C50.5868 14.6863 51.2012 14.629 51.8311 14.5966L51.8003 13.9974ZM49.907 14.1748L49.7915 13.586C49.0291 13.7356 48.2698 13.9182 47.5145 14.132L47.6779 14.7093L47.8414 15.2867C48.5662 15.0815 49.2935 14.9066 50.0225 14.7635L49.907 14.1748ZM43.3737 16.2805L43.1292 15.7325C42.425 16.0467 41.7258 16.3861 41.0324 16.7489L41.3106 17.2805L41.5888 17.8121C42.261 17.4604 42.9376 17.132 43.6182 16.8284L43.3737 16.2805ZM41.3106 17.2805L41.8416 17.0011C41.5293 16.4077 41.1949 15.8385 40.8407 15.296L40.3383 15.6241L39.8359 15.9522C40.1691 16.4623 40.4844 16.999 40.7797 17.56L41.3106 17.2805ZM37.9144 12.6544L38.3327 12.2242C37.3342 11.2534 36.249 10.4531 35.1033 9.85903L34.8272 10.3917L34.551 10.9243C35.581 11.4584 36.5721 12.1862 37.4962 13.0846L37.9144 12.6544ZM31.1695 9.30195L31.2201 8.70408C30.5424 8.64677 29.8576 8.66307 29.1709 8.75822L29.2533 9.35254L29.3356 9.94686C29.9328 9.86411 30.5284 9.84987 31.119 9.89981L31.1695 9.30195ZM29.2533 9.35254L29.1709 8.75822C28.11 8.90533 27.1056 9.23224 26.1704 9.71418L26.4453 10.2475L26.7201 10.7809C27.5394 10.3586 28.4141 10.0746 29.3357 9.94685L29.2533 9.35254ZM22.1919 14.2709L21.6875 13.9459C20.646 15.5625 19.851 17.4738 19.3467 19.5741L19.9301 19.7142L20.5135 19.8543C20.9901 17.8693 21.7363 16.0859 22.6962 14.5958L22.1919 14.2709ZM19.322 25.5891L18.7221 25.6021C18.7437 26.5928 18.8233 27.6021 18.9648 28.6226L19.5591 28.5403L20.1534 28.4579C20.0183 27.4832 19.9424 26.5202 19.9219 25.5761L19.322 25.5891ZM19.5591 28.5403L18.9648 28.6227C19.0524 29.2543 19.1616 29.8753 19.2911 30.4843L19.878 30.3594L20.4648 30.2346C20.3413 29.6538 20.2371 29.061 20.1534 28.4579L19.5591 28.5403ZM20.9122 33.9025L20.3507 34.1142C20.5768 34.714 20.8237 35.2964 21.0897 35.8594L21.6322 35.603L22.1747 35.3467C21.9227 34.8134 21.6885 34.2609 21.4736 33.6909L20.9122 33.9025ZM21.6322 35.603L21.1392 35.2611C20.7855 35.771 20.4389 36.2848 20.0997 36.8017L20.6013 37.1309L21.103 37.4601C21.4366 36.9517 21.7774 36.4464 22.1252 35.9449L21.6322 35.603ZM18.6591 40.2636L18.1411 39.9608C17.5102 41.0398 16.9124 42.1275 16.3501 43.2189L16.8835 43.4937L17.4169 43.7685C17.9692 42.6964 18.5568 41.6274 19.1771 40.5665L18.6591 40.2636ZM15.288 46.8163L14.7399 46.5722C14.4856 47.1433 14.2417 47.714 14.0085 48.2837L14.5638 48.511L15.1191 48.7383C15.3476 48.18 15.5867 47.6205 15.8361 47.0603L15.288 46.8163ZM14.5638 48.511L14.0877 48.1458L13.1086 49.4222L13.5847 49.7874L14.0608 50.1526L15.0399 48.8761L14.5638 48.511ZM11.6266 52.3403L11.1505 51.9751L10.1714 53.2515L10.6475 53.6167L11.1236 53.9819L12.1027 52.7054L11.6266 52.3403ZM10.6475 53.6167L10.2342 53.1817L9.01517 54.34L9.42845 54.775L9.84174 55.21L11.0608 54.0517L10.6475 53.6167ZM6.99032 57.0916L6.57703 56.6566L5.35796 57.8149L5.77125 58.2499L6.18453 58.6849L7.4036 57.5266L6.99032 57.0916ZM5.77125 58.2499L5.3578 57.8151C5.2947 57.8751 5.23778 57.9395 5.18739 58.0079L5.67027 58.364L6.15315 58.7201C6.1613 58.7091 6.1716 58.6971 6.1847 58.6847L5.77125 58.2499ZM5.5395 58.6376L4.95847 58.4879C4.93579 58.576 4.92214 58.6649 4.91704 58.7536L5.51604 58.7881L6.11505 58.8226C6.11575 58.8105 6.11758 58.7987 6.12053 58.7873L5.5395 58.6376ZM5.51604 58.7881L4.9869 58.5052C4.92565 58.6198 4.88044 58.7423 4.8525 58.8689L5.43842 58.9982L6.02434 59.1274C6.0287 59.1076 6.03576 59.0886 6.04519 59.0709L5.51604 58.7881ZM5.46463 59.441L4.89842 59.6395C4.9404 59.7593 4.99908 59.8748 5.07446 59.9831L5.56689 59.6403L6.05933 59.2975C6.04607 59.2785 6.03699 59.26 6.03085 59.2425L5.46463 59.441ZM5.56689 59.6403L5.07447 59.9831L5.81829 61.0516L6.31071 60.7088L6.80314 60.366L6.05932 59.2975L5.56689 59.6403ZM7.79835 62.8457L7.30593 63.1885L8.04975 64.257L8.54217 63.9142L9.0346 63.5714L8.29078 62.5029L7.79835 62.8457ZM8.54217 63.9142L8.06827 63.5462L7.67204 64.0564L8.14594 64.4244L8.61984 64.7924L9.01607 64.2822L8.54217 63.9142ZM7.35348 65.445L6.87958 65.077L6.48335 65.5872L6.95725 65.9552L7.43115 66.3232L7.82738 65.8129L7.35348 65.445ZM6.95725 65.9552L6.48299 65.5877C6.39735 65.6982 6.32984 65.819 6.28099 65.9456L6.84081 66.1615L7.40063 66.3774C7.40803 66.3582 7.41827 66.3398 7.4315 66.3228L6.95725 65.9552ZM6.8047 66.6289L6.21839 66.7564C6.24725 66.8891 6.29552 67.019 6.36335 67.1414L6.88818 66.8506L7.41301 66.5598C7.40261 66.5411 7.39535 66.5214 7.39101 66.5015L6.8047 66.6289ZM6.88818 66.8506L6.3634 67.1415L6.85789 68.0336L7.38267 67.7428L7.90746 67.4519L7.41297 66.5597L6.88818 66.8506ZM8.37166 69.5271L7.84687 69.818L8.34137 70.7101L8.86615 70.4193L9.39093 70.1284L8.89644 69.2362L8.37166 69.5271ZM8.86615 70.4193L8.4128 70.8123L9.18503 71.7031L9.63839 71.31L10.0917 70.917L9.3195 70.0263L8.86615 70.4193ZM11.1829 73.0916L10.7295 73.4846L11.5018 74.3754L11.9551 73.9823L12.4085 73.5893L11.6362 72.6985L11.1829 73.0916ZM11.9551 73.9823L11.5535 74.4281C11.5677 74.4409 11.7596 74.6136 12.1441 74.944L12.5352 74.489L12.9262 74.034C12.5489 73.7096 12.364 73.5431 12.3567 73.5366L11.9551 73.9823ZM13.7129 75.4823L13.3296 75.9439C13.5138 76.0968 13.7129 76.2612 13.9273 76.437L14.3077 75.9731L14.6882 75.5092C14.4757 75.3349 14.2785 75.172 14.0962 75.0207L13.7129 75.4823ZM14.3077 75.9731L13.9273 76.437C14.1855 76.6488 14.441 76.8418 14.6884 77.0168L15.0348 76.5269L15.3813 76.037C15.1555 75.8773 14.9229 75.7016 14.6882 75.5091L14.3077 75.9731ZM16.596 77.4758L16.3216 78.0093C16.8491 78.2807 17.193 78.4106 17.2153 78.419L17.4257 77.857L17.636 77.2951C17.6488 77.2999 17.3489 77.1883 16.8705 76.9422L16.596 77.4758ZM17.4257 77.857L17.286 78.4406C18.1131 78.6385 18.9033 78.8272 19.6576 79.0079L19.7974 78.4245L19.9372 77.841C19.1827 77.6602 18.3916 77.4712 17.5653 77.2735L17.4257 77.857ZM24.5336 79.5825L24.386 80.164C25.2501 80.3834 26.0308 80.5892 26.7282 80.7845L26.8899 80.2067L27.0517 79.6289C26.3418 79.4301 25.5512 79.2218 24.6813 79.0009L24.5336 79.5825ZM26.8899 80.2067L26.6185 80.7418C27.2694 81.0719 27.9319 81.3917 28.6046 81.7009L28.8552 81.1557L29.1057 80.6105C28.4467 80.3076 27.798 79.9945 27.1614 79.6716L26.8899 80.2067ZM32.8832 82.8353L32.6714 83.3967C34.0386 83.9122 35.432 84.386 36.8398 84.8158L37.015 84.2419L37.1902 83.6681C35.8063 83.2456 34.4373 82.7801 33.0949 82.2739L32.8832 82.8353ZM41.2275 85.3857L41.0883 85.9694C42.5268 86.3124 43.9684 86.6084 45.4011 86.8553L45.503 86.264L45.6049 85.6727C44.1976 85.4302 42.7808 85.1393 41.3666 84.8021L41.2275 85.3857ZM49.8268 86.8598L49.7657 87.4567C51.2619 87.6098 52.7347 87.7042 54.1691 87.7369L54.1827 87.137L54.1964 86.5372C52.7957 86.5053 51.3547 86.413 49.8879 86.2629L49.8268 86.8598ZM58.5452 87.0301L58.5908 87.6284C59.3433 87.571 60.0792 87.493 60.7957 87.3936L60.7133 86.7993L60.631 86.205C59.9403 86.3007 59.229 86.3762 58.4995 86.4319L58.5452 87.0301ZM60.7133 86.7993L60.7957 87.3936C61.6088 87.2809 62.4427 87.149 63.2934 86.9983L63.1888 86.4075L63.0841 85.8167C62.2475 85.9649 61.4285 86.0945 60.6309 86.205L60.7133 86.7993ZM68.0968 85.3722L68.2386 85.9552C69.8388 85.5659 71.47 85.1206 73.1105 84.6221L72.936 84.048L72.7616 83.4739C71.1425 83.966 69.533 84.4053 67.955 84.7892L68.0968 85.3722ZM77.694 82.4568L77.9002 83.0203C79.4811 82.4419 81.0515 81.8163 82.5918 81.1459L82.3524 80.5957L82.1129 80.0456C80.5957 80.7059 79.0475 81.3227 77.4878 81.8934L77.694 82.4568ZM86.8828 78.441L87.1595 78.9734C88.6865 78.1795 90.1597 77.3389 91.5561 76.454L91.235 75.9472L90.9139 75.4404C89.5491 76.3051 88.1059 77.1289 86.606 77.9086L86.8828 78.441ZM95.3197 73.0395L95.6964 73.5065C96.3708 72.9626 97.0145 72.4053 97.6231 71.8351L97.213 71.3972L96.8028 70.9593C96.2173 71.5078 95.5962 72.0457 94.9431 72.5725L95.3197 73.0395ZM97.213 71.3972L97.5605 71.8863C97.866 71.6692 98.1682 71.4514 98.4603 71.2368L98.105 70.7533L97.7497 70.2698C97.4636 70.48 97.1667 70.6941 96.8654 70.9081L97.213 71.3972ZM99.8396 69.4005L100.229 69.8568C100.58 69.5571 100.886 69.2696 101.093 69.0193L100.63 68.6375L100.167 68.2556C100.029 68.4232 99.7873 68.6562 99.45 68.9442L99.8396 69.4005ZM100.63 68.6375L101.093 69.0192C101.279 68.7935 101.453 68.578 101.614 68.3745L101.144 68.0017L100.674 67.6289C100.517 67.8267 100.348 68.0362 100.167 68.2558L100.63 68.6375ZM102.132 66.7003L102.618 67.0519C102.925 66.628 103.089 66.3778 103.101 66.3597L102.599 66.0307L102.098 65.7017C102.095 65.7059 101.941 65.941 101.646 66.3486L102.132 66.7003ZM102.599 66.0307L103.089 66.3781L103.548 65.7311L103.059 65.3838L102.569 65.0364L102.11 65.6834L102.599 66.0307ZM103.977 64.0899L104.467 64.4372L104.926 63.7903L104.437 63.443L103.947 63.0956L103.488 63.7426L103.977 64.0899ZM104.437 63.443L104.916 63.8038C104.941 63.7708 105.274 63.324 105.656 62.5903L105.124 62.3133L104.592 62.0362C104.248 62.6962 103.954 63.0864 103.957 63.0821L104.437 63.443ZM106.04 59.8377L106.625 59.9682C106.724 59.5255 106.796 59.0549 106.825 58.5641L106.226 58.5283L105.627 58.4925C105.602 58.9128 105.54 59.3197 105.454 59.7072L106.04 59.8377ZM106.226 58.5283L106.825 58.564C106.844 58.2407 106.79 57.9221 106.688 57.6179L106.119 57.8072L105.55 57.9965C105.613 58.1873 105.636 58.3515 105.627 58.4926L106.226 58.5283ZM105.389 56.5424L105.861 56.1715C105.703 55.971 105.531 55.7726 105.349 55.5774L104.911 55.987L104.472 56.3966C104.635 56.5708 104.784 56.7434 104.918 56.9134L105.389 56.5424ZM104.911 55.987L105.379 56.362L105.786 55.854L105.317 55.479L104.849 55.1039L104.442 55.6119L104.911 55.987ZM106.131 54.4629L106.599 54.8379L107.006 54.3299L106.538 53.9549L106.069 53.5798L105.663 54.0879L106.131 54.4629ZM106.538 53.9549L107.073 54.2254C107.077 54.2171 107.215 53.9453 107.395 53.5699L106.854 53.3104L106.313 53.0508C106.138 53.4163 106.004 53.6802 106.002 53.6844L106.538 53.9549ZM107.445 52.0011L108 52.2287C108.111 51.9591 108.213 51.685 108.267 51.4692L107.684 51.3249L107.102 51.1806C107.071 51.3055 106.998 51.5109 106.89 51.7734L107.445 52.0011ZM107.684 51.3249L108.267 51.4689C108.297 51.3449 108.321 51.2128 108.339 51.0814L107.744 50.999L107.15 50.9166C107.136 51.0204 107.119 51.1091 107.102 51.1809L107.684 51.3249ZM107.801 50.3384L108.401 50.3665C108.406 50.2468 108.41 50.1296 108.412 50.0191L107.812 50.007L107.212 49.995C107.21 50.0966 107.207 50.203 107.202 50.3104L107.801 50.3384ZM107.812 50.007L108.412 50.019C108.413 49.9787 108.412 49.9391 108.409 49.9003L107.811 49.9427L107.212 49.9852C107.212 49.9887 107.212 49.992 107.212 49.995L107.812 50.007ZM107.79 49.8158L108.373 49.6725C108.364 49.6358 108.354 49.6002 108.342 49.5658L107.773 49.754L107.203 49.9422C107.205 49.9483 107.206 49.9539 107.208 49.9591L107.79 49.8158ZM107.773 49.754L108.372 49.7232C108.367 49.6301 108.36 49.522 108.35 49.4064L107.752 49.4598L107.155 49.5132C107.163 49.6101 107.169 49.7027 107.173 49.7848L107.773 49.754ZM107.666 48.8765L108.251 48.7427C108.223 48.6208 108.186 48.4927 108.137 48.3706L107.581 48.5945L107.024 48.8184C107.043 48.865 107.062 48.9289 107.081 49.0103L107.666 48.8765ZM107.581 48.5945L108.137 48.3704C108.099 48.2755 108.058 48.1878 108.016 48.1069L107.484 48.3856L106.953 48.6643C106.977 48.7107 107.001 48.7621 107.024 48.8186L107.581 48.5945ZM107.228 48.0048L107.682 47.613C107.562 47.474 107.465 47.3947 107.431 47.3685L107.065 47.8433L106.698 48.3182C106.679 48.3039 106.715 48.3288 106.773 48.3967L107.228 48.0048ZM107.065 47.8433L107.427 47.3649L107.081 47.1037L106.719 47.5821L106.357 48.0606L106.703 48.3218L107.065 47.8433ZM106.029 47.0597L106.391 46.5812L106.046 46.32L105.684 46.7985L105.322 47.277L105.667 47.5382L106.029 47.0597ZM105.684 46.7985L105.957 46.2644C105.941 46.2562 105.586 46.0744 105.108 45.8307L104.835 46.3651L104.563 46.8995C105.039 47.1429 105.394 47.3246 105.41 47.3327L105.684 46.7985ZM103.138 45.5005L103.409 44.9654C103.01 44.7629 102.679 44.5962 102.548 44.5328L102.287 45.0731L102.026 45.6134C102.144 45.6704 102.462 45.8307 102.866 46.0356L103.138 45.5005ZM102.287 45.0731L102.55 44.534C102.589 44.553 102.589 44.56 102.518 44.5029C102.463 44.4588 102.389 44.3955 102.296 44.3128C102.111 44.1482 101.868 43.9226 101.587 43.656L101.174 44.091L100.761 44.526C101.045 44.7959 101.299 45.0322 101.499 45.21C101.599 45.2986 101.69 45.3765 101.766 45.4382C101.827 45.4869 101.925 45.5641 102.024 45.6123L102.287 45.0731ZM99.0456 42.0155L99.4678 41.5892C99.0864 41.2114 98.7241 40.8505 98.4161 40.5428L97.9921 40.9672L97.568 41.3917C97.8769 41.7003 98.2404 42.0625 98.6233 42.4418L99.0456 42.0155ZM97.9921 40.9672L98.5048 40.6557C97.9798 39.7914 97.4133 38.9362 96.8095 38.0921L96.3215 38.4411L95.8335 38.7902C96.4209 39.6113 96.9706 40.4414 97.4793 41.2787L97.9921 40.9672ZM92.488 33.7546L92.9288 33.3476C92.2422 32.6039 91.5291 31.8727 90.7925 31.1554L90.3739 31.5853L89.9553 32.0151C90.6773 32.7181 91.3755 33.4341 92.0471 34.1616L92.488 33.7546ZM90.3739 31.5853L90.9243 31.824C91.2353 31.1072 91.5148 30.3627 91.7601 29.5941L91.1885 29.4116L90.6169 29.2292C90.3836 29.9602 90.1182 30.6671 89.8235 31.3465L90.3739 31.5853ZM92.1782 24.8803L92.7736 24.9544C92.87 24.1795 92.9338 23.3897 92.9629 22.5877L92.3633 22.566L91.7637 22.5442C91.7359 23.3112 91.6749 24.066 91.5828 24.8062L92.1782 24.8803ZM92.3633 22.566L92.9629 22.5877C92.9905 21.8274 92.9862 21.0758 92.9516 20.3352L92.3523 20.3632L91.7529 20.3912C91.786 21.0986 91.7901 21.817 91.7637 22.5442L92.3633 22.566ZM91.7697 16.0033L92.3551 15.8715C92.0139 14.3557 91.5398 12.9169 90.9493 11.5812L90.4005 11.8238L89.8517 12.0664C90.4096 13.3282 90.8597 14.6925 91.1844 16.135L91.7697 16.0033ZM88.1854 8.02802L88.6636 7.66563C87.7093 6.40629 86.6193 5.32061 85.4187 4.4533L85.0673 4.93968L84.716 5.42606C85.8111 6.21709 86.8175 7.21636 87.7072 8.3904L88.1854 8.02802ZM81.1096 3.06772L81.2553 2.48566C80.5085 2.29882 79.7401 2.18797 78.9545 2.15944L78.9327 2.75904L78.911 3.35865C79.6118 3.3841 80.2973 3.48295 80.964 3.64977L81.1096 3.06772ZM78.9327 2.75904L78.9545 2.15944C78.0223 2.12566 77.1059 2.20925 76.2138 2.40011L76.3393 2.98683L76.4648 3.57356C77.2621 3.40299 78.0796 3.32852 78.911 3.35865L78.9327 2.75904ZM71.6471 5.17855L71.287 4.69861C69.9005 5.73883 68.6496 7.06263 67.5767 8.60633L68.0694 8.94875L68.5621 9.29118C69.5698 7.84131 70.7338 6.61387 72.0072 5.65849L71.6471 5.17855ZM65.6685 13.5681L65.1069 13.357C64.7984 14.1775 64.5299 15.0297 64.3049 15.9088L64.8861 16.0576L65.4674 16.2064C65.6818 15.3689 65.9372 14.5584 66.2301 13.7793L65.6685 13.5681Z" fill="#D4D3D8"/>
</svg>
