<svg width="149" height="93" viewBox="0 0 149 93" fill="none" xmlns="http://www.w3.org/2000/svg">
<path d="M8.07089 19.368C3.70364 20.0376 0.70609 24.1207 1.37567 28.488L7.19504 66.4439L5.61294 66.6864C4.7396 66.8205 4.14046 67.6376 4.27437 68.511L5.72918 77.9997C5.86308 78.8731 6.6795 79.4732 7.55288 79.3394L9.13497 79.0968L9.4986 81.4685C9.83339 83.6521 11.875 85.1509 14.0586 84.8161L33.4492 81.8432C36.0982 88.3976 42.9836 92.5216 50.275 91.4037C57.5663 90.2857 62.899 84.2884 63.4627 77.2415L97.5015 72.0227C100.151 78.577 107.035 82.7013 114.326 81.5834C121.618 80.4655 126.95 74.4681 127.514 67.4212L142.952 65.0543C145.136 64.7195 146.634 62.6779 146.299 60.4943L143.754 43.8886L146.126 43.5248C146.999 43.3908 147.599 42.5745 147.465 41.7012L142.737 10.8614C142.345 8.30925 140.289 6.42546 137.841 6.14548C136.617 2.54023 132.951 0.221557 129.057 0.818579L8.07089 19.368Z" fill="#EDEDED"/>
<path d="M1.37567 28.488L0.782597 28.5789L1.37567 28.488ZM7.19504 66.4439L7.78811 66.353L7.87904 66.946L7.28597 67.0369L7.19504 66.4439ZM5.61294 66.6864L5.52193 66.0934L5.52201 66.0934L5.61294 66.6864ZM7.55288 79.3394L7.6438 79.9324L7.64373 79.9325L7.55288 79.3394ZM9.13497 79.0968L9.04405 78.5037L9.63712 78.4128L9.72805 79.0059L9.13497 79.0968ZM33.4492 81.8432L33.3583 81.2501L33.8276 81.1781L34.0055 81.6183L33.4492 81.8432ZM50.275 91.4037L50.366 91.9967L50.366 91.9967L50.275 91.4037ZM63.4627 77.2415L62.8647 77.1937L62.9025 76.7204L63.3718 76.6484L63.4627 77.2415ZM97.5015 72.0227L97.4106 71.4297L97.8799 71.3577L98.0578 71.7979L97.5015 72.0227ZM127.514 67.4212L126.916 67.3734L126.954 66.9001L127.423 66.8281L127.514 67.4212ZM143.754 43.8886L143.16 43.9795L143.07 43.3864L143.663 43.2955L143.754 43.8886ZM146.126 43.5248L146.217 44.1178L146.217 44.1178L146.126 43.5248ZM147.465 41.7012L148.058 41.6103L148.058 41.6104L147.465 41.7012ZM137.841 6.14548L137.773 6.74159L137.395 6.69838L137.273 6.33835L137.841 6.14548ZM8.07089 19.368L7.97996 18.7749L9.57187 18.5309L9.6628 19.1239L9.75373 19.717L8.16181 19.9611L8.07089 19.368ZM12.8466 18.6358L12.7557 18.0427L15.9395 17.5546L16.0305 18.1476L16.1214 18.7407L12.9376 19.2289L12.8466 18.6358ZM19.2143 17.6595L19.1234 17.0664L22.3072 16.5783L22.3981 17.1714L22.4891 17.7644L19.3052 18.2526L19.2143 17.6595ZM25.582 16.6832L25.491 16.0901L28.6749 15.602L28.7658 16.1951L28.8567 16.7881L25.6729 17.2763L25.582 16.6832ZM31.9496 15.7069L31.8587 15.1139L35.0425 14.6257L35.1335 15.2188L35.2244 15.8119L32.0406 16.3L31.9496 15.7069ZM38.3173 14.7306L38.2264 14.1376L41.4102 13.6494L41.5011 14.2425L41.5921 14.8356L38.4082 15.3237L38.3173 14.7306ZM44.685 13.7544L44.594 13.1613L47.7779 12.6731L47.8688 13.2662L47.9597 13.8593L44.7759 14.3474L44.685 13.7544ZM51.0526 12.7781L50.9617 12.185L54.1456 11.6969L54.2365 12.2899L54.3274 12.883L51.1436 13.3711L51.0526 12.7781ZM57.4203 11.8018L57.3294 11.2087L60.5132 10.7206L60.6042 11.3136L60.6951 11.9067L57.5112 12.3949L57.4203 11.8018ZM63.788 10.8255L63.6971 10.2324L66.8809 9.74429L66.9718 10.3374L67.0627 10.9304L63.8789 11.4186L63.788 10.8255ZM70.1557 9.84922L70.0647 9.25615L73.2486 8.768L73.3395 9.36107L73.4304 9.95414L70.2466 10.4423L70.1557 9.84922ZM76.5233 8.87293L76.4324 8.27986L79.6162 7.79172L79.7072 8.38479L79.7981 8.97786L76.6143 9.466L76.5233 8.87293ZM82.891 7.89665L82.8001 7.30358L85.9839 6.81543L86.0748 7.4085L86.1658 8.00157L82.9819 8.48971L82.891 7.89665ZM89.2587 6.92036L89.1677 6.32729L92.3516 5.83915L92.4425 6.43222L92.5334 7.02529L89.3496 7.51343L89.2587 6.92036ZM95.6263 5.94407L95.5354 5.351L98.7192 4.86286L98.8102 5.45593L98.9011 6.049L95.7173 6.53714L95.6263 5.94407ZM101.994 4.96779L101.903 4.37472L105.087 3.88658L105.178 4.47965L105.269 5.07272L102.085 5.56086L101.994 4.96779ZM108.362 3.9915L108.271 3.39843L111.455 2.91029L111.546 3.50336L111.636 4.09643L108.453 4.58457L108.362 3.9915ZM114.729 3.01522L114.638 2.42215L117.822 1.934L117.913 2.52707L118.004 3.12014L114.82 3.60829L114.729 3.01522ZM121.097 2.03893L121.006 1.44586L124.19 0.957718L124.281 1.55079L124.372 2.14386L121.188 2.632L121.097 2.03893ZM127.465 1.06265L127.374 0.469575L128.966 0.225509L129.057 0.818579L129.147 1.41165L127.556 1.65572L127.465 1.06265ZM129.057 0.818579L128.966 0.225509C129.468 0.148498 129.967 0.116609 130.459 0.126965L130.447 0.726832L130.434 1.3267C130.011 1.3178 129.581 1.34519 129.147 1.41165L129.057 0.818579ZM133.168 1.2687L133.386 0.709704C134.322 1.07461 135.184 1.60014 135.935 2.2575L135.54 2.70894L135.145 3.16039C134.498 2.59415 133.755 2.14168 132.95 1.8277L133.168 1.2687ZM137.28 4.87085L137.806 4.58175C138.044 5.01541 138.247 5.47348 138.409 5.9526L137.841 6.14548L137.273 6.33835C137.133 5.92637 136.959 5.53264 136.754 5.15995L137.28 4.87085ZM137.841 6.14548L137.909 5.54936C138.59 5.6272 139.243 5.81689 139.846 6.10179L139.589 6.64428L139.333 7.18677C138.847 6.95693 138.321 6.80423 137.773 6.74159L137.841 6.14548ZM142.174 9.13242L142.707 8.85638C143.01 9.44153 143.224 10.0848 143.33 10.7705L142.737 10.8614L142.143 10.9523C142.058 10.3975 141.886 9.8791 141.642 9.40847L142.174 9.13242ZM142.737 10.8614L143.33 10.7705L143.566 12.3125L142.973 12.4034L142.38 12.4943L142.143 10.9523L142.737 10.8614ZM143.446 15.4874L144.039 15.3964L144.512 18.4804L143.919 18.5714L143.326 18.6623L142.853 15.5783L143.446 15.4874ZM144.391 21.6553L144.985 21.5644L145.457 24.6484L144.864 24.7393L144.271 24.8302L143.798 21.7463L144.391 21.6553ZM145.337 27.8233L145.93 27.7324L146.403 30.8164L145.81 30.9073L145.217 30.9982L144.744 27.9142L145.337 27.8233ZM146.283 33.9913L146.876 33.9003L147.349 36.9843L146.756 37.0753L146.163 37.1662L145.69 34.0822L146.283 33.9913ZM147.228 40.1592L147.822 40.0683L148.058 41.6103L147.465 41.7012L146.872 41.7922L146.635 40.2502L147.228 40.1592ZM147.465 41.7012L148.058 41.6104C148.103 41.9041 148.087 42.1946 148.02 42.4681L147.438 42.3248L146.855 42.1816C146.885 42.0586 146.892 41.9271 146.872 41.792L147.465 41.7012ZM146.713 43.312L147.024 43.825C146.783 43.971 146.511 44.0728 146.217 44.1178L146.126 43.5248L146.035 42.9317C146.17 42.911 146.293 42.8647 146.402 42.799L146.713 43.312ZM146.126 43.5248L146.217 44.1178L145.624 44.2088L145.533 43.6157L145.442 43.0227L146.035 42.9317L146.126 43.5248ZM144.347 43.7976L144.438 44.3907L143.844 44.4816L143.754 43.8886L143.663 43.2955L144.256 43.2045L144.347 43.7976ZM143.754 43.8886L144.347 43.7976L144.559 45.1814L143.966 45.2724L143.373 45.3633L143.16 43.9795L143.754 43.8886ZM144.39 48.04L144.983 47.9491L145.407 50.7167L144.814 50.8076L144.221 50.8986L143.797 48.1309L144.39 48.04ZM145.239 53.5753L145.832 53.4843L146.256 56.2519L145.663 56.3429L145.07 56.4338L144.646 53.6662L145.239 53.5753ZM146.087 59.1105L146.68 59.0196L146.893 60.4034L146.299 60.4943L145.706 60.5852L145.494 59.2014L146.087 59.1105ZM146.299 60.4943L146.893 60.4034C146.987 61.0188 146.955 61.6259 146.814 62.197L146.232 62.0538L145.649 61.9106C145.752 61.49 145.776 61.042 145.706 60.5852L146.299 60.4943ZM144.419 64.5223L144.731 65.0353C144.228 65.3402 143.658 65.553 143.043 65.6474L142.952 65.0543L142.861 64.4612C143.318 64.3912 143.738 64.2339 144.108 64.0092L144.419 64.5223ZM142.952 65.0543L143.043 65.6474L141.113 65.9432L141.022 65.3502L140.931 64.7571L142.861 64.4612L142.952 65.0543ZM137.163 65.9419L137.254 66.535L133.394 67.1267L133.303 66.5336L133.212 65.9406L137.072 65.3488L137.163 65.9419ZM129.444 67.1254L129.535 67.7184L127.605 68.0143L127.514 67.4212L127.423 66.8281L129.353 66.5323L129.444 67.1254ZM127.514 67.4212L128.112 67.4691C128.064 68.0738 127.982 68.6711 127.867 69.2588L127.278 69.1441L126.689 69.0295C126.795 68.4858 126.871 67.933 126.916 67.3734L127.514 67.4212ZM126.238 72.4562L126.787 72.6987C126.299 73.8036 125.69 74.8486 124.973 75.8143L124.491 75.4569L124.01 75.0995C124.673 74.2048 125.237 73.2369 125.689 72.2137L126.238 72.4562ZM122.127 77.9995L122.519 78.4543C121.612 79.2343 120.615 79.9181 119.54 80.4866L119.26 79.9563L118.979 79.4259C119.973 78.8998 120.897 78.267 121.736 77.5447L122.127 77.9995ZM116.029 81.2257L116.184 81.8051C115.609 81.9597 115.019 82.0841 114.417 82.1764L114.326 81.5834L114.235 80.9903C114.794 80.9047 115.34 80.7894 115.873 80.6462L116.029 81.2257ZM114.326 81.5834L114.417 82.1764C113.815 82.2688 113.216 82.3267 112.62 82.3516L112.595 81.7521L112.57 81.1526C113.121 81.1295 113.677 81.0759 114.235 80.9903L114.326 81.5834ZM109.132 81.509L109.023 82.099C107.828 81.8786 106.671 81.5251 105.573 81.0524L105.81 80.5013L106.047 79.9501C107.064 80.3878 108.135 80.7149 109.241 80.9189L109.132 81.509ZM102.793 78.7837L102.44 79.2691C101.467 78.5623 100.573 77.7479 99.7763 76.84L100.227 76.4442L100.678 76.0484C101.416 76.8892 102.244 77.6435 103.145 78.2983L102.793 78.7837ZM98.2427 73.5959L97.7151 73.8817C97.43 73.3553 97.1726 72.81 96.9452 72.2476L97.5015 72.0227L98.0578 71.7979C98.2682 72.3184 98.5064 72.823 98.7702 73.3101L98.2427 73.5959ZM97.5015 72.0227L97.5925 72.6158L95.8905 72.8767L95.7996 72.2837L95.7087 71.6906L97.4106 71.4297L97.5015 72.0227ZM92.3957 72.8055L92.4866 73.3986L89.0828 73.9205L88.9918 73.3274L88.9009 72.7344L92.3048 72.2125L92.3957 72.8055ZM85.588 73.8493L85.6789 74.4424L82.275 74.9642L82.1841 74.3712L82.0931 73.7781L85.497 73.2562L85.588 73.8493ZM78.7802 74.8931L78.8711 75.4861L75.4672 76.008L75.3763 75.4149L75.2854 74.8219L78.6893 74.3L78.7802 74.8931ZM71.9724 75.9368L72.0634 76.5299L68.6595 77.0518L68.5686 76.4587L68.4776 75.8656L71.8815 75.3437L71.9724 75.9368ZM65.1647 76.9806L65.2556 77.5736L63.5537 77.8346L63.4627 77.2415L63.3718 76.6484L65.0738 76.3875L65.1647 76.9806ZM63.4627 77.2415L64.0608 77.2894C64.0125 77.8941 63.9303 78.4914 63.8159 79.0791L63.227 78.9644L62.638 78.8498C62.7438 78.306 62.8199 77.7533 62.8647 77.1937L63.4627 77.2415ZM62.1868 82.2765L62.7356 82.519C62.2474 83.6239 61.6382 84.6688 60.922 85.6345L60.4401 85.2771L59.9581 84.9197C60.6216 84.0251 61.1859 83.0572 61.638 82.034L62.1868 82.2765ZM58.076 87.8198L58.4673 88.2746C57.5609 89.0546 56.5635 89.7383 55.4888 90.3069L55.2082 89.7765L54.9277 89.2462C55.9221 88.7201 56.8453 88.0873 57.6846 87.365L58.076 87.8198ZM51.9772 91.046L52.1329 91.6254C51.5576 91.78 50.9681 91.9044 50.366 91.9967L50.275 91.4037L50.1841 90.8106C50.7425 90.725 51.2888 90.6096 51.8216 90.4665L51.9772 91.046ZM50.275 91.4037L50.366 91.9967C49.7638 92.0891 49.1641 92.147 48.5689 92.1719L48.5438 91.5724L48.5187 90.9729C49.0699 90.9499 49.6257 90.8962 50.1841 90.8106L50.275 91.4037ZM45.0807 91.3293L44.9719 91.9194C43.7762 91.6989 42.6197 91.3455 41.5212 90.8728L41.7584 90.3217L41.9955 89.7705C43.0127 90.2081 44.0831 90.5353 45.1895 90.7393L45.0807 91.3293ZM38.7408 88.6042L38.3881 89.0896C37.4155 88.3828 36.5211 87.5684 35.7242 86.6605L36.1752 86.2647L36.6261 85.8689C37.364 86.7097 38.1925 87.464 39.0935 88.1188L38.7408 88.6042ZM34.1904 83.4164L33.6628 83.7022C33.3776 83.1758 33.1203 82.6305 32.8929 82.068L33.4492 81.8432L34.0055 81.6183C34.2159 82.1389 34.454 82.6435 34.7179 83.1306L34.1904 83.4164ZM33.4492 81.8432L33.5401 82.4362L31.9242 82.684L31.8333 82.0909L31.7424 81.4978L33.3583 81.2501L33.4492 81.8432ZM28.6015 82.5864L28.6925 83.1795L25.4607 83.675L25.3698 83.0819L25.2789 82.4888L28.5106 81.9933L28.6015 82.5864ZM22.138 83.5774L22.2289 84.1705L18.9972 84.6659L18.9062 84.0729L18.8153 83.4798L22.0471 82.9843L22.138 83.5774ZM15.6745 84.5684L15.7654 85.1614L14.1495 85.4092L14.0586 84.8161L13.9677 84.2231L15.5835 83.9753L15.6745 84.5684ZM14.0586 84.8161L14.1495 85.4092C13.5341 85.5035 12.927 85.4711 12.3559 85.3308L12.4991 84.7481L12.6423 84.1655C13.0629 84.2688 13.5109 84.2931 13.9677 84.2231L14.0586 84.8161ZM10.0307 82.936L9.51765 83.2472C9.21268 82.7444 8.99988 82.1749 8.90553 81.5594L9.4986 81.4685L10.0917 81.3776C10.1617 81.8344 10.3191 82.2545 10.5437 82.6248L10.0307 82.936ZM9.4986 81.4685L8.90553 81.5594L8.81462 80.9665L9.40769 80.8756L10.0008 80.7847L10.0917 81.3776L9.4986 81.4685ZM9.22588 79.6897L8.6328 79.7807L8.5419 79.1877L9.13497 79.0968L9.72805 79.0059L9.81896 79.5988L9.22588 79.6897ZM9.13497 79.0968L9.2259 79.6899L8.83038 79.7505L8.73945 79.1575L8.64852 78.5644L9.04405 78.5037L9.13497 79.0968ZM7.9484 79.2787L8.03933 79.8718L7.6438 79.9324L7.55288 79.3394L7.46195 78.7463L7.85747 78.6857L7.9484 79.2787ZM7.55288 79.3394L7.64373 79.9325C7.34989 79.9775 7.05927 79.962 6.78566 79.8946L6.92908 79.312L7.07252 78.7294C7.19555 78.7597 7.32697 78.767 7.46202 78.7463L7.55288 79.3394ZM5.94195 78.5867L5.42887 78.8978C5.28285 78.6569 5.18113 78.3843 5.1361 78.0906L5.72918 77.9997L6.32225 77.9088C6.34297 78.0439 6.38928 78.1672 6.45503 78.2757L5.94195 78.5867ZM5.72918 77.9997L5.1361 78.0906L4.7724 75.7184L5.36547 75.6275L5.95855 75.5366L6.32225 77.9088L5.72918 77.9997ZM4.63807 70.8831L4.045 70.9741L3.6813 68.6019L4.27437 68.511L4.86745 68.42L5.23115 70.7922L4.63807 70.8831ZM4.27437 68.511L3.6813 68.6019C3.63626 68.3082 3.65165 68.0177 3.7188 67.7441L4.3015 67.8872L4.8842 68.0302C4.85396 68.1534 4.84673 68.2849 4.86745 68.42L4.27437 68.511ZM5.026 66.8994L4.71462 66.3866C4.95548 66.2403 5.2281 66.1385 5.52193 66.0934L5.61294 66.6864L5.70394 67.2795C5.5689 67.3002 5.44569 67.3466 5.33739 67.4123L5.026 66.8994ZM5.61294 66.6864L5.52201 66.0934L5.91753 66.0327L6.00846 66.6258L6.09939 67.2189L5.70387 67.2795L5.61294 66.6864ZM6.79951 66.5045L6.70858 65.9115L7.10411 65.8508L7.19504 66.4439L7.28597 67.0369L6.89044 67.0976L6.79951 66.5045ZM7.19504 66.4439L6.60196 66.5348L6.35949 64.9533L6.95256 64.8624L7.54564 64.7715L7.78811 66.353L7.19504 66.4439ZM6.46762 61.6994L5.87454 61.7903L5.38959 58.6273L5.98267 58.5364L6.57575 58.4455L7.06069 61.6085L6.46762 61.6994ZM5.49772 55.3734L4.90465 55.4643L4.4197 52.3014L5.01278 52.2104L5.60585 52.1195L6.0908 55.2825L5.49772 55.3734ZM4.52783 49.0474L3.93475 49.1384L3.44981 45.9754L4.04288 45.8844L4.63596 45.7935L5.1209 48.9565L4.52783 49.0474ZM3.55793 42.7214L2.96486 42.8124L2.47991 39.6494L3.07299 39.5585L3.66606 39.4675L4.15101 42.6305L3.55793 42.7214ZM2.58804 36.3955L1.99496 36.4864L1.51002 33.3234L2.10309 33.2325L2.69617 33.1415L3.18112 36.3045L2.58804 36.3955ZM1.61815 30.0695L1.02507 30.1604L0.782597 28.5789L1.37567 28.488L1.96875 28.3971L2.21122 29.9786L1.61815 30.0695ZM1.37567 28.488L0.782597 28.5789C0.69567 28.012 0.666239 27.4489 0.690129 26.8958L1.28957 26.9216L1.88901 26.9475C1.86848 27.423 1.89374 27.9078 1.96875 28.3971L1.37567 28.488ZM2.03396 23.8902L1.49055 23.6358C1.96892 22.6139 2.64439 21.6938 3.47601 20.9313L3.8815 21.3735L4.28701 21.8158C3.571 22.4723 2.98923 23.2648 2.57737 24.1446L2.03396 23.8902ZM6.5507 19.7551L6.34641 19.191C6.86696 19.0025 7.41299 18.8619 7.97996 18.7749L8.07089 19.368L8.16181 19.9611C7.67255 20.0361 7.20244 20.1572 6.755 20.3193L6.5507 19.7551Z" fill="#D4D3D8"/>
</svg>
