<svg width="25" height="25" viewBox="0 0 25 25" fill="none" xmlns="http://www.w3.org/2000/svg">
<g filter="url(#filter0_iii_663_4146)">
<path d="M20.6338 0.714661H3.06C1.37001 0.714661 0 2.08467 0 3.77466V21.3484C0 23.0384 1.37001 24.4084 3.06 24.4084H20.6338C22.3237 24.4084 23.6938 23.0384 23.6938 21.3484V3.77466C23.6938 2.08467 22.3237 0.714661 20.6338 0.714661Z" fill="url(#paint0_linear_663_4146)"/>
<path d="M20.6338 0.714661H3.06C1.37001 0.714661 0 2.08467 0 3.77466V21.3484C0 23.0384 1.37001 24.4084 3.06 24.4084H20.6338C22.3237 24.4084 23.6938 23.0384 23.6938 21.3484V3.77466C23.6938 2.08467 22.3237 0.714661 20.6338 0.714661Z" fill="url(#paint1_radial_663_4146)"/>
</g>
<g filter="url(#filter1_f_663_4146)">
<path d="M22.2588 2.83929V22.283" stroke="url(#paint2_linear_663_4146)" stroke-width="1.275" stroke-linecap="round"/>
</g>
<g filter="url(#filter2_f_663_4146)">
<path d="M2.94531 2.83929H21.46" stroke="url(#paint3_linear_663_4146)" stroke-width="1.275" stroke-linecap="round"/>
</g>
<g filter="url(#filter3_f_663_4146)">
<path d="M17.0608 6.05309C17.2333 5.88715 17.4639 5.79548 17.7032 5.79777C17.9425 5.80007 18.1713 5.89615 18.3406 6.06536C18.5098 6.23458 18.6059 6.46342 18.6081 6.70272C18.6104 6.94201 18.5188 7.17266 18.3528 7.34509L13.1372 12.5607L18.3528 17.7763C18.5188 17.9487 18.6104 18.1794 18.6081 18.4187C18.6059 18.658 18.5098 18.8868 18.3406 19.056C18.1713 19.2252 17.9425 19.3213 17.7032 19.3236C17.4639 19.3259 17.2333 19.2342 17.0608 19.0683L11.8444 13.8527L6.62878 19.0683C6.45635 19.2342 6.22571 19.3259 5.98641 19.3236C5.74711 19.3213 5.51827 19.2252 5.34905 19.056C5.17984 18.8868 5.08376 18.658 5.08146 18.4187C5.07917 18.1794 5.17084 17.9487 5.33678 17.7763L10.5524 12.5607L5.33678 7.34509C5.24926 7.26086 5.17941 7.16003 5.13131 7.04848C5.08322 6.93694 5.05785 6.81693 5.05668 6.69546C5.05552 6.574 5.07858 6.45352 5.12453 6.34107C5.17047 6.22863 5.23838 6.12647 5.32427 6.04058C5.41016 5.95469 5.51232 5.88678 5.62477 5.84084C5.73721 5.79489 5.85769 5.77183 5.97915 5.77299C6.10062 5.77416 6.22063 5.79953 6.33217 5.84762C6.44372 5.89572 6.54455 5.96557 6.62878 6.05309L11.8444 11.2687L17.0608 6.05309Z" fill="#1CB95B"/>
</g>
<g filter="url(#filter4_ii_663_4146)">
<path d="M17.0608 6.05309C17.2333 5.88715 17.4639 5.79548 17.7032 5.79777C17.9425 5.80007 18.1713 5.89615 18.3406 6.06536C18.5098 6.23458 18.6059 6.46342 18.6081 6.70272C18.6104 6.94201 18.5188 7.17266 18.3528 7.34509L13.1967 12.5003C13.1888 12.5082 13.1824 12.5176 13.1781 12.528C13.1738 12.5384 13.1716 12.5495 13.1716 12.5607C13.1716 12.5719 13.1738 12.583 13.1781 12.5934C13.1824 12.6037 13.1888 12.6131 13.1967 12.621L18.3528 17.7763C18.5188 17.9487 18.6104 18.1794 18.6081 18.4187C18.6059 18.658 18.5098 18.8868 18.3406 19.056C18.1713 19.2252 17.9425 19.3213 17.7032 19.3236C17.4639 19.3259 17.2333 19.2342 17.0608 19.0683L11.9047 13.913C11.8888 13.8972 11.8673 13.8883 11.8448 13.8883C11.8224 13.8883 11.8008 13.8972 11.7849 13.913L6.62878 19.0683C6.45635 19.2342 6.22571 19.3259 5.98641 19.3236C5.74711 19.3213 5.51827 19.2252 5.34905 19.056C5.17984 18.8868 5.08376 18.658 5.08146 18.4187C5.07917 18.1794 5.17084 17.9487 5.33678 17.7763L10.492 12.621C10.5 12.6131 10.5063 12.6037 10.5106 12.5934C10.515 12.583 10.5172 12.5719 10.5172 12.5607C10.5172 12.5495 10.515 12.5384 10.5106 12.528C10.5063 12.5176 10.5 12.5082 10.492 12.5003L5.33678 7.34509C5.24926 7.26086 5.17941 7.16003 5.13131 7.04848C5.08322 6.93694 5.05785 6.81693 5.05668 6.69546C5.05552 6.574 5.07858 6.45352 5.12453 6.34107C5.17047 6.22863 5.23838 6.12647 5.32427 6.04058C5.41016 5.95469 5.51232 5.88678 5.62477 5.84084C5.73721 5.79489 5.85769 5.77183 5.97915 5.77299C6.10062 5.77416 6.22063 5.79953 6.33217 5.84762C6.44372 5.89572 6.54455 5.96557 6.62878 6.05309L11.7849 11.2083C11.8008 11.2242 11.8224 11.2331 11.8448 11.2331C11.8673 11.2331 11.8888 11.2242 11.9047 11.2083L17.0608 6.05309Z" fill="#FCF2FF"/>
</g>
<defs>
<filter id="filter0_iii_663_4146" x="-0.425" y="-0.135339" width="25.8184" height="24.9688" filterUnits="userSpaceOnUse" color-interpolation-filters="sRGB">
<feFlood flood-opacity="0" result="BackgroundImageFix"/>
<feBlend mode="normal" in="SourceGraphic" in2="BackgroundImageFix" result="shape"/>
<feColorMatrix in="SourceAlpha" type="matrix" values="0 0 0 0 0 0 0 0 0 0 0 0 0 0 0 0 0 0 127 0" result="hardAlpha"/>
<feOffset dx="1.7" dy="-0.85"/>
<feGaussianBlur stdDeviation="1.275"/>
<feComposite in2="hardAlpha" operator="arithmetic" k2="-1" k3="1"/>
<feColorMatrix type="matrix" values="0 0 0 0 0.176471 0 0 0 0 0.521569 0 0 0 0 0.309804 0 0 0 1 0"/>
<feBlend mode="normal" in2="shape" result="effect1_innerShadow_663_4146"/>
<feColorMatrix in="SourceAlpha" type="matrix" values="0 0 0 0 0 0 0 0 0 0 0 0 0 0 0 0 0 0 127 0" result="hardAlpha"/>
<feOffset dy="-0.85"/>
<feGaussianBlur stdDeviation="1.275"/>
<feComposite in2="hardAlpha" operator="arithmetic" k2="-1" k3="1"/>
<feColorMatrix type="matrix" values="0 0 0 0 0.25098 0 0 0 0 0.490196 0 0 0 0 0.462745 0 0 0 1 0"/>
<feBlend mode="normal" in2="effect1_innerShadow_663_4146" result="effect2_innerShadow_663_4146"/>
<feColorMatrix in="SourceAlpha" type="matrix" values="0 0 0 0 0 0 0 0 0 0 0 0 0 0 0 0 0 0 127 0" result="hardAlpha"/>
<feOffset dx="-0.425" dy="0.425"/>
<feGaussianBlur stdDeviation="0.425"/>
<feComposite in2="hardAlpha" operator="arithmetic" k2="-1" k3="1"/>
<feColorMatrix type="matrix" values="0 0 0 0 0.356863 0 0 0 0 0.905882 0 0 0 0 0.560784 0 0 0 1 0"/>
<feBlend mode="normal" in2="effect2_innerShadow_663_4146" result="effect3_innerShadow_663_4146"/>
</filter>
<filter id="filter1_f_663_4146" x="19.9211" y="0.501782" width="4.67539" height="24.1188" filterUnits="userSpaceOnUse" color-interpolation-filters="sRGB">
<feFlood flood-opacity="0" result="BackgroundImageFix"/>
<feBlend mode="normal" in="SourceGraphic" in2="BackgroundImageFix" result="shape"/>
<feGaussianBlur stdDeviation="0.85" result="effect1_foregroundBlur_663_4146"/>
</filter>
<filter id="filter2_f_663_4146" x="0.607617" y="0.501782" width="23.19" height="4.67502" filterUnits="userSpaceOnUse" color-interpolation-filters="sRGB">
<feFlood flood-opacity="0" result="BackgroundImageFix"/>
<feBlend mode="normal" in="SourceGraphic" in2="BackgroundImageFix" result="shape"/>
<feGaussianBlur stdDeviation="0.85" result="effect1_foregroundBlur_663_4146"/>
</filter>
<filter id="filter3_f_663_4146" x="4.20664" y="4.92295" width="15.2518" height="15.2507" filterUnits="userSpaceOnUse" color-interpolation-filters="sRGB">
<feFlood flood-opacity="0" result="BackgroundImageFix"/>
<feBlend mode="normal" in="SourceGraphic" in2="BackgroundImageFix" result="shape"/>
<feGaussianBlur stdDeviation="0.425" result="effect1_foregroundBlur_663_4146"/>
</filter>
<filter id="filter4_ii_663_4146" x="4.71664" y="5.43295" width="14.2318" height="14.2307" filterUnits="userSpaceOnUse" color-interpolation-filters="sRGB">
<feFlood flood-opacity="0" result="BackgroundImageFix"/>
<feBlend mode="normal" in="SourceGraphic" in2="BackgroundImageFix" result="shape"/>
<feColorMatrix in="SourceAlpha" type="matrix" values="0 0 0 0 0 0 0 0 0 0 0 0 0 0 0 0 0 0 127 0" result="hardAlpha"/>
<feOffset dx="-0.34" dy="0.34"/>
<feGaussianBlur stdDeviation="0.31875"/>
<feComposite in2="hardAlpha" operator="arithmetic" k2="-1" k3="1"/>
<feColorMatrix type="matrix" values="0 0 0 0 0.913725 0 0 0 0 0.886275 0 0 0 0 0.968627 0 0 0 1 0"/>
<feBlend mode="normal" in2="shape" result="effect1_innerShadow_663_4146"/>
<feColorMatrix in="SourceAlpha" type="matrix" values="0 0 0 0 0 0 0 0 0 0 0 0 0 0 0 0 0 0 127 0" result="hardAlpha"/>
<feOffset dx="0.34" dy="-0.34"/>
<feGaussianBlur stdDeviation="0.17"/>
<feComposite in2="hardAlpha" operator="arithmetic" k2="-1" k3="1"/>
<feColorMatrix type="matrix" values="0 0 0 0 1 0 0 0 0 0.988235 0 0 0 0 1 0 0 0 1 0"/>
<feBlend mode="normal" in2="effect1_innerShadow_663_4146" result="effect2_innerShadow_663_4146"/>
</filter>
<linearGradient id="paint0_linear_663_4146" x1="11.8473" y1="3.75256" x2="11.8473" y2="32.0176" gradientUnits="userSpaceOnUse">
<stop stop-color="#18CB58"/>
<stop offset="1" stop-color="#00B140"/>
</linearGradient>
<radialGradient id="paint1_radial_663_4146" cx="0" cy="0" r="1" gradientUnits="userSpaceOnUse" gradientTransform="translate(21.8085 2.49371) rotate(136.771) scale(1.82278 2.12896)">
<stop stop-color="#80FFB3"/>
<stop offset="1" stop-color="#80FFB3" stop-opacity="0"/>
</radialGradient>
<linearGradient id="paint2_linear_663_4146" x1="nan" y1="nan" x2="nan" y2="nan" gradientUnits="userSpaceOnUse">
<stop stop-color="#74FCA8"/>
<stop offset="1" stop-color="#61DB90"/>
</linearGradient>
<linearGradient id="paint3_linear_663_4146" x1="nan" y1="nan" x2="nan" y2="nan" gradientUnits="userSpaceOnUse">
<stop stop-color="#66F39D"/>
<stop offset="1" stop-color="#60E496"/>
</linearGradient>
</defs>
</svg>
