<svg width="20" height="20" viewBox="0 0 20 20" fill="none" xmlns="http://www.w3.org/2000/svg">
<circle cx="10" cy="10" r="10" fill="#F44336"/>
<path fill-rule="evenodd" clip-rule="evenodd" d="M6.11338 6.11338C6.26455 5.96221 6.50964 5.96221 6.66082 6.11338L10 9.45256L13.3392 6.11338C13.4904 5.96221 13.7355 5.96221 13.8866 6.11338C14.0378 6.26455 14.0378 6.50964 13.8866 6.66082L10.5474 10L11.959 11.4115L13.8866 13.3392C14.0378 13.4904 14.0378 13.7355 13.8866 13.8866C13.7355 14.0378 13.4904 14.0378 13.3392 13.8866L10 10.5474L6.66082 13.8866C6.50964 14.0378 6.26455 14.0378 6.11338 13.8866C5.96221 13.7355 5.96221 13.4904 6.11338 13.3392L9.45256 10L6.11338 6.66082C5.96221 6.50964 5.96221 6.26455 6.11338 6.11338Z" fill="white" stroke="white" stroke-width="1.03226" stroke-linecap="round"/>
</svg>
