<svg width="133" height="118" viewBox="0 0 133 118" fill="none" xmlns="http://www.w3.org/2000/svg">
<path d="M73.172 22.389C75.3843 14.2297 81.1048 8.39782 87.8726 8.32752C96.656 8.23694 106.127 18.6282 106.252 30.6208C106.282 33.6043 105.731 36.4051 104.751 38.9319C108.357 42.109 111.514 45.576 113.966 49.2173C115.631 50.7322 118.644 53.4514 119.009 53.6076C119.515 53.8238 122.877 55.3499 122.915 55.3672L124.521 56.4683C124.533 56.4769 124.883 56.7232 125.141 57.2861C125.306 57.646 125.381 58.2065 125.417 58.5731C125.452 58.6617 125.473 58.7581 125.476 58.8593C125.489 59.3459 125.482 59.9393 125.401 60.3473C125.241 61.1496 124.266 63.3307 124.252 63.3618L122.529 65.7319C123.488 66.6663 124.151 67.6346 124.14 68.5167C124.1 71.6195 122.405 74.1079 122.388 74.1333L120.46 77.138C120.45 77.1543 119.727 78.3738 118.382 80.1698C117.839 80.8944 116.317 82.175 114.688 83.4506C105.363 93.0399 87.5311 100.235 74.4856 102.668C63.5932 104.699 48.1638 102.449 36.1258 97.0292C33.5181 96.429 29.9297 95.7543 25.3798 94.8875C25.3467 94.8769 23.6393 94.3204 21.7785 92.9344C19.9202 91.55 19.0489 90.8366 19.0297 90.8208L15.372 86.9795L12.9633 83.0741C12.7706 82.7618 12.7831 82.3642 12.9942 82.0641L14.6673 79.6881L11.1006 75.0437C10.8769 74.7522 10.8595 74.3845 11.0009 74.0884C11.0033 73.873 11.0825 73.6533 11.2582 73.4701L16.495 68.0085L20.6251 62.0696C22.3603 57.1938 24.775 52.2105 27.7182 47.471C26.6813 45.3465 25.8841 42.9653 25.4069 40.4062C23.3944 29.6127 27.8208 19.7331 35.2932 18.3395C40.3562 17.3953 46.4515 19.7784 50.4824 24.7704C53.0988 23.3771 55.794 22.3089 58.5372 21.6367C62.8181 20.8385 67.8571 21.1645 73.172 22.389Z" fill="white"/>
<path d="M73.172 22.389L73.0598 22.8763L73.5287 22.9843L73.6546 22.5199L73.172 22.389ZM87.8726 8.32752L87.8675 7.82754L87.8674 7.82754L87.8726 8.32752ZM106.252 30.6208L106.752 30.6157L106.752 30.6157L106.252 30.6208ZM104.751 38.9319L104.285 38.7511L104.158 39.0764L104.42 39.3071L104.751 38.9319ZM113.966 49.2173L113.551 49.4965L113.585 49.5465L113.629 49.5871L113.966 49.2173ZM119.009 53.6076L118.813 54.0674L118.813 54.0675L119.009 53.6076ZM122.915 55.3672L123.198 54.9549L123.162 54.9301L123.122 54.9119L122.915 55.3672ZM124.521 56.4683L124.805 56.0571L124.803 56.056L124.521 56.4683ZM125.141 57.2861L125.596 57.0783L125.596 57.0779L125.141 57.2861ZM125.417 58.5731L124.92 58.6223L124.926 58.6904L124.951 58.7543L125.417 58.5731ZM125.476 58.8593L125.976 58.846L125.976 58.8457L125.476 58.8593ZM125.401 60.3473L125.891 60.4448L125.891 60.4446L125.401 60.3473ZM124.252 63.3618L124.656 63.6558L124.687 63.6136L124.708 63.5661L124.252 63.3618ZM122.529 65.7319L122.125 65.438L121.871 65.7879L122.18 66.0899L122.529 65.7319ZM124.14 68.5167L124.64 68.5233L124.64 68.5231L124.14 68.5167ZM122.388 74.1333L121.975 73.8512L121.971 73.8572L121.967 73.8633L122.388 74.1333ZM120.46 77.138L120.039 76.868L120.034 76.8756L120.029 76.8834L120.46 77.138ZM118.382 80.1698L118.782 80.4697L118.782 80.4696L118.382 80.1698ZM114.688 83.4506L114.379 83.057L114.353 83.0778L114.329 83.1021L114.688 83.4506ZM74.4856 102.668L74.5773 103.159L74.5773 103.159L74.4856 102.668ZM36.1258 97.0292L36.331 96.5732L36.286 96.553L36.2379 96.5419L36.1258 97.0292ZM25.3798 94.8875L25.2259 95.3633L25.2556 95.3729L25.2862 95.3787L25.3798 94.8875ZM21.7785 92.9344L21.4798 93.3353L21.4798 93.3353L21.7785 92.9344ZM19.0297 90.8208L18.6676 91.1656L18.6888 91.1879L18.7126 91.2074L19.0297 90.8208ZM15.372 86.9795L14.9465 87.242L14.9739 87.2864L15.0099 87.3243L15.372 86.9795ZM12.9633 83.0741L12.5377 83.3366L12.5377 83.3366L12.9633 83.0741ZM12.9942 82.0641L12.5854 81.7762L12.5852 81.7765L12.9942 82.0641ZM14.6673 79.6881L15.0761 79.976L15.2879 79.6753L15.0639 79.3836L14.6673 79.6881ZM11.1006 75.0437L10.704 75.3481L10.704 75.3482L11.1006 75.0437ZM11.0009 74.0884L11.4521 74.3038L11.4996 74.2043L11.5008 74.094L11.0009 74.0884ZM11.2582 73.4701L10.8973 73.1241L10.8973 73.1241L11.2582 73.4701ZM16.495 68.0085L16.8559 68.3546L16.8831 68.3262L16.9055 68.294L16.495 68.0085ZM20.6251 62.0696L21.0356 62.3551L21.0738 62.3002L21.0962 62.2373L20.6251 62.0696ZM27.7182 47.471L28.1429 47.7348L28.2887 47.5L28.1675 47.2517L27.7182 47.471ZM25.4069 40.4062L24.9154 40.4978L24.9154 40.4979L25.4069 40.4062ZM35.2932 18.3395L35.2015 17.8479L35.2015 17.8479L35.2932 18.3395ZM50.4824 24.7704L50.0933 25.0845L50.3528 25.4059L50.7174 25.2117L50.4824 24.7704ZM58.5372 21.6367L58.4455 21.1451L58.4317 21.1477L58.4181 21.151L58.5372 21.6367ZM69.6274 21.1948C69.3545 21.1525 69.0991 21.3395 69.0568 21.6124C69.0146 21.8853 69.2016 22.1408 69.4745 22.183L69.551 21.6889L69.6274 21.1948ZM62.2215 21.7294C62.4974 21.7174 62.7114 21.4841 62.6994 21.2082C62.6875 20.9323 62.4541 20.7184 62.1783 20.7303L62.1999 21.2298L62.2215 21.7294ZM56.3005 21.7494C56.0375 21.8335 55.8925 22.1149 55.9767 22.378C56.0608 22.641 56.3422 22.786 56.6053 22.7018L56.4529 22.2256L56.3005 21.7494ZM52.6316 24.2586C52.8821 24.1425 52.9911 23.8452 52.875 23.5947C52.7589 23.3441 52.4617 23.2352 52.2111 23.3513L52.4214 23.8049L52.6316 24.2586ZM49.3833 22.8141C49.1865 22.6204 48.8699 22.6229 48.6762 22.8197C48.4825 23.0166 48.485 23.3331 48.6818 23.5268L49.0325 23.1705L49.3833 22.8141ZM45.3732 20.951C45.6095 21.0938 45.9169 21.0181 46.0597 20.7818C46.2026 20.5455 46.1268 20.2381 45.8905 20.0952L45.6318 20.5231L45.3732 20.951ZM41.8412 18.2881C41.5767 18.2089 41.298 18.3591 41.2188 18.6236C41.1396 18.8882 41.2899 19.1668 41.5544 19.246L41.6978 18.7671L41.8412 18.2881ZM37.444 18.6368C37.7202 18.6347 37.9423 18.4092 37.9403 18.1331C37.9382 17.8569 37.7127 17.6348 37.4366 17.6368L37.4403 18.1368L37.444 18.6368ZM31.9356 19.0589C31.6963 19.1967 31.614 19.5024 31.7518 19.7417C31.8896 19.981 32.1953 20.0633 32.4346 19.9255L32.1851 19.4922L31.9356 19.0589ZM28.0496 24.4866C28.1881 24.2477 28.1068 23.9417 27.868 23.8032C27.6291 23.6646 27.3232 23.7459 27.1846 23.9847L27.6171 24.2357L28.0496 24.4866ZM24.8701 30.3762C24.8183 30.6474 24.9961 30.9093 25.2673 30.9612C25.5385 31.0131 25.8004 30.8353 25.8523 30.5641L25.3612 30.4701L24.8701 30.3762ZM25.4847 37.0687C25.4659 36.7932 25.2273 36.5851 24.9518 36.604C24.6763 36.6228 24.4682 36.8615 24.487 37.137L24.9859 37.1028L25.4847 37.0687ZM25.3225 42.3495C25.3904 42.6171 25.6625 42.779 25.9302 42.711C26.1978 42.643 26.3597 42.371 26.2917 42.1033L25.8071 42.2264L25.3225 42.3495ZM27.4252 45.5813C27.322 45.3252 27.0307 45.2012 26.7746 45.3043C26.5184 45.4075 26.3944 45.6988 26.4976 45.9549L26.9614 45.7681L27.4252 45.5813ZM26.2364 48.9581C26.0966 49.1962 26.1765 49.5026 26.4146 49.6423C26.6528 49.7821 26.9592 49.7023 27.0989 49.4641L26.6676 49.2111L26.2364 48.9581ZM25.1435 52.9988C25.271 52.7539 25.1757 52.4519 24.9308 52.3244C24.6858 52.197 24.3839 52.2922 24.2564 52.5371L24.6999 52.768L25.1435 52.9988ZM22.4627 56.214C22.3483 56.4653 22.4592 56.7618 22.7105 56.8763C22.9618 56.9908 23.2583 56.8799 23.3728 56.6286L22.9178 56.4213L22.4627 56.214ZM21.8011 60.3469C21.9014 60.0896 21.7741 59.7997 21.5168 59.6994C21.2595 59.5991 20.9696 59.7264 20.8693 59.9837L21.3352 60.1653L21.8011 60.3469ZM19.1821 63.2689C19.0244 63.4956 19.0804 63.8072 19.3071 63.9648C19.5338 64.1225 19.8454 64.0665 20.0031 63.8398L19.5926 63.5544L19.1821 63.2689ZM17.938 66.8093C18.0957 66.5825 18.0397 66.271 17.813 66.1133C17.5863 65.9556 17.2747 66.0116 17.1171 66.2383L17.5276 66.5238L17.938 66.8093ZM14.8249 69.0279C14.6338 69.2272 14.6405 69.5437 14.8398 69.7348C15.0391 69.9259 15.3556 69.9193 15.5467 69.72L15.1858 69.3739L14.8249 69.0279ZM12.9283 72.4508C13.1194 72.2515 13.1128 71.9349 12.9135 71.7438C12.7141 71.5527 12.3976 71.5594 12.2065 71.7587L12.5674 72.1047L12.9283 72.4508ZM10.7346 73.3266C10.5816 73.5565 10.6439 73.8669 10.8738 74.0199C11.1037 74.1729 11.4141 74.1106 11.5671 73.8807L11.1508 73.6037L10.7346 73.3266ZM11.5088 74.019C11.5645 73.7485 11.3905 73.4841 11.12 73.4284C10.8495 73.3727 10.5851 73.5467 10.5294 73.8172L11.0191 73.9181L11.5088 74.019ZM10.4316 74.2422C10.384 74.5142 10.5658 74.7733 10.8378 74.8209C11.1098 74.8686 11.369 74.6867 11.4166 74.4147L10.9241 74.3284L10.4316 74.2422ZM11.4393 74.6385C11.3364 74.3822 11.0452 74.258 10.789 74.361C10.5327 74.4639 10.4085 74.7551 10.5115 75.0113L10.9754 74.8249L11.4393 74.6385ZM11.5957 76.5093C11.7639 76.7283 12.0778 76.7695 12.2968 76.6013C12.5158 76.4331 12.557 76.1192 12.3888 75.9002L11.9923 76.2048L11.5957 76.5093ZM14.1722 78.2225C14.004 78.0034 13.6901 77.9622 13.4711 78.1304C13.2521 78.2986 13.2109 78.6125 13.3791 78.8315L13.7756 78.527L14.1722 78.2225ZM13.8402 79.9942C13.6812 80.22 13.7354 80.5319 13.9611 80.6909C14.1869 80.8499 14.4988 80.7958 14.6578 80.57L14.249 80.2821L13.8402 79.9942ZM13.8213 81.758C13.9802 81.5322 13.9261 81.2203 13.7003 81.0613C13.4745 80.9023 13.1626 80.9564 13.0036 81.1822L13.4124 81.4701L13.8213 81.758ZM12.3997 82.144C12.3124 82.406 12.454 82.6891 12.716 82.7764C12.978 82.8637 13.2611 82.7221 13.3484 82.4601L12.8741 82.302L12.3997 82.144ZM13.341 82.7005C13.2699 82.4337 12.9959 82.275 12.7291 82.3461C12.4623 82.4172 12.3036 82.6912 12.3747 82.958L12.8578 82.8293L13.341 82.7005ZM13.1399 84.3129C13.2849 84.548 13.5929 84.621 13.8279 84.476C14.063 84.331 14.136 84.023 13.991 83.788L13.5655 84.0504L13.1399 84.3129ZM15.1954 85.7407C15.0504 85.5056 14.7424 85.4326 14.5074 85.5776C14.2723 85.7225 14.1993 86.0306 14.3443 86.2656L14.7699 86.0031L15.1954 85.7407ZM15.9244 88.2846C16.1148 88.4846 16.4313 88.4924 16.6313 88.3019C16.8312 88.1115 16.839 87.795 16.6486 87.595L16.2865 87.9398L15.9244 88.2846ZM18.4774 89.5157C18.287 89.3157 17.9705 89.308 17.7705 89.4984C17.5705 89.6888 17.5628 90.0053 17.7532 90.2053L18.1153 89.8605L18.4774 89.5157ZM19.4007 91.7538C19.6183 91.9238 19.9326 91.8851 20.1025 91.6675C20.2725 91.4499 20.2339 91.1357 20.0163 90.9657L19.7085 91.3597L19.4007 91.7538ZM21.3854 92.0148C21.1649 91.8485 20.8514 91.8925 20.6851 92.1129C20.5188 92.3334 20.5627 92.6469 20.7831 92.8132L21.0843 92.414L21.3854 92.0148ZM22.3549 93.9396C22.5875 94.0884 22.8967 94.0204 23.0455 93.7877C23.1943 93.5551 23.1263 93.2459 22.8936 93.0971L22.6243 93.5184L22.3549 93.9396ZM24.6357 94.0479C24.3846 93.9331 24.0879 94.0437 23.9732 94.2949C23.8584 94.5461 23.969 94.8427 24.2202 94.9575L24.428 94.5027L24.6357 94.0479ZM27.9778 95.8914C28.2491 95.9432 28.5109 95.7653 28.5627 95.494C28.6145 95.2228 28.4365 94.9609 28.1653 94.9091L28.0715 95.4003L27.9778 95.8914ZM33.5486 95.9623C33.278 95.9069 33.0138 96.0813 32.9584 96.3518C32.903 96.6224 33.0774 96.8866 33.3479 96.942L33.4483 96.4521L33.5486 95.9623ZM38.1966 98.4566C38.4526 98.5602 38.7441 98.4366 38.8476 98.1806C38.9512 97.9246 38.8276 97.6331 38.5716 97.5296L38.3841 97.9931L38.1966 98.4566ZM43.1536 99.1948C42.891 99.1094 42.6089 99.2532 42.5236 99.5158C42.4383 99.7784 42.582 100.06 42.8446 100.146L42.9991 99.6703L43.1536 99.1948ZM47.593 101.52C47.8606 101.588 48.1328 101.426 48.2011 101.159C48.2693 100.891 48.1077 100.619 47.8402 100.551L47.7166 101.035L47.593 101.52ZM52.6042 101.609C52.3329 101.557 52.0712 101.736 52.0197 102.007C51.9683 102.278 52.1465 102.54 52.4178 102.591L52.511 102.1L52.6042 101.609ZM57.3005 103.359C57.5745 103.394 57.8244 103.199 57.8585 102.925C57.8927 102.651 57.6983 102.401 57.4242 102.367L57.3624 102.863L57.3005 103.359ZM62.2809 102.807C62.0051 102.792 61.7692 103.003 61.7539 103.279C61.7386 103.554 61.9498 103.79 62.2255 103.806L62.2532 103.306L62.2809 102.807ZM67.1753 103.89C67.4514 103.883 67.6699 103.654 67.6633 103.378C67.6567 103.102 67.4276 102.883 67.1515 102.89L67.1634 103.39L67.1753 103.89ZM71.9997 102.545C71.7256 102.579 71.5308 102.828 71.5646 103.102C71.5985 103.376 71.848 103.571 72.1221 103.537L72.0609 103.041L71.9997 102.545ZM77.3564 102.586C77.6258 102.525 77.7949 102.257 77.7341 101.988C77.6733 101.718 77.4057 101.549 77.1363 101.61L77.2463 102.098L77.3564 102.586ZM82.5658 100.198C82.3009 100.275 82.149 100.553 82.2267 100.818C82.3044 101.083 82.5822 101.235 82.8472 101.157L82.7065 100.678L82.5658 100.198ZM88.2418 99.4074C88.5019 99.3149 88.6379 99.029 88.5454 98.7688C88.4529 98.5086 88.1669 98.3727 87.9068 98.4652L88.0743 98.9363L88.2418 99.4074ZM93.1432 96.4382C92.8886 96.5451 92.7688 96.8381 92.8756 97.0927C92.9825 97.3474 93.2755 97.4672 93.5302 97.3603L93.3367 96.8993L93.1432 96.4382ZM98.6937 95.0129C98.9415 94.891 99.0436 94.5913 98.9217 94.3435C98.7999 94.0957 98.5002 93.9937 98.2524 94.1155L98.4731 94.5642L98.6937 95.0129ZM103.199 91.4735C102.96 91.6122 102.879 91.9182 103.018 92.157C103.157 92.3958 103.463 92.477 103.701 92.3384L103.45 91.9059L103.199 91.4735ZM108.497 89.2854C108.723 89.1269 108.778 88.8151 108.619 88.589C108.46 88.3629 108.149 88.3081 107.923 88.4666L108.21 88.876L108.497 89.2854ZM112.315 85.0209C112.108 85.2041 112.089 85.5201 112.272 85.7267C112.456 85.9333 112.772 85.9523 112.978 85.7692L112.647 85.395L112.315 85.0209ZM115.971 83.0688C116.185 82.8951 116.219 82.5803 116.045 82.3656C115.871 82.151 115.556 82.1178 115.342 82.2916L115.656 82.6802L115.971 83.0688ZM117.192 80.7042C116.991 80.8932 116.981 81.2096 117.17 81.411C117.359 81.6123 117.675 81.6224 117.876 81.4335L117.534 81.0688L117.192 80.7042ZM119.332 79.7206C119.494 79.4964 119.443 79.184 119.219 79.0226C118.995 78.8613 118.682 78.9122 118.521 79.1363L118.927 79.4285L119.332 79.7206ZM119.551 77.6404C119.4 77.8714 119.464 78.1813 119.695 78.3327C119.926 78.484 120.236 78.4195 120.387 78.1885L119.969 77.9144L119.551 77.6404ZM121.363 76.6568C121.512 76.4244 121.444 76.1151 121.212 75.966C120.979 75.8169 120.67 75.8844 120.521 76.1168L120.942 76.3868L121.363 76.6568ZM121.485 74.6145C121.336 74.8469 121.403 75.1562 121.636 75.3053C121.868 75.4544 122.177 75.3869 122.326 75.1545L121.906 74.8845L121.485 74.6145ZM123.554 73.0379C123.67 72.7872 123.561 72.4901 123.31 72.3741C123.06 72.2582 122.762 72.3674 122.647 72.6181L123.1 72.828L123.554 73.0379ZM123.507 69.912C123.459 70.1841 123.641 70.443 123.913 70.4905C124.186 70.5379 124.445 70.3558 124.492 70.0838L123.999 69.9979L123.507 69.912ZM124.449 67.5328C124.349 67.2752 124.06 67.1468 123.802 67.246C123.545 67.3453 123.416 67.6347 123.516 67.8924L123.982 67.7126L124.449 67.5328ZM122.718 66.6577C122.899 66.8666 123.215 66.8894 123.424 66.7088C123.632 66.5281 123.655 66.2124 123.475 66.0035L123.096 66.3306L122.718 66.6577ZM123.365 65.4333C123.527 65.21 123.477 64.8973 123.254 64.7349C123.031 64.5726 122.718 64.6221 122.556 64.8454L122.96 65.1394L123.365 65.4333ZM123.417 63.6604C123.255 63.8838 123.304 64.1965 123.527 64.3588C123.751 64.5211 124.064 64.4717 124.226 64.2483L123.821 63.9543L123.417 63.6604ZM125.034 62.8162C125.141 62.5619 125.022 62.2685 124.768 62.1608C124.514 62.0532 124.22 62.1721 124.113 62.4264L124.573 62.6213L125.034 62.8162ZM124.697 60.9516C124.604 61.2117 124.74 61.4977 125 61.5904C125.26 61.6831 125.546 61.5473 125.639 61.2872L125.168 61.1194L124.697 60.9516ZM125.95 60.0236C125.975 59.7487 125.772 59.5053 125.497 59.48C125.222 59.4547 124.979 59.6572 124.954 59.9322L125.452 59.9779L125.95 60.0236ZM124.981 59.2321C124.981 59.5083 125.205 59.7322 125.481 59.7324C125.757 59.7325 125.981 59.5088 125.981 59.2326L125.481 59.2324L124.981 59.2321ZM125.967 58.7273C125.935 58.4531 125.686 58.2571 125.412 58.2895C125.138 58.322 124.942 58.5706 124.974 58.8448L125.471 58.7861L125.967 58.7273ZM124.962 58.7855C125.041 59.0501 125.319 59.2006 125.584 59.1216C125.849 59.0426 125.999 58.764 125.92 58.4994L125.441 58.6425L124.962 58.7855ZM125.874 58.1771C125.837 57.9035 125.584 57.7121 125.311 57.7497C125.037 57.7872 124.846 58.0394 124.883 58.313L125.379 58.245L125.874 58.1771ZM124.77 57.7315C124.844 57.9975 125.12 58.153 125.386 58.0788C125.652 58.0046 125.807 57.7289 125.733 57.4629L125.251 57.5972L124.77 57.7315ZM125.453 56.8034C125.313 56.5651 125.007 56.4851 124.769 56.6247C124.531 56.7643 124.451 57.0707 124.59 57.3089L125.022 57.0561L125.453 56.8034ZM124.35 56.9854C124.54 57.1858 124.857 57.1942 125.057 57.0041C125.257 56.8141 125.266 56.4976 125.076 56.2973L124.713 56.6413L124.35 56.9854ZM124.402 55.7807C124.174 55.6245 123.863 55.6825 123.707 55.9102C123.551 56.1379 123.609 56.4491 123.836 56.6053L124.119 56.193L124.402 55.7807ZM123.034 56.0548C123.262 56.211 123.573 56.153 123.729 55.9253C123.885 55.6976 123.827 55.3864 123.6 55.2301L123.317 55.6424L123.034 56.0548ZM122.146 54.4695C121.895 54.3556 121.599 54.4672 121.485 54.7187C121.371 54.9702 121.482 55.2665 121.734 55.3804L121.94 54.925L122.146 54.4695ZM119.782 54.4991C120.034 54.6123 120.33 54.5 120.443 54.2481C120.557 53.9962 120.444 53.7003 120.192 53.587L119.987 54.0431L119.782 54.4991ZM118.034 52.1839C117.825 52.0033 117.509 52.0261 117.328 52.235C117.148 52.4438 117.171 52.7595 117.379 52.9402L117.707 52.5621L118.034 52.1839ZM114.87 50.7117C115.075 50.8967 115.391 50.8804 115.576 50.6754C115.761 50.4704 115.745 50.1542 115.54 49.9692L115.205 50.3405L114.87 50.7117ZM112.315 46.114C112.144 45.8974 111.829 45.8605 111.613 46.0318C111.396 46.203 111.359 46.5174 111.53 46.7341L111.923 46.4241L112.315 46.114ZM106.936 41.6448C107.134 41.8382 107.45 41.8352 107.644 41.6381C107.837 41.441 107.834 41.1245 107.637 40.9311L107.287 41.288L106.936 41.6448ZM105.904 37.0529C105.979 36.787 105.824 36.511 105.558 36.4363C105.292 36.3616 105.016 36.5166 104.941 36.7824L105.423 36.9177L105.904 37.0529ZM105.676 32.7014C105.653 32.9766 105.858 33.2183 106.133 33.2412C106.408 33.2642 106.65 33.0597 106.673 32.7845L106.175 32.743L105.676 32.7014ZM106.571 27.9297C106.537 27.6557 106.287 27.4611 106.013 27.495C105.739 27.529 105.545 27.7787 105.579 28.0527L106.075 27.9912L106.571 27.9297ZM104.391 23.0376C104.483 23.298 104.769 23.4345 105.029 23.3426C105.29 23.2506 105.426 22.965 105.334 22.7046L104.863 22.8711L104.391 23.0376ZM103.031 17.8575C102.887 17.6217 102.579 17.5471 102.344 17.6908C102.108 17.8346 102.033 18.1422 102.177 18.378L102.604 18.1178L103.031 17.8575ZM99.0425 14.2853C99.2334 14.4849 99.5499 14.492 99.7494 14.3011C99.949 14.1103 99.9561 13.7938 99.7652 13.5942L99.4038 13.9398L99.0425 14.2853ZM95.5985 10.1844C95.3637 10.039 95.0555 10.1115 94.9101 10.3463C94.7648 10.5811 94.8373 10.8893 95.0721 11.0346L95.3353 10.6095L95.5985 10.1844ZM90.3838 9.0884C90.6537 9.14642 90.9196 8.97459 90.9776 8.70461C91.0357 8.43463 90.8638 8.16873 90.5939 8.11072L90.4888 8.59956L90.3838 9.0884ZM85.053 8.18253C84.7848 8.2482 84.6206 8.51887 84.6862 8.78709C84.7519 9.05531 85.0226 9.21951 85.2908 9.15384L85.1719 8.66818L85.053 8.18253ZM80.6039 11.4387C80.8237 11.2715 80.8664 10.9579 80.6993 10.738C80.5322 10.5182 80.2185 10.4755 79.9987 10.6426L80.3013 11.0406L80.6039 11.4387ZM76.1549 14.699C75.9965 14.9252 76.0515 15.237 76.2778 15.3953C76.504 15.5537 76.8157 15.4987 76.9741 15.2725L76.5645 14.9857L76.1549 14.699ZM74.4878 19.9779C74.5877 19.7205 74.4599 19.4308 74.2025 19.331C73.945 19.2311 73.6554 19.3589 73.5555 19.6163L74.0217 19.7971L74.4878 19.9779ZM73.172 22.389L73.2843 21.9018C72.0496 21.6173 70.8286 21.3807 69.6274 21.1948L69.551 21.6889L69.4745 22.183C70.6502 22.365 71.8473 22.5969 73.0598 22.8763L73.172 22.389ZM62.1999 21.2298L62.1783 20.7303C60.8864 20.7862 59.6387 20.9227 58.4455 21.1451L58.5372 21.6367L58.6288 22.1282C59.7712 21.9152 60.9718 21.7835 62.2215 21.7294L62.1999 21.2298ZM58.5372 21.6367L58.4181 21.151C57.7086 21.3249 57.0025 21.5248 56.3005 21.7494L56.4529 22.2256L56.6053 22.7018C57.2859 22.4841 57.9697 22.2905 58.6562 22.1223L58.5372 21.6367ZM52.4214 23.8049L52.2111 23.3513C51.5517 23.6568 50.897 23.9832 50.2473 24.3291L50.4824 24.7704L50.7174 25.2117C51.3512 24.8742 51.9895 24.5561 52.6316 24.2586L52.4214 23.8049ZM50.4824 24.7704L50.8714 24.4563C50.4012 23.874 49.9036 23.3263 49.3833 22.8141L49.0325 23.1705L48.6818 23.5268C49.1753 24.0125 49.6473 24.5321 50.0933 25.0845L50.4824 24.7704ZM45.6318 20.5231L45.8905 20.0952C44.589 19.3084 43.2232 18.7018 41.8412 18.2881L41.6978 18.7671L41.5544 19.246C42.8531 19.6349 44.1416 20.2064 45.3732 20.951L45.6318 20.5231ZM37.4403 18.1368L37.4366 17.6368C36.6785 17.6425 35.9306 17.712 35.2015 17.8479L35.2932 18.3395L35.3848 18.831C36.0532 18.7064 36.7422 18.642 37.444 18.6368L37.4403 18.1368ZM35.2932 18.3395L35.2015 17.8479C34.0374 18.0651 32.9446 18.4779 31.9356 19.0589L32.1851 19.4922L32.4346 19.9255C33.3494 19.3987 34.336 19.0266 35.3848 18.831L35.2932 18.3395ZM27.6171 24.2357L27.1846 23.9847C26.1102 25.8367 25.3234 28.0069 24.8701 30.3762L25.3612 30.4701L25.8523 30.5641C26.287 28.2919 27.0381 26.23 28.0496 24.4866L27.6171 24.2357ZM24.9859 37.1028L24.487 37.137C24.5627 38.2422 24.7042 39.3653 24.9154 40.4978L25.4069 40.4062L25.8984 40.3145C25.6943 39.2199 25.5577 38.1352 25.4847 37.0687L24.9859 37.1028ZM25.4069 40.4062L24.9154 40.4979C25.0325 41.1259 25.1686 41.7434 25.3225 42.3495L25.8071 42.2264L26.2917 42.1033C26.1431 41.5181 26.0116 40.9215 25.8984 40.3145L25.4069 40.4062ZM26.9614 45.7681L26.4976 45.9549C26.7372 46.5498 26.9947 47.1287 27.2688 47.6903L27.7182 47.471L28.1675 47.2517C27.9039 46.7116 27.656 46.1544 27.4252 45.5813L26.9614 45.7681ZM27.7182 47.471L27.2934 47.2072C26.9331 47.7874 26.5807 48.3712 26.2364 48.9581L26.6676 49.2111L27.0989 49.4641C27.439 48.8845 27.787 48.3078 28.1429 47.7348L27.7182 47.471ZM24.6999 52.768L24.2564 52.5371C23.6214 53.7572 23.0227 54.9847 22.4627 56.214L22.9178 56.4213L23.3728 56.6286C23.9254 55.4154 24.5164 54.2036 25.1435 52.9988L24.6999 52.768ZM21.3352 60.1653L20.8693 59.9837C20.6196 60.6243 20.3811 61.264 20.154 61.902L20.6251 62.0696L21.0962 62.2373C21.3198 61.6088 21.5549 60.9784 21.8011 60.3469L21.3352 60.1653ZM20.6251 62.0696L20.2146 61.7842L19.1821 63.2689L19.5926 63.5544L20.0031 63.8398L21.0356 62.3551L20.6251 62.0696ZM17.5276 66.5238L17.1171 66.2383L16.0845 67.723L16.495 68.0085L16.9055 68.294L17.938 66.8093L17.5276 66.5238ZM16.495 68.0085L16.1341 67.6625L14.8249 69.0279L15.1858 69.3739L15.5467 69.72L16.8559 68.3546L16.495 68.0085ZM12.5674 72.1047L12.2065 71.7587L10.8973 73.1241L11.2582 73.4701L11.6191 73.8162L12.9283 72.4508L12.5674 72.1047ZM11.2582 73.4701L10.8973 73.1241C10.8362 73.1878 10.7819 73.2555 10.7346 73.3266L11.1508 73.6037L11.5671 73.8807C11.5812 73.8595 11.5983 73.8379 11.6191 73.8162L11.2582 73.4701ZM11.0191 73.9181L10.5294 73.8172C10.5111 73.9058 10.5019 73.9947 10.5009 74.0827L11.0009 74.0884L11.5008 74.094C11.5011 74.0686 11.5038 74.0435 11.5088 74.019L11.0191 73.9181ZM11.0009 74.0884L10.5496 73.873C10.4937 73.99 10.454 74.1143 10.4316 74.2422L10.9241 74.3284L11.4166 74.4147C11.4233 74.3764 11.4353 74.339 11.4521 74.3038L11.0009 74.0884ZM10.9754 74.8249L10.5115 75.0113C10.5589 75.1294 10.6231 75.2427 10.704 75.3481L11.1006 75.0437L11.4972 74.7392C11.4718 74.7061 11.4529 74.6722 11.4393 74.6385L10.9754 74.8249ZM11.1006 75.0437L10.704 75.3482L11.5957 76.5093L11.9923 76.2048L12.3888 75.9002L11.4972 74.7391L11.1006 75.0437ZM13.7756 78.527L13.3791 78.8315L14.2707 79.9926L14.6673 79.6881L15.0639 79.3836L14.1722 78.2225L13.7756 78.527ZM14.6673 79.6881L14.2585 79.4002L13.8402 79.9942L14.249 80.2821L14.6578 80.57L15.0761 79.976L14.6673 79.6881ZM13.4124 81.4701L13.0036 81.1822L12.5854 81.7762L12.9942 82.0641L13.403 82.352L13.8213 81.758L13.4124 81.4701ZM12.9942 82.0641L12.5852 81.7765C12.5046 81.891 12.4427 82.015 12.3997 82.144L12.8741 82.302L13.3484 82.4601C13.3611 82.4222 13.3793 82.3857 13.4032 82.3517L12.9942 82.0641ZM12.8578 82.8293L12.3747 82.958C12.4097 83.0895 12.4641 83.2172 12.5377 83.3366L12.9633 83.0741L13.3888 82.8116C13.3671 82.7764 13.3512 82.739 13.341 82.7005L12.8578 82.8293ZM12.9633 83.0741L12.5377 83.3366L13.1399 84.3129L13.5655 84.0504L13.991 83.788L13.3888 82.8116L12.9633 83.0741ZM14.7699 86.0031L14.3443 86.2656L14.9465 87.242L15.372 86.9795L15.7976 86.717L15.1954 85.7407L14.7699 86.0031ZM15.372 86.9795L15.0099 87.3243L15.9244 88.2846L16.2865 87.9398L16.6486 87.595L15.7341 86.6347L15.372 86.9795ZM18.1153 89.8605L17.7532 90.2053L18.6676 91.1656L19.0297 90.8208L19.3918 90.4761L18.4774 89.5157L18.1153 89.8605ZM19.0297 90.8208L18.7126 91.2074C18.7254 91.2179 18.9492 91.4011 19.4007 91.7538L19.7085 91.3597L20.0163 90.9657C19.5707 90.6177 19.3532 90.4395 19.3469 90.4343L19.0297 90.8208ZM21.0843 92.414L20.7831 92.8132C20.9979 92.9751 21.23 93.1492 21.4798 93.3353L21.7785 92.9344L22.0772 92.5334C21.829 92.3485 21.5985 92.1756 21.3854 92.0148L21.0843 92.414ZM21.7785 92.9344L21.4798 93.3353C21.7775 93.557 22.0711 93.7581 22.3549 93.9396L22.6243 93.5184L22.8936 93.0971C22.6284 92.9275 22.3544 92.7399 22.0772 92.5334L21.7785 92.9344ZM24.428 94.5027L24.2202 94.9575C24.8116 95.2276 25.1959 95.3536 25.2259 95.3633L25.3798 94.8875L25.5337 94.4118C25.5337 94.4118 25.4468 94.3837 25.2909 94.3241C25.1351 94.2644 24.9107 94.1735 24.6357 94.0479L24.428 94.5027ZM25.3798 94.8875L25.2862 95.3787C26.2247 95.5575 27.1216 95.728 27.9778 95.8914L28.0715 95.4003L28.1653 94.9091C27.3089 94.7457 26.4112 94.5751 25.4734 94.3964L25.3798 94.8875ZM33.4483 96.4521L33.3479 96.942C34.33 97.1431 35.2185 97.3334 36.0136 97.5164L36.1258 97.0292L36.2379 96.5419C35.4324 96.3565 34.5355 96.1644 33.5486 95.9623L33.4483 96.4521ZM36.1258 97.0292L35.9205 97.4851C36.6671 97.8212 37.4265 98.1451 38.1966 98.4566L38.3841 97.9931L38.5716 97.5296C37.813 97.2228 37.0655 96.9039 36.331 96.5732L36.1258 97.0292ZM42.9991 99.6703L42.8446 100.146C44.4044 100.653 45.9917 101.111 47.593 101.52L47.7166 101.035L47.8402 100.551C46.2591 100.147 44.6925 99.6947 43.1536 99.1948L42.9991 99.6703ZM52.511 102.1L52.4178 102.591C54.0488 102.901 55.681 103.158 57.3005 103.359L57.3624 102.863L57.4242 102.367C55.8261 102.168 54.2148 101.915 52.6042 101.609L52.511 102.1ZM62.2532 103.306L62.2255 103.806C63.9109 103.899 65.5664 103.928 67.1753 103.89L67.1634 103.39L67.1515 102.89C65.5707 102.928 63.9416 102.899 62.2809 102.807L62.2532 103.306ZM72.0609 103.041L72.1221 103.537C72.9615 103.434 73.7809 103.308 74.5773 103.159L74.4856 102.668L74.394 102.176C73.6191 102.321 72.82 102.444 71.9997 102.545L72.0609 103.041ZM74.4856 102.668L74.5773 103.159C75.4827 102.991 76.4105 102.799 77.3564 102.586L77.2463 102.098L77.1363 101.61C76.202 101.821 75.2865 102.01 74.394 102.176L74.4856 102.668ZM82.7065 100.678L82.8472 101.157C84.6215 100.637 86.4278 100.052 88.2418 99.4074L88.0743 98.9363L87.9068 98.4652C86.1103 99.1039 84.3219 99.6829 82.5658 100.198L82.7065 100.678ZM93.3367 96.8993L93.5302 97.3603C95.273 96.6289 97.0016 95.8452 98.6937 95.0129L98.4731 94.5642L98.2524 94.1155C96.579 94.9386 94.8687 95.7141 93.1432 96.4382L93.3367 96.8993ZM103.45 91.9059L103.701 92.3384C105.371 91.3687 106.978 90.3496 108.497 89.2854L108.21 88.876L107.923 88.4666C106.43 89.5128 104.847 90.5167 103.199 91.4735L103.45 91.9059ZM112.647 85.395L112.978 85.7692C113.704 85.1253 114.395 84.4684 115.046 83.7992L114.688 83.4506L114.329 83.1021C113.697 83.7523 113.024 84.3921 112.315 85.0209L112.647 85.395ZM114.688 83.4506L114.996 83.8443C115.327 83.5848 115.655 83.3247 115.971 83.0688L115.656 82.6802L115.342 82.2916C115.03 82.5435 114.707 82.8002 114.379 83.057L114.688 83.4506ZM117.534 81.0688L117.876 81.4335C118.253 81.0799 118.573 80.7492 118.782 80.4697L118.382 80.1698L117.982 79.8699C117.826 80.078 117.558 80.3609 117.192 80.7042L117.534 81.0688ZM118.382 80.1698L118.782 80.4696C118.979 80.2071 119.162 79.9568 119.332 79.7206L118.927 79.4285L118.521 79.1363C118.354 79.3677 118.175 79.6128 117.982 79.87L118.382 80.1698ZM119.969 77.9144L120.387 78.1885C120.711 77.6943 120.882 77.4063 120.89 77.3925L120.46 77.138L120.029 76.8834C120.029 76.8834 120.029 76.8837 120.029 76.8843C120.029 76.8849 120.028 76.8857 120.027 76.8869C120.026 76.8891 120.024 76.8924 120.021 76.8967C120.016 76.9053 120.009 76.9181 119.998 76.9349C119.978 76.9684 119.948 77.018 119.908 77.0825C119.828 77.2116 119.708 77.4003 119.551 77.6404L119.969 77.9144ZM120.46 77.138L120.881 77.408L121.363 76.6568L120.942 76.3868L120.521 76.1168L120.039 76.868L120.46 77.138ZM121.906 74.8845L122.326 75.1545L122.808 74.4033L122.388 74.1333L121.967 73.8633L121.485 74.6145L121.906 74.8845ZM122.388 74.1333L122.8 74.4154C122.819 74.388 123.166 73.8761 123.554 73.0379L123.1 72.828L122.647 72.6181C122.288 73.3931 121.971 73.8562 121.975 73.8512L122.388 74.1333ZM123.999 69.9979L124.492 70.0838C124.578 69.5892 124.633 69.066 124.64 68.5233L124.14 68.5167L123.64 68.5102C123.634 68.9941 123.585 69.464 123.507 69.912L123.999 69.9979ZM124.14 68.5167L124.64 68.5231C124.644 68.1855 124.572 67.8528 124.449 67.5328L123.982 67.7126L123.516 67.8924C123.603 68.1194 123.643 68.3249 123.64 68.5104L124.14 68.5167ZM123.096 66.3306L123.475 66.0035C123.291 65.7909 123.091 65.5807 122.879 65.374L122.529 65.7319L122.18 66.0899C122.375 66.28 122.556 66.4696 122.718 66.6577L123.096 66.3306ZM122.529 65.7319L122.934 66.0259L123.365 65.4333L122.96 65.1394L122.556 64.8454L122.125 65.438L122.529 65.7319ZM123.821 63.9543L124.226 64.2483L124.656 63.6558L124.252 63.3618L123.848 63.0679L123.417 63.6604L123.821 63.9543ZM124.252 63.3618L124.708 63.5661C124.714 63.5527 124.853 63.2427 125.034 62.8162L124.573 62.6213L124.113 62.4264C123.936 62.8446 123.8 63.1479 123.796 63.1575L124.252 63.3618ZM125.168 61.1194L125.639 61.2872C125.748 60.9796 125.845 60.6766 125.891 60.4448L125.401 60.3473L124.91 60.2499C124.879 60.4053 124.804 60.65 124.697 60.9516L125.168 61.1194ZM125.401 60.3473L125.891 60.4446C125.918 60.3114 125.936 60.1682 125.95 60.0236L125.452 59.9779L124.954 59.9322C124.943 60.0536 124.928 60.1606 124.91 60.2501L125.401 60.3473ZM125.481 59.2324L125.981 59.2326C125.981 59.0996 125.979 58.9692 125.976 58.846L125.476 58.8593L124.976 58.8726C124.979 58.9881 124.981 59.1094 124.981 59.2321L125.481 59.2324ZM125.476 58.8593L125.976 58.8457C125.975 58.8056 125.972 58.7661 125.967 58.7273L125.471 58.7861L124.974 58.8448C124.975 58.8542 124.976 58.8636 124.976 58.8729L125.476 58.8593ZM125.441 58.6425L125.92 58.4994C125.909 58.4625 125.897 58.4266 125.883 58.3918L125.417 58.5731L124.951 58.7543C124.955 58.7648 124.959 58.7752 124.962 58.7855L125.441 58.6425ZM125.417 58.5731L125.915 58.5238C125.905 58.4213 125.891 58.3029 125.874 58.1771L125.379 58.245L124.883 58.313C124.899 58.4235 124.91 58.5289 124.92 58.6223L125.417 58.5731ZM125.251 57.5972L125.733 57.4629C125.697 57.3338 125.652 57.2016 125.596 57.0783L125.141 57.2861L124.686 57.494C124.715 57.5559 124.743 57.6356 124.77 57.7315L125.251 57.5972ZM125.141 57.2861L125.596 57.0779C125.55 56.9787 125.502 56.8872 125.453 56.8034L125.022 57.0561L124.59 57.3089C124.623 57.3648 124.656 57.4265 124.687 57.4943L125.141 57.2861ZM124.713 56.6413L125.076 56.2973C124.94 56.1544 124.834 56.0774 124.805 56.0571L124.521 56.4683L124.236 56.8795C124.218 56.8671 124.269 56.9003 124.35 56.9854L124.713 56.6413ZM124.521 56.4683L124.803 56.056L124.402 55.7807L124.119 56.193L123.836 56.6053L124.238 56.8806L124.521 56.4683ZM123.317 55.6424L123.6 55.2301L123.198 54.9549L122.915 55.3672L122.633 55.7795L123.034 56.0548L123.317 55.6424ZM122.915 55.3672L123.122 54.9119C123.109 54.9059 122.699 54.7196 122.146 54.4695L121.94 54.925L121.734 55.3804C122.286 55.6304 122.696 55.8165 122.709 55.8224L122.915 55.3672ZM119.987 54.0431L120.192 53.587C119.733 53.3803 119.354 53.2114 119.205 53.1478L119.009 53.6076L118.813 54.0675C118.951 54.1264 119.319 54.2906 119.782 54.4991L119.987 54.0431ZM119.009 53.6076L119.206 53.1479C119.231 53.1589 119.218 53.1559 119.136 53.0965C119.069 53.0475 118.98 52.9783 118.87 52.8894C118.651 52.7123 118.364 52.4697 118.034 52.1839L117.707 52.5621L117.379 52.9402C117.713 53.2286 118.009 53.4797 118.241 53.6672C118.357 53.7608 118.461 53.8416 118.547 53.9044C118.619 53.9568 118.719 54.0273 118.813 54.0674L119.009 53.6076ZM115.205 50.3405L115.54 49.9692C115.091 49.5642 114.665 49.1773 114.303 48.8475L113.966 49.2173L113.629 49.5871C113.993 49.9176 114.42 50.3055 114.87 50.7117L115.205 50.3405ZM113.966 49.2173L114.381 48.938C113.738 47.9835 113.048 47.0415 112.315 46.114L111.923 46.4241L111.53 46.7341C112.248 47.6427 112.923 48.5642 113.551 49.4965L113.966 49.2173ZM107.287 41.288L107.637 40.9311C106.814 40.1233 105.961 39.3313 105.081 38.5567L104.751 38.9319L104.42 39.3071C105.287 40.0703 106.127 40.8501 106.936 41.6448L107.287 41.288ZM104.751 38.9319L105.217 39.1127C105.476 38.4443 105.706 37.7571 105.904 37.0529L105.423 36.9177L104.941 36.7824C104.752 37.4555 104.532 38.1123 104.285 38.7511L104.751 38.9319ZM106.175 32.743L106.673 32.7845C106.732 32.0731 106.759 31.3497 106.752 30.6157L106.252 30.6208L105.752 30.626C105.759 31.3288 105.733 32.021 105.676 32.7014L106.175 32.743ZM106.252 30.6208L106.752 30.6157C106.742 29.7099 106.681 28.8134 106.571 27.9297L106.075 27.9912L105.579 28.0527C105.684 28.8999 105.743 29.7588 105.752 30.626L106.252 30.6208ZM104.863 22.8711L105.334 22.7046C104.728 20.9886 103.948 19.3617 103.031 17.8575L102.604 18.1178L102.177 18.378C103.058 19.8242 103.809 21.3885 104.391 23.0376L104.863 22.8711ZM99.4038 13.9398L99.7652 13.5942C98.4807 12.2511 97.0749 11.0984 95.5985 10.1844L95.3353 10.6095L95.0721 11.0346C96.471 11.9007 97.8117 12.9983 99.0425 14.2853L99.4038 13.9398ZM90.4888 8.59956L90.5939 8.11072C89.6878 7.916 88.7755 7.81818 87.8675 7.82754L87.8726 8.32752L87.8778 8.82749C88.7069 8.81894 89.5452 8.9082 90.3838 9.0884L90.4888 8.59956ZM87.8726 8.32752L87.8674 7.82754C86.9067 7.83752 85.9663 7.95892 85.053 8.18253L85.1719 8.66818L85.2908 9.15384C86.1308 8.94816 86.995 8.83666 87.8778 8.82749L87.8726 8.32752ZM80.3013 11.0406L79.9987 10.6426C78.5644 11.733 77.2706 13.1053 76.1549 14.699L76.5645 14.9857L76.9741 15.2725C78.0367 13.7546 79.2603 12.4601 80.6039 11.4387L80.3013 11.0406ZM74.0217 19.7971L73.5555 19.6163C73.2259 20.466 72.9362 21.3482 72.6895 22.2582L73.172 22.389L73.6546 22.5199C73.8923 21.6431 74.1712 20.7943 74.4878 19.9779L74.0217 19.7971Z" fill="#E4E3E6"/>
<g filter="url(#filter0_g_1295_9070)">
<path d="M37.674 22.2183C42.4228 21.3161 47.2805 24.4161 50.4159 29.713C53.2017 28.0727 56.0964 26.8302 59.0545 26.0947C63.5071 25.2488 68.865 25.7368 74.4736 27.2547C76.1399 19.057 81.602 13.0201 88.1656 12.9299C96.1649 12.82 102.772 21.5849 102.922 32.5071C102.968 35.8714 102.394 39.0475 101.347 41.836C104.58 44.6834 107.413 47.7863 109.624 51.0458C111.144 52.4204 113.893 54.8837 114.228 55.026C114.691 55.2219 117.791 56.6173 117.791 56.6173L119.256 57.6153C119.265 57.6211 119.585 57.844 119.823 58.3585C119.975 58.6868 120.046 59.1985 120.08 59.5324C120.111 59.6127 120.13 59.7 120.133 59.7917C120.146 60.2349 120.142 60.7748 120.069 61.1467C119.927 61.8784 119.043 63.8716 119.032 63.8955L117.47 66.059C118.346 66.9074 118.955 67.7868 118.947 68.5905C118.92 71.4088 117.392 73.675 117.368 73.7106L115.621 76.4531C115.621 76.4531 114.967 77.5701 113.739 79.2211C113.247 79.8818 111.867 81.0506 110.388 82.2164C101.926 90.9804 85.7048 97.5897 73.8295 99.8459C63.9174 101.729 49.8623 99.7278 38.8829 94.8312C36.5054 94.2922 33.2327 93.6894 29.0812 92.9131C29.0812 92.9131 27.5108 92.4139 25.795 91.1448C24.0926 89.8855 23.2982 89.2381 23.2857 89.2279L19.9423 85.7408L17.736 82.1908C17.5597 81.9067 17.5693 81.5445 17.761 81.2705L19.2774 79.1018L16.0156 74.8825C15.8115 74.6185 15.7936 74.2847 15.9203 74.0149C15.9213 73.8181 15.9927 73.6169 16.1527 73.4489L20.9054 68.4585L24.6527 63.0319C26.2482 58.5012 28.4853 53.8672 31.2209 49.468C30.0959 47.3663 29.235 44.9589 28.7386 42.3462C26.8723 32.5221 30.8728 23.5107 37.674 22.2183Z" fill="#C1B6AD"/>
<path d="M60.6312 66.1311C56.5302 75.3572 44.0033 79.9957 37.1819 76.9636C30.3605 73.9316 31.8278 64.3771 35.9288 55.1509C40.0297 45.9248 48.8841 40.9036 55.7055 43.9356C62.5269 46.9677 64.7322 56.905 60.6312 66.1311Z" fill="#7B7269"/>
<path d="M74.819 63.4358C82.0178 70.5151 95.3012 70.6546 100.429 65.4408C105.556 60.2269 100.586 51.634 93.3869 44.5546C86.1882 37.4753 76.1958 35.963 71.0685 41.1769C65.9411 46.3908 67.6202 56.3564 74.819 63.4358Z" fill="#7B7269"/>
<ellipse cx="55.3445" cy="62.2442" rx="4.31777" ry="5.57132" transform="rotate(-10.7571 55.3445 62.2442)" fill="#443028"/>
<ellipse cx="77.512" cy="58.0323" rx="4.31777" ry="5.57132" transform="rotate(-10.7571 77.512 58.0323)" fill="#443028"/>
<ellipse cx="69.1199" cy="72.8117" rx="13.0926" ry="9.33196" transform="rotate(-10.7571 69.1199 72.8117)" fill="#E5E0D4"/>
<ellipse cx="68.1086" cy="66.9183" rx="3.6594" ry="4.93815" transform="rotate(-97.7922 68.1086 66.9183)" fill="#443028"/>
<path d="M68.4785 69.6729L68.3889 71.95" stroke="#443028" stroke-width="3.34279" stroke-linecap="round"/>
<path d="M51.4198 52.7817L54.2743 52.78" stroke="#443028" stroke-width="3.34279" stroke-linecap="round"/>
<path d="M74.2145 48.885L76.7676 47.3989" stroke="#443028" stroke-width="3.34279" stroke-linecap="round"/>
<path d="M39.1556 28.7421C42.0802 28.1865 45.0779 30.3728 46.7479 33.9219L36.3962 45.0615C35.3766 43.6417 34.5981 41.8496 34.2153 39.8347C33.187 34.4224 35.3988 29.4559 39.1556 28.7421Z" fill="#7B7269" fill-opacity="0.63"/>
<path d="M87.2728 21.8684C84.1163 22.4681 81.9714 25.8497 81.6996 30.0743L96.5011 37.1608C96.963 35.3317 97.0355 33.224 96.6223 31.0494C95.5127 25.2088 91.3268 21.0984 87.2728 21.8684Z" fill="#7B7269" fill-opacity="0.64"/>
<path d="M62.4787 70.9477C63.2773 71.7773 63.2344 72.6036 62.6976 73.1203C62.1608 73.6371 61.3334 73.6485 60.5348 72.819C59.7363 71.9894 59.524 70.898 60.0608 70.3813C60.5976 69.8645 61.6801 70.1181 62.4787 70.9477Z" fill="url(#paint0_linear_1295_9070)"/>
<path d="M60.6157 74.1317C61.4727 74.1993 61.8582 74.682 61.8144 75.2366C61.7707 75.7911 61.3144 76.2075 60.4573 76.1399C59.6003 76.0724 58.941 75.568 58.9847 75.0135C59.0284 74.4589 59.7586 74.0641 60.6157 74.1317Z" fill="url(#paint1_linear_1295_9070)"/>
</g>
<defs>
<filter id="filter0_g_1295_9070" x="15.5616" y="12.6504" width="104.856" height="88.1736" filterUnits="userSpaceOnUse" color-interpolation-filters="sRGB">
<feFlood flood-opacity="0" result="BackgroundImageFix"/>
<feBlend mode="normal" in="SourceGraphic" in2="BackgroundImageFix" result="shape"/>
<feTurbulence type="fractalNoise" baseFrequency="0.8974536657333374 0.8974536657333374" numOctaves="3" seed="320" />
<feDisplacementMap in="shape" scale="0.55713182687759399" xChannelSelector="R" yChannelSelector="G" result="displacedImage" width="100%" height="100%" />
<feMerge result="effect1_texture_1295_9070">
<feMergeNode in="displacedImage"/>
</feMerge>
</filter>
<linearGradient id="paint0_linear_1295_9070" x1="60.792" y1="70.6988" x2="62.9263" y2="74.7727" gradientUnits="userSpaceOnUse">
<stop stop-color="#FFF9EB"/>
<stop offset="0.769231" stop-color="#F7EED8"/>
</linearGradient>
<linearGradient id="paint1_linear_1295_9070" x1="59.5504" y1="74.8284" x2="62.761" y2="76.046" gradientUnits="userSpaceOnUse">
<stop stop-color="#FFF9EB"/>
<stop offset="0.317308" stop-color="#F7EED8"/>
</linearGradient>
</defs>
</svg>
