<svg width="27" height="27" viewBox="0 0 27 27" fill="none" xmlns="http://www.w3.org/2000/svg">
<path d="M17.8683 3.40137C18.7303 3.40137 19.5567 3.74402 20.1662 4.35352C20.7757 4.96301 21.1183 5.78941 21.1183 6.65137C21.1183 7.27663 20.9373 7.88274 20.6057 8.40137H21.3683C22.3348 8.40137 23.1183 9.18487 23.1183 10.1514V12.1514C23.1183 13.0336 22.4653 13.7612 21.6164 13.8818C21.6166 13.8883 21.6183 13.8948 21.6183 13.9014V20.9014C21.6183 21.8679 20.8348 22.6514 19.8683 22.6514H6.86835C5.90185 22.6514 5.11835 21.8679 5.11835 20.9014V13.9014C5.11835 13.8948 5.11916 13.8883 5.11932 13.8818C4.27091 13.7608 3.61835 13.0332 3.61835 12.1514V10.1514C3.61835 9.18487 4.40185 8.40137 5.36835 8.40137H6.13104C5.79936 7.88274 5.61835 7.27663 5.61835 6.65137C5.61835 5.78941 5.961 4.96301 6.5705 4.35352C7.17999 3.74402 8.00639 3.40137 8.86835 3.40137C11.0354 3.40137 12.3567 4.96022 13.0881 6.29004C13.1911 6.47736 13.2833 6.66488 13.3683 6.84766C13.4534 6.66488 13.5456 6.47736 13.6486 6.29004C14.38 4.96022 15.7013 3.40137 17.8683 3.40137ZM14.1183 21.1514H19.8683C20.0064 21.1514 20.1183 21.0394 20.1183 20.9014V13.9014H14.1183V21.1514ZM6.61835 20.9014C6.61835 21.0394 6.73028 21.1514 6.86835 21.1514H12.6183V13.9014H6.61835V20.9014ZM14.1183 12.4014H21.3683C21.5064 12.4014 21.6183 12.2894 21.6183 12.1514V10.1514C21.6183 10.0133 21.5064 9.90137 21.3683 9.90137H14.1183V12.4014ZM5.36835 9.90137C5.23028 9.90137 5.11835 10.0133 5.11835 10.1514V12.1514C5.11835 12.2894 5.23028 12.4014 5.36835 12.4014H12.6183V9.90137H5.36835ZM8.86835 4.90137C8.40422 4.90137 7.95923 5.08587 7.63104 5.41406C7.30285 5.74225 7.11835 6.18724 7.11835 6.65137C7.11835 7.1155 7.30285 7.56048 7.63104 7.88867C7.95923 8.21686 8.40422 8.40137 8.86835 8.40137H12.3781C12.2397 7.99441 12.0421 7.5009 11.7736 7.0127C11.13 5.84257 10.2012 4.90137 8.86835 4.90137ZM17.8683 4.90137C16.5355 4.90137 15.6067 5.84257 14.9631 7.0127C14.6946 7.5009 14.497 7.99441 14.3586 8.40137H17.8683C18.3325 8.40137 18.7775 8.21686 19.1057 7.88867C19.4338 7.56048 19.6183 7.1155 19.6183 6.65137C19.6183 6.18724 19.4338 5.74225 19.1057 5.41406C18.7775 5.08588 18.3325 4.90137 17.8683 4.90137Z" fill="currentColor"/>
</svg>
