<svg width="27" height="27" viewBox="0 0 27 27" fill="none" xmlns="http://www.w3.org/2000/svg">
<path d="M17.5352 3.52637C18.3971 3.52637 19.2235 3.86902 19.833 4.47852C20.4425 5.08801 20.7852 5.91441 20.7852 6.77637C20.7852 7.29015 20.663 7.7911 20.4355 8.24121H21.0352C22.0015 8.24121 22.7849 9.02489 22.7852 9.99121V11.9912C22.7852 12.894 22.1015 13.6364 21.2236 13.7305C21.2627 13.8213 21.2852 13.9212 21.2852 14.0264V21.0264C21.2852 21.9929 20.5017 22.7764 19.5352 22.7764H6.53516C5.56866 22.7764 4.78516 21.9929 4.78516 21.0264V14.0264C4.78516 13.9213 4.80669 13.8212 4.8457 13.7305C3.96834 13.636 3.28516 12.8937 3.28516 11.9912V9.99121C3.28537 9.02489 4.06879 8.24121 5.03516 8.24121H5.63477C5.40733 7.7911 5.28516 7.29015 5.28516 6.77637C5.28516 5.91441 5.62781 5.08801 6.2373 4.47852C6.8468 3.86902 7.6732 3.52637 8.53516 3.52637C10.7022 3.52637 12.0235 5.08522 12.7549 6.41504C12.8579 6.60236 12.9501 6.78988 13.0352 6.97266C13.1202 6.78988 13.2124 6.60236 13.3154 6.41504C14.0468 5.08522 15.3681 3.52637 17.5352 3.52637Z" fill="currentColor"/>
</svg>
