<svg width="24" height="22" viewBox="0 0 24 22" fill="currentColor" xmlns="http://www.w3.org/2000/svg">
<path d="M8.79273 4.49558e-05C6.73091 -0.0109167 4.72364 1.9841 5.64 4.46142H2.18182C1.60316 4.46142 1.04821 4.6924 0.63904 5.10354C0.22987 5.51468 0 6.0723 0 6.65374V8.84606C0 9.13678 0.114935 9.4156 0.31952 9.62117C0.524105 9.82674 0.801582 9.94223 1.09091 9.94223H10.9091V6.65374H13.0909V9.94223H22.9091C23.1984 9.94223 23.4759 9.82674 23.6805 9.62117C23.8851 9.4156 24 9.13678 24 8.84606V6.65374C24 6.0723 23.7701 5.51468 23.361 5.10354C22.9518 4.6924 22.3968 4.46142 21.8182 4.46142H18.36C19.6364 0.876974 14.8364 -1.65516 12.6218 1.43602L12 2.2691L11.3782 1.41409C10.6909 0.43851 9.74182 0.0110066 8.79273 4.49558e-05ZM8.72727 2.2691C9.69818 2.2691 10.1891 3.45295 9.50182 4.14353C8.81455 4.83412 7.63636 4.34084 7.63636 3.36526C7.63636 3.07454 7.7513 2.79573 7.95588 2.59016C8.16047 2.38459 8.43795 2.2691 8.72727 2.2691ZM15.2727 2.2691C16.2436 2.2691 16.7345 3.45295 16.0473 4.14353C15.36 4.83412 14.1818 4.34084 14.1818 3.36526C14.1818 3.07454 14.2968 2.79573 14.5013 2.59016C14.7059 2.38459 14.9834 2.2691 15.2727 2.2691ZM1.09091 11.0384V19.8077C1.09091 20.3891 1.32078 20.9467 1.72995 21.3579C2.13912 21.769 2.69407 22 3.27273 22H20.7273C21.3059 22 21.8609 21.769 22.2701 21.3579C22.6792 20.9467 22.9091 20.3891 22.9091 19.8077V11.0384H13.0909V19.8077H10.9091V11.0384H1.09091Z" fill="#currentColor"/>
</svg>
