<svg width="25" height="25" viewBox="0 0 25 25" fill="none" xmlns="http://www.w3.org/2000/svg">
<path d="M10.96 3.42652C12.0345 2.63211 13.5156 2.63269 14.5898 3.4275L20.6709 7.92652C21.6785 8.672 22.2713 9.83858 22.2715 11.0769V18.8718C22.2713 20.5061 20.9211 21.8308 19.2559 21.8308H6.28711C4.62186 21.8308 3.27167 20.5061 3.27148 18.8718V11.0779C3.27161 9.83901 3.86475 8.67195 4.87305 7.92652L10.96 3.42652ZM9.77148 13.0808C9.35727 13.0808 9.02148 13.4166 9.02148 13.8308C9.02148 14.245 9.35727 14.5808 9.77148 14.5808H15.7715C16.1857 14.5808 16.5215 14.245 16.5215 13.8308C16.5215 13.4166 16.1857 13.0808 15.7715 13.0808H9.77148Z" fill="currentColor"/>
</svg>
