<svg width="24" height="24" viewBox="0 0 24 24" fill="none" xmlns="http://www.w3.org/2000/svg">
<path d="M10.1885 3.09547C11.263 2.30106 12.7441 2.30164 13.8184 3.09644L19.8994 7.59547C20.907 8.34094 21.4999 9.50753 21.5 10.7459V18.5408C21.4998 20.175 20.1496 21.4998 18.4844 21.4998H5.51562C3.85037 21.4998 2.50018 20.175 2.5 18.5408V10.7468C2.50013 9.50796 3.09326 8.34089 4.10156 7.59547L10.1885 3.09547ZM12.9111 4.27711C12.374 3.8797 11.633 3.8799 11.0957 4.27711L5.00879 8.77711C4.37864 9.24297 4.00794 9.97259 4.00781 10.7468V18.5408C4.00799 19.3578 4.68305 20.0203 5.51562 20.0203H18.4844C19.3169 20.0203 19.992 19.3578 19.9922 18.5408V10.7459C19.992 9.97197 19.6219 9.243 18.9922 8.77711L12.9111 4.27711ZM15 12.7498C15.4142 12.7498 15.75 13.0856 15.75 13.4998C15.75 13.914 15.4142 14.2498 15 14.2498H9C8.58579 14.2498 8.25 13.914 8.25 13.4998C8.25 13.0856 8.58579 12.7498 9 12.7498H15Z" fill="currentColor"/>
</svg>
