<svg width="721" height="242" viewBox="0 0 721 242" fill="none" xmlns="http://www.w3.org/2000/svg">
<path d="M669.696 25.344C669.696 17.3227 672.17 11.0933 677.12 6.65601C682.069 2.21867 688.128 0 695.296 0C702.464 0 708.522 2.21867 713.472 6.65601C718.421 11.0933 720.896 17.3227 720.896 25.344V240.384H669.696V25.344ZM535.808 230.144C524.544 230.144 516.096 229.035 510.464 226.816C505.002 224.597 501.248 220.757 499.2 215.296C497.322 209.835 496.384 201.472 496.384 190.208V48.64C496.384 37.5467 497.322 29.2693 499.2 23.808C501.248 18.3467 505.002 14.5067 510.464 12.288C515.925 10.0693 524.373 8.95999 535.808 8.95999H617.984C624.81 8.95999 629.76 11.0933 632.832 15.36C636.074 19.6267 637.696 24.6613 637.696 30.464C637.696 36.2667 636.074 41.3867 632.832 45.824C629.589 50.0907 624.64 52.224 617.984 52.224H554.496C552.106 52.224 550.4 52.736 549.376 53.76C548.352 54.784 547.84 56.7467 547.84 59.648V179.968C547.84 182.869 548.352 184.832 549.376 185.856C550.4 186.88 552.106 187.392 554.496 187.392H634.112C640.938 187.392 645.802 189.525 648.704 193.792C651.776 198.059 653.312 203.093 653.312 208.896C653.312 214.699 651.776 219.648 648.704 223.744C645.632 228.011 640.768 230.144 634.112 230.144H535.808Z" fill="#00B140"/>
<path d="M458.24 129.28C465.408 129.28 470.784 131.328 474.368 135.424C477.952 139.52 479.744 144.469 479.744 150.272C479.744 156.245 477.952 161.28 474.368 165.376C470.784 169.301 465.408 171.264 458.24 171.264H386.048V241.664H333.824V171.264H261.632C254.464 171.264 249.088 169.301 245.504 165.376C241.92 161.28 240.128 156.245 240.128 150.272C240.128 144.469 241.92 139.52 245.504 135.424C249.088 131.328 254.464 129.28 261.632 129.28H404.224C408.32 122.112 411.392 113.835 413.44 104.448C415.488 95.0614 416.512 83.8827 416.512 70.912V56.832C416.512 54.9547 415.915 53.4187 414.72 52.224C413.696 51.0294 412.16 50.432 410.112 50.432H271.104C263.936 50.432 258.389 48.2134 254.464 43.776C250.539 39.3387 248.576 34.2187 248.576 28.416C248.576 22.6134 250.539 17.4934 254.464 13.056C258.389 8.61869 263.936 6.40002 271.104 6.40002H427.52C442.197 6.40002 452.437 9.30136 458.24 15.104C464.043 20.736 466.944 30.0374 466.944 43.008V67.328C466.944 90.88 463.616 111.531 456.96 129.28H458.24Z" fill="#00B140"/>
<path d="M173.056 25.344C173.056 17.3227 175.531 11.0933 180.48 6.65601C185.429 2.21867 191.488 0 198.656 0C205.824 0 211.883 2.21867 216.832 6.65601C221.781 11.0933 224.256 17.3227 224.256 25.344V240.384H173.056V132.352H127.744C120.064 132.352 114.005 130.133 109.568 125.696C105.131 121.259 102.912 115.371 102.912 108.032C102.912 100.864 105.131 94.976 109.568 90.368C114.005 85.76 120.064 83.456 127.744 83.456H173.056V25.344ZM132.352 184.32C139.179 184.32 144.043 186.453 146.944 190.72C150.016 194.816 151.552 199.765 151.552 205.568C151.552 211.541 150.016 216.661 146.944 220.928C143.872 225.365 139.008 227.584 132.352 227.584H38.656C28.5867 227.584 20.736 226.304 15.104 223.744C9.64267 221.184 5.71733 217.088 3.328 211.456C1.10933 205.824 0 198.059 0 188.16V35.072C0 26.88 2.38933 20.736 7.168 16.64C12.1173 12.3733 18.3467 10.24 25.856 10.24C33.1947 10.24 39.168 12.3733 43.776 16.64C48.5547 20.9067 50.944 27.0507 50.944 35.072V177.152C50.944 180.053 51.456 182.016 52.48 183.04C53.504 183.893 55.4667 184.32 58.368 184.32H132.352Z" fill="#00B140"/>
</svg>
