<svg width="241" height="210" viewBox="0 0 241 210" fill="none" xmlns="http://www.w3.org/2000/svg">
<g filter="url(#filter0_i_1453_1255)">
<ellipse cx="80.6096" cy="57.7058" rx="12.16" ry="12.32" transform="rotate(19.7654 80.6096 57.7058)" fill="#FFDB5C"/>
</g>
<path d="M84.4514 47.0151C90.2614 49.1029 93.2757 55.5783 91.15 61.4937C89.0243 67.409 82.5782 70.484 76.7683 68.3963C70.9583 66.3086 67.9439 59.834 70.0693 53.9186C72.195 48.0031 78.6413 44.9273 84.4514 47.0151Z" stroke="#F0D164" stroke-width="1.92"/>
<path d="M84.4839 53.8445L84.6936 57.1378L83.5958 57.2077L83.6657 58.3055L80.3724 58.5152L80.6519 62.9063L78.4564 63.0461L77.8273 53.1661L83.3162 52.8166L83.3861 53.9144L84.4839 53.8445ZM82.2883 53.9843L80.0928 54.1241L80.3025 57.4174L82.498 57.2776L82.2883 53.9843Z" fill="#8F7828"/>
<path d="M80.8337 96.0919L139.626 109.395L200.669 74.7848L185.238 123.532L231.449 138.712L160.793 152.735L106.5 200.514L125.682 157.299L59.0495 155.08L118.334 134.859L80.8337 96.0919Z" fill="#FFDB5C"/>
<path d="M141.597 52.3326L161.829 131.132L124.544 123.295L141.597 52.3326Z" fill="#FFDB5C"/>
<path d="M160.923 195.309L139.913 139.308L171.772 143.391L160.923 195.309Z" fill="#FFDB5C"/>
<path d="M81.1054 92.0719C83.6359 82.1827 90.6609 75.1578 98.6655 75.4482C108.421 75.8024 115.936 86.8873 115.453 100.207C115.304 104.31 114.413 108.146 112.967 111.481C116.733 115.148 119.996 119.103 122.491 123.21C124.26 124.978 127.46 128.147 127.858 128.34C128.409 128.606 132.073 130.481 132.104 130.497L133.829 131.802C133.841 131.812 134.218 132.103 134.475 132.742C134.64 133.152 134.695 133.78 134.716 134.189C134.749 134.288 134.767 134.395 134.765 134.506C134.754 135.047 134.716 135.705 134.605 136.154C134.386 137.038 133.183 139.421 133.173 139.441L131.137 141.983C132.152 143.07 132.84 144.18 132.782 145.159C132.576 148.615 130.55 151.296 130.545 151.302L128.249 154.538C128.242 154.548 127.377 155.865 125.786 157.795C125.147 158.571 123.393 159.911 121.52 161.241C110.673 171.406 90.5022 178.472 75.8924 180.498C63.6981 182.188 46.6911 178.893 33.6094 172.256C30.7448 171.454 26.7933 170.519 21.7813 169.32C21.7649 169.313 19.8892 168.608 17.8843 166.964C15.8876 165.327 14.9578 164.489 14.9422 164.475L11.0816 160.022L8.60989 155.561C8.41224 155.204 8.44558 154.764 8.6957 154.442L10.6768 151.892L6.95671 146.55C6.72393 146.215 6.72515 145.806 6.89644 145.485C6.90986 145.246 7.00775 145.005 7.21275 144.81L13.3095 139.018L18.2049 132.637C20.4258 127.211 23.436 121.699 27.0389 116.504C25.7963 113.874 24.8938 110.889 24.4482 107.675C22.7727 95.5883 28.1979 84.8492 36.5653 83.6889C42.4076 82.8792 48.1389 86.9538 51.6369 93.6002C55.1314 91.7714 58.7344 90.4327 62.3837 89.7168C67.862 88.9575 74.3623 89.8796 81.1054 92.0719Z" fill="#6C5B54"/>
<path d="M81.1054 92.0719L80.8735 92.7851L81.6338 93.0323L81.8319 92.2578L81.1054 92.0719ZM98.6655 75.4482L98.6927 74.6987L98.6927 74.6987L98.6655 75.4482ZM115.453 100.207L116.203 100.234L116.203 100.234L115.453 100.207ZM112.967 111.481L112.279 111.182L112.073 111.657L112.443 112.018L112.967 111.481ZM122.491 123.21L121.85 123.599L121.896 123.676L121.96 123.74L122.491 123.21ZM127.858 128.34L127.53 129.015L127.532 129.016L127.858 128.34ZM132.104 130.497L132.557 129.899L132.504 129.859L132.446 129.829L132.104 130.497ZM133.829 131.802L134.285 131.206L134.282 131.204L133.829 131.802ZM134.475 132.742L135.171 132.462L135.171 132.462L134.475 132.742ZM134.716 134.189L133.967 134.228L133.973 134.329L134.005 134.425L134.716 134.189ZM134.765 134.506L135.515 134.521L135.515 134.52L134.765 134.506ZM134.605 136.154L135.333 136.334L135.333 136.334L134.605 136.154ZM133.173 139.441L133.758 139.91L133.807 139.849L133.842 139.78L133.173 139.441ZM131.137 141.983L130.551 141.514L130.146 142.021L130.589 142.495L131.137 141.983ZM132.782 145.159L133.531 145.204L133.531 145.204L132.782 145.159ZM130.545 151.302L129.946 150.85L129.94 150.859L129.933 150.868L130.545 151.302ZM128.249 154.538L127.637 154.104L127.629 154.115L127.621 154.127L128.249 154.538ZM125.786 157.795L126.365 158.272L126.365 158.272L125.786 157.795ZM121.52 161.241L121.086 160.63L121.045 160.659L121.008 160.694L121.52 161.241ZM75.8924 180.498L75.9954 181.241L75.9954 181.241L75.8924 180.498ZM33.6094 172.256L33.9487 171.587L33.8827 171.554L33.8115 171.534L33.6094 172.256ZM21.7813 169.32L21.5182 170.022L21.5616 170.038L21.6067 170.049L21.7813 169.32ZM17.8843 166.964L17.4087 167.544L17.4087 167.544L17.8843 166.964ZM14.9422 164.475L14.3756 164.967L14.4058 165.001L14.4401 165.032L14.9422 164.475ZM11.0816 160.022L10.4256 160.386L10.4636 160.454L10.5149 160.513L11.0816 160.022ZM8.60989 155.561L7.9538 155.925L7.95386 155.925L8.60989 155.561ZM8.6957 154.442L8.10343 153.982L8.10325 153.982L8.6957 154.442ZM10.6768 151.892L11.269 152.352L11.6076 151.916L11.2922 151.463L10.6768 151.892ZM6.95671 146.55L6.34111 146.978L6.34124 146.978L6.95671 146.55ZM6.89644 145.485L7.55819 145.838L7.63602 145.692L7.64527 145.527L6.89644 145.485ZM7.21275 144.81L6.69616 144.267L6.69611 144.267L7.21275 144.81ZM13.3095 139.018L13.826 139.562L13.8687 139.521L13.9045 139.475L13.3095 139.018ZM18.2049 132.637L18.8 133.094L18.861 133.014L18.899 132.921L18.2049 132.637ZM27.0389 116.504L27.6552 116.931L27.9022 116.575L27.717 116.183L27.0389 116.504ZM24.4482 107.675L23.7053 107.778L23.7053 107.778L24.4482 107.675ZM36.5653 83.6889L36.4623 82.946L36.4623 82.946L36.5653 83.6889ZM51.6369 93.6002L50.9732 93.9495L51.3217 94.6116L51.9847 94.2647L51.6369 93.6002ZM62.3837 89.7168L62.2808 88.9739L62.26 88.9768L62.2394 88.9808L62.3837 89.7168ZM79.0357 90.6567C78.6373 90.5434 78.2224 90.7745 78.1091 91.1729C77.9957 91.5713 78.2268 91.9861 78.6252 92.0995L78.8304 91.3781L79.0357 90.6567ZM74.0647 91.0023C74.4713 91.0814 74.865 90.816 74.9442 90.4094C75.0233 90.0028 74.7579 89.609 74.3513 89.5299L74.208 90.2661L74.0647 91.0023ZM69.5668 88.8481C69.1542 88.8122 68.7906 89.1177 68.7547 89.5303C68.7188 89.943 69.0243 90.3066 69.4369 90.3424L69.5019 89.5952L69.5668 88.8481ZM64.7885 90.2443C65.2022 90.223 65.5203 89.8705 65.4991 89.4568C65.4779 89.0431 65.1253 88.725 64.7116 88.7462L64.7501 89.4952L64.7885 90.2443ZM59.3926 89.6636C58.9941 89.7764 58.7625 90.191 58.8753 90.5895C58.9882 90.9881 59.4028 91.2197 59.8013 91.1068L59.597 90.3852L59.3926 89.6636ZM54.5217 93.0347C54.8999 92.8659 55.0697 92.4224 54.9009 92.0441C54.7321 91.6659 54.2887 91.4961 53.9104 91.6649L54.216 92.3498L54.5217 93.0347ZM51.0494 91.1194C50.8229 90.7726 50.3582 90.6751 50.0114 90.9016C49.6646 91.128 49.567 91.5928 49.7935 91.9396L50.4215 91.5295L51.0494 91.1194ZM46.8688 88.3548C47.1658 88.6436 47.6406 88.6369 47.9294 88.34C48.2182 88.043 48.2115 87.5682 47.9146 87.2794L47.3917 87.8171L46.8688 88.3548ZM43.8781 84.3225C43.5104 84.1318 43.0577 84.2753 42.867 84.643C42.6763 85.0107 42.8198 85.4634 43.1875 85.6541L43.5328 84.9883L43.8781 84.3225ZM38.8975 84.373C39.3102 84.4079 39.6731 84.1017 39.708 83.6889C39.7429 83.2762 39.4367 82.9133 39.0239 82.8784L38.9607 83.6257L38.8975 84.373ZM32.7117 84.1411C32.3435 84.3309 32.1988 84.7832 32.3886 85.1514C32.5784 85.5195 33.0307 85.6642 33.3989 85.4744L33.0553 84.8078L32.7117 84.1411ZM28.3692 90.2435C28.5935 89.8953 28.4931 89.4312 28.1448 89.2069C27.7966 88.9826 27.3325 89.083 27.1082 89.4312L27.7387 89.8374L28.3692 90.2435ZM24.1825 96.4668C24.0858 96.8696 24.334 97.2744 24.7367 97.3711C25.1395 97.4678 25.5444 97.2197 25.6411 96.8169L24.9118 96.6419L24.1825 96.4668ZM24.9016 103.969C24.8926 103.555 24.5496 103.227 24.1355 103.236C23.7214 103.245 23.393 103.588 23.402 104.002L24.1518 103.986L24.9016 103.969ZM24.1131 110.105C24.1992 110.51 24.5975 110.769 25.0026 110.682C25.4078 110.596 25.6664 110.198 25.5803 109.793L24.8467 109.949L24.1131 110.105ZM26.8408 114.114C26.6947 113.726 26.2621 113.53 25.8745 113.676C25.4869 113.822 25.2911 114.255 25.4371 114.642L26.139 114.378L26.8408 114.114ZM25.1235 118.002C24.8963 118.348 24.9928 118.813 25.3391 119.04C25.6854 119.268 26.1504 119.171 26.3776 118.825L25.7506 118.413L25.1235 118.002ZM23.9706 122.707C24.1797 122.35 24.0593 121.891 23.7017 121.681C23.3441 121.472 22.8847 121.593 22.6757 121.95L23.3231 122.329L23.9706 122.707ZM20.4374 126.023C20.2477 126.391 20.3924 126.843 20.7606 127.033C21.1289 127.223 21.5811 127.078 21.7708 126.71L21.1041 126.366L20.4374 126.023ZM19.7952 130.824C19.9637 130.446 19.7935 130.002 19.4151 129.834C19.0367 129.665 18.5934 129.835 18.4249 130.214L19.1101 130.519L19.7952 130.824ZM16.386 133.776C16.1339 134.104 16.1959 134.575 16.5245 134.827C16.8532 135.079 17.324 135.017 17.5761 134.689L16.9811 134.232L16.386 133.776ZM15.1284 137.879C15.3805 137.551 15.3185 137.08 14.9898 136.828C14.6612 136.576 14.1904 136.638 13.9383 136.966L14.5333 137.423L15.1284 137.879ZM11.2687 139.922C10.9684 140.208 10.9563 140.682 11.2416 140.983C11.5269 141.283 12.0016 141.295 12.3019 141.01L11.7853 140.466L11.2687 139.922ZM9.25351 143.906C9.5538 143.621 9.56595 143.146 9.28065 142.846C8.99535 142.545 8.52063 142.533 8.22034 142.819L8.73692 143.362L9.25351 143.906ZM6.48137 144.51C6.23675 144.845 6.30941 145.314 6.64367 145.559C6.97793 145.803 7.44721 145.731 7.69184 145.396L7.08661 144.953L6.48137 144.51ZM7.65243 145.479C7.75329 145.078 7.50936 144.67 7.10762 144.569C6.70587 144.468 6.29843 144.712 6.19758 145.114L6.92501 145.297L7.65243 145.479ZM6.06729 145.584C5.97675 145.988 6.23101 146.389 6.63521 146.479C7.03941 146.57 7.44047 146.316 7.53102 145.911L6.79916 145.747L6.06729 145.584ZM7.53807 146.055C7.40235 145.664 6.97508 145.456 6.58373 145.592C6.19238 145.728 5.98515 146.155 6.12087 146.546L6.82947 146.301L7.53807 146.055ZM7.27125 148.314C7.50796 148.654 7.97541 148.737 8.31532 148.501C8.65524 148.264 8.7389 147.797 8.50219 147.457L7.88672 147.885L7.27125 148.314ZM10.3622 150.128C10.1255 149.788 9.65806 149.704 9.31814 149.941C8.97823 150.177 8.89457 150.645 9.13128 150.985L9.74674 150.556L10.3622 150.128ZM9.58922 152.069C9.3351 152.396 9.39427 152.867 9.72137 153.121C10.0485 153.376 10.5197 153.316 10.7738 152.989L10.1815 152.529L9.58922 152.069ZM9.78324 154.264C10.0374 153.937 9.97819 153.466 9.65108 153.212C9.32398 152.958 8.8528 153.017 8.59869 153.344L9.19097 153.804L9.78324 154.264ZM7.85021 154.43C7.70127 154.816 7.89385 155.251 8.28036 155.399C8.66686 155.548 9.10093 155.356 9.24988 154.969L8.55005 154.7L7.85021 154.43ZM9.23814 155.124C9.14981 154.719 8.75014 154.463 8.34545 154.551C7.94077 154.64 7.68431 155.039 7.77264 155.444L8.50539 155.284L9.23814 155.124ZM8.57179 157.04C8.77254 157.402 9.229 157.533 9.59131 157.332C9.95363 157.132 10.0846 156.675 9.88384 156.313L9.22782 156.676L8.57179 157.04ZM11.1197 158.543C10.919 158.181 10.4625 158.05 10.1002 158.251C9.73787 158.452 9.6069 158.908 9.80765 159.27L10.4637 158.907L11.1197 158.543ZM11.4801 161.627C11.7514 161.94 12.2251 161.973 12.5381 161.702C12.851 161.431 12.8848 160.957 12.6135 160.644L12.0468 161.135L11.4801 161.627ZM14.5438 162.871C14.2724 162.558 13.7988 162.524 13.4858 162.795C13.1728 163.067 13.1391 163.54 13.4104 163.853L13.9771 163.362L14.5438 162.871ZM15.1792 165.678C15.4934 165.948 15.9669 165.912 16.2368 165.597C16.5068 165.283 16.4709 164.81 16.1567 164.54L15.6679 165.109L15.1792 165.678ZM17.6196 165.773C17.3009 165.509 16.8281 165.553 16.5635 165.871C16.2989 166.19 16.3428 166.663 16.6615 166.927L17.1405 166.35L17.6196 165.773ZM18.36 168.269C18.6981 168.508 19.1662 168.428 19.4054 168.089C19.6446 167.751 19.5644 167.283 19.2262 167.044L18.7931 167.656L18.36 168.269ZM21.0876 168.176C20.7193 167.986 20.2671 168.131 20.0775 168.499C19.888 168.868 20.0329 169.32 20.4012 169.51L20.7444 168.843L21.0876 168.176ZM24.5706 170.758C24.9734 170.855 25.3782 170.606 25.4747 170.203C25.5712 169.801 25.3229 169.396 24.9201 169.299L24.7453 170.029L24.5706 170.758ZM30.8491 170.749C30.4476 170.647 30.0395 170.89 29.9376 171.291C29.8356 171.693 30.0785 172.101 30.4799 172.203L30.6645 171.476L30.8491 170.749ZM35.7529 174.124C36.1292 174.297 36.5746 174.132 36.7475 173.756C36.9205 173.379 36.7557 172.934 36.3793 172.761L36.0661 173.443L35.7529 174.124ZM41.3662 174.841C40.9786 174.694 40.5459 174.89 40.3998 175.278C40.2536 175.665 40.4493 176.098 40.8368 176.244L41.1015 175.542L41.3662 174.841ZM46.0478 178.018C46.4439 178.139 46.8631 177.916 46.9841 177.52C47.105 177.124 46.8819 176.704 46.4857 176.584L46.2667 177.301L46.0478 178.018ZM51.7068 178.001C51.3039 177.905 50.8993 178.154 50.8033 178.557C50.7072 178.96 50.9559 179.364 51.3588 179.46L51.5328 178.731L51.7068 178.001ZM56.7504 180.568C57.1586 180.638 57.5465 180.364 57.6169 179.956C57.6872 179.548 57.4133 179.16 57.0051 179.09L56.8777 179.829L56.7504 180.568ZM62.3593 179.827C61.9473 179.785 61.579 180.085 61.5368 180.497C61.4947 180.909 61.7945 181.277 62.2066 181.32L62.283 180.574L62.3593 179.827ZM67.7113 181.67C68.1254 181.679 68.4688 181.351 68.4782 180.937C68.4876 180.523 68.1596 180.18 67.7454 180.17L67.7284 180.92L67.7113 181.67ZM73.1249 180.039C72.7119 180.07 72.4026 180.431 72.4341 180.844C72.4656 181.257 72.826 181.566 73.239 181.534L73.1819 180.786L73.1249 180.039ZM79.1178 180.747C79.5257 180.674 79.7977 180.285 79.7255 179.877C79.6533 179.469 79.264 179.197 78.8562 179.27L78.987 180.008L79.1178 180.747ZM84.9454 177.985C84.5429 178.083 84.296 178.489 84.3939 178.891C84.4918 179.293 84.8975 179.54 85.2999 179.442L85.1227 178.714L84.9454 177.985ZM91.3904 177.776C91.7867 177.655 92.0103 177.236 91.8899 176.84C91.7695 176.444 91.3505 176.22 90.9542 176.341L91.1723 177.058L91.3904 177.776ZM96.8626 174.365C96.4736 174.507 96.2736 174.938 96.416 175.327C96.5583 175.716 96.989 175.916 97.378 175.773L97.1203 175.069L96.8626 174.365ZM103.243 173.43C103.623 173.265 103.797 172.823 103.631 172.443C103.466 172.063 103.024 171.889 102.644 172.054L102.944 172.742L103.243 173.43ZM108.261 169.383C107.894 169.574 107.751 170.027 107.942 170.394C108.133 170.762 108.586 170.905 108.953 170.714L108.607 170.048L108.261 169.383ZM114.449 167.564C114.799 167.342 114.903 166.879 114.681 166.529C114.46 166.179 113.996 166.075 113.646 166.297L114.048 166.93L114.449 167.564ZM118.683 162.711C118.361 162.971 118.31 163.443 118.57 163.766C118.83 164.088 119.302 164.139 119.625 163.879L119.154 163.295L118.683 162.711ZM123.078 161.042C123.412 160.796 123.484 160.327 123.238 159.993C122.993 159.659 122.524 159.588 122.19 159.833L122.634 160.437L123.078 161.042ZM124.312 158.178C123.998 158.447 123.96 158.92 124.229 159.235C124.498 159.55 124.972 159.588 125.287 159.319L124.8 158.748L124.312 158.178ZM127.016 157.467C127.274 157.142 127.219 156.67 126.895 156.413C126.57 156.156 126.098 156.21 125.841 156.535L126.429 157.001L127.016 157.467ZM127.056 154.934C126.814 155.27 126.889 155.739 127.224 155.982C127.56 156.225 128.029 156.149 128.272 155.814L127.664 155.374L127.056 154.934ZM129.434 154.163C129.674 153.825 129.594 153.357 129.257 153.117C128.919 152.878 128.451 152.957 128.211 153.295L128.823 153.729L129.434 154.163ZM129.359 151.677C129.119 152.015 129.199 152.483 129.537 152.723C129.874 152.962 130.343 152.883 130.582 152.545L129.971 152.111L129.359 151.677ZM132.069 150.237C132.26 149.87 132.118 149.417 131.75 149.225C131.383 149.034 130.93 149.177 130.739 149.544L131.404 149.891L132.069 150.237ZM131.817 146.633C131.727 147.037 131.982 147.438 132.386 147.528C132.79 147.618 133.191 147.363 133.281 146.959L132.549 146.796L131.817 146.633ZM133.36 144.021C133.229 143.628 132.804 143.415 132.411 143.546C132.018 143.677 131.806 144.102 131.936 144.495L132.648 144.258L133.36 144.021ZM131.146 143.141C131.402 143.467 131.874 143.523 132.199 143.267C132.525 143.01 132.581 142.539 132.325 142.213L131.735 142.677L131.146 143.141ZM132.231 141.816C132.49 141.493 132.438 141.021 132.115 140.762C131.791 140.503 131.319 140.555 131.06 140.879L131.646 141.348L132.231 141.816ZM132.078 139.608C131.82 139.931 131.872 140.403 132.195 140.662C132.518 140.921 132.99 140.869 133.249 140.546L132.664 140.077L132.078 139.608ZM134.244 138.96C134.423 138.587 134.266 138.139 133.892 137.959C133.519 137.78 133.071 137.938 132.892 138.311L133.568 138.636L134.244 138.96ZM133.612 136.715C133.455 137.098 133.639 137.536 134.022 137.693C134.405 137.85 134.843 137.667 135 137.283L134.306 136.999L133.612 136.715ZM135.423 135.849C135.48 135.439 135.194 135.06 134.784 135.003C134.373 134.946 133.995 135.233 133.938 135.643L134.681 135.746L135.423 135.849ZM134.002 134.885C133.983 135.299 134.303 135.65 134.717 135.669C135.13 135.689 135.481 135.369 135.501 134.955L134.752 134.92L134.002 134.885ZM135.512 134.374C135.483 133.961 135.126 133.649 134.712 133.677C134.299 133.705 133.987 134.063 134.015 134.476L134.763 134.425L135.512 134.374ZM134.01 134.444C134.108 134.846 134.513 135.093 134.916 134.995C135.318 134.897 135.565 134.492 135.467 134.089L134.739 134.266L134.01 134.444ZM135.438 133.754C135.4 133.342 135.035 133.038 134.623 133.075C134.21 133.112 133.906 133.477 133.944 133.89L134.691 133.822L135.438 133.754ZM133.851 133.262C133.944 133.666 134.346 133.918 134.75 133.825C135.154 133.732 135.406 133.33 135.313 132.926L134.582 133.094L133.851 133.262ZM135.019 132.133C134.826 131.766 134.373 131.624 134.006 131.817C133.639 132.009 133.498 132.462 133.69 132.829L134.354 132.481L135.019 132.133ZM133.466 132.494C133.736 132.808 134.21 132.843 134.523 132.573C134.837 132.302 134.872 131.829 134.602 131.515L134.034 132.005L133.466 132.494ZM133.851 130.878C133.52 130.628 133.05 130.693 132.8 131.024C132.55 131.354 132.615 131.824 132.946 132.074L133.398 131.476L133.851 130.878ZM132.083 131.421C132.413 131.671 132.884 131.606 133.134 131.276C133.384 130.946 133.318 130.475 132.988 130.225L132.536 130.823L132.083 131.421ZM131.385 129.287C131.017 129.099 130.565 129.245 130.376 129.614C130.188 129.983 130.334 130.435 130.703 130.623L131.044 129.955L131.385 129.287ZM128.583 129.544C128.952 129.731 129.404 129.583 129.591 129.214C129.778 128.845 129.631 128.393 129.261 128.206L128.922 128.875L128.583 129.544ZM126.984 126.57C126.684 126.284 126.209 126.297 125.924 126.597C125.638 126.897 125.651 127.372 125.951 127.657L126.467 127.113L126.984 126.57ZM123.279 125.053C123.574 125.344 124.049 125.342 124.34 125.048C124.632 124.753 124.629 124.278 124.335 123.987L123.807 124.52L123.279 125.053ZM121.012 119.615C120.771 119.278 120.303 119.201 119.966 119.442C119.629 119.683 119.551 120.151 119.792 120.488L120.402 120.052L121.012 119.615ZM115.059 114.701C115.34 115.006 115.814 115.025 116.118 114.744C116.423 114.463 116.442 113.988 116.161 113.684L115.61 114.193L115.059 114.701ZM114.699 108.992C114.825 108.597 114.608 108.175 114.213 108.049C113.818 107.923 113.396 108.141 113.27 108.536L113.985 108.764L114.699 108.992ZM114.478 103.007C114.426 103.418 114.718 103.793 115.129 103.844C115.54 103.895 115.915 103.603 115.966 103.192L115.222 103.1L114.478 103.007ZM116.189 97.4185C116.169 97.0047 115.818 96.685 115.405 96.7043C114.991 96.7236 114.671 97.0747 114.69 97.4884L115.439 97.4535L116.189 97.4185ZM113.98 92.1682C114.071 92.5723 114.472 92.8262 114.876 92.7352C115.28 92.6443 115.534 92.2429 115.443 91.8388L114.711 92.0035L113.98 92.1682ZM113.686 86.4759C113.519 86.097 113.076 85.9257 112.697 86.0931C112.318 86.2606 112.147 86.7035 112.314 87.0823L113 86.7791L113.686 86.4759ZM109.634 82.4873C109.884 82.8175 110.354 82.8823 110.684 82.6321C111.014 82.382 111.079 81.9115 110.829 81.5814L110.231 82.0344L109.634 82.4873ZM106.773 77.5659C106.437 77.3234 105.968 77.399 105.726 77.7347C105.483 78.0705 105.559 78.5393 105.895 78.7819L106.334 78.1739L106.773 77.5659ZM101.205 76.5616C101.606 76.6621 102.014 76.4179 102.114 76.016C102.215 75.6142 101.97 75.207 101.569 75.1064L101.387 75.834L101.205 76.5616ZM95.2665 74.9994C94.8615 75.086 94.6034 75.4846 94.69 75.8896C94.7766 76.2947 95.1752 76.5528 95.5803 76.4662L95.4234 75.7328L95.2665 74.9994ZM90.0076 79.0722C90.3389 78.8237 90.406 78.3536 90.1575 78.0222C89.9089 77.6909 89.4388 77.6237 89.1074 77.8723L89.5575 78.4723L90.0076 79.0722ZM84.4689 82.7571C84.2325 83.0972 84.3166 83.5646 84.6567 83.801C84.9968 84.0374 85.4642 83.9533 85.7006 83.6132L85.0848 83.1851L84.4689 82.7571ZM82.7853 89.2236C82.9311 88.8359 82.735 88.4034 82.3472 88.2577C81.9595 88.1119 81.527 88.3081 81.3813 88.6958L82.0833 88.9597L82.7853 89.2236ZM81.1054 92.0719L81.3372 91.3586C80.5669 91.1082 79.7993 90.874 79.0357 90.6567L78.8304 91.3781L78.6252 92.0995C79.3705 92.3115 80.1203 92.5402 80.8735 92.7851L81.1054 92.0719ZM74.208 90.2661L74.3513 89.5299C72.7237 89.2131 71.1248 88.9835 69.5668 88.8481L69.5019 89.5952L69.4369 90.3424C70.9377 90.4728 72.4841 90.6946 74.0647 91.0023L74.208 90.2661ZM64.7501 89.4952L64.7116 88.7462C63.8839 88.7887 63.0728 88.8641 62.2808 88.9739L62.3837 89.7168L62.4867 90.4597C63.2334 90.3562 64.0013 90.2847 64.7885 90.2443L64.7501 89.4952ZM62.3837 89.7168L62.2394 88.9808C61.2862 89.1678 60.3369 89.3962 59.3926 89.6636L59.597 90.3852L59.8013 91.1068C60.7075 90.8503 61.6167 90.6316 62.5281 90.4528L62.3837 89.7168ZM54.216 92.3498L53.9104 91.6649C53.03 92.0578 52.156 92.482 51.2892 92.9357L51.6369 93.6002L51.9847 94.2647C52.8249 93.8249 53.6709 93.4143 54.5217 93.0347L54.216 92.3498ZM51.6369 93.6002L52.3006 93.2509C51.9102 92.5091 51.4923 91.7976 51.0494 91.1194L50.4215 91.5295L49.7935 91.9396C50.21 92.5773 50.6041 93.2482 50.9732 93.9495L51.6369 93.6002ZM47.3917 87.8171L47.9146 87.2794C46.6665 86.0658 45.3101 85.0652 43.8781 84.3225L43.5328 84.9883L43.1875 85.6541C44.475 86.3218 45.7139 87.2317 46.8688 88.3548L47.3917 87.8171ZM38.9607 83.6257L39.0239 82.8784C38.1767 82.8067 37.3207 82.8271 36.4623 82.946L36.5653 83.6889L36.6683 84.4318C37.4147 84.3284 38.1592 84.3106 38.8975 84.373L38.9607 83.6257ZM36.5653 83.6889L36.4623 82.946C35.1362 83.1299 33.8806 83.5386 32.7117 84.1411L33.0553 84.8078L33.3989 85.4744C34.4229 84.9466 35.5164 84.5916 36.6683 84.4318L36.5653 83.6889ZM27.7387 89.8374L27.1082 89.4312C25.8064 91.4521 24.8128 93.8414 24.1825 96.4668L24.9118 96.6419L25.6411 96.8169C26.2368 94.3356 27.1693 92.1062 28.3692 90.2435L27.7387 89.8374ZM24.1518 103.986L23.402 104.002C23.4289 105.24 23.5285 106.502 23.7053 107.778L24.4482 107.675L25.1911 107.572C25.0222 106.353 24.9273 105.15 24.9016 103.969L24.1518 103.986ZM24.4482 107.675L23.7053 107.778C23.8148 108.567 23.9512 109.344 24.1131 110.105L24.8467 109.949L25.5803 109.793C25.4259 109.067 25.2957 108.326 25.1911 107.572L24.4482 107.675ZM26.139 114.378L25.4371 114.642C25.7197 115.392 26.0283 116.12 26.3608 116.824L27.0389 116.504L27.717 116.183C27.4021 115.517 27.1093 114.826 26.8408 114.114L26.139 114.378ZM27.0389 116.504L26.4226 116.076C25.9806 116.714 25.5475 117.356 25.1235 118.002L25.7506 118.413L26.3776 118.825C26.7946 118.189 27.2205 117.558 27.6552 116.931L27.0389 116.504ZM23.3231 122.329L22.6757 121.95C21.8872 123.299 21.14 124.659 20.4374 126.023L21.1041 126.366L21.7708 126.71C22.4611 125.37 23.1954 124.033 23.9706 122.707L23.3231 122.329ZM19.1101 130.519L18.4249 130.214C18.1071 130.928 17.8023 131.641 17.5108 132.353L18.2049 132.637L18.899 132.921C19.1846 132.223 19.4835 131.524 19.7952 130.824L19.1101 130.519ZM18.2049 132.637L17.6099 132.181L16.386 133.776L16.9811 134.232L17.5761 134.689L18.8 133.094L18.2049 132.637ZM14.5333 137.423L13.9383 136.966L12.7144 138.561L13.3095 139.018L13.9045 139.475L15.1284 137.879L14.5333 137.423ZM13.3095 139.018L12.7929 138.474L11.2687 139.922L11.7853 140.466L12.3019 141.01L13.826 139.562L13.3095 139.018ZM8.73692 143.362L8.22034 142.819L6.69616 144.267L7.21275 144.81L7.72933 145.354L9.25351 143.906L8.73692 143.362ZM7.21275 144.81L6.69611 144.267C6.61629 144.343 6.54461 144.424 6.48137 144.51L7.08661 144.953L7.69184 145.396C7.70145 145.383 7.71367 145.369 7.72938 145.354L7.21275 144.81ZM6.92501 145.297L6.19758 145.114C6.17005 145.224 6.15373 145.334 6.14762 145.443L6.89644 145.485L7.64527 145.527C7.64621 145.51 7.64867 145.494 7.65243 145.479L6.92501 145.297ZM6.89644 145.485L6.23469 145.132C6.15894 145.274 6.10254 145.426 6.06729 145.584L6.79916 145.747L7.53102 145.911C7.53671 145.886 7.54589 145.861 7.55819 145.838L6.89644 145.485ZM6.82947 146.301L6.12087 146.546C6.17304 146.697 6.24641 146.842 6.34111 146.978L6.95671 146.55L7.57232 146.121C7.55629 146.098 7.5454 146.076 7.53807 146.055L6.82947 146.301ZM6.95671 146.55L6.34124 146.978L7.27125 148.314L7.88672 147.885L8.50219 147.457L7.57218 146.121L6.95671 146.55ZM9.74674 150.556L9.13128 150.985L10.0613 152.32L10.6768 151.892L11.2922 151.463L10.3622 150.128L9.74674 150.556ZM10.6768 151.892L10.0845 151.432L9.58922 152.069L10.1815 152.529L10.7738 152.989L11.269 152.352L10.6768 151.892ZM9.19097 153.804L8.59869 153.344L8.10343 153.982L8.6957 154.442L9.28798 154.902L9.78324 154.264L9.19097 153.804ZM8.6957 154.442L8.10325 153.982C7.99589 154.12 7.91132 154.271 7.85021 154.43L8.55005 154.7L9.24988 154.969C9.25903 154.946 9.27171 154.923 9.28816 154.902L8.6957 154.442ZM8.50539 155.284L7.77264 155.444C7.80883 155.61 7.86917 155.772 7.9538 155.925L8.60989 155.561L9.26597 155.198C9.2528 155.174 9.24363 155.149 9.23814 155.124L8.50539 155.284ZM8.60989 155.561L7.95386 155.925L8.57179 157.04L9.22782 156.676L9.88384 156.313L9.26591 155.198L8.60989 155.561ZM10.4637 158.907L9.80765 159.27L10.4256 160.386L11.0816 160.022L11.7376 159.659L11.1197 158.543L10.4637 158.907ZM11.0816 160.022L10.5149 160.513L11.4801 161.627L12.0468 161.135L12.6135 160.644L11.6483 159.531L11.0816 160.022ZM13.9771 163.362L13.4104 163.853L14.3756 164.967L14.9422 164.475L15.5089 163.984L14.5438 162.871L13.9771 163.362ZM14.9422 164.475L14.4401 165.032C14.4524 165.043 14.6925 165.259 15.1792 165.678L15.6679 165.109L16.1567 164.54C15.6787 164.129 15.4476 163.921 15.4444 163.918L14.9422 164.475ZM17.1405 166.35L16.6615 166.927C16.8917 167.119 17.1407 167.324 17.4087 167.544L17.8843 166.964L18.3599 166.384C18.0942 166.166 17.8476 165.963 17.6196 165.773L17.1405 166.35ZM17.8843 166.964L17.4087 167.544C17.7315 167.809 18.0508 168.05 18.36 168.269L18.7931 167.656L19.2262 167.044C18.944 166.844 18.6532 166.625 18.3599 166.384L17.8843 166.964ZM20.7444 168.843L20.4012 169.51C21.0591 169.848 21.4885 170.011 21.5182 170.022L21.7813 169.32L22.0444 168.617C22.059 168.623 21.6844 168.483 21.0876 168.176L20.7444 168.843ZM21.7813 169.32L21.6067 170.049C22.6404 170.296 23.6279 170.532 24.5706 170.758L24.7453 170.029L24.9201 169.299C23.9772 169.073 22.9885 168.837 21.9558 168.59L21.7813 169.32ZM30.6645 171.476L30.4799 172.203C31.5599 172.477 32.5355 172.734 33.4072 172.978L33.6094 172.256L33.8115 171.534C32.9244 171.285 31.9362 171.025 30.8491 170.749L30.6645 171.476ZM33.6094 172.256L33.27 172.925C34.0837 173.338 34.9119 173.737 35.7529 174.124L36.0661 173.443L36.3793 172.761C35.5554 172.382 34.7445 171.991 33.9487 171.587L33.6094 172.256ZM41.1015 175.542L40.8368 176.244C42.5459 176.889 44.2878 177.481 46.0478 178.018L46.2667 177.301L46.4857 176.584C44.7557 176.055 43.0443 175.473 41.3662 174.841L41.1015 175.542ZM51.5328 178.731L51.3588 179.46C53.1571 179.889 54.9593 180.259 56.7504 180.568L56.8777 179.829L57.0051 179.09C55.2458 178.787 53.4746 178.423 51.7068 178.001L51.5328 178.731ZM62.283 180.574L62.2066 181.32C64.0771 181.511 65.9182 181.629 67.7113 181.67L67.7284 180.92L67.7454 180.17C65.9945 180.13 64.193 180.015 62.3593 179.827L62.283 180.574ZM73.1819 180.786L73.239 181.534C74.1797 181.463 75.0996 181.365 75.9954 181.241L75.8924 180.498L75.7894 179.755C74.9261 179.875 74.0368 179.969 73.1249 180.039L73.1819 180.786ZM75.8924 180.498L75.9954 181.241C77.0119 181.1 78.0543 180.935 79.1178 180.747L78.987 180.008L78.8562 179.27C77.8103 179.455 76.7864 179.617 75.7894 179.755L75.8924 180.498ZM85.1227 178.714L85.2999 179.442C87.3003 178.956 89.3396 178.399 91.3904 177.776L91.1723 177.058L90.9542 176.341C88.9301 176.956 86.9181 177.505 84.9454 177.985L85.1227 178.714ZM97.1203 175.069L97.378 175.773C99.3543 175.05 101.318 174.268 103.243 173.43L102.944 172.742L102.644 172.054C100.748 172.88 98.8123 173.651 96.8626 174.365L97.1203 175.069ZM108.607 170.048L108.953 170.714C110.862 169.721 112.704 168.67 114.449 167.564L114.048 166.93L113.646 166.297C111.94 167.378 110.136 168.408 108.261 169.383L108.607 170.048ZM119.154 163.295L119.625 163.879C120.468 163.198 121.272 162.502 122.033 161.789L121.52 161.241L121.008 160.694C120.276 161.38 119.499 162.052 118.683 162.711L119.154 163.295ZM121.52 161.241L121.955 161.853C122.336 161.582 122.714 161.31 123.078 161.042L122.634 160.437L122.19 159.833C121.833 160.096 121.462 160.363 121.086 160.63L121.52 161.241ZM124.8 158.748L125.287 159.319C125.725 158.944 126.107 158.585 126.365 158.272L125.786 157.795L125.207 157.318C125.035 157.527 124.734 157.818 124.312 158.178L124.8 158.748ZM125.786 157.795L126.365 158.272C126.597 157.99 126.814 157.721 127.016 157.467L126.429 157.001L125.841 156.535C125.645 156.782 125.434 157.044 125.207 157.318L125.786 157.795ZM127.664 155.374L128.272 155.814C128.661 155.276 128.867 154.962 128.876 154.949L128.249 154.538L127.621 154.127C127.624 154.123 127.431 154.417 127.056 154.934L127.664 155.374ZM128.249 154.538L128.86 154.972L129.434 154.163L128.823 153.729L128.211 153.295L127.637 154.104L128.249 154.538ZM129.971 152.111L130.582 152.545L131.156 151.736L130.545 151.302L129.933 150.868L129.359 151.677L129.971 152.111ZM130.545 151.302L131.143 151.755C131.163 151.728 131.585 151.167 132.069 150.237L131.404 149.891L130.739 149.544C130.303 150.381 129.931 150.87 129.946 150.85L130.545 151.302ZM132.549 146.796L133.281 146.959C133.404 146.405 133.494 145.817 133.531 145.204L132.782 145.159L132.033 145.114C132.002 145.64 131.925 146.148 131.817 146.633L132.549 146.796ZM132.782 145.159L133.531 145.204C133.555 144.799 133.486 144.401 133.36 144.021L132.648 144.258L131.936 144.495C132.016 144.733 132.044 144.938 132.033 145.114L132.782 145.159ZM131.735 142.677L132.325 142.213C132.128 141.963 131.913 141.715 131.685 141.471L131.137 141.983L130.589 142.495C130.792 142.713 130.979 142.929 131.146 143.141L131.735 142.677ZM131.137 141.983L131.722 142.452L132.231 141.816L131.646 141.348L131.06 140.879L130.551 141.514L131.137 141.983ZM132.664 140.077L133.249 140.546L133.758 139.91L133.173 139.441L132.587 138.972L132.078 139.608L132.664 140.077ZM133.173 139.441L133.842 139.78C133.848 139.769 134.019 139.429 134.244 138.96L133.568 138.636L132.892 138.311C132.673 138.768 132.506 139.098 132.503 139.103L133.173 139.441ZM134.306 136.999L135 137.283C135.138 136.946 135.266 136.604 135.333 136.334L134.605 136.154L133.877 135.974C133.838 136.13 133.747 136.386 133.612 136.715L134.306 136.999ZM134.605 136.154L135.333 136.334C135.371 136.179 135.401 136.014 135.423 135.849L134.681 135.746L133.938 135.643C133.92 135.773 133.899 135.884 133.877 135.974L134.605 136.154ZM134.752 134.92L135.501 134.955C135.508 134.806 135.512 134.659 135.515 134.521L134.765 134.506L134.015 134.491C134.013 134.618 134.009 134.751 134.002 134.885L134.752 134.92ZM134.765 134.506L135.515 134.52C135.516 134.471 135.515 134.422 135.512 134.374L134.763 134.425L134.015 134.476C134.015 134.481 134.016 134.486 134.015 134.491L134.765 134.506ZM134.739 134.266L135.467 134.089C135.456 134.043 135.443 133.997 135.428 133.953L134.716 134.189L134.005 134.425C134.007 134.432 134.008 134.438 134.01 134.444L134.739 134.266ZM134.716 134.189L135.465 134.15C135.459 134.034 135.451 133.898 135.438 133.754L134.691 133.822L133.944 133.89C133.955 134.01 133.962 134.126 133.967 134.228L134.716 134.189ZM134.582 133.094L135.313 132.926C135.278 132.774 135.232 132.614 135.171 132.462L134.475 132.742L133.779 133.022C133.803 133.081 133.827 133.161 133.851 133.262L134.582 133.094ZM134.475 132.742L135.171 132.462C135.123 132.344 135.072 132.234 135.019 132.133L134.354 132.481L133.69 132.829C133.721 132.887 133.751 132.952 133.779 133.022L134.475 132.742ZM134.034 132.005L134.602 131.515C134.448 131.337 134.324 131.237 134.285 131.206L133.829 131.802L133.374 132.398C133.346 132.377 133.39 132.407 133.466 132.494L134.034 132.005ZM133.829 131.802L134.282 131.204L133.851 130.878L133.398 131.476L132.946 132.074L133.377 132.401L133.829 131.802ZM132.536 130.823L132.988 130.225L132.557 129.899L132.104 130.497L131.652 131.095L132.083 131.421L132.536 130.823ZM132.104 130.497L132.446 129.829C132.435 129.824 131.988 129.595 131.385 129.287L131.044 129.955L130.703 130.623C131.305 130.931 131.752 131.159 131.763 131.165L132.104 130.497ZM128.922 128.875L129.261 128.206C128.762 127.953 128.349 127.744 128.185 127.665L127.858 128.34L127.532 129.016C127.68 129.087 128.078 129.288 128.583 129.544L128.922 128.875ZM127.858 128.34L128.186 127.666C128.236 127.69 128.236 127.699 128.147 127.628C128.079 127.573 127.986 127.494 127.87 127.391C127.638 127.185 127.335 126.903 126.984 126.57L126.467 127.113L125.951 127.657C126.306 127.995 126.624 128.29 126.874 128.512C126.999 128.623 127.112 128.72 127.208 128.797C127.283 128.858 127.407 128.955 127.53 129.015L127.858 128.34ZM123.807 124.52L124.335 123.987C123.858 123.515 123.406 123.064 123.021 122.679L122.491 123.21L121.96 123.74C122.347 124.126 122.801 124.579 123.279 125.053L123.807 124.52ZM122.491 123.21L123.132 122.82C122.475 121.74 121.767 120.671 121.012 119.615L120.402 120.052L119.792 120.488C120.526 121.515 121.214 122.552 121.85 123.599L122.491 123.21ZM115.61 114.193L116.161 113.684C115.302 112.754 114.411 111.84 113.49 110.943L112.967 111.481L112.443 112.018C113.346 112.897 114.219 113.792 115.059 114.701L115.61 114.193ZM112.967 111.481L113.655 111.779C114.043 110.883 114.393 109.952 114.699 108.992L113.985 108.764L113.27 108.536C112.979 109.449 112.647 110.333 112.279 111.182L112.967 111.481ZM115.222 103.1L115.966 103.192C116.087 102.224 116.166 101.237 116.203 100.234L115.453 100.207L114.704 100.18C114.669 101.138 114.593 102.082 114.478 103.007L115.222 103.1ZM115.453 100.207L116.203 100.234C116.237 99.2837 116.232 98.3442 116.189 97.4185L115.439 97.4535L114.69 97.4884C114.732 98.3727 114.737 99.2707 114.704 100.18L115.453 100.207ZM114.711 92.0035L115.443 91.8388C115.017 89.9441 114.424 88.1456 113.686 86.4759L113 86.7791L112.314 87.0823C113.011 88.6597 113.574 90.365 113.98 92.1682L114.711 92.0035ZM110.231 82.0344L110.829 81.5814C109.636 80.0072 108.274 78.6501 106.773 77.5659L106.334 78.1739L105.895 78.7819C107.263 79.7707 108.521 81.0198 109.634 82.4873L110.231 82.0344ZM101.387 75.834L101.569 75.1064C100.635 74.8729 99.6747 74.7343 98.6927 74.6987L98.6655 75.4482L98.6383 76.1977C99.5143 76.2295 100.371 76.353 101.205 76.5616L101.387 75.834ZM98.6655 75.4482L98.6927 74.6987C97.5274 74.6564 96.3818 74.7608 95.2665 74.9994L95.4234 75.7328L95.5803 76.4662C96.577 76.253 97.5989 76.16 98.6383 76.1977L98.6655 75.4482ZM89.5575 78.4723L89.1074 77.8723C87.3741 79.1726 85.8102 80.8273 84.4689 82.7571L85.0848 83.1851L85.7006 83.6132C86.9604 81.8008 88.4156 80.2664 90.0076 79.0722L89.5575 78.4723ZM82.0833 88.9597L81.3813 88.6958C80.9956 89.7216 80.66 90.7869 80.3788 91.8859L81.1054 92.0719L81.8319 92.2578C82.0998 91.2108 82.4192 90.1976 82.7853 89.2236L82.0833 88.9597Z" fill="#D4D3D8"/>
<path d="M51.0177 131.609C50.9563 131.111 51.0622 130.706 51.3352 130.393C51.6083 130.08 51.9671 129.896 52.4117 129.841C52.8563 129.786 53.2491 129.877 53.5901 130.114C53.9311 130.352 54.1323 130.719 54.1937 131.217L55.0558 138.204L51.8799 138.596L51.0177 131.609ZM43.3614 142.855C42.9273 142.909 42.5749 142.839 42.3039 142.647C42.0317 142.444 41.8721 142.152 41.8251 141.771C41.778 141.39 41.8625 141.073 42.0786 140.821C42.2934 140.558 42.6177 140.4 43.0518 140.346L52.8812 139.133C53.5482 139.051 54.0549 139.064 54.4014 139.171C54.7465 139.268 54.9982 139.479 55.1565 139.804C55.3253 140.127 55.4509 140.622 55.5332 141.289L55.9349 144.544L52.7272 144.94L52.3804 142.129C52.349 141.875 52.2063 141.764 51.9522 141.795L43.3614 142.855ZM41.2451 137.071C41.98 136.668 42.5034 136.163 42.8153 135.555C43.1258 134.936 43.2343 134.117 43.1407 133.097L43.0721 132.541C43.041 132.115 43.1639 131.761 43.4409 131.48C43.7179 131.198 44.0734 131.031 44.5074 130.977C44.9626 130.921 45.3548 131.007 45.6838 131.235C46.0116 131.453 46.2023 131.778 46.2558 132.212L46.3225 132.752C46.3616 133.07 46.3789 133.428 46.3743 133.826C47.6061 133.792 48.5965 134.154 49.3455 134.91C50.105 135.666 50.5537 136.819 50.6915 138.372L47.595 138.754L47.5678 138.402C47.4894 137.767 47.3056 137.279 47.0164 136.939C46.7259 136.588 46.3412 136.388 45.8623 136.34C45.5861 136.976 45.2307 137.535 44.7959 138.019C44.3705 138.491 43.9121 138.87 43.4208 139.156C42.9282 139.432 42.4596 139.597 42.015 139.652C41.5703 139.707 41.2013 139.634 40.9079 139.434C40.6251 139.232 40.4563 138.909 40.4014 138.464C40.3648 138.168 40.4175 137.898 40.5595 137.655C40.712 137.41 40.9405 137.216 41.2451 137.071ZM56.4938 141.235C57.2185 140.575 57.7522 139.849 58.0948 139.054C58.4374 138.259 58.6353 137.338 58.6886 136.289C58.7405 135.229 58.6718 133.931 58.4824 132.396L58.3296 131.158C58.2695 130.671 58.3766 130.276 58.651 129.974C58.924 129.66 59.2828 129.476 59.7275 129.422C60.1509 129.369 60.5338 129.467 60.8761 129.715C61.217 129.953 61.4162 130.304 61.4737 130.77L61.6246 131.993C61.7435 132.956 61.8075 133.867 61.8167 134.726C63.1392 135.078 64.1754 135.767 64.9253 136.793C65.6738 137.807 66.1617 139.236 66.389 141.078C66.4374 141.469 66.4724 141.884 66.4942 142.322L63.4454 142.698C63.4423 142.15 63.412 141.644 63.3545 141.178C63.1455 139.484 62.5678 138.33 61.6215 137.716C61.2276 140.011 60.2848 141.777 58.7931 143.014C58.4737 143.301 58.0971 143.471 57.663 143.525C57.4301 143.553 57.2079 143.538 56.9963 143.478C56.7953 143.417 56.6274 143.319 56.4927 143.185C56.2628 142.977 56.127 142.704 56.0852 142.365C56.0603 142.164 56.0785 141.963 56.1397 141.762C56.2115 141.56 56.3295 141.384 56.4938 141.235ZM65.9445 129.767C65.8831 129.269 65.989 128.864 66.262 128.551C66.535 128.238 66.8939 128.054 67.3385 127.999C67.7831 127.944 68.1759 128.035 68.5169 128.273C68.8579 128.51 69.0591 128.877 69.1204 129.375L69.6123 133.361L70.1839 133.29C70.6286 133.235 70.9631 133.334 71.1876 133.585C71.4214 133.825 71.5619 134.136 71.6089 134.517C71.6559 134.898 71.5958 135.239 71.4287 135.539C71.2602 135.828 70.9589 136 70.5249 136.053L69.9532 136.124L70.7664 142.714L67.5905 143.106L65.9445 129.767ZM85.4749 127.309C85.4161 126.832 85.5186 126.443 85.7823 126.142C86.0448 125.83 86.3983 125.647 86.843 125.592C87.2876 125.537 87.6698 125.63 87.9896 125.87C88.3187 126.098 88.5126 126.45 88.5714 126.926L88.8731 129.372L89.3654 129.311C89.81 129.256 90.1446 129.355 90.3691 129.606C90.6029 129.846 90.7433 130.157 90.7904 130.538C90.8374 130.919 90.7773 131.26 90.6101 131.56C90.4416 131.849 90.1404 132.021 89.7063 132.074L89.2141 132.135L89.7725 136.661L86.676 137.043L85.4749 127.309ZM84.3402 133.268C84.7636 133.216 85.0963 133.299 85.338 133.516C85.5891 133.722 85.7362 133.999 85.7793 134.348C85.8237 134.708 85.7484 135.013 85.5536 135.263C85.3693 135.511 85.0654 135.662 84.6419 135.714L76.8451 136.676C76.4216 136.728 76.085 136.657 75.8353 136.462C75.5961 136.266 75.4543 135.988 75.4099 135.628C75.3668 135.278 75.4367 134.974 75.6197 134.715C75.812 134.444 76.1199 134.283 76.5433 134.23L78.7347 133.96L78.6132 132.976L78.5179 132.987C77.5546 133.106 76.769 132.924 76.1612 132.44C75.5639 131.955 75.2124 131.283 75.1066 130.426L75.1007 130.378C74.9949 129.521 75.1727 128.784 75.6341 128.168C76.106 127.551 76.8237 127.183 77.7871 127.064L81.1853 126.645C82.1381 126.527 82.9078 126.712 83.4944 127.198C84.0917 127.683 84.4432 128.355 84.549 129.212L84.5549 129.26C84.6607 130.117 84.4829 130.854 84.0215 131.47C83.5707 132.084 82.8689 132.45 81.9162 132.568L81.6145 132.605L81.7359 133.59L84.3402 133.268ZM79.695 141.612C79.1022 141.685 78.6325 141.668 78.2861 141.56C77.9502 141.451 77.6925 141.236 77.5131 140.914C77.3456 140.601 77.2259 140.154 77.1541 139.572L77.0345 138.603C76.9784 138.148 77.0888 137.78 77.3657 137.498C77.652 137.205 78.028 137.03 78.4938 136.972C78.9596 136.915 79.3564 136.995 79.6841 137.212C80.0119 137.43 80.2032 137.761 80.2581 138.205L80.3306 138.793C80.3436 138.899 80.3687 138.971 80.4056 139.009C80.4519 139.036 80.5333 139.042 80.6497 139.028L89.1453 137.979C89.5793 137.926 89.9166 138.002 90.157 138.209C90.3962 138.405 90.5373 138.678 90.5804 139.028C90.6236 139.377 90.5483 139.682 90.3547 139.942C90.1718 140.201 89.8685 140.357 89.4451 140.409L79.695 141.612ZM78.0919 130.057C78.1233 130.311 78.2215 130.498 78.3867 130.618C78.5625 130.736 78.7933 130.777 79.0792 130.742L80.81 130.528C81.0853 130.494 81.2885 130.399 81.4197 130.243C81.551 130.087 81.6009 129.882 81.5696 129.628L81.5637 129.581C81.5323 129.327 81.4341 129.14 81.2689 129.021C81.1024 128.891 80.8815 128.843 80.6062 128.877L78.8754 129.09C78.5895 129.125 78.3764 129.227 78.2359 129.395C78.1046 129.551 78.0547 129.756 78.086 130.01L78.0919 130.057ZM104.799 135.629C105.233 135.575 105.576 135.656 105.829 135.872C106.081 136.088 106.23 136.376 106.274 136.736C106.318 137.096 106.244 137.406 106.05 137.667C105.858 137.938 105.545 138.1 105.111 138.153L92.8835 139.662C92.4495 139.716 92.1063 139.635 91.8539 139.419C91.6029 139.213 91.4551 138.93 91.4107 138.57C91.3663 138.21 91.4402 137.895 91.6325 137.624C91.8248 137.353 92.1379 137.191 92.572 137.137L94.287 136.926L93.9989 134.591C93.1919 134.584 92.5472 134.368 92.065 133.943C91.5815 133.509 91.2927 132.91 91.1986 132.148L91.1633 131.862C91.0575 131.005 91.2445 130.299 91.7244 129.746C92.2042 129.192 92.9522 128.852 93.9685 128.727L100.908 127.871L100.845 127.363C100.809 127.066 100.647 126.936 100.362 126.971L92.0883 127.992C91.7284 128.036 91.4216 127.945 91.1679 127.718C90.9142 127.492 90.7665 127.209 90.7247 126.87C90.6842 126.542 90.7595 126.237 90.9504 125.956C91.1414 125.674 91.4168 125.511 91.7768 125.467L101.003 124.329C102.03 124.202 102.776 124.325 103.241 124.697C103.706 125.07 103.988 125.658 104.087 126.463L104.507 129.861L95.0901 131.023C94.7302 131.067 94.5698 131.248 94.609 131.566C94.6482 131.884 94.8478 132.02 95.2077 131.976L103.83 130.912C104.233 130.862 104.55 130.952 104.782 131.181C105.014 131.4 105.15 131.679 105.192 132.017C105.232 132.346 105.167 132.644 104.996 132.912C104.825 133.18 104.538 133.339 104.136 133.389L102.802 133.554L103.084 135.84L104.799 135.629ZM100.004 136.22L99.7214 133.934L97.0854 134.259L97.3676 136.546L100.004 136.22Z" fill="#E4E3E6"/>
<g filter="url(#filter1_d_1453_1255)">
<path d="M95.1193 59.2687C83.2522 73.4869 93.0858 97.271 116.51 116.822C139.935 136.373 168.08 144.288 179.947 130.07C191.814 115.851 182.445 88.4759 159.021 68.9248C135.596 49.3737 106.986 45.0505 95.1193 59.2687Z" fill="#4F4E44"/>
<g filter="url(#filter2_i_1453_1255)">
<ellipse cx="61.3361" cy="33.9675" rx="61.3361" ry="33.9675" transform="matrix(-0.767728 -0.640776 -0.640776 0.767728 211.71 104.228)" fill="#482513"/>
</g>
<g filter="url(#filter3_i_1453_1255)">
<path d="M217.588 12.6328C206.55 0.367034 186.966 -3.99016 173.173 8.42285C168.023 13.0574 164.409 19.375 162.475 26.1104L162.375 26.0225C162.375 26.0225 162.347 26.2816 162.3 26.7461C161.207 30.7869 160.715 34.9623 160.858 39.0039C160.214 43.7272 159.457 48.249 158.772 49.6201C158.312 50.5418 157.28 51.9164 156.045 53.4092C142.11 46.039 126.707 43.7084 118.859 55.4219C109.675 69.1307 137.308 91.8004 141.308 95.4004C145.309 99.0005 170.389 118.132 179.573 104.423C185.351 95.7991 183.398 83.5714 177.317 73.1152C178.786 72.229 180.465 71.4336 182.373 70.8232C186.351 69.5504 190.582 68.0229 194.235 66.6465C201.771 65.8912 209.285 62.8833 215.174 57.584C228.967 45.171 228.625 24.8985 217.588 12.6328Z" fill="#2B8F4F"/>
</g>
</g>
<g filter="url(#filter4_i_1453_1255)">
<ellipse cx="38.3202" cy="44.64" rx="24.32" ry="24.64" fill="#FFDB5C"/>
</g>
<path d="M38.3206 21.9199C50.6679 21.9201 60.7198 32.0683 60.72 44.6396C60.72 57.2112 50.668 67.3602 38.3206 67.3604C25.973 67.3604 15.9202 57.2113 15.9202 44.6396C15.9204 32.0682 25.9731 21.9199 38.3206 21.9199Z" stroke="#F0D164" stroke-width="3.84"/>
<path d="M43.0009 34.7515L45.623 40.8083L43.6041 41.6823L44.4781 43.7013L38.4213 46.3233L41.9173 54.3991L37.8795 56.1471L30.0133 37.9767L40.108 33.6066L40.982 35.6255L43.0009 34.7515ZM38.9631 36.4996L34.9252 38.2476L37.5473 44.3044L41.5851 42.5564L38.9631 36.4996Z" fill="#8F7828"/>
<defs>
<filter id="filter0_i_1453_1255" x="67.628" y="45.4006" width="25.1633" height="26.2104" filterUnits="userSpaceOnUse" color-interpolation-filters="sRGB">
<feFlood flood-opacity="0" result="BackgroundImageFix"/>
<feBlend mode="normal" in="SourceGraphic" in2="BackgroundImageFix" result="shape"/>
<feColorMatrix in="SourceAlpha" type="matrix" values="0 0 0 0 0 0 0 0 0 0 0 0 0 0 0 0 0 0 127 0" result="hardAlpha"/>
<feMorphology radius="1.2" operator="erode" in="SourceAlpha" result="effect1_innerShadow_1453_1255"/>
<feOffset dx="-0.8" dy="1.6"/>
<feGaussianBlur stdDeviation="2"/>
<feComposite in2="hardAlpha" operator="arithmetic" k2="-1" k3="1"/>
<feColorMatrix type="matrix" values="0 0 0 0 0.58374 0 0 0 0 0.569319 0 0 0 0 0.151098 0 0 0 0.25 0"/>
<feBlend mode="normal" in2="shape" result="effect1_innerShadow_1453_1255"/>
</filter>
<filter id="filter1_d_1453_1255" x="89.0723" y="0" width="143.636" height="145.175" filterUnits="userSpaceOnUse" color-interpolation-filters="sRGB">
<feFlood flood-opacity="0" result="BackgroundImageFix"/>
<feColorMatrix in="SourceAlpha" type="matrix" values="0 0 0 0 0 0 0 0 0 0 0 0 0 0 0 0 0 0 127 0" result="hardAlpha"/>
<feOffset dx="3" dy="3"/>
<feGaussianBlur stdDeviation="2"/>
<feComposite in2="hardAlpha" operator="out"/>
<feColorMatrix type="matrix" values="0 0 0 0 0 0 0 0 0 0 0 0 0 0 0 0 0 0 0.05 0"/>
<feBlend mode="normal" in2="BackgroundImageFix" result="effect1_dropShadow_1453_1255"/>
<feBlend mode="normal" in="SourceGraphic" in2="effect1_dropShadow_1453_1255" result="shape"/>
</filter>
<filter id="filter2_i_1453_1255" x="86.9663" y="43.8301" width="107.778" height="97.545" filterUnits="userSpaceOnUse" color-interpolation-filters="sRGB">
<feFlood flood-opacity="0" result="BackgroundImageFix"/>
<feBlend mode="normal" in="SourceGraphic" in2="BackgroundImageFix" result="shape"/>
<feColorMatrix in="SourceAlpha" type="matrix" values="0 0 0 0 0 0 0 0 0 0 0 0 0 0 0 0 0 0 127 0" result="hardAlpha"/>
<feMorphology radius="2.4" operator="erode" in="SourceAlpha" result="effect1_innerShadow_1453_1255"/>
<feOffset dx="-4" dy="3.2"/>
<feGaussianBlur stdDeviation="4"/>
<feComposite in2="hardAlpha" operator="arithmetic" k2="-1" k3="1"/>
<feColorMatrix type="matrix" values="0 0 0 0 0.350642 0 0 0 0 0.350642 0 0 0 0 0.350642 0 0 0 0.25 0"/>
<feBlend mode="normal" in2="shape" result="effect1_innerShadow_1453_1255"/>
</filter>
<filter id="filter3_i_1453_1255" x="117" y="1" width="110.308" height="117.906" filterUnits="userSpaceOnUse" color-interpolation-filters="sRGB">
<feFlood flood-opacity="0" result="BackgroundImageFix"/>
<feBlend mode="normal" in="SourceGraphic" in2="BackgroundImageFix" result="shape"/>
<feColorMatrix in="SourceAlpha" type="matrix" values="0 0 0 0 0 0 0 0 0 0 0 0 0 0 0 0 0 0 127 0" result="hardAlpha"/>
<feOffset dx="1.6" dy="9.6"/>
<feGaussianBlur stdDeviation="6.8"/>
<feComposite in2="hardAlpha" operator="arithmetic" k2="-1" k3="1"/>
<feColorMatrix type="matrix" values="0 0 0 0 0.131301 0 0 0 0 0.40486 0 0 0 0 0.230215 0 0 0 1 0"/>
<feBlend mode="normal" in2="shape" result="effect1_innerShadow_1453_1255"/>
</filter>
<filter id="filter4_i_1453_1255" x="12.4002" y="20" width="50.2399" height="52.48" filterUnits="userSpaceOnUse" color-interpolation-filters="sRGB">
<feFlood flood-opacity="0" result="BackgroundImageFix"/>
<feBlend mode="normal" in="SourceGraphic" in2="BackgroundImageFix" result="shape"/>
<feColorMatrix in="SourceAlpha" type="matrix" values="0 0 0 0 0 0 0 0 0 0 0 0 0 0 0 0 0 0 127 0" result="hardAlpha"/>
<feMorphology radius="2.4" operator="erode" in="SourceAlpha" result="effect1_innerShadow_1453_1255"/>
<feOffset dx="-1.6" dy="3.2"/>
<feGaussianBlur stdDeviation="4"/>
<feComposite in2="hardAlpha" operator="arithmetic" k2="-1" k3="1"/>
<feColorMatrix type="matrix" values="0 0 0 0 0.58374 0 0 0 0 0.569319 0 0 0 0 0.151098 0 0 0 0.25 0"/>
<feBlend mode="normal" in2="shape" result="effect1_innerShadow_1453_1255"/>
</filter>
</defs>
</svg>
