<svg width="262" height="252" viewBox="0 0 262 252" fill="none" xmlns="http://www.w3.org/2000/svg">
<g filter="url(#filter0_i_1422_2373)">
<ellipse cx="80.6094" cy="57.7058" rx="12.16" ry="12.32" transform="rotate(19.7654 80.6094 57.7058)" fill="#FFDB5C"/>
</g>
<path d="M84.4511 47.0151C90.2611 49.1029 93.2754 55.5783 91.1498 61.4937C89.024 67.409 82.578 70.484 76.768 68.3963C70.9581 66.3086 67.9436 59.834 70.0691 53.9186C72.1948 48.0031 78.6411 44.9273 84.4511 47.0151Z" stroke="#F0D164" stroke-width="1.92"/>
<path d="M84.4837 53.8445L84.6933 57.1378L83.5956 57.2077L83.6654 58.3055L80.3721 58.5152L80.6517 62.9063L78.4561 63.0461L77.8271 53.1661L83.316 52.8166L83.3859 53.9144L84.4837 53.8445ZM82.2881 53.9843L80.0925 54.1241L80.3022 57.4174L82.4978 57.2776L82.2881 53.9843Z" fill="#8F7828"/>
<path d="M80.8334 96.0919L139.626 109.395L200.669 74.7849L185.238 123.532L231.448 138.712L160.793 152.735L106.5 200.514L125.681 157.299L59.0492 155.08L118.334 134.859L80.8334 96.0919Z" fill="#FFDB5C"/>
<path d="M141.596 52.3326L161.828 131.132L124.544 123.295L141.596 52.3326Z" fill="#FFDB5C"/>
<path d="M160.923 195.309L139.913 139.308L171.771 143.391L160.923 195.309Z" fill="#FFDB5C"/>
<path d="M81.1061 92.072C83.6366 82.1831 90.66 75.1585 98.6643 75.4485C108.42 75.8024 115.937 86.8872 115.454 100.207C115.305 104.31 114.413 108.146 112.966 111.481C116.732 115.148 119.994 119.102 122.489 123.208C124.259 124.977 127.462 128.149 127.859 128.341C128.41 128.607 132.056 130.472 132.104 130.496L133.829 131.803C133.843 131.813 134.218 132.105 134.475 132.742C134.64 133.152 134.694 133.782 134.715 134.19C134.748 134.289 134.766 134.395 134.764 134.506C134.753 135.047 134.715 135.705 134.604 136.154C134.385 137.038 133.185 139.416 133.173 139.442L131.137 141.983C132.152 143.07 132.84 144.179 132.782 145.158C132.576 148.596 130.571 151.268 130.545 151.302L128.248 154.538C128.231 154.564 127.367 155.878 125.787 157.795C125.147 158.571 123.391 159.912 121.518 161.243C110.671 171.406 90.501 178.472 75.892 180.497C63.6979 182.188 46.6917 178.892 33.61 172.255C30.7453 171.453 26.7934 170.519 21.781 169.32C21.781 169.32 19.8969 168.616 17.8831 166.964C15.8848 165.326 14.957 164.488 14.943 164.475L11.0804 160.022L8.60867 155.562C8.41093 155.205 8.44604 154.763 8.69632 154.441L10.6764 151.891L6.95744 146.55C6.72459 146.215 6.72417 145.807 6.89523 145.486C6.90856 145.246 7.00838 145.005 7.21347 144.81L13.3092 139.018L18.2048 132.638C20.4258 127.212 23.4364 121.7 27.0397 116.504C25.797 113.874 24.8934 110.888 24.4479 107.674C22.7725 95.5876 28.1975 84.8484 36.565 83.6882C42.4073 82.8783 48.1395 86.9528 51.6375 93.5993C55.1319 91.7707 58.7342 90.4329 62.3835 89.717C67.862 88.9577 74.3627 89.8796 81.1061 92.072Z" fill="#6C5B54"/>
<path d="M81.1061 92.072L80.8742 92.7852L81.6345 93.0324L81.8327 92.2579L81.1061 92.072ZM98.6643 75.4485L98.6915 74.699L98.6914 74.699L98.6643 75.4485ZM115.454 100.207L116.203 100.234L116.203 100.234L115.454 100.207ZM112.966 111.481L112.278 111.182L112.072 111.657L112.443 112.018L112.966 111.481ZM122.489 123.208L121.848 123.598L121.895 123.675L121.959 123.739L122.489 123.208ZM127.859 128.341L128.185 127.665L128.185 127.665L127.859 128.341ZM132.104 130.496L132.557 129.898L132.504 129.859L132.446 129.829L132.104 130.496ZM133.829 131.803L134.286 131.208L134.282 131.205L133.829 131.803ZM134.475 132.742L135.171 132.463L135.171 132.462L134.475 132.742ZM134.715 134.19L133.966 134.229L133.972 134.33L134.003 134.426L134.715 134.19ZM134.764 134.506L135.514 134.521L135.514 134.521L134.764 134.506ZM134.604 136.154L135.332 136.334L135.332 136.334L134.604 136.154ZM133.173 139.442L133.758 139.911L133.807 139.85L133.842 139.78L133.173 139.442ZM131.137 141.983L130.551 141.514L130.145 142.021L130.588 142.495L131.137 141.983ZM132.782 145.158L133.53 145.203L133.53 145.203L132.782 145.158ZM130.545 151.302L129.946 150.851L129.94 150.859L129.934 150.868L130.545 151.302ZM128.248 154.538L127.637 154.104L127.629 154.115L127.621 154.127L128.248 154.538ZM125.787 157.795L126.365 158.273L126.365 158.273L125.787 157.795ZM121.518 161.243L121.084 160.632L121.043 160.661L121.006 160.696L121.518 161.243ZM75.892 180.497L75.995 181.24L75.995 181.24L75.892 180.497ZM33.61 172.255L33.9493 171.586L33.8834 171.553L33.8122 171.533L33.61 172.255ZM21.781 169.32L21.5186 170.022L21.5617 170.038L21.6065 170.049L21.781 169.32ZM17.8831 166.964L17.4075 167.544L17.4075 167.544L17.8831 166.964ZM14.943 164.475L14.3764 164.967L14.4064 165.001L14.4405 165.032L14.943 164.475ZM11.0804 160.022L10.4244 160.386L10.4624 160.455L10.5138 160.514L11.0804 160.022ZM8.60867 155.562L7.95262 155.925L7.95264 155.925L8.60867 155.562ZM8.69632 154.441L9.28866 154.901L9.28869 154.901L8.69632 154.441ZM10.6764 151.891L11.2688 152.351L11.6072 151.915L11.2919 151.462L10.6764 151.891ZM6.95744 146.55L7.57293 146.121L7.57291 146.121L6.95744 146.55ZM6.89523 145.486L7.55717 145.838L7.63489 145.692L7.64407 145.527L6.89523 145.486ZM7.21347 144.81L6.69685 144.267L6.69682 144.267L7.21347 144.81ZM13.3092 139.018L13.8258 139.562L13.8684 139.521L13.9042 139.475L13.3092 139.018ZM18.2048 132.638L18.7998 133.095L18.8609 133.015L18.8989 132.922L18.2048 132.638ZM27.0397 116.504L27.656 116.931L27.9029 116.575L27.7178 116.183L27.0397 116.504ZM24.4479 107.674L23.705 107.777L23.705 107.777L24.4479 107.674ZM36.565 83.6882L36.462 82.9453L36.462 82.9453L36.565 83.6882ZM51.6375 93.5993L50.9738 93.9486L51.3223 94.6108L51.9853 94.2638L51.6375 93.5993ZM62.3835 89.717L62.2805 88.9742L62.2597 88.977L62.2391 88.9811L62.3835 89.717ZM79.0363 90.6568C78.6379 90.5435 78.223 90.7746 78.1097 91.173C77.9963 91.5714 78.2274 91.9862 78.6258 92.0996L78.8311 91.3782L79.0363 90.6568ZM74.0651 91.0024C74.4716 91.0815 74.8654 90.816 74.9445 90.4095C75.0237 90.0029 74.7582 89.6091 74.3516 89.53L74.2083 90.2662L74.0651 91.0024ZM69.5669 88.8482C69.1543 88.8123 68.7907 89.1178 68.7548 89.5305C68.719 89.9431 69.0244 90.3067 69.4371 90.3426L69.502 89.5954L69.5669 88.8482ZM64.7884 90.2445C65.2021 90.2232 65.5202 89.8707 65.499 89.457C65.4777 89.0433 65.1252 88.7252 64.7115 88.7464L64.75 89.4955L64.7884 90.2445ZM59.3927 89.6636C58.9942 89.7764 58.7625 90.191 58.8753 90.5895C58.9882 90.9881 59.4027 91.2197 59.8013 91.1069L59.597 90.3852L59.3927 89.6636ZM54.522 93.0341C54.9003 92.8653 55.0701 92.4218 54.9013 92.0436C54.7326 91.6653 54.2891 91.4955 53.9108 91.6642L54.2164 92.3492L54.522 93.0341ZM51.05 91.1185C50.8235 90.7717 50.3587 90.6742 50.0119 90.9006C49.6651 91.1271 49.5676 91.5919 49.7941 91.9387L50.422 91.5286L51.05 91.1185ZM46.8692 88.3539C47.1661 88.6426 47.641 88.6359 47.9297 88.339C48.2185 88.042 48.2118 87.5672 47.9148 87.2784L47.392 87.8161L46.8692 88.3539ZM43.878 84.3216C43.5103 84.1309 43.0577 84.2744 42.867 84.6421C42.6763 85.0098 42.8198 85.4625 43.1875 85.6532L43.5328 84.9874L43.878 84.3216ZM38.8972 84.3722C39.31 84.4071 39.6729 84.1009 39.7078 83.6881C39.7427 83.2754 39.4364 82.9125 39.0236 82.8776L38.9604 83.6249L38.8972 84.3722ZM32.7113 84.1403C32.3431 84.3301 32.1985 84.7824 32.3882 85.1506C32.578 85.5188 33.0303 85.6634 33.3985 85.4736L33.0549 84.807L32.7113 84.1403ZM28.3688 90.2428C28.5932 89.8946 28.4927 89.4304 28.1445 89.2061C27.7963 88.9818 27.3321 89.0823 27.1078 89.4305L27.7383 89.8366L28.3688 90.2428ZM24.1822 96.4661C24.0855 96.8688 24.3336 97.2737 24.7364 97.3704C25.1392 97.4671 25.5441 97.219 25.6408 96.8162L24.9115 96.6411L24.1822 96.4661ZM24.9013 103.969C24.8923 103.555 24.5493 103.226 24.1352 103.235C23.7211 103.244 23.3927 103.587 23.4017 104.001L24.1515 103.985L24.9013 103.969ZM24.1129 110.104C24.199 110.51 24.5973 110.768 25.0025 110.682C25.4076 110.596 25.6662 110.197 25.5801 109.792L24.8465 109.948L24.1129 110.104ZM26.8413 114.113C26.6952 113.726 26.2625 113.53 25.8749 113.676C25.4873 113.822 25.2916 114.255 25.4376 114.642L26.1394 114.378L26.8413 114.113ZM25.1241 118.002C24.8969 118.349 24.9934 118.813 25.3397 119.041C25.686 119.268 26.151 119.171 26.3782 118.825L25.7512 118.414L25.1241 118.002ZM23.971 122.708C24.18 122.35 24.0596 121.891 23.7021 121.682C23.3445 121.473 22.8851 121.593 22.6761 121.951L23.3235 122.329L23.971 122.708ZM20.4375 126.023C20.2478 126.392 20.3925 126.844 20.7607 127.034C21.129 127.223 21.5812 127.079 21.7709 126.71L21.1042 126.367L20.4375 126.023ZM19.7951 130.825C19.9636 130.447 19.7934 130.003 19.415 129.835C19.0366 129.666 18.5933 129.836 18.4248 130.215L19.11 130.52L19.7951 130.825ZM16.3859 133.777C16.1337 134.105 16.1957 134.576 16.5243 134.828C16.8529 135.08 17.3237 135.018 17.5759 134.69L16.9809 134.233L16.3859 133.777ZM15.1281 137.88C15.3803 137.551 15.3183 137.08 14.9897 136.828C14.6611 136.576 14.1903 136.638 13.9381 136.967L14.5331 137.423L15.1281 137.88ZM11.2687 139.923C10.9684 140.208 10.9563 140.683 11.2416 140.983C11.5269 141.283 12.0016 141.295 12.3019 141.01L11.7853 140.466L11.2687 139.923ZM9.25403 143.906C9.5543 143.621 9.56642 143.146 9.2811 142.846C8.99578 142.546 8.52106 142.533 8.22078 142.819L8.73741 143.362L9.25403 143.906ZM6.48271 144.509C6.23738 144.843 6.30906 145.313 6.6428 145.558C6.97655 145.803 7.44598 145.732 7.69131 145.398L7.08701 144.954L6.48271 144.509ZM7.65101 145.482C7.75301 145.08 7.51026 144.672 7.1088 144.57C6.70735 144.468 6.29921 144.711 6.1972 145.112L6.9241 145.297L7.65101 145.482ZM6.06612 145.586C5.97642 145.99 6.23153 146.39 6.63592 146.48C7.0403 146.57 7.44083 146.315 7.53053 145.91L6.79832 145.748L6.06612 145.586ZM7.53811 146.054C7.40169 145.663 6.97405 145.456 6.58294 145.593C6.19184 145.729 5.98537 146.157 6.12179 146.548L6.82995 146.301L7.53811 146.054ZM7.27168 148.314C7.50837 148.654 7.97581 148.737 8.31574 148.501C8.65567 148.264 8.73936 147.796 8.50267 147.457L7.88718 147.885L7.27168 148.314ZM10.3622 150.127C10.1255 149.787 9.65802 149.703 9.3181 149.94C8.97817 150.177 8.89448 150.644 9.13117 150.984L9.74666 150.556L10.3622 150.127ZM9.589 152.068C9.33496 152.396 9.39423 152.867 9.72139 153.121C10.0486 153.375 10.5197 153.316 10.7738 152.988L10.1814 152.528L9.589 152.068ZM9.78372 154.263C10.0378 153.936 9.97849 153.465 9.65133 153.211C9.32417 152.957 8.85301 153.016 8.59896 153.343L9.19134 153.803L9.78372 154.263ZM7.85083 154.428C7.70136 154.815 7.89335 155.249 8.27965 155.398C8.66596 155.548 9.10029 155.356 9.24976 154.97L8.5503 154.699L7.85083 154.428ZM9.23741 155.125C9.14987 154.721 8.7507 154.463 8.34584 154.551C7.94099 154.638 7.68375 155.038 7.77129 155.442L8.50435 155.284L9.23741 155.125ZM8.57058 157.04C8.77133 157.403 9.22778 157.534 9.5901 157.333C9.95241 157.132 10.0834 156.676 9.88263 156.313L9.2266 156.677L8.57058 157.04ZM11.1185 158.544C10.9177 158.181 10.4613 158.05 10.099 158.251C9.73666 158.452 9.60569 158.908 9.80644 159.271L10.4625 158.907L11.1185 158.544ZM11.4795 161.627C11.7509 161.94 12.2246 161.974 12.5375 161.702C12.8504 161.431 12.884 160.957 12.6126 160.644L12.046 161.136L11.4795 161.627ZM14.5439 162.871C14.2725 162.558 13.7988 162.524 13.4859 162.796C13.173 163.067 13.1394 163.541 13.4108 163.854L13.9773 163.362L14.5439 162.871ZM15.1789 165.678C15.493 165.948 15.9665 165.912 16.2366 165.598C16.5067 165.284 16.4711 164.811 16.157 164.541L15.668 165.109L15.1789 165.678ZM17.6188 165.774C17.3001 165.509 16.8273 165.553 16.5626 165.872C16.298 166.19 16.3418 166.663 16.6605 166.928L17.1396 166.351L17.6188 165.774ZM18.359 168.269C18.6972 168.508 19.1652 168.428 19.4044 168.09C19.6436 167.752 19.5633 167.284 19.2252 167.044L18.7921 167.657L18.359 168.269ZM21.0868 168.176C20.7185 167.987 20.2663 168.132 20.0768 168.5C19.8873 168.868 20.0323 169.32 20.4007 169.51L20.7437 168.843L21.0868 168.176ZM24.5706 170.758C24.9734 170.855 25.3781 170.606 25.4746 170.204C25.5711 169.801 25.3228 169.396 24.92 169.299L24.7453 170.029L24.5706 170.758ZM30.8494 170.748C30.4479 170.647 30.0398 170.889 29.938 171.291C29.8361 171.692 30.079 172.1 30.4805 172.202L30.6649 171.475L30.8494 170.748ZM35.7534 174.123C36.1298 174.296 36.5751 174.131 36.7481 173.755C36.9211 173.378 36.7562 172.933 36.3799 172.76L36.0666 173.442L35.7534 174.123ZM41.3666 174.84C40.9791 174.694 40.5464 174.889 40.4002 175.277C40.254 175.664 40.4497 176.097 40.8373 176.243L41.1019 175.541L41.3666 174.84ZM46.0481 178.017C46.4442 178.138 46.8634 177.915 46.9844 177.519C47.1053 177.123 46.8822 176.704 46.4861 176.583L46.2671 177.3L46.0481 178.017ZM51.707 178C51.3041 177.904 50.8995 178.153 50.8035 178.556C50.7074 178.959 50.9561 179.363 51.359 179.46L51.533 178.73L51.707 178ZM56.7505 180.567C57.1587 180.637 57.5466 180.364 57.6169 179.955C57.6873 179.547 57.4134 179.159 57.0052 179.089L56.8778 179.828L56.7505 180.567ZM62.3593 179.827C61.9472 179.785 61.579 180.084 61.5368 180.496C61.4946 180.909 61.7945 181.277 62.2065 181.319L62.2829 180.573L62.3593 179.827ZM67.7111 181.669C68.1252 181.679 68.4686 181.351 68.478 180.937C68.4874 180.522 68.1594 180.179 67.7453 180.17L67.7282 180.919L67.7111 181.669ZM73.1246 180.038C72.7116 180.069 72.4023 180.43 72.4338 180.843C72.4653 181.256 72.8257 181.565 73.2387 181.534L73.1816 180.786L73.1246 180.038ZM79.1173 180.746C79.5251 180.674 79.7972 180.284 79.725 179.877C79.6527 179.469 79.2635 179.197 78.8557 179.269L78.9865 180.007L79.1173 180.746ZM84.9446 177.984C84.5421 178.082 84.2952 178.488 84.3931 178.89C84.491 179.293 84.8966 179.54 85.2991 179.442L85.1218 178.713L84.9446 177.984ZM91.3893 177.775C91.7856 177.655 92.0092 177.236 91.8888 176.84C91.7684 176.444 91.3494 176.22 90.9531 176.34L91.1712 177.058L91.3893 177.775ZM96.8612 174.364C96.4722 174.507 96.2723 174.937 96.4146 175.326C96.5569 175.715 96.9876 175.915 97.3766 175.773L97.1189 175.069L96.8612 174.364ZM103.241 173.43C103.621 173.265 103.795 172.823 103.63 172.443C103.465 172.063 103.023 171.889 102.643 172.055L102.942 172.742L103.241 173.43ZM108.259 169.383C107.892 169.574 107.749 170.027 107.94 170.395C108.131 170.762 108.584 170.905 108.951 170.714L108.605 170.049L108.259 169.383ZM114.447 167.565C114.797 167.343 114.901 166.879 114.679 166.53C114.458 166.18 113.994 166.076 113.644 166.298L114.046 166.931L114.447 167.565ZM118.681 162.712C118.359 162.972 118.308 163.444 118.568 163.767C118.828 164.089 119.3 164.14 119.623 163.88L119.152 163.296L118.681 162.712ZM123.077 161.043C123.411 160.798 123.482 160.328 123.237 159.994C122.992 159.661 122.522 159.589 122.189 159.834L122.633 160.438L123.077 161.043ZM124.313 158.178C123.998 158.447 123.96 158.921 124.229 159.236C124.498 159.551 124.972 159.588 125.287 159.319L124.8 158.749L124.313 158.178ZM127.017 157.467C127.274 157.142 127.22 156.671 126.895 156.413C126.571 156.156 126.099 156.21 125.841 156.535L126.429 157.001L127.017 157.467ZM127.056 154.935C126.814 155.271 126.889 155.74 127.224 155.982C127.56 156.225 128.029 156.15 128.272 155.814L127.664 155.375L127.056 154.935ZM129.434 154.163C129.674 153.826 129.595 153.357 129.257 153.118C128.919 152.878 128.451 152.957 128.211 153.295L128.823 153.729L129.434 154.163ZM129.36 151.677C129.12 152.015 129.199 152.483 129.537 152.723C129.875 152.963 130.343 152.883 130.583 152.545L129.971 152.111L129.36 151.677ZM132.07 150.236C132.261 149.869 132.118 149.416 131.751 149.225C131.383 149.034 130.93 149.176 130.739 149.544L131.404 149.89L132.07 150.236ZM131.817 146.632C131.727 147.036 131.981 147.437 132.386 147.527C132.79 147.617 133.191 147.363 133.281 146.958L132.549 146.795L131.817 146.632ZM133.359 144.02C133.228 143.627 132.804 143.415 132.411 143.546C132.018 143.677 131.805 144.101 131.936 144.494L132.648 144.257L133.359 144.02ZM131.146 143.141C131.402 143.467 131.873 143.523 132.199 143.267C132.524 143.01 132.581 142.539 132.324 142.213L131.735 142.677L131.146 143.141ZM132.231 141.817C132.49 141.493 132.438 141.021 132.114 140.762C131.791 140.504 131.319 140.556 131.06 140.879L131.646 141.348L132.231 141.817ZM132.078 139.608C131.819 139.931 131.871 140.403 132.195 140.662C132.518 140.921 132.99 140.869 133.249 140.546L132.664 140.077L132.078 139.608ZM134.244 138.96C134.423 138.587 134.265 138.139 133.891 137.96C133.518 137.781 133.07 137.938 132.891 138.312L133.567 138.636L134.244 138.96ZM133.611 136.715C133.454 137.098 133.638 137.536 134.021 137.693C134.404 137.85 134.842 137.667 134.999 137.284L134.305 136.999L133.611 136.715ZM135.422 135.85C135.479 135.439 135.193 135.061 134.782 135.004C134.372 134.947 133.993 135.233 133.936 135.644L134.679 135.747L135.422 135.85ZM134.001 134.886C133.982 135.299 134.302 135.65 134.715 135.67C135.129 135.689 135.48 135.369 135.5 134.956L134.75 134.921L134.001 134.886ZM135.51 134.375C135.482 133.962 135.124 133.649 134.711 133.678C134.298 133.706 133.986 134.064 134.014 134.477L134.762 134.426L135.51 134.375ZM134.009 134.445C134.107 134.847 134.512 135.094 134.915 134.996C135.317 134.898 135.564 134.493 135.466 134.09L134.737 134.268L134.009 134.445ZM135.437 133.756C135.4 133.343 135.035 133.039 134.623 133.076C134.21 133.113 133.906 133.478 133.943 133.89L134.69 133.823L135.437 133.756ZM133.85 133.262C133.943 133.666 134.345 133.918 134.749 133.826C135.153 133.733 135.405 133.331 135.312 132.927L134.581 133.095L133.85 133.262ZM135.018 132.133C134.826 131.766 134.373 131.625 134.006 131.817C133.639 132.009 133.498 132.463 133.69 132.829L134.354 132.481L135.018 132.133ZM133.465 132.494C133.736 132.808 134.209 132.843 134.523 132.573C134.837 132.302 134.872 131.829 134.601 131.515L134.033 132.005L133.465 132.494ZM133.851 130.878C133.52 130.628 133.05 130.693 132.8 131.023C132.55 131.354 132.615 131.824 132.945 132.074L133.398 131.476L133.851 130.878ZM132.082 131.421C132.413 131.671 132.883 131.606 133.133 131.276C133.383 130.945 133.318 130.475 132.988 130.225L132.535 130.823L132.082 131.421ZM131.385 129.287C131.016 129.099 130.564 129.245 130.376 129.614C130.188 129.983 130.334 130.435 130.703 130.623L131.044 129.955L131.385 129.287ZM128.583 129.544C128.953 129.731 129.404 129.583 129.591 129.214C129.779 128.844 129.631 128.393 129.262 128.206L128.922 128.875L128.583 129.544ZM126.984 126.569C126.684 126.284 126.209 126.296 125.924 126.597C125.638 126.897 125.651 127.372 125.951 127.657L126.467 127.113L126.984 126.569ZM123.279 125.052C123.573 125.343 124.048 125.341 124.339 125.046C124.631 124.752 124.628 124.277 124.334 123.986L123.806 124.519L123.279 125.052ZM121.011 119.614C120.77 119.277 120.301 119.2 119.965 119.441C119.628 119.682 119.55 120.15 119.791 120.487L120.401 120.051L121.011 119.614ZM115.058 114.701C115.339 115.005 115.813 115.024 116.118 114.743C116.422 114.462 116.441 113.988 116.16 113.684L115.609 114.192L115.058 114.701ZM114.699 108.992C114.825 108.597 114.608 108.175 114.213 108.049C113.818 107.923 113.396 108.141 113.27 108.536L113.985 108.764L114.699 108.992ZM114.478 103.007C114.427 103.418 114.719 103.793 115.13 103.844C115.541 103.895 115.916 103.604 115.967 103.193L115.222 103.1L114.478 103.007ZM116.189 97.4185C116.17 97.0047 115.819 96.685 115.405 96.7043C114.991 96.7236 114.672 97.0747 114.691 97.4885L115.44 97.4535L116.189 97.4185ZM113.98 92.1681C114.071 92.5722 114.473 92.8261 114.877 92.7351C115.281 92.6441 115.535 92.2428 115.444 91.8387L114.712 92.0034L113.98 92.1681ZM113.686 86.4756C113.519 86.0968 113.076 85.9255 112.697 86.093C112.318 86.2605 112.147 86.7034 112.314 87.0822L113 86.7789L113.686 86.4756ZM109.633 82.4873C109.883 82.8174 110.354 82.8822 110.684 82.632C111.014 82.3818 111.079 81.9113 110.829 81.5812L110.231 82.0342L109.633 82.4873ZM106.772 77.566C106.436 77.3235 105.967 77.3991 105.725 77.7349C105.482 78.0706 105.558 78.5395 105.894 78.782L106.333 78.174L106.772 77.566ZM101.203 76.5619C101.605 76.6624 102.013 76.4181 102.113 76.0163C102.214 75.6145 101.969 75.2072 101.568 75.1067L101.386 75.8343L101.203 76.5619ZM95.2655 74.9998C94.8605 75.0865 94.6024 75.4851 94.689 75.8901C94.7756 76.2952 95.1742 76.5533 95.5793 76.4667L95.4224 75.7333L95.2655 74.9998ZM90.0071 79.0728C90.3385 78.8242 90.4056 78.3541 90.157 78.0227C89.9084 77.6914 89.4383 77.6243 89.107 77.8729L89.557 78.4728L90.0071 79.0728ZM84.4691 82.7577C84.2327 83.0978 84.3168 83.5652 84.6569 83.8015C84.9971 84.0379 85.4644 83.9538 85.7008 83.6137L85.0849 83.1857L84.4691 82.7577ZM82.786 89.2239C82.9317 88.8362 82.7356 88.4037 82.3478 88.258C81.9601 88.1122 81.5277 88.3084 81.3819 88.6961L82.0839 88.96L82.786 89.2239ZM81.1061 92.072L81.338 91.3587C80.5676 91.1083 79.8 90.8741 79.0363 90.6568L78.8311 91.3782L78.6258 92.0996C79.3711 92.3116 80.1209 92.5404 80.8742 92.7852L81.1061 92.072ZM74.2083 90.2662L74.3516 89.53C72.7239 89.2132 71.125 88.9836 69.5669 88.8482L69.502 89.5954L69.4371 90.3426C70.938 90.473 72.4844 90.6947 74.0651 91.0024L74.2083 90.2662ZM64.75 89.4955L64.7115 88.7464C63.8837 88.7889 63.0726 88.8644 62.2805 88.9742L62.3835 89.717L62.4865 90.4599C63.2332 90.3564 64.0012 90.2849 64.7884 90.2445L64.75 89.4955ZM62.3835 89.717L62.2391 88.9811C61.286 89.168 60.3369 89.3964 59.3927 89.6636L59.597 90.3852L59.8013 91.1069C60.7073 90.8504 61.6165 90.6318 62.5279 90.453L62.3835 89.717ZM54.2164 92.3492L53.9108 91.6642C53.0305 92.057 52.1566 92.4812 51.2898 92.9348L51.6375 93.5993L51.9853 94.2638C52.8255 93.8241 53.6714 93.4136 54.522 93.0341L54.2164 92.3492ZM51.6375 93.5993L52.3012 93.25C51.9108 92.5082 51.4928 91.7967 51.05 91.1185L50.422 91.5286L49.7941 91.9387C50.2106 92.5765 50.6048 93.2474 50.9738 93.9486L51.6375 93.5993ZM47.392 87.8161L47.9148 87.2784C46.6667 86.0649 45.3102 85.0642 43.878 84.3216L43.5328 84.9874L43.1875 85.6532C44.4751 86.3209 45.7141 87.2308 46.8692 88.3539L47.392 87.8161ZM38.9604 83.6249L39.0236 82.8776C38.1764 82.8059 37.3203 82.8263 36.462 82.9453L36.565 83.6882L36.6679 84.4311C37.4144 84.3276 38.159 84.3098 38.8972 84.3722L38.9604 83.6249ZM36.565 83.6882L36.462 82.9453C35.1358 83.1292 33.8802 83.5378 32.7113 84.1403L33.0549 84.807L33.3985 85.4736C34.4226 84.9458 35.516 84.5908 36.668 84.4311L36.565 83.6882ZM27.7383 89.8366L27.1078 89.4305C25.8061 91.4513 24.8125 93.8406 24.1822 96.4661L24.9115 96.6411L25.6408 96.8162C26.2364 94.3349 27.169 92.1055 28.3688 90.2428L27.7383 89.8366ZM24.1515 103.985L23.4017 104.001C23.4286 105.24 23.5281 106.501 23.705 107.777L24.4479 107.674L25.1908 107.571C25.0219 106.353 24.9269 105.149 24.9013 103.969L24.1515 103.985ZM24.4479 107.674L23.705 107.777C23.8144 108.567 23.951 109.343 24.1129 110.104L24.8465 109.948L25.5801 109.792C25.4256 109.066 25.2953 108.325 25.1908 107.571L24.4479 107.674ZM26.1394 114.378L25.4376 114.642C25.7203 115.392 26.029 116.121 26.3616 116.824L27.0397 116.504L27.7178 116.183C27.4027 115.517 27.1099 114.826 26.8413 114.113L26.1394 114.378ZM27.0397 116.504L26.4233 116.076C25.9813 116.714 25.5481 117.356 25.1241 118.002L25.7512 118.414L26.3782 118.825C26.7952 118.19 27.2212 117.558 27.656 116.931L27.0397 116.504ZM23.3235 122.329L22.6761 121.951C21.8875 123.3 21.1402 124.659 20.4375 126.023L21.1042 126.367L21.7709 126.71C22.4613 125.37 23.1956 124.034 23.971 122.708L23.3235 122.329ZM19.11 130.52L18.4248 130.215C18.107 130.929 17.8022 131.642 17.5107 132.354L18.2048 132.638L18.8989 132.922C19.1845 132.225 19.4834 131.525 19.7951 130.825L19.11 130.52ZM18.2048 132.638L17.6098 132.182L16.3859 133.777L16.9809 134.233L17.5759 134.69L18.7998 133.095L18.2048 132.638ZM14.5331 137.423L13.9381 136.967L12.7142 138.562L13.3092 139.018L13.9042 139.475L15.1281 137.88L14.5331 137.423ZM13.3092 139.018L12.7926 138.475L11.2687 139.923L11.7853 140.466L12.3019 141.01L13.8258 139.562L13.3092 139.018ZM8.73741 143.362L8.22078 142.819L6.69685 144.267L7.21347 144.81L7.73009 145.354L9.25403 143.906L8.73741 143.362ZM7.21347 144.81L6.69682 144.267C6.61741 144.342 6.54591 144.423 6.48271 144.509L7.08701 144.954L7.69131 145.398C7.7013 145.384 7.71395 145.37 7.73012 145.354L7.21347 144.81ZM6.9241 145.297L6.1972 145.112C6.16921 145.222 6.15253 145.334 6.14639 145.444L6.89523 145.486L7.64407 145.527C7.64495 145.511 7.64729 145.496 7.65101 145.482L6.9241 145.297ZM6.89523 145.486L6.23328 145.133C6.15738 145.275 6.10109 145.428 6.06612 145.586L6.79832 145.748L7.53053 145.91C7.5361 145.885 7.54511 145.861 7.55717 145.838L6.89523 145.486ZM6.82995 146.301L6.12179 146.548C6.17412 146.698 6.24749 146.843 6.34197 146.978L6.95744 146.55L7.57291 146.121C7.55666 146.098 7.54558 146.075 7.53811 146.054L6.82995 146.301ZM6.95744 146.55L6.34194 146.978L7.27168 148.314L7.88718 147.885L8.50267 147.457L7.57293 146.121L6.95744 146.55ZM9.74666 150.556L9.13117 150.984L10.0609 152.319L10.6764 151.891L11.2919 151.462L10.3622 150.127L9.74666 150.556ZM10.6764 151.891L10.084 151.431L9.589 152.068L10.1814 152.528L10.7738 152.988L11.2688 152.351L10.6764 151.891ZM9.19134 153.803L8.59896 153.343L8.10394 153.981L8.69632 154.441L9.28869 154.901L9.78372 154.263L9.19134 153.803ZM8.69632 154.441L8.10397 153.981C7.99672 154.119 7.91211 154.27 7.85083 154.428L8.5503 154.699L9.24976 154.97C9.25912 154.945 9.27204 154.922 9.28866 154.901L8.69632 154.441ZM8.50435 155.284L7.77129 155.442C7.80725 155.609 7.8676 155.772 7.95262 155.925L8.60867 155.562L9.26472 155.198C9.25183 155.175 9.2428 155.15 9.23741 155.125L8.50435 155.284ZM8.60867 155.562L7.95264 155.925L8.57058 157.04L9.2266 156.677L9.88263 156.313L9.2647 155.198L8.60867 155.562ZM10.4625 158.907L9.80644 159.271L10.4244 160.386L11.0804 160.022L11.7364 159.659L11.1185 158.544L10.4625 158.907ZM11.0804 160.022L10.5138 160.514L11.4795 161.627L12.046 161.136L12.6126 160.644L11.647 159.531L11.0804 160.022ZM13.9773 163.362L13.4108 163.854L14.3764 164.967L14.943 164.475L15.5095 163.984L14.5439 162.871L13.9773 163.362ZM14.943 164.475L14.4405 165.032C14.4518 165.042 14.6915 165.259 15.1789 165.678L15.668 165.109L16.157 164.541C15.6788 164.129 15.4481 163.921 15.4455 163.919L14.943 164.475ZM17.1396 166.351L16.6605 166.928C16.8906 167.119 17.1395 167.325 17.4075 167.544L17.8831 166.964L18.3587 166.384C18.0931 166.167 17.8466 165.963 17.6188 165.774L17.1396 166.351ZM17.8831 166.964L17.4075 167.544C17.7304 167.809 18.0497 168.05 18.359 168.269L18.7921 167.657L19.2252 167.044C18.9429 166.845 18.6521 166.625 18.3587 166.384L17.8831 166.964ZM20.7437 168.843L20.4007 169.51C20.7331 169.681 21.0071 169.807 21.2005 169.891C21.2972 169.933 21.3739 169.965 21.4278 169.987C21.4548 169.998 21.4761 170.006 21.4913 170.012C21.4989 170.015 21.505 170.017 21.5096 170.019C21.5119 170.02 21.5138 170.021 21.5153 170.021C21.516 170.021 21.5167 170.022 21.5172 170.022C21.5175 170.022 21.5177 170.022 21.518 170.022C21.5181 170.022 21.5182 170.022 21.5183 170.022C21.5183 170.022 21.5184 170.022 21.5184 170.022C21.5185 170.022 21.5186 170.022 21.781 169.32C22.0435 168.617 22.0436 168.617 22.0436 168.617C22.0436 168.617 22.0437 168.617 22.0437 168.617C22.0438 168.617 22.0439 168.617 22.044 168.617C22.0441 168.617 22.0442 168.617 22.0443 168.617C22.0444 168.618 22.0445 168.618 22.0445 168.618C22.0444 168.618 22.0439 168.617 22.0431 168.617C22.0414 168.616 22.0383 168.615 22.0336 168.613C22.0243 168.61 22.009 168.604 21.9882 168.595C21.9466 168.579 21.8828 168.552 21.7994 168.516C21.6325 168.443 21.3879 168.331 21.0868 168.176L20.7437 168.843ZM21.781 169.32L21.6065 170.049C22.6403 170.297 23.6277 170.532 24.5706 170.758L24.7453 170.029L24.92 169.299C23.9771 169.074 22.9882 168.837 21.9556 168.59L21.781 169.32ZM30.6649 171.475L30.4805 172.202C31.5605 172.476 32.5361 172.733 33.4078 172.977L33.61 172.255L33.8122 171.533C32.9249 171.285 31.9366 171.024 30.8494 170.748L30.6649 171.475ZM33.61 172.255L33.2707 172.924C34.0843 173.337 34.9125 173.737 35.7534 174.123L36.0666 173.442L36.3799 172.76C35.556 172.382 34.7451 171.99 33.9493 171.586L33.61 172.255ZM41.1019 175.541L40.8373 176.243C42.5463 176.888 44.2882 177.48 46.0481 178.017L46.2671 177.3L46.4861 176.583C44.7561 176.055 43.0447 175.473 41.3666 174.84L41.1019 175.541ZM51.533 178.73L51.359 179.46C53.1572 179.888 54.9594 180.258 56.7505 180.567L56.8778 179.828L57.0052 179.089C55.2459 178.786 53.4748 178.422 51.707 178L51.533 178.73ZM62.2829 180.573L62.2065 181.319C64.077 181.51 65.918 181.628 67.7111 181.669L67.7282 180.919L67.7453 180.17C65.9943 180.13 64.1929 180.014 62.3593 179.827L62.2829 180.573ZM73.1816 180.786L73.2387 181.534C74.1794 181.462 75.0993 181.364 75.995 181.24L75.892 180.497L75.7891 179.754C74.9257 179.874 74.0365 179.968 73.1246 180.038L73.1816 180.786ZM75.892 180.497L75.995 181.24C77.0115 181.099 78.0539 180.934 79.1173 180.746L78.9865 180.007L78.8557 179.269C77.8098 179.454 76.786 179.616 75.789 179.754L75.892 180.497ZM85.1218 178.713L85.2991 179.442C87.2994 178.955 89.3385 178.399 91.3893 177.775L91.1712 177.058L90.9531 176.34C88.9292 176.955 86.9172 177.505 84.9446 177.984L85.1218 178.713ZM97.1189 175.069L97.3766 175.773C99.3529 175.05 101.316 174.268 103.241 173.43L102.942 172.742L102.643 172.055C100.746 172.88 98.8109 173.651 96.8612 174.364L97.1189 175.069ZM108.605 170.049L108.951 170.714C110.86 169.722 112.702 168.671 114.447 167.565L114.046 166.931L113.644 166.298C111.938 167.379 110.134 168.408 108.259 169.383L108.605 170.049ZM119.152 163.296L119.623 163.88C120.466 163.2 121.27 162.503 122.031 161.79L121.518 161.243L121.006 160.696C120.274 161.381 119.497 162.054 118.681 162.712L119.152 163.296ZM121.518 161.243L121.953 161.854C122.334 161.583 122.712 161.311 123.077 161.043L122.633 160.438L122.189 159.834C121.831 160.097 121.46 160.364 121.084 160.632L121.518 161.243ZM124.8 158.749L125.287 159.319C125.725 158.945 126.107 158.585 126.365 158.273L125.787 157.795L125.208 157.318C125.035 157.528 124.734 157.818 124.313 158.178L124.8 158.749ZM125.787 157.795L126.365 158.273C126.598 157.991 126.815 157.721 127.017 157.467L126.429 157.001L125.841 156.535C125.645 156.782 125.434 157.044 125.208 157.318L125.787 157.795ZM127.664 155.375L128.272 155.814C128.656 155.283 128.862 154.971 128.875 154.949L128.248 154.538L127.621 154.127C127.619 154.131 127.426 154.424 127.056 154.935L127.664 155.375ZM128.248 154.538L128.86 154.972L129.434 154.163L128.823 153.729L128.211 153.295L127.637 154.104L128.248 154.538ZM129.971 152.111L130.583 152.545L131.157 151.736L130.545 151.302L129.934 150.868L129.36 151.677L129.971 152.111ZM130.545 151.302L131.144 151.754C131.173 151.715 131.591 151.156 132.07 150.236L131.404 149.89L130.739 149.544C130.308 150.371 129.94 150.859 129.946 150.851L130.545 151.302ZM132.549 146.795L133.281 146.958C133.404 146.405 133.494 145.817 133.53 145.203L132.782 145.158L132.033 145.114C132.002 145.639 131.925 146.148 131.817 146.632L132.549 146.795ZM132.782 145.158L133.53 145.203C133.554 144.798 133.486 144.4 133.359 144.02L132.648 144.257L131.936 144.494C132.015 144.733 132.043 144.938 132.033 145.114L132.782 145.158ZM131.735 142.677L132.324 142.213C132.127 141.963 131.912 141.715 131.685 141.471L131.137 141.983L130.588 142.495C130.792 142.713 130.979 142.929 131.146 143.141L131.735 142.677ZM131.137 141.983L131.722 142.452L132.231 141.817L131.646 141.348L131.06 140.879L130.551 141.514L131.137 141.983ZM132.664 140.077L133.249 140.546L133.758 139.911L133.173 139.442L132.587 138.973L132.078 139.608L132.664 140.077ZM133.173 139.442L133.842 139.78C133.848 139.767 134.019 139.428 134.244 138.96L133.567 138.636L132.891 138.312C132.673 138.768 132.506 139.097 132.503 139.104L133.173 139.442ZM134.305 136.999L134.999 137.284C135.137 136.947 135.265 136.604 135.332 136.334L134.604 136.154L133.876 135.974C133.837 136.13 133.746 136.387 133.611 136.715L134.305 136.999ZM134.604 136.154L135.332 136.334C135.37 136.179 135.399 136.014 135.422 135.85L134.679 135.747L133.936 135.644C133.918 135.773 133.898 135.884 133.876 135.974L134.604 136.154ZM134.75 134.921L135.5 134.956C135.507 134.806 135.511 134.66 135.514 134.521L134.764 134.506L134.014 134.491C134.012 134.618 134.008 134.751 134.001 134.886L134.75 134.921ZM134.764 134.506L135.514 134.521C135.515 134.472 135.514 134.423 135.51 134.375L134.762 134.426L134.014 134.477C134.014 134.482 134.014 134.487 134.014 134.491L134.764 134.506ZM134.737 134.268L135.466 134.09C135.455 134.044 135.442 133.999 135.427 133.955L134.715 134.19L134.003 134.426C134.005 134.432 134.007 134.439 134.009 134.445L134.737 134.268ZM134.715 134.19L135.464 134.152C135.458 134.035 135.45 133.9 135.437 133.756L134.69 133.823L133.943 133.89C133.954 134.011 133.961 134.127 133.966 134.229L134.715 134.19ZM134.581 133.095L135.312 132.927C135.277 132.775 135.232 132.615 135.171 132.463L134.475 132.742L133.779 133.022C133.802 133.081 133.827 133.161 133.85 133.262L134.581 133.095ZM134.475 132.742L135.171 132.462C135.123 132.344 135.071 132.234 135.018 132.133L134.354 132.481L133.69 132.829C133.72 132.888 133.751 132.952 133.779 133.023L134.475 132.742ZM134.033 132.005L134.601 131.515C134.449 131.338 134.325 131.238 134.286 131.208L133.829 131.803L133.373 132.398C133.346 132.377 133.391 132.408 133.465 132.494L134.033 132.005ZM133.829 131.803L134.282 131.205L133.851 130.878L133.398 131.476L132.945 132.074L133.376 132.401L133.829 131.803ZM132.535 130.823L132.988 130.225L132.557 129.898L132.104 130.496L131.651 131.094L132.082 131.421L132.535 130.823ZM132.104 130.496L132.446 129.829C132.429 129.82 131.984 129.592 131.385 129.287L131.044 129.955L130.703 130.623C131.301 130.928 131.746 131.156 131.762 131.164L132.104 130.496ZM128.922 128.875L129.262 128.206C128.763 127.953 128.35 127.745 128.185 127.665L127.859 128.341L127.533 129.016C127.681 129.088 128.079 129.288 128.583 129.544L128.922 128.875ZM127.859 128.341L128.185 127.665C128.236 127.69 128.238 127.7 128.148 127.628C128.08 127.573 127.987 127.494 127.871 127.391C127.639 127.185 127.335 126.903 126.984 126.569L126.467 127.113L125.951 127.657C126.307 127.995 126.625 128.291 126.875 128.513C127 128.624 127.113 128.721 127.209 128.798C127.284 128.858 127.408 128.956 127.533 129.016L127.859 128.341ZM123.806 124.519L124.334 123.986C123.857 123.513 123.404 123.062 123.019 122.678L122.489 123.208L121.959 123.739C122.345 124.125 122.8 124.577 123.279 125.052L123.806 124.519ZM122.489 123.208L123.13 122.819C122.474 121.738 121.766 120.669 121.011 119.614L120.401 120.051L119.791 120.487C120.525 121.513 121.212 122.551 121.848 123.598L122.489 123.208ZM115.609 114.192L116.16 113.684C115.302 112.754 114.41 111.84 113.49 110.943L112.966 111.481L112.443 112.018C113.346 112.897 114.218 113.792 115.058 114.701L115.609 114.192ZM112.966 111.481L113.654 111.779C114.043 110.883 114.393 109.953 114.699 108.992L113.985 108.764L113.27 108.536C112.979 109.449 112.647 110.333 112.278 111.182L112.966 111.481ZM115.222 103.1L115.967 103.193C116.087 102.224 116.167 101.237 116.203 100.234L115.454 100.207L114.704 100.18C114.67 101.139 114.593 102.082 114.478 103.007L115.222 103.1ZM115.454 100.207L116.203 100.234C116.238 99.2838 116.233 98.3443 116.189 97.4185L115.44 97.4535L114.691 97.4885C114.732 98.3728 114.737 99.2708 114.704 100.18L115.454 100.207ZM114.712 92.0034L115.444 91.8387C115.017 89.9439 114.424 88.1454 113.686 86.4756L113 86.7789L112.314 87.0822C113.012 88.6595 113.574 90.3649 113.98 92.1681L114.712 92.0034ZM110.231 82.0342L110.829 81.5812C109.636 80.0071 108.273 78.65 106.772 77.566L106.333 78.174L105.894 78.782C107.263 79.7707 108.521 81.0198 109.633 82.4873L110.231 82.0342ZM101.386 75.8343L101.568 75.1067C100.634 74.8732 99.6734 74.7347 98.6915 74.699L98.6643 75.4485L98.6371 76.198C99.5132 76.2298 100.37 76.3534 101.203 76.5619L101.386 75.8343ZM98.6643 75.4485L98.6914 74.699C97.5262 74.6568 96.3807 74.7613 95.2655 74.9998L95.4224 75.7333L95.5793 76.4667C96.5759 76.2535 97.5978 76.1604 98.6371 76.198L98.6643 75.4485ZM89.557 78.4728L89.107 77.8729C87.3738 79.1732 85.8102 80.828 84.4691 82.7577L85.0849 83.1857L85.7008 83.6137C86.9604 81.8013 88.4154 80.267 90.0071 79.0728L89.557 78.4728ZM82.0839 88.96L81.3819 88.6961C80.9963 89.7218 80.6607 90.7871 80.3795 91.8861L81.1061 92.072L81.8327 92.2579C82.1006 91.211 82.4199 90.1979 82.786 89.2239L82.0839 88.96Z" fill="#D4D3D8"/>
<path d="M51.0175 131.609C50.9561 131.111 51.0619 130.706 51.335 130.393C51.608 130.08 51.9668 129.896 52.4115 129.841C52.8561 129.786 53.2489 129.877 53.5899 130.114C53.9308 130.352 54.132 130.719 54.1934 131.217L55.0556 138.204L51.8796 138.596L51.0175 131.609ZM43.3611 142.855C42.9271 142.909 42.5746 142.839 42.3037 142.647C42.0315 142.444 41.8718 142.152 41.8248 141.771C41.7778 141.39 41.8623 141.073 42.0784 140.821C42.2931 140.558 42.6175 140.4 43.0515 140.346L52.881 139.133C53.5479 139.051 54.0546 139.064 54.4011 139.171C54.7463 139.268 54.998 139.479 55.1562 139.804C55.3251 140.127 55.4506 140.622 55.5329 141.289L55.9346 144.544L52.7269 144.94L52.3801 142.129C52.3488 141.875 52.2061 141.764 51.952 141.795L43.3611 142.855ZM41.2448 137.071C41.9797 136.668 42.5031 136.163 42.815 135.555C43.1256 134.936 43.2341 134.117 43.1404 133.097L43.0718 132.541C43.0408 132.115 43.1637 131.761 43.4407 131.48C43.7176 131.198 44.0731 131.031 44.5072 130.977C44.9624 130.921 45.3545 131.007 45.6836 131.235C46.0114 131.453 46.202 131.778 46.2556 132.212L46.3222 132.752C46.3614 133.07 46.3787 133.428 46.3741 133.826C47.6059 133.792 48.5963 134.154 49.3452 134.91C50.1048 135.666 50.5535 136.819 50.6912 138.372L47.5947 138.754L47.5675 138.402C47.4891 137.767 47.3053 137.279 47.0161 136.939C46.7256 136.588 46.3409 136.388 45.8621 136.34C45.5859 136.976 45.2304 137.535 44.7957 138.019C44.3702 138.491 43.9119 138.87 43.4206 139.156C42.928 139.432 42.4593 139.597 42.0147 139.652C41.5701 139.707 41.2011 139.634 40.9077 139.434C40.6249 139.232 40.456 138.909 40.4012 138.464C40.3646 138.168 40.4173 137.898 40.5592 137.655C40.7118 137.41 40.9403 137.216 41.2448 137.071ZM56.4935 141.235C57.2183 140.575 57.752 139.849 58.0946 139.054C58.4372 138.259 58.6351 137.338 58.6883 136.289C58.7403 135.229 58.6716 133.931 58.4822 132.396L58.3293 131.158C58.2692 130.671 58.3764 130.276 58.6507 129.974C58.9238 129.66 59.2826 129.476 59.7272 129.422C60.1507 129.369 60.5335 129.467 60.8758 129.715C61.2168 129.953 61.416 130.304 61.4735 130.77L61.6244 131.993C61.7432 132.956 61.8073 133.867 61.8165 134.726C63.139 135.078 64.1752 135.767 64.925 136.793C65.6736 137.807 66.1615 139.236 66.3888 141.078C66.4371 141.469 66.4722 141.884 66.494 142.322L63.4451 142.698C63.442 142.15 63.4117 141.644 63.3542 141.178C63.1452 139.484 62.5676 138.33 61.6212 137.716C61.2273 140.011 60.2845 141.777 58.7928 143.014C58.4735 143.301 58.0968 143.471 57.6628 143.525C57.4299 143.553 57.2076 143.538 56.996 143.478C56.795 143.417 56.6272 143.319 56.4924 143.185C56.2626 142.977 56.1267 142.704 56.0849 142.365C56.0601 142.164 56.0783 141.963 56.1395 141.762C56.2112 141.56 56.3292 141.384 56.4935 141.235ZM65.9443 129.767C65.8829 129.269 65.9887 128.864 66.2618 128.551C66.5348 128.238 66.8936 128.054 67.3383 127.999C67.7829 127.944 68.1757 128.035 68.5167 128.273C68.8576 128.51 69.0588 128.877 69.1202 129.375L69.612 133.361L70.1837 133.29C70.6283 133.235 70.9629 133.334 71.1874 133.585C71.4212 133.825 71.5616 134.136 71.6086 134.517C71.6557 134.898 71.5956 135.239 71.4284 135.539C71.2599 135.828 70.9587 136 70.5246 136.053L69.953 136.124L70.7661 142.714L67.5902 143.106L65.9443 129.767ZM85.4746 127.309C85.4158 126.832 85.5183 126.443 85.7821 126.142C86.0445 125.83 86.3981 125.647 86.8427 125.592C87.2873 125.537 87.6696 125.63 87.9893 125.87C88.3184 126.098 88.5124 126.45 88.5711 126.926L88.8729 129.372L89.3652 129.311C89.8098 129.256 90.1444 129.355 90.3689 129.606C90.6027 129.846 90.7431 130.157 90.7901 130.538C90.8371 130.919 90.7771 131.26 90.6099 131.56C90.4414 131.849 90.1401 132.021 89.7061 132.074L89.2138 132.135L89.7723 136.661L86.6758 137.043L85.4746 127.309ZM84.3399 133.268C84.7634 133.216 85.096 133.299 85.3378 133.516C85.5888 133.722 85.7359 133.999 85.779 134.348C85.8234 134.708 85.7482 135.013 85.5533 135.263C85.369 135.511 85.0652 135.662 84.6417 135.714L76.8448 136.676C76.4214 136.728 76.0848 136.657 75.835 136.462C75.5959 136.266 75.4541 135.988 75.4097 135.628C75.3666 135.278 75.4365 134.974 75.6195 134.715C75.8118 134.444 76.1196 134.283 76.5431 134.23L78.7345 133.96L78.613 132.976L78.5177 132.987C77.5543 133.106 76.7687 132.924 76.1609 132.44C75.5637 131.955 75.2121 131.283 75.1063 130.426L75.1004 130.378C74.9946 129.521 75.1724 128.784 75.6338 128.168C76.1058 127.551 76.8235 127.183 77.7868 127.064L81.1851 126.645C82.1378 126.527 82.9075 126.712 83.4942 127.198C84.0915 127.683 84.443 128.355 84.5488 129.212L84.5547 129.26C84.6605 130.117 84.4827 130.854 84.0213 131.47C83.5705 132.084 82.8687 132.45 81.9159 132.568L81.6142 132.605L81.7357 133.59L84.3399 133.268ZM79.6948 141.612C79.1019 141.685 78.6323 141.668 78.2858 141.56C77.9499 141.451 77.6923 141.236 77.5129 140.914C77.3453 140.601 77.2257 140.154 77.1538 139.572L77.0343 138.603C76.9781 138.148 77.0885 137.78 77.3655 137.498C77.6517 137.205 78.0277 137.03 78.4935 136.972C78.9593 136.915 79.3561 136.995 79.6839 137.212C80.0117 137.43 80.203 137.761 80.2578 138.205L80.3303 138.793C80.3434 138.899 80.3684 138.971 80.4054 139.009C80.4517 139.036 80.533 139.042 80.6495 139.028L89.145 137.979C89.5791 137.926 89.9163 138.002 90.1568 138.209C90.396 138.405 90.5371 138.678 90.5802 139.028C90.6233 139.377 90.5481 139.682 90.3545 139.942C90.1715 140.201 89.8683 140.357 89.4448 140.409L79.6948 141.612ZM78.0917 130.057C78.123 130.311 78.2213 130.498 78.3865 130.618C78.5623 130.736 78.7931 130.777 79.0789 130.742L80.8098 130.528C81.085 130.494 81.2883 130.399 81.4195 130.243C81.5507 130.087 81.6007 129.882 81.5693 129.628L81.5634 129.581C81.5321 129.327 81.4338 129.14 81.2686 129.021C81.1021 128.891 80.8812 128.843 80.606 128.877L78.8751 129.09C78.5893 129.125 78.3761 129.227 78.2356 129.395C78.1044 129.551 78.0545 129.756 78.0858 130.01L78.0917 130.057ZM104.799 135.629C105.233 135.575 105.576 135.656 105.829 135.872C106.081 136.088 106.229 136.376 106.274 136.736C106.318 137.096 106.244 137.406 106.05 137.667C105.858 137.938 105.545 138.1 105.111 138.153L92.8833 139.662C92.4492 139.716 92.106 139.635 91.8537 139.419C91.6026 139.213 91.4549 138.93 91.4105 138.57C91.3661 138.21 91.44 137.895 91.6323 137.624C91.8245 137.353 92.1377 137.191 92.5717 137.137L94.2867 136.926L93.9987 134.591C93.1916 134.584 92.547 134.368 92.0648 133.943C91.5812 133.509 91.2924 132.91 91.1984 132.148L91.1631 131.862C91.0573 131.005 91.2443 130.299 91.7241 129.746C92.2039 129.192 92.952 128.852 93.9683 128.727L100.908 127.871L100.845 127.363C100.808 127.066 100.647 126.936 100.361 126.971L92.0881 127.992C91.7281 128.036 91.4213 127.945 91.1677 127.718C90.914 127.492 90.7663 127.209 90.7245 126.87C90.684 126.542 90.7592 126.237 90.9502 125.956C91.1411 125.674 91.4166 125.511 91.7765 125.467L101.003 124.329C102.029 124.202 102.775 124.325 103.241 124.697C103.706 125.07 103.988 125.658 104.087 126.463L104.506 129.861L95.0899 131.023C94.7299 131.067 94.5696 131.248 94.6088 131.566C94.6479 131.884 94.8475 132.02 95.2074 131.976L103.83 130.912C104.232 130.862 104.55 130.952 104.782 131.181C105.013 131.4 105.15 131.679 105.192 132.017C105.232 132.346 105.167 132.644 104.996 132.912C104.825 133.18 104.538 133.339 104.136 133.389L102.802 133.554L103.084 135.84L104.799 135.629ZM100.003 136.22L99.7212 133.934L97.0852 134.259L97.3674 136.546L100.003 136.22Z" fill="#E4E3E6"/>
<g filter="url(#filter1_d_1422_2373)">
<path d="M95.1191 59.2687C83.252 73.4869 93.0855 97.271 116.51 116.822C139.935 136.373 168.08 144.288 179.947 130.07C191.814 115.851 182.445 88.4759 159.02 68.9248C135.596 49.3737 106.986 45.0505 95.1191 59.2687Z" fill="#4F4E44"/>
<g filter="url(#filter2_i_1422_2373)">
<ellipse cx="61.3361" cy="33.9675" rx="61.3361" ry="33.9675" transform="matrix(-0.767728 -0.640776 -0.640776 0.767728 211.71 104.228)" fill="#482513"/>
</g>
<g filter="url(#filter3_i_1422_2373)">
<path d="M217.587 12.6328C206.549 0.367034 186.966 -3.99016 173.172 8.42285C168.022 13.0574 164.409 19.375 162.475 26.1104L162.375 26.0225C162.375 26.0225 162.347 26.2816 162.299 26.7461C161.207 30.7869 160.715 34.9623 160.858 39.0039C160.214 43.7272 159.456 48.249 158.772 49.6201C158.312 50.5418 157.279 51.9164 156.044 53.4092C142.11 46.039 126.707 43.7084 118.859 55.4219C109.674 69.1307 137.308 91.8004 141.308 95.4004C145.308 99.0005 170.388 118.132 179.573 104.423C185.35 95.7991 183.398 83.5714 177.317 73.1152C178.786 72.229 180.465 71.4336 182.373 70.8232C186.35 69.5504 190.581 68.0229 194.235 66.6465C201.771 65.8912 209.285 62.8833 215.173 57.584C228.967 45.171 228.625 24.8985 217.587 12.6328Z" fill="#2B8F4F"/>
</g>
</g>
<g filter="url(#filter4_i_1422_2373)">
<ellipse cx="38.32" cy="44.64" rx="24.32" ry="24.64" fill="#FFDB5C"/>
</g>
<path d="M38.3203 21.9199C50.6676 21.9201 60.7195 32.0683 60.7197 44.6396C60.7197 57.2112 50.6678 67.3602 38.3203 67.3604C25.9727 67.3604 15.9199 57.2113 15.9199 44.6396C15.9201 32.0682 25.9728 21.9199 38.3203 21.9199Z" stroke="#F0D164" stroke-width="3.84"/>
<path d="M43.0007 34.7515L45.6227 40.8083L43.6038 41.6823L44.4778 43.7013L38.421 46.3233L41.9171 54.3991L37.8792 56.1471L30.0131 37.9767L40.1077 33.6066L40.9818 35.6255L43.0007 34.7515ZM38.9628 36.4996L34.925 38.2476L37.547 44.3044L41.5849 42.5564L38.9628 36.4996Z" fill="#8F7828"/>
<defs>
<filter id="filter0_i_1422_2373" x="67.6277" y="45.4006" width="25.1633" height="26.2104" filterUnits="userSpaceOnUse" color-interpolation-filters="sRGB">
<feFlood flood-opacity="0" result="BackgroundImageFix"/>
<feBlend mode="normal" in="SourceGraphic" in2="BackgroundImageFix" result="shape"/>
<feColorMatrix in="SourceAlpha" type="matrix" values="0 0 0 0 0 0 0 0 0 0 0 0 0 0 0 0 0 0 127 0" result="hardAlpha"/>
<feMorphology radius="1.2" operator="erode" in="SourceAlpha" result="effect1_innerShadow_1422_2373"/>
<feOffset dx="-0.8" dy="1.6"/>
<feGaussianBlur stdDeviation="2"/>
<feComposite in2="hardAlpha" operator="arithmetic" k2="-1" k3="1"/>
<feColorMatrix type="matrix" values="0 0 0 0 0.58374 0 0 0 0 0.569319 0 0 0 0 0.151098 0 0 0 0.25 0"/>
<feBlend mode="normal" in2="shape" result="effect1_innerShadow_1422_2373"/>
</filter>
<filter id="filter1_d_1422_2373" x="89.072" y="0" width="143.636" height="145.175" filterUnits="userSpaceOnUse" color-interpolation-filters="sRGB">
<feFlood flood-opacity="0" result="BackgroundImageFix"/>
<feColorMatrix in="SourceAlpha" type="matrix" values="0 0 0 0 0 0 0 0 0 0 0 0 0 0 0 0 0 0 127 0" result="hardAlpha"/>
<feOffset dx="3" dy="3"/>
<feGaussianBlur stdDeviation="2"/>
<feComposite in2="hardAlpha" operator="out"/>
<feColorMatrix type="matrix" values="0 0 0 0 0 0 0 0 0 0 0 0 0 0 0 0 0 0 0.05 0"/>
<feBlend mode="normal" in2="BackgroundImageFix" result="effect1_dropShadow_1422_2373"/>
<feBlend mode="normal" in="SourceGraphic" in2="effect1_dropShadow_1422_2373" result="shape"/>
</filter>
<filter id="filter2_i_1422_2373" x="86.9661" y="43.8301" width="107.778" height="97.545" filterUnits="userSpaceOnUse" color-interpolation-filters="sRGB">
<feFlood flood-opacity="0" result="BackgroundImageFix"/>
<feBlend mode="normal" in="SourceGraphic" in2="BackgroundImageFix" result="shape"/>
<feColorMatrix in="SourceAlpha" type="matrix" values="0 0 0 0 0 0 0 0 0 0 0 0 0 0 0 0 0 0 127 0" result="hardAlpha"/>
<feMorphology radius="2.4" operator="erode" in="SourceAlpha" result="effect1_innerShadow_1422_2373"/>
<feOffset dx="-4" dy="3.2"/>
<feGaussianBlur stdDeviation="4"/>
<feComposite in2="hardAlpha" operator="arithmetic" k2="-1" k3="1"/>
<feColorMatrix type="matrix" values="0 0 0 0 0.350642 0 0 0 0 0.350642 0 0 0 0 0.350642 0 0 0 0.25 0"/>
<feBlend mode="normal" in2="shape" result="effect1_innerShadow_1422_2373"/>
</filter>
<filter id="filter3_i_1422_2373" x="117" y="1" width="110.308" height="117.906" filterUnits="userSpaceOnUse" color-interpolation-filters="sRGB">
<feFlood flood-opacity="0" result="BackgroundImageFix"/>
<feBlend mode="normal" in="SourceGraphic" in2="BackgroundImageFix" result="shape"/>
<feColorMatrix in="SourceAlpha" type="matrix" values="0 0 0 0 0 0 0 0 0 0 0 0 0 0 0 0 0 0 127 0" result="hardAlpha"/>
<feOffset dx="1.6" dy="9.6"/>
<feGaussianBlur stdDeviation="6.8"/>
<feComposite in2="hardAlpha" operator="arithmetic" k2="-1" k3="1"/>
<feColorMatrix type="matrix" values="0 0 0 0 0.131301 0 0 0 0 0.40486 0 0 0 0 0.230215 0 0 0 1 0"/>
<feBlend mode="normal" in2="shape" result="effect1_innerShadow_1422_2373"/>
</filter>
<filter id="filter4_i_1422_2373" x="12.4" y="20" width="50.2399" height="52.48" filterUnits="userSpaceOnUse" color-interpolation-filters="sRGB">
<feFlood flood-opacity="0" result="BackgroundImageFix"/>
<feBlend mode="normal" in="SourceGraphic" in2="BackgroundImageFix" result="shape"/>
<feColorMatrix in="SourceAlpha" type="matrix" values="0 0 0 0 0 0 0 0 0 0 0 0 0 0 0 0 0 0 127 0" result="hardAlpha"/>
<feMorphology radius="2.4" operator="erode" in="SourceAlpha" result="effect1_innerShadow_1422_2373"/>
<feOffset dx="-1.6" dy="3.2"/>
<feGaussianBlur stdDeviation="4"/>
<feComposite in2="hardAlpha" operator="arithmetic" k2="-1" k3="1"/>
<feColorMatrix type="matrix" values="0 0 0 0 0.58374 0 0 0 0 0.569319 0 0 0 0 0.151098 0 0 0 0.25 0"/>
<feBlend mode="normal" in2="shape" result="effect1_innerShadow_1422_2373"/>
</filter>
</defs>
</svg>
