<svg width="24" height="24" viewBox="0 0 24 24" fill="none" xmlns="http://www.w3.org/2000/svg">
<g clip-path="url(#clip0_1075_7473)">
<path d="M15.7041 19.563C16.0836 19.5632 16.3916 19.8709 16.3916 20.2505C16.3914 20.6299 16.0835 20.9378 15.7041 20.938H8.37012C7.99068 20.9378 7.68279 20.6299 7.68262 20.2505C7.68262 19.8709 7.99057 19.5632 8.37012 19.563H15.7041ZM11.9795 2.8335C16.1561 2.8335 19.542 6.21934 19.542 10.396V16.354H20.2871C20.6667 16.354 20.9744 16.662 20.9746 17.0415C20.9746 17.4212 20.6668 17.729 20.2871 17.729H3.78711C3.40741 17.729 3.09961 17.4212 3.09961 17.0415C3.09978 16.662 3.40752 16.354 3.78711 16.354H4.41699V10.396C4.41699 6.21934 7.80284 2.8335 11.9795 2.8335Z" fill="currentColor"/>
</g>
<defs>
<clipPath id="clip0_1075_7473">
<rect width="24" height="24" fill="white"/>
</clipPath>
</defs>
</svg>
