<svg width="229" height="176" viewBox="0 0 229 176" fill="none" xmlns="http://www.w3.org/2000/svg">
<path d="M168.138 150.633H7.85598C4.84026 150.633 2.39551 148.188 2.39551 145.172V58.9609C2.39551 50.9296 8.90613 44.4189 16.9375 44.4189H139.172C158.185 44.4189 173.598 59.832 173.598 78.8445V145.172C173.598 148.188 171.153 150.633 168.138 150.633Z" fill="#E5E4DF"/>
<path d="M169.273 151.297H6.72091C4.3322 151.297 2.39551 149.36 2.39551 146.971V122.649H173.598V146.971C173.598 149.36 171.661 151.297 169.273 151.297Z" fill="#6EB51C"/>
<path d="M2.39551 112.997H173.598V122.578H2.39551V112.997ZM21.531 151.289C21.531 138.999 31.4939 129.036 43.784 129.036C56.0741 129.036 66.037 138.999 66.037 151.289M157.71 151.289C157.71 138.999 147.747 129.036 135.457 129.036C123.167 129.036 113.204 138.999 113.204 151.289" fill="#4D8226"/>
<path d="M61.2008 151.289C61.2008 160.907 53.4042 168.703 43.7864 168.703C34.1687 168.703 26.3721 160.907 26.3721 151.289C26.3721 141.671 34.1687 133.875 43.7864 133.875C53.4042 133.875 61.2008 141.671 61.2008 151.289ZM135.459 133.875C125.841 133.875 118.045 141.671 118.045 151.289C118.045 160.907 125.841 168.703 135.459 168.703C145.077 168.703 152.873 160.907 152.873 151.289C152.873 141.671 145.077 133.875 135.459 133.875Z" fill="#2B3B47"/>
<path d="M54.6289 151.285C54.6289 157.275 49.7728 162.131 43.7822 162.131C37.7917 162.131 32.9355 157.275 32.9355 151.285C32.9355 145.294 37.7917 140.438 43.7822 140.438C49.7728 140.438 54.6289 145.294 54.6289 151.285ZM135.455 140.438C129.465 140.438 124.609 145.294 124.609 151.285C124.609 157.276 129.465 162.132 135.455 162.132C141.446 162.132 146.302 157.276 146.302 151.285C146.302 145.294 141.446 140.438 135.455 140.438Z" fill="#597B91"/>
<path d="M169.305 117.458H173.606V97.5229H169.305C166.761 97.5229 164.699 99.5851 164.699 102.129V112.851C164.699 115.396 166.761 117.458 169.305 117.458Z" fill="#FF473E"/>
<path d="M8.30182 126.779H2.39551V142.341H8.30182C10.8456 142.341 12.9077 140.279 12.9077 137.735V131.385C12.9077 128.841 10.8456 126.779 8.30182 126.779Z" fill="#FFD469"/>
<path d="M32.5778 102.535H5.48926V59.4312H32.5774C37.2359 59.4312 41.0124 63.2076 41.0124 67.8661V94.1004C41.0127 98.7589 37.2363 102.535 32.5778 102.535ZM72.6584 83.6645V62.364C72.6584 61.7076 72.3976 61.0781 71.9334 60.6139C71.4693 60.1498 70.8398 59.889 70.1833 59.889H53.1866C52.5302 59.889 51.9007 60.1498 51.4365 60.6139C50.9724 61.0781 50.7116 61.7076 50.7116 62.364V83.6645C50.7116 84.3209 50.9724 84.9504 51.4365 85.4146C51.9007 85.8787 52.5302 86.1395 53.1866 86.1395H70.1833C70.8398 86.1395 71.4693 85.8787 71.9334 85.4146C72.3976 84.9504 72.6583 84.3209 72.6584 83.6645ZM103.687 83.6645V62.364C103.687 61.7076 103.427 61.0781 102.962 60.6139C102.498 60.1498 101.869 59.889 101.212 59.889H84.2156C83.5592 59.889 82.9296 60.1498 82.4655 60.6139C82.0013 61.0781 81.7406 61.7076 81.7406 62.364V83.6645C81.7406 84.3209 82.0013 84.9504 82.4655 85.4146C82.9296 85.8787 83.5592 86.1395 84.2156 86.1395H101.212C101.869 86.1395 102.498 85.8787 102.962 85.4146C103.427 84.9504 103.687 84.3209 103.687 83.6645ZM131.623 83.6645V62.364C131.623 61.7076 131.362 61.0781 130.898 60.6139C130.434 60.1498 129.804 59.889 129.148 59.889H112.151C111.495 59.889 110.865 60.1498 110.401 60.6139C109.937 61.0781 109.676 61.7076 109.676 62.364V83.6645C109.676 84.3209 109.937 84.9504 110.401 85.4146C110.865 85.8787 111.495 86.1395 112.151 86.1395H129.148C129.804 86.1395 130.434 85.8787 130.898 85.4146C131.362 84.9504 131.623 84.3209 131.623 83.6645ZM162.652 83.6645V62.364C162.652 61.7076 162.391 61.0781 161.927 60.6139C161.463 60.1498 160.834 59.889 160.177 59.889H143.18C142.524 59.889 141.894 60.1498 141.43 60.6139C140.966 61.0781 140.705 61.7076 140.705 62.364V83.6645C140.705 84.3209 140.966 84.9504 141.43 85.4146C141.894 85.8787 142.524 86.1395 143.18 86.1395H160.177C160.834 86.1395 161.463 85.8787 161.927 85.4146C162.391 84.9504 162.652 84.3209 162.652 83.6645Z" fill="#00B1FF"/>
<g filter="url(#filter0_g_1441_1255)">
<path d="M12.439 86.6801C19.189 79.9183 29.9889 83.5262 34.039 88.0847C38.089 92.6433 34.039 102.52 34.039 102.52H12.439C12.439 102.52 5.68897 93.442 12.439 86.6801Z" fill="#C1B6AD"/>
</g>
<g filter="url(#filter1_dg_1441_1255)">
<path d="M14.1815 65.1876C15.7431 65.1596 17.1202 66.4128 17.8291 68.2712C18.8057 67.9008 19.7951 67.6621 20.7773 67.5894C22.2413 67.5632 23.9201 68.0128 25.6231 68.8026C26.6008 66.2824 28.6694 64.6577 30.7645 64.9872C33.3175 65.389 34.9427 68.5402 34.3941 72.0259C34.2249 73.1009 33.8677 74.0814 33.3812 74.9127C34.2534 75.9939 34.9868 77.1328 35.5123 78.2891C35.9207 78.809 36.6659 79.7507 36.7644 79.8138C36.902 79.902 37.8123 80.5149 37.8123 80.5149L38.2238 80.9119C38.227 80.915 38.317 81.004 38.3643 81.1799C38.392 81.2828 38.3885 81.4308 38.3825 81.5381C38.3892 81.5644 38.3927 81.5922 38.3888 81.621C38.3691 81.7682 38.3364 81.9585 38.2897 82.0818C38.2042 82.3067 37.8157 82.8902 37.8091 82.9001L37.1919 83.505C37.4244 83.8228 37.5723 84.1344 37.5262 84.3898C37.364 85.2839 36.756 85.9219 36.7441 85.9343L36.0372 86.7117C36.0292 86.7212 35.7611 87.0384 35.2874 87.4899C35.0952 87.6732 34.5921 87.9681 34.0588 88.2582C30.8864 90.5875 25.3597 91.808 21.4546 91.878C18.2004 91.9362 13.8437 90.5335 10.6168 88.3801C9.88811 88.0776 8.87413 87.7043 7.58586 87.2272C7.58586 87.2272 7.11285 86.9829 6.6359 86.4853C6.16673 85.9957 5.94881 85.746 5.94174 85.7378L5.06786 84.4447L4.55085 83.1725C4.51544 83.0854 4.53483 82.9855 4.601 82.9186L5.21784 82.2942L4.38597 80.7288C4.35856 80.6772 4.35271 80.6212 4.36359 80.57C4.36235 80.5 4.39212 80.4284 4.45881 80.3788L6.31811 78.9947L7.8134 77.4637C8.56822 76.1109 9.53155 74.7601 10.6405 73.5111C10.3971 72.7806 10.2535 71.9676 10.2381 71.1088C10.1802 67.879 11.9456 65.228 14.1815 65.1876Z" fill="#C1B6AD"/>
<path d="M19.093 80.4228C17.2835 83.1364 13.0417 83.9293 11.0354 82.5914C9.02906 81.2536 10.0179 78.2916 11.8274 75.578C13.6369 72.8644 16.7302 71.7491 18.7365 73.0869C20.7429 74.4248 20.9024 77.7092 19.093 80.4228Z" fill="#7B7269"/>
<path d="M23.7576 80.3393C25.6631 82.9864 29.8849 83.7561 31.8021 82.376C33.7193 80.9959 32.606 77.9886 30.7005 75.3415C28.795 72.6945 25.696 71.6674 23.7788 73.0475C21.8616 74.4276 21.8521 77.6923 23.7576 80.3393Z" fill="#7B7269"/>
<ellipse cx="17.6224" cy="78.8966" rx="1.39482" ry="1.79976" transform="rotate(-1.02612 17.6224 78.8966)" fill="#443028"/>
<ellipse cx="24.91" cy="78.766" rx="1.39482" ry="1.79976" transform="rotate(-1.02612 24.91 78.766)" fill="#443028"/>
<ellipse cx="21.4312" cy="83.0136" rx="4.22944" ry="3.0146" transform="rotate(-1.02612 21.4312 83.0136)" fill="#E5E0D4"/>
<ellipse cx="21.4307" cy="81.0817" rx="1.18213" ry="1.59522" transform="rotate(-88.0612 21.4307 81.0817)" fill="#443028"/>
<path d="M21.3984 81.979L21.2456 82.6991" stroke="#443028" stroke-width="0.940032" stroke-linecap="round"/>
<path d="M16.398 75.8247L17.7984 75.8248" stroke="#443028" stroke-width="0.940032" stroke-linecap="round"/>
<path d="M24.3601 75.6736L25.6141 75.5913" stroke="#443028" stroke-width="0.940032" stroke-linecap="round"/>
<path d="M14.2968 67.3459C15.2585 67.3287 16.0919 68.1891 16.4298 69.4106L12.5275 72.3911C12.2804 71.8835 12.1304 71.2705 12.1185 70.6081C12.0866 68.8288 13.0617 67.3682 14.2968 67.3459Z" fill="#7B7269" fill-opacity="0.63"/>
<path d="M29.9921 67.7847C28.9543 67.8035 28.0894 68.7639 27.7724 70.0943L32.0964 73.157C32.3432 72.6 32.4808 71.9331 32.468 71.2184C32.4336 69.2982 31.3249 67.7608 29.9921 67.7847Z" fill="#7B7269" fill-opacity="0.64"/>
<path d="M20.7037 68.8884C20.7037 68.8884 21.0817 68.9693 21.2502 68.9847C21.4188 69.0001 21.4805 69.0841 21.9651 69.0568C22.4496 69.0294 22.5359 69.001 22.7913 68.9571C23.0468 68.9131 23.3143 68.8416 23.3143 68.8416C23.3143 68.8416 23.3156 68.9109 23.3168 68.9808C23.3181 69.0507 23.062 69.3863 22.7334 69.4584C22.4049 69.5305 22.0479 69.5443 21.9738 69.5419C21.8997 69.5396 21.496 69.5247 21.1986 69.4602C20.9012 69.3956 20.7143 69.1083 20.7068 69.0606C20.6992 69.013 20.7037 68.8884 20.7037 68.8884Z" fill="#5A8465"/>
<path d="M21.3948 63.7981C21.7029 63.7926 21.98 63.9047 22.1637 64.0842C22.316 64.0382 22.4799 64.0111 22.6507 64.0081C23.4228 63.9943 24.0662 64.4633 24.1672 65.0807C24.4807 65.243 24.706 65.5088 24.7773 65.8218C25.1195 66.0031 25.3255 66.2292 25.3302 66.48C25.3413 67.1032 24.113 67.6309 22.5872 67.6582C21.678 67.6745 20.7745 67.7269 20.1899 67.6367C20.0997 67.654 20.0062 67.6644 19.9101 67.6661C19.1568 67.6796 18.5372 67.1859 18.5259 66.5628C18.5175 66.0953 18.8535 65.6871 19.3401 65.507C19.3381 65.4845 19.3354 65.4617 19.335 65.4388C19.3248 64.8648 19.8341 64.3817 20.5032 64.2985C20.6507 64.0107 20.9927 63.8054 21.3948 63.7981Z" fill="#FFF9EB"/>
<path d="M18.5281 66.6619C18.5281 66.6619 18.8481 67.0909 20.0123 67.1852C21.1765 67.2794 21.853 67.2673 21.853 67.2673C21.853 67.2673 23.5008 67.2378 23.9844 67.114C24.468 66.9903 25.3275 66.5401 25.3275 66.5401C25.3275 66.5401 25.4188 66.7942 25.3394 67.2048C25.26 67.6155 24.6891 68.6104 23.8432 68.8557C22.9974 69.101 22.0774 69.1431 21.8864 69.1337C21.6954 69.1244 20.6544 69.0663 19.8869 68.8371C19.1193 68.6078 18.6888 67.7588 18.6126 67.4404C18.5363 67.1221 18.5281 66.6619 18.5281 66.6619Z" fill="#5A8465"/>
<path d="M21.1598 65.0439C21.1975 64.9751 21.241 64.9246 21.2847 64.8993C21.3171 64.8805 21.3581 64.8782 21.4024 64.8822C21.4731 64.8887 21.4925 64.9641 21.5124 64.9785C21.5601 65.0133 21.6239 64.9079 21.6925 64.8894C21.7351 64.878 21.7763 64.8952 21.8012 64.9167C21.8165 64.9434 21.8318 64.9727 21.8495 65.0018C21.8572 65.0165 21.8623 65.031 21.8829 65.0752" stroke="#7E746A" stroke-width="0.156672" stroke-linecap="round"/>
<path d="M20.2641 66.2464C20.2553 66.219 20.2473 66.1848 20.2492 66.1294C20.2521 66.042 20.304 65.9828 20.3503 65.957C20.4081 65.9249 20.4549 65.8938 20.4978 65.8904C20.5914 65.8831 20.6438 65.9421 20.6796 65.964C20.6965 65.9743 20.7183 65.9668 20.7332 65.956C20.8013 65.9063 20.8196 65.8178 20.8686 65.7956C20.9274 65.7945 20.9771 65.8151 21.0114 65.8465C21.0287 65.8624 21.0458 65.878 21.0958 65.9386" stroke="#7E746A" stroke-width="0.156672" stroke-linecap="round"/>
<path d="M22.5034 65.9784C22.5321 65.9487 22.5855 65.9181 22.6514 65.8972C22.6914 65.8846 22.7232 65.9056 22.7528 65.9173C22.8129 65.9411 22.8184 66.0021 22.8284 66.0167C22.857 66.0583 22.9002 65.9223 22.9588 65.8966C23.0189 65.8702 23.0915 65.8989 23.1559 65.9273C23.1758 65.9367 23.2004 65.9509 23.218 65.9654C23.2357 65.9799 23.2457 65.9943 23.2712 66.0384" stroke="#7E746A" stroke-width="0.156672" stroke-linecap="round"/>
<path d="M19.4059 82.2675C19.6148 82.5752 19.556 82.836 19.3569 82.9712C19.1578 83.1064 18.8937 83.0649 18.6848 82.7572C18.4758 82.4494 18.4678 82.0903 18.6669 81.9551C18.8661 81.8199 19.1969 81.9598 19.4059 82.2675Z" fill="url(#paint0_linear_1441_1255)"/>
<path d="M18.6389 83.1799C18.9081 83.2483 19.0045 83.423 18.9603 83.5972C18.9161 83.7714 18.748 83.879 18.4789 83.8107C18.2097 83.7424 18.0273 83.5458 18.0715 83.3716C18.1157 83.1975 18.3697 83.1116 18.6389 83.1799Z" fill="url(#paint1_linear_1441_1255)"/>
</g>
<g filter="url(#filter2_g_1441_1255)">
<path d="M61.6027 80.8764C63.9355 78.5395 67.668 79.7864 69.0677 81.3618C70.4674 82.9373 69.0677 86.3507 69.0677 86.3507H61.6027C61.6027 86.3507 59.2699 83.2133 61.6027 80.8764Z" fill="#C1B6AD"/>
</g>
<g filter="url(#filter3_dg_1441_1255)">
<path d="M62.2109 73.4463C62.751 73.4367 63.2257 73.8715 63.4704 74.5147C63.8087 74.386 64.1513 74.3029 64.4917 74.2777C64.9974 74.2686 65.5766 74.4254 66.1646 74.698C66.5021 73.8255 67.2181 73.2628 67.943 73.3768C68.8251 73.5159 69.3863 74.6053 69.1967 75.8099C69.138 76.1822 69.0142 76.5218 68.8454 76.8095C69.148 77.1846 69.4034 77.5788 69.5852 77.98C69.7266 78.1599 69.9793 78.4779 70.0146 78.5017C70.0608 78.5313 70.3634 78.7355 70.3764 78.7443L70.5195 78.8824C70.5234 78.8863 70.5516 78.9168 70.5671 78.9743C70.5761 79.0081 70.5759 79.0559 70.5741 79.0924C70.5777 79.103 70.5801 79.1145 70.5786 79.1265C70.5718 79.1771 70.5603 79.2428 70.5443 79.2853C70.515 79.3622 70.3839 79.5604 70.3785 79.5686L70.1634 79.7785C70.2436 79.8882 70.2951 79.995 70.2793 80.0831C70.223 80.3928 70.0125 80.6142 70.0095 80.6174L69.7652 80.8864C69.7577 80.8954 69.6653 81.0032 69.5063 81.1548C69.441 81.2168 69.2716 81.3142 69.0919 81.4122C67.9972 82.2221 66.0798 82.647 64.7261 82.6713C63.605 82.6912 62.1051 82.2096 60.9911 81.4694C60.7384 81.3639 60.3837 81.2322 59.9309 81.0645C59.9225 81.0601 59.7635 80.9751 59.603 80.8077C59.4382 80.6357 59.363 80.5492 59.363 80.5492L59.061 80.1024L58.8822 79.6632C58.87 79.6332 58.8775 79.598 58.9002 79.5749L59.1122 79.3592L58.8251 78.8183C58.8143 78.798 58.8148 78.7756 58.821 78.7559C58.8228 78.7346 58.8302 78.713 58.8503 78.6978L59.4932 78.2194L60.0197 77.6806C60.2791 77.2176 60.6108 76.7567 60.9898 76.329C60.9045 76.0749 60.8532 75.7918 60.8479 75.4925C60.828 74.3764 61.4381 73.4601 62.2109 73.4463Z" fill="#C1B6AD"/>
<path d="M63.907 78.7128C63.2816 79.6506 61.8157 79.9246 61.1223 79.4623C60.4289 78.9999 60.7707 77.9762 61.396 77.0384C62.0214 76.1006 63.0904 75.7151 63.7838 76.1775C64.4772 76.6399 64.5323 77.7749 63.907 78.7128Z" fill="#7B7269"/>
<path d="M65.519 78.6842C66.1776 79.599 67.6366 79.8651 68.2992 79.3881C68.9618 78.9111 68.577 77.8718 67.9185 76.957C67.2599 76.0422 66.1889 75.6872 65.5264 76.1642C64.8638 76.6411 64.8605 77.7694 65.519 78.6842Z" fill="#7B7269"/>
<ellipse cx="63.3989" cy="78.1855" rx="0.482048" ry="0.621998" transform="rotate(-1.02612 63.3989 78.1855)" fill="#443028"/>
<ellipse cx="65.916" cy="78.1411" rx="0.482048" ry="0.621998" transform="rotate(-1.02612 65.916 78.1411)" fill="#443028"/>
<ellipse cx="64.7152" cy="79.6085" rx="1.4617" ry="1.04185" transform="rotate(-1.02612 64.7152 79.6085)" fill="#E5E0D4"/>
<ellipse cx="64.714" cy="78.9409" rx="0.408545" ry="0.55131" transform="rotate(-88.0612 64.714 78.9409)" fill="#443028"/>
<path d="M64.7034 79.2505L64.6505 79.4994" stroke="#443028" stroke-width="0.324875" stroke-linecap="round"/>
<path d="M62.9741 77.1235L63.458 77.1236" stroke="#443028" stroke-width="0.324875" stroke-linecap="round"/>
<path d="M65.7275 77.0725L66.1609 77.0441" stroke="#443028" stroke-width="0.324875" stroke-linecap="round"/>
<path d="M62.2484 74.1939C62.581 74.188 62.8693 74.4858 62.9859 74.9084L61.637 75.9386C61.5514 75.7631 61.5002 75.5509 61.496 75.3218C61.485 74.707 61.8217 74.2017 62.2484 74.1939Z" fill="#7B7269" fill-opacity="0.63"/>
<path d="M67.6723 74.3457C67.314 74.3523 67.0149 74.6837 66.9052 75.1428L68.4009 76.2021C68.4859 76.0098 68.532 75.7793 68.5276 75.5328C68.5157 74.8691 68.1329 74.3375 67.6723 74.3457Z" fill="#7B7269" fill-opacity="0.64"/>
<path d="M64.4632 74.7275C64.4632 74.7275 64.5938 74.7555 64.6521 74.7608C64.7103 74.7661 64.7317 74.7952 64.8991 74.7857C65.0666 74.7763 65.0964 74.7665 65.1847 74.7513C65.273 74.7361 65.3654 74.7114 65.3654 74.7114C65.3654 74.7114 65.3659 74.7353 65.3663 74.7595C65.3667 74.7836 65.2782 74.8996 65.1647 74.9245C65.0511 74.9494 64.9277 74.9542 64.9021 74.9534C64.8765 74.9526 64.737 74.9474 64.6342 74.9251C64.5315 74.9028 64.4669 74.8035 64.4643 74.7871C64.4616 74.7706 64.4632 74.7275 64.4632 74.7275Z" fill="#5A8465"/>
<path d="M64.7022 72.9675C64.8091 72.9657 64.9043 73.0058 64.9677 73.0683C65.0205 73.0522 65.077 73.0419 65.1362 73.0408C65.4026 73.0361 65.623 73.1977 65.6586 73.4105C65.7674 73.4663 65.8453 73.5582 65.8702 73.6665C65.9887 73.7291 66.06 73.8069 66.0618 73.8935C66.0657 74.1089 65.6412 74.2918 65.1139 74.3012C64.8011 74.3068 64.4904 74.3232 64.2884 74.2926C64.2566 74.2988 64.2238 74.3035 64.19 74.3041C63.9296 74.3087 63.7152 74.1374 63.7114 73.922C63.7086 73.7601 63.8251 73.6184 63.9939 73.5565C63.9933 73.549 63.9917 73.5416 63.9916 73.5341C63.988 73.3361 64.1632 73.1704 64.3938 73.1411C64.4447 73.0415 64.5631 72.97 64.7022 72.9675Z" fill="#FFF9EB"/>
<path d="M63.7109 73.9578C63.7109 73.9578 63.8215 74.106 64.2239 74.1386C64.6262 74.1712 64.86 74.167 64.86 74.167C64.86 74.167 65.4295 74.1568 65.5967 74.114C65.7638 74.0713 66.0608 73.9157 66.0608 73.9157C66.0608 73.9157 66.0924 74.0035 66.0649 74.1454C66.0375 74.2873 65.8402 74.6312 65.5479 74.716C65.2555 74.8007 64.9376 74.8153 64.8716 74.812C64.8056 74.8088 64.4458 74.7887 64.1805 74.7095C63.9153 74.6303 63.7665 74.3368 63.7401 74.2268C63.7138 74.1168 63.7109 73.9578 63.7109 73.9578Z" fill="#5A8465"/>
<path d="M64.6213 73.3989C64.6344 73.3751 64.6494 73.3577 64.6645 73.3489C64.6757 73.3425 64.6899 73.3416 64.7052 73.343C64.7296 73.3453 64.7363 73.3713 64.7432 73.3763C64.7597 73.3883 64.7817 73.3519 64.8054 73.3455C64.8202 73.3416 64.8344 73.3475 64.843 73.355C64.8483 73.3642 64.8536 73.3743 64.8597 73.3844C64.8624 73.3895 64.8641 73.3945 64.8712 73.4097" stroke="#7E746A" stroke-width="0.0541459" stroke-linecap="round"/>
<path d="M64.3121 73.8142C64.3091 73.8047 64.3063 73.7929 64.307 73.7737C64.308 73.7435 64.3259 73.7231 64.3419 73.7142C64.3619 73.7031 64.3781 73.6923 64.3929 73.6911C64.4253 73.6886 64.4433 73.709 64.4557 73.7166C64.4616 73.7201 64.4691 73.7175 64.4743 73.7138C64.4978 73.6966 64.5041 73.666 64.5211 73.6584C64.5414 73.658 64.5585 73.6651 64.5704 73.676C64.5764 73.6815 64.5823 73.6869 64.5996 73.7078" stroke="#7E746A" stroke-width="0.0541458" stroke-linecap="round"/>
<path d="M65.085 73.7211C65.0949 73.7108 65.1134 73.7003 65.1361 73.6931C65.1499 73.6887 65.1609 73.696 65.1712 73.7C65.1919 73.7082 65.1938 73.7293 65.1973 73.7344C65.2072 73.7487 65.2221 73.7017 65.2424 73.6928C65.2631 73.6837 65.2882 73.6936 65.3105 73.7034C65.3173 73.7067 65.3258 73.7116 65.3319 73.7166C65.338 73.7216 65.3415 73.7266 65.3503 73.7418" stroke="#7E746A" stroke-width="0.0541459" stroke-linecap="round"/>
<path d="M64.0101 79.3512C64.0823 79.4576 64.062 79.5477 63.9932 79.5944C63.9244 79.6412 63.8331 79.6268 63.7609 79.5204C63.6887 79.4141 63.6859 79.29 63.7547 79.2433C63.8235 79.1965 63.9379 79.2449 64.0101 79.3512Z" fill="url(#paint2_linear_1441_1255)"/>
<path d="M63.746 79.667C63.839 79.6906 63.8723 79.751 63.857 79.8112C63.8418 79.8714 63.7837 79.9086 63.6907 79.885C63.5976 79.8614 63.5346 79.7935 63.5499 79.7333C63.5652 79.6731 63.653 79.6434 63.746 79.667Z" fill="url(#paint3_linear_1441_1255)"/>
</g>
<g filter="url(#filter4_g_1441_1255)">
<path d="M91.6008 80.8764C93.9336 78.5395 97.666 79.7864 99.0657 81.3618C100.465 82.9373 99.0657 86.3507 99.0657 86.3507H91.6008C91.6008 86.3507 89.268 83.2133 91.6008 80.8764Z" fill="#C1B6AD"/>
</g>
<g filter="url(#filter5_dg_1441_1255)">
<path d="M92.2084 73.4463C92.7486 73.4366 93.2232 73.8715 93.468 74.5148C93.8065 74.386 94.1497 74.3029 94.4903 74.2777C94.9958 74.2687 95.5743 74.4255 96.1621 74.698C96.4997 73.8255 97.2157 73.2628 97.9405 73.3769C98.8227 73.5159 99.3838 74.6053 99.1943 75.8099C99.1356 76.1822 99.0118 76.5218 98.843 76.8095C99.1456 77.1846 99.4019 77.5787 99.5838 77.98C99.7254 78.1602 99.9785 78.4789 100.013 78.5017C100.061 78.5324 100.365 78.7374 100.375 78.7443L100.518 78.8824C100.523 78.8875 100.55 78.9182 100.566 78.9743C100.575 79.008 100.574 79.056 100.573 79.0924C100.576 79.1029 100.579 79.1146 100.577 79.1265C100.57 79.1771 100.559 79.2427 100.543 79.2853C100.514 79.3618 100.383 79.5595 100.377 79.5686L100.162 79.7785C100.242 79.8881 100.294 79.9951 100.278 80.0831C100.222 80.3904 100.014 80.6108 100.008 80.6174L99.7638 80.8864C99.7587 80.8924 99.6662 81.001 99.5049 81.1548C99.4399 81.2168 99.2703 81.3141 99.0905 81.4122C97.9959 82.2222 96.0785 82.6469 94.7246 82.6713C93.6037 82.6914 92.1038 82.2095 90.9896 81.4694C90.737 81.3639 90.3821 81.2322 89.9294 81.0645C89.9243 81.0618 89.7636 80.9766 89.6016 80.8077C89.4428 80.642 89.3669 80.5554 89.3615 80.5492L89.0595 80.1024L88.8807 79.6632C88.8685 79.633 88.8758 79.598 88.8987 79.5749L89.1107 79.3592L88.8236 78.8183C88.8127 78.7979 88.8133 78.7757 88.8196 78.7559C88.8213 78.7345 88.8285 78.713 88.8488 78.6978L89.4917 78.2194L90.0183 77.6806C90.2776 77.2176 90.6084 76.7566 90.9874 76.329C90.902 76.0749 90.8508 75.7918 90.8454 75.4925C90.8256 74.3764 91.4357 73.4602 92.2084 73.4463Z" fill="#C1B6AD"/>
<path d="M93.9048 78.7128C93.2794 79.6506 91.8135 79.9246 91.1201 79.4623C90.4267 78.9999 90.7685 77.9762 91.3938 77.0384C92.0192 76.1006 93.0882 75.7151 93.7816 76.1775C94.475 76.6399 94.5301 77.7749 93.9048 78.7128Z" fill="#7B7269"/>
<path d="M95.5166 78.6842C96.1751 79.599 97.6342 79.8651 98.2967 79.3881C98.9593 78.9111 98.5746 77.8718 97.916 76.957C97.2575 76.0422 96.1865 75.6872 95.5239 76.1642C94.8613 76.6411 94.858 77.7694 95.5166 78.6842Z" fill="#7B7269"/>
<ellipse cx="93.3964" cy="78.1855" rx="0.482048" ry="0.621998" transform="rotate(-1.02612 93.3964 78.1855)" fill="#443028"/>
<ellipse cx="95.9138" cy="78.1409" rx="0.482048" ry="0.621998" transform="rotate(-1.02612 95.9138 78.1409)" fill="#443028"/>
<ellipse cx="94.7128" cy="79.6085" rx="1.4617" ry="1.04185" transform="rotate(-1.02612 94.7128 79.6085)" fill="#E5E0D4"/>
<ellipse cx="94.7115" cy="78.9409" rx="0.408545" ry="0.55131" transform="rotate(-88.0612 94.7115 78.9409)" fill="#443028"/>
<path d="M94.7012 79.2502L94.6483 79.4991" stroke="#443028" stroke-width="0.324875" stroke-linecap="round"/>
<path d="M92.9716 77.1235L93.4556 77.1236" stroke="#443028" stroke-width="0.324875" stroke-linecap="round"/>
<path d="M95.7253 77.0725L96.1587 77.0441" stroke="#443028" stroke-width="0.324875" stroke-linecap="round"/>
<path d="M92.246 74.1939C92.5785 74.188 92.8669 74.4858 92.9835 74.9084L91.6345 75.9386C91.549 75.7631 91.4978 75.5509 91.4936 75.3218C91.4826 74.707 91.8192 74.2017 92.246 74.1939Z" fill="#7B7269" fill-opacity="0.63"/>
<path d="M97.6701 74.3457C97.3118 74.3523 97.0127 74.6837 96.903 75.1428L98.3987 76.2021C98.4837 76.0098 98.5298 75.7793 98.5254 75.5328C98.5135 74.8691 98.1307 74.3375 97.6701 74.3457Z" fill="#7B7269" fill-opacity="0.64"/>
<path d="M94.4608 74.7275C94.4608 74.7275 94.5914 74.7555 94.6496 74.7608C94.7079 74.7661 94.7292 74.7952 94.8967 74.7857C95.0642 74.7763 95.094 74.7665 95.1822 74.7513C95.2705 74.7361 95.363 74.7114 95.363 74.7114C95.363 74.7114 95.3634 74.7353 95.3639 74.7595C95.3643 74.7836 95.2758 74.8996 95.1622 74.9245C95.0487 74.9494 94.9253 74.9542 94.8997 74.9534C94.8741 74.9526 94.7346 74.9474 94.6318 74.9251C94.529 74.9028 94.4644 74.8035 94.4618 74.7871C94.4592 74.7706 94.4608 74.7275 94.4608 74.7275Z" fill="#5A8465"/>
<path d="M94.6998 72.9675C94.8066 72.9657 94.9019 73.0058 94.9653 73.0683C95.0181 73.0522 95.0745 73.0419 95.1338 73.0408C95.4002 73.0361 95.6206 73.1977 95.6561 73.4105C95.7649 73.4663 95.8428 73.5582 95.8678 73.6665C95.9863 73.7291 96.0576 73.8069 96.0594 73.8935C96.0632 74.1089 95.6388 74.2918 95.1114 74.3012C94.7986 74.3068 94.488 74.3232 94.286 74.2926C94.2542 74.2988 94.2214 74.3035 94.1875 74.3041C93.9271 74.3087 93.7128 74.1374 93.7089 73.922C93.7062 73.7601 93.8226 73.6184 93.9915 73.5565C93.9908 73.549 93.9893 73.5416 93.9891 73.5341C93.9856 73.3361 94.1608 73.1704 94.3913 73.1411C94.4423 73.0415 94.5607 72.97 94.6998 72.9675Z" fill="#FFF9EB"/>
<path d="M93.7085 73.9578C93.7085 73.9578 93.8191 74.106 94.2214 74.1386C94.6238 74.1712 94.8576 74.167 94.8576 74.167C94.8576 74.167 95.4271 74.1568 95.5942 74.114C95.7613 74.0713 96.0584 73.9157 96.0584 73.9157C96.0584 73.9157 96.0899 74.0035 96.0625 74.1454C96.0351 74.2873 95.8377 74.6312 95.5454 74.716C95.2531 74.8007 94.9352 74.8153 94.8691 74.812C94.8031 74.8088 94.4434 74.7887 94.1781 74.7095C93.9128 74.6303 93.764 74.3368 93.7377 74.2268C93.7113 74.1168 93.7085 73.9578 93.7085 73.9578Z" fill="#5A8465"/>
<path d="M94.6189 73.3989C94.6319 73.3751 94.647 73.3577 94.6621 73.3489C94.6733 73.3425 94.6874 73.3416 94.7027 73.343C94.7272 73.3453 94.7339 73.3713 94.7407 73.3763C94.7573 73.3883 94.7793 73.3519 94.803 73.3455C94.8177 73.3416 94.832 73.3475 94.8406 73.355C94.8459 73.3642 94.8511 73.3743 94.8573 73.3844C94.8599 73.3895 94.8617 73.3945 94.8688 73.4097" stroke="#7E746A" stroke-width="0.0541459" stroke-linecap="round"/>
<path d="M94.3097 73.8142C94.3066 73.8047 94.3039 73.7929 94.3045 73.7737C94.3055 73.7435 94.3235 73.7231 94.3395 73.7142C94.3595 73.7031 94.3756 73.6923 94.3904 73.6911C94.4228 73.6886 94.4409 73.709 94.4533 73.7166C94.4591 73.7201 94.4667 73.7175 94.4718 73.7138C94.4954 73.6966 94.5017 73.666 94.5186 73.6584C94.5389 73.658 94.5561 73.6651 94.568 73.676C94.574 73.6815 94.5798 73.6869 94.5971 73.7078" stroke="#7E746A" stroke-width="0.0541458" stroke-linecap="round"/>
<path d="M95.0825 73.7211C95.0925 73.7108 95.1109 73.7003 95.1337 73.6931C95.1475 73.6887 95.1585 73.696 95.1687 73.7C95.1895 73.7082 95.1914 73.7293 95.1949 73.7344C95.2047 73.7487 95.2197 73.7017 95.2399 73.6928C95.2607 73.6837 95.2858 73.6936 95.308 73.7034C95.3149 73.7067 95.3234 73.7116 95.3295 73.7166C95.3356 73.7216 95.3391 73.7266 95.3479 73.7418" stroke="#7E746A" stroke-width="0.0541459" stroke-linecap="round"/>
<path d="M94.0079 79.3512C94.0801 79.4576 94.0598 79.5477 93.991 79.5944C93.9222 79.6412 93.8309 79.6268 93.7587 79.5204C93.6865 79.4141 93.6837 79.29 93.7525 79.2433C93.8213 79.1965 93.9357 79.2449 94.0079 79.3512Z" fill="url(#paint4_linear_1441_1255)"/>
<path d="M93.744 79.667C93.8371 79.6906 93.8704 79.751 93.8551 79.8112C93.8398 79.8714 93.7817 79.9086 93.6887 79.885C93.5957 79.8614 93.5326 79.7935 93.5479 79.7333C93.5632 79.6731 93.651 79.6434 93.744 79.667Z" fill="url(#paint5_linear_1441_1255)"/>
</g>
<path d="M187.744 136.956C188.011 136.335 188.278 135.714 189.013 134.807C189.749 133.9 190.946 132.727 192.179 131.518" stroke="#13AEF1" stroke-width="5" stroke-linecap="round"/>
<path d="M189.274 147.287C189.294 147.287 189.313 147.287 190.027 147.327C190.742 147.368 192.151 147.45 193.2 147.568C194.248 147.686 194.893 147.839 195.594 147.941" stroke="#13AEF1" stroke-width="5" stroke-linecap="round"/>
<path d="M208.139 157.368C208.42 157.442 215.215 157.434 220.333 156.743C222.384 156.467 223.726 155.143 224.401 154.596C225.575 153.643 225.471 148.785 224.785 145.768C224.085 142.688 221.337 143.235 220.261 143.059C217.62 142.627 224.872 136.176 225.89 131.767C226.128 130.735 226.032 130.076 225.914 129.604C225.712 128.792 224.984 128.392 224.181 128.067C221.942 127.162 219.1 128.15 217.038 129.003C216.353 129.287 216.271 128.885 216.363 128.427C216.871 125.878 217.503 121.117 216.929 118.595C216.382 116.188 212.446 116.546 210.094 116.527C208.669 116.874 207.253 117.78 205.348 119.567C204.669 120.321 203.71 121.462 202.514 122.651" stroke="#13AEF1" stroke-width="5" stroke-linecap="round"/>
<defs>
<filter id="filter0_g_1441_1255" x="9.24696" y="82.7484" width="26.7839" height="19.9636" filterUnits="userSpaceOnUse" color-interpolation-filters="sRGB">
<feFlood flood-opacity="0" result="BackgroundImageFix"/>
<feBlend mode="normal" in="SourceGraphic" in2="BackgroundImageFix" result="shape"/>
<feTurbulence type="fractalNoise" baseFrequency="10.416666030883789 10.416666030883789" numOctaves="3" seed="6719" />
<feDisplacementMap in="shape" scale="0.3840000331401825" xChannelSelector="R" yChannelSelector="G" result="displacedImage" width="100%" height="100%" />
<feMerge result="effect1_texture_1441_1255">
<feMergeNode in="displacedImage"/>
</feMerge>
</filter>
<filter id="filter1_dg_1441_1255" x="3.5904" y="63.4139" width="35.184" height="29.2338" filterUnits="userSpaceOnUse" color-interpolation-filters="sRGB">
<feFlood flood-opacity="0" result="BackgroundImageFix"/>
<feColorMatrix in="SourceAlpha" type="matrix" values="0 0 0 0 0 0 0 0 0 0 0 0 0 0 0 0 0 0 127 0" result="hardAlpha"/>
<feOffset dx="-0.192" dy="0.192"/>
<feGaussianBlur stdDeviation="0.288"/>
<feComposite in2="hardAlpha" operator="out"/>
<feColorMatrix type="matrix" values="0 0 0 0 0 0 0 0 0 0 0 0 0 0 0 0 0 0 0.08 0"/>
<feBlend mode="normal" in2="BackgroundImageFix" result="effect1_dropShadow_1441_1255"/>
<feBlend mode="normal" in="SourceGraphic" in2="effect1_dropShadow_1441_1255" result="shape"/>
<feTurbulence type="fractalNoise" baseFrequency="3.191380500793457 3.191380500793457" numOctaves="3" seed="320" />
<feDisplacementMap in="shape" scale="0.15667201578617096" xChannelSelector="R" yChannelSelector="G" result="displacedImage" width="100%" height="100%" />
<feMerge result="effect2_texture_1441_1255">
<feMergeNode in="displacedImage"/>
</feMerge>
</filter>
<filter id="filter2_g_1441_1255" x="60.4996" y="79.5176" width="9.25649" height="6.89956" filterUnits="userSpaceOnUse" color-interpolation-filters="sRGB">
<feFlood flood-opacity="0" result="BackgroundImageFix"/>
<feBlend mode="normal" in="SourceGraphic" in2="BackgroundImageFix" result="shape"/>
<feTurbulence type="fractalNoise" baseFrequency="30.140811920166016 30.140811920166016" numOctaves="3" seed="6719" />
<feDisplacementMap in="shape" scale="0.13271042704582214" xChannelSelector="R" yChannelSelector="G" result="displacedImage" width="100%" height="100%" />
<feMerge result="effect1_texture_1441_1255">
<feMergeNode in="displacedImage"/>
</feMerge>
</filter>
<filter id="filter3_dg_1441_1255" x="58.5512" y="72.8348" width="12.1606" height="10.1025" filterUnits="userSpaceOnUse" color-interpolation-filters="sRGB">
<feFlood flood-opacity="0" result="BackgroundImageFix"/>
<feColorMatrix in="SourceAlpha" type="matrix" values="0 0 0 0 0 0 0 0 0 0 0 0 0 0 0 0 0 0 127 0" result="hardAlpha"/>
<feOffset dx="-0.0663552" dy="0.0663552"/>
<feGaussianBlur stdDeviation="0.0995328"/>
<feComposite in2="hardAlpha" operator="out"/>
<feColorMatrix type="matrix" values="0 0 0 0 0 0 0 0 0 0 0 0 0 0 0 0 0 0 0.08 0"/>
<feBlend mode="normal" in2="BackgroundImageFix" result="effect1_dropShadow_1441_1255"/>
<feBlend mode="normal" in="SourceGraphic" in2="effect1_dropShadow_1441_1255" result="shape"/>
<feTurbulence type="fractalNoise" baseFrequency="9.2343177795410156 9.2343177795410156" numOctaves="3" seed="320" />
<feDisplacementMap in="shape" scale="0.054145853966474533" xChannelSelector="R" yChannelSelector="G" result="displacedImage" width="100%" height="100%" />
<feMerge result="effect2_texture_1441_1255">
<feMergeNode in="displacedImage"/>
</feMerge>
</filter>
<filter id="filter4_g_1441_1255" x="90.4976" y="79.5176" width="9.25649" height="6.89956" filterUnits="userSpaceOnUse" color-interpolation-filters="sRGB">
<feFlood flood-opacity="0" result="BackgroundImageFix"/>
<feBlend mode="normal" in="SourceGraphic" in2="BackgroundImageFix" result="shape"/>
<feTurbulence type="fractalNoise" baseFrequency="30.140811920166016 30.140811920166016" numOctaves="3" seed="6719" />
<feDisplacementMap in="shape" scale="0.13271042704582214" xChannelSelector="R" yChannelSelector="G" result="displacedImage" width="100%" height="100%" />
<feMerge result="effect1_texture_1441_1255">
<feMergeNode in="displacedImage"/>
</feMerge>
</filter>
<filter id="filter5_dg_1441_1255" x="88.5498" y="72.8348" width="12.1606" height="10.1025" filterUnits="userSpaceOnUse" color-interpolation-filters="sRGB">
<feFlood flood-opacity="0" result="BackgroundImageFix"/>
<feColorMatrix in="SourceAlpha" type="matrix" values="0 0 0 0 0 0 0 0 0 0 0 0 0 0 0 0 0 0 127 0" result="hardAlpha"/>
<feOffset dx="-0.0663552" dy="0.0663552"/>
<feGaussianBlur stdDeviation="0.0995328"/>
<feComposite in2="hardAlpha" operator="out"/>
<feColorMatrix type="matrix" values="0 0 0 0 0 0 0 0 0 0 0 0 0 0 0 0 0 0 0.08 0"/>
<feBlend mode="normal" in2="BackgroundImageFix" result="effect1_dropShadow_1441_1255"/>
<feBlend mode="normal" in="SourceGraphic" in2="effect1_dropShadow_1441_1255" result="shape"/>
<feTurbulence type="fractalNoise" baseFrequency="9.2343177795410156 9.2343177795410156" numOctaves="3" seed="320" />
<feDisplacementMap in="shape" scale="0.054145853966474533" xChannelSelector="R" yChannelSelector="G" result="displacedImage" width="100%" height="100%" />
<feMerge result="effect2_texture_1441_1255">
<feMergeNode in="displacedImage"/>
</feMerge>
</filter>
<linearGradient id="paint0_linear_1441_1255" x1="18.8824" y1="82.0961" x2="19.3395" y2="83.5098" gradientUnits="userSpaceOnUse">
<stop stop-color="#FFF9EB"/>
<stop offset="0.769231" stop-color="#F7EED8"/>
</linearGradient>
<linearGradient id="paint1_linear_1441_1255" x1="18.2617" y1="83.3436" x2="19.2174" y2="83.9066" gradientUnits="userSpaceOnUse">
<stop stop-color="#FFF9EB"/>
<stop offset="0.317308" stop-color="#F7EED8"/>
</linearGradient>
<linearGradient id="paint2_linear_1441_1255" x1="63.8292" y1="79.292" x2="63.9872" y2="79.7806" gradientUnits="userSpaceOnUse">
<stop stop-color="#FFF9EB"/>
<stop offset="0.769231" stop-color="#F7EED8"/>
</linearGradient>
<linearGradient id="paint3_linear_1441_1255" x1="63.6156" y1="79.7236" x2="63.9459" y2="79.9182" gradientUnits="userSpaceOnUse">
<stop stop-color="#FFF9EB"/>
<stop offset="0.317308" stop-color="#F7EED8"/>
</linearGradient>
<linearGradient id="paint4_linear_1441_1255" x1="93.827" y1="79.292" x2="93.985" y2="79.7806" gradientUnits="userSpaceOnUse">
<stop stop-color="#FFF9EB"/>
<stop offset="0.769231" stop-color="#F7EED8"/>
</linearGradient>
<linearGradient id="paint5_linear_1441_1255" x1="93.6137" y1="79.7236" x2="93.944" y2="79.9182" gradientUnits="userSpaceOnUse">
<stop stop-color="#FFF9EB"/>
<stop offset="0.317308" stop-color="#F7EED8"/>
</linearGradient>
</defs>
</svg>
