<svg width="14" height="15" viewBox="0 0 14 15" fill="none" xmlns="http://www.w3.org/2000/svg">
<path d="M2.94238 4.60569C2.94238 4.60569 3.63897 1.00277 6.54808 1C9.45718 0.997231 10.1538 4.60569 10.1538 4.60569" stroke="currentColor" stroke-width="1.2"/>
<path d="M11.499 3.64563C12.3824 3.64592 13.0986 4.36182 13.0986 5.24524V5.54895C13.0985 6.08035 12.8372 6.54907 12.4385 6.83997V11.4747C12.4383 12.9103 11.2745 14.0741 9.83887 14.0743H3.26172C1.82591 14.0743 0.66233 12.9105 0.662109 11.4747V6.8429C0.261487 6.55219 0.000156147 6.08183 0 5.54895V5.24524C6.63232e-05 4.36164 0.715994 3.64563 1.59961 3.64563H11.499ZM1.86133 7.14856V11.4747C1.86155 12.2477 2.48866 12.8751 3.26172 12.8751H9.83887C10.6117 12.8749 11.239 12.2476 11.2393 11.4747V7.14856H1.86133ZM1.59961 4.84485C1.37874 4.84485 1.19929 5.02438 1.19922 5.24524V5.54895C1.19948 5.76964 1.37885 5.94836 1.59961 5.94836H11.499C11.7195 5.94808 11.8992 5.76947 11.8994 5.54895V5.24524C11.8993 5.02456 11.7197 4.84514 11.499 4.84485H1.59961Z" fill="currentColor"/>
</svg>
