<svg width="20" height="21" viewBox="0 0 20 21" fill="none" xmlns="http://www.w3.org/2000/svg">
<path fill-rule="evenodd" clip-rule="evenodd" d="M10.928 17.7476C10.928 17.4024 11.2078 17.1226 11.553 17.1226H17.597C17.9421 17.1226 18.222 17.4024 18.222 17.7476C18.222 18.0927 17.9421 18.3726 17.597 18.3726H11.553C11.2078 18.3726 10.928 18.0927 10.928 17.7476Z" fill="currentColor"/>
<path d="M10.2355 3.11768C11.0368 2.1382 12.4805 1.99337 13.4601 2.79443L15.6057 4.54932C16.5851 5.35072 16.7292 6.79438 15.9279 7.77393L14.4553 9.57373C14.4347 9.61084 14.4108 9.64678 14.382 9.68018C14.363 9.70221 14.3408 9.72103 14.3195 9.73975L7.98553 17.4829C7.55066 18.0145 6.89986 18.3232 6.21307 18.3237L3.73944 18.3257C3.04476 18.3261 2.44601 17.8358 2.30878 17.1548L1.8205 14.73C1.68483 14.0566 1.85823 13.3583 2.29315 12.8267L10.2355 3.11768ZM3.25995 13.6177C3.06236 13.8592 2.98357 14.177 3.0451 14.4829L3.53436 16.9077C3.55397 17.005 3.63922 17.0757 3.73846 17.0757L6.2121 17.0737C6.52427 17.0735 6.82008 16.9335 7.01776 16.6919L13.0305 9.34033L9.3537 6.16846L3.25995 13.6177ZM12.6691 3.76221C12.2239 3.39797 11.5676 3.46356 11.2033 3.90869L10.1457 5.20068L13.8224 8.37256L14.9601 6.98291C15.3244 6.53764 15.2589 5.88137 14.8137 5.51709L12.6691 3.76221Z" fill="currentColor"/>
</svg>
