<svg width="27" height="27" viewBox="0 0 27 27" fill="none" xmlns="http://www.w3.org/2000/svg">
<path d="M17.9385 15.9014C20.838 15.9014 23.1885 18.2519 23.1885 21.1514C23.1885 21.5656 22.8528 21.9014 22.4385 21.9014C22.0243 21.9014 21.6885 21.5656 21.6885 21.1514C21.6885 19.0803 20.0096 17.4014 17.9385 17.4014H8.93854C6.86747 17.4014 5.18854 19.0803 5.18854 21.1514C5.18854 21.5656 4.85275 21.9014 4.43854 21.9014C4.02432 21.9014 3.68854 21.5656 3.68854 21.1514C3.68854 18.2519 6.03904 15.9014 8.93854 15.9014H17.9385ZM13.4385 4.15137C16.2 4.15137 18.4385 6.38994 18.4385 9.15137C18.4385 11.9128 16.2 14.1514 13.4385 14.1514C10.6771 14.1514 8.43854 11.9128 8.43854 9.15137C8.43854 6.38994 10.6771 4.15137 13.4385 4.15137ZM13.4385 5.65137C11.5055 5.65137 9.93854 7.21837 9.93854 9.15137C9.93854 11.0844 11.5055 12.6514 13.4385 12.6514C15.3715 12.6514 16.9385 11.0844 16.9385 9.15137C16.9385 7.21837 15.3715 5.65137 13.4385 5.65137Z" fill="currentColor"/>
</svg>
