<svg width="20" height="20" viewBox="0 0 20 20" fill="none" xmlns="http://www.w3.org/2000/svg">
<circle cx="9.5" cy="9.5" r="9.5" fill="#DAFCFF"/>
<g clip-path="url(#clip0_662_3840)">
<path d="M8.74878 6.62499L9.0769 6.29687M9.0769 7.93749L9.40503 7.60937M10.3894 8.26562L10.7175 7.93749M12.6666 9.94255C12.6717 9.89666 12.6671 9.85021 12.653 9.80623C12.6389 9.76225 12.6157 9.72174 12.5849 9.68734C12.5541 9.65294 12.5164 9.62543 12.4742 9.60661C12.4321 9.58779 12.3864 9.57808 12.3402 9.57812H5.15734C5.11123 9.57828 5.06566 9.58813 5.02359 9.60702C4.98153 9.62591 4.94389 9.65342 4.91313 9.68777C4.88236 9.72212 4.85915 9.76255 4.845 9.80644C4.83085 9.85033 4.82607 9.8967 4.83097 9.94255C4.92028 10.6082 5.19093 11.2365 5.61331 11.7586C6.0357 12.2808 6.59355 12.6767 7.22584 12.9031C7.28776 12.9269 7.34102 12.9689 7.37859 13.0236C7.41616 13.0783 7.43627 13.143 7.43628 13.2094V13.8437C7.43628 13.9308 7.47085 14.0142 7.53238 14.0758C7.59392 14.1373 7.67738 14.1719 7.7644 14.1719H9.73315C9.82018 14.1719 9.90364 14.1373 9.96517 14.0758C10.0267 14.0142 10.0613 13.9308 10.0613 13.8437V13.2094C10.0613 13.143 10.0814 13.0783 10.119 13.0236C10.1565 12.9689 10.2098 12.9269 10.2717 12.9031C10.904 12.6767 11.4619 12.2808 11.8842 11.7586C12.3066 11.2365 12.5773 10.6082 12.6666 9.94255ZM13.6343 5.67387C13.654 5.71221 13.666 5.75406 13.6695 5.79703C13.673 5.83999 13.668 5.88323 13.6548 5.92426C13.6416 5.9653 13.6204 6.00333 13.5925 6.03619C13.5646 6.06904 13.5305 6.09607 13.4922 6.11574L12.0331 6.86518C11.9177 6.92946 11.7906 6.96987 11.6593 6.98401C11.528 6.99815 11.3952 6.98573 11.2688 6.94749C11.1425 6.90925 11.025 6.84596 10.9236 6.76141C10.8222 6.67685 10.7388 6.57275 10.6784 6.4553C10.6181 6.33786 10.5819 6.20946 10.5722 6.07777C10.5625 5.94607 10.5794 5.81376 10.6218 5.68873C10.6643 5.56369 10.7315 5.44847 10.8194 5.34994C10.9073 5.2514 11.0142 5.17157 11.1336 5.11518L12.5931 4.36443C12.6705 4.3248 12.7605 4.31751 12.8432 4.34417C12.926 4.37083 12.9948 4.42926 13.0345 4.50662L13.6343 5.67387Z" stroke="#62C0BD" stroke-width="0.75" stroke-linecap="round" stroke-linejoin="round"/>
</g>
<defs>
<clipPath id="clip0_662_3840">
<rect width="10.5" height="10.5" fill="white" transform="translate(4 4)"/>
</clipPath>
</defs>
</svg>
