<svg width="20" height="20" viewBox="0 0 20 20" fill="none" xmlns="http://www.w3.org/2000/svg">
<g clip-path="url(#clip0_647_3822)">
<circle cx="9.6" cy="9.99981" r="9.6" fill="#FFE4E8"/>
<path d="M10.4163 5.23334V6.235L10.4797 6.22459L10.5943 6.20375C10.7313 6.17917 10.8851 6.15125 11.038 6.135C11.4651 6.08875 11.9351 6.1225 12.493 6.43125C13.5922 7.03959 14.1663 8.19167 14.1663 9.60834C14.1663 11.3917 13.0372 13.0667 11.5876 13.5413C11.1543 13.6829 10.8438 13.6063 10.5859 13.5113L10.4726 13.4688C10.2993 13.4025 10.183 13.3583 9.99967 13.3583C9.81634 13.3583 9.70051 13.4025 9.52717 13.4688L9.41384 13.5117C9.15551 13.6067 8.84467 13.6838 8.41092 13.5408C6.96634 13.0654 5.83301 11.3925 5.83301 9.60834C5.83301 8.19167 6.40717 7.04167 7.50592 6.43167C8.06426 6.12167 8.53426 6.08792 8.96176 6.13417C9.11426 6.15084 9.26842 6.17875 9.40509 6.20375L9.51967 6.22459L9.58301 6.235V5.23334H10.4163ZM9.58301 7.07792C9.51134 7.06792 9.44273 7.05709 9.37717 7.04542L9.23551 7.02C9.115 6.99652 8.99367 6.97748 8.87176 6.96292C8.58009 6.93125 8.28967 6.94959 7.91009 7.16C7.13301 7.59167 6.66634 8.42375 6.66634 9.60834C6.66634 11.0904 7.61967 12.4033 8.67176 12.7492C8.86259 12.8121 8.96801 12.7875 9.12592 12.7296L9.20509 12.6992C9.38384 12.6292 9.65009 12.525 9.99967 12.525C10.3493 12.525 10.6155 12.6292 10.7938 12.6988L10.873 12.7292C11.0313 12.7875 11.1372 12.8117 11.3284 12.7492C12.3822 12.4042 13.333 11.0908 13.333 9.60834C13.333 8.42334 12.8663 7.59042 12.0893 7.16042C11.7101 6.95 11.4193 6.93167 11.1276 6.96334C11.0068 6.97625 10.8934 6.99667 10.7634 7.02042C10.7187 7.02875 10.6715 7.03709 10.6218 7.04542C10.5565 7.05681 10.488 7.06764 10.4163 7.07792V7.66209C10.4888 7.63625 10.5583 7.60431 10.6247 7.56625L10.9851 7.35792L11.4022 8.07875L11.0413 8.2875C10.7246 8.47037 10.3654 8.56665 9.99967 8.56667C9.62051 8.56667 9.26467 8.465 8.95801 8.2875L8.59717 8.07917L9.01426 7.35792L9.37509 7.56625C9.44092 7.60431 9.51023 7.63625 9.58301 7.66209V7.07792Z" fill="#FF92A2"/>
</g>
<defs>
<clipPath id="clip0_647_3822">
<rect width="19.2" height="19.2" fill="white" transform="translate(0 0.399994)"/>
</clipPath>
</defs>
</svg>
