<svg width="14" height="16" viewBox="0 0 14 16" fill="none" xmlns="http://www.w3.org/2000/svg">
<path opacity="0.5" fill-rule="evenodd" clip-rule="evenodd" d="M2.70933 3.03957V3.25816C2.70933 3.43782 2.7807 3.61012 2.90774 3.73716C3.03478 3.8642 3.20709 3.93557 3.38675 3.93557C3.56641 3.93557 3.73872 3.8642 3.86576 3.73716C3.9928 3.61012 4.06417 3.43782 4.06417 3.25816V3.03235H9.93513V3.25816C9.93513 3.43782 10.0065 3.61012 10.1335 3.73716C10.2606 3.8642 10.4329 3.93557 10.6126 3.93557C10.7922 3.93557 10.9645 3.8642 11.0916 3.73716C11.2186 3.61012 11.29 3.43782 11.29 3.25816V3.03957C11.3899 3.04319 11.4809 3.04831 11.5627 3.05493C11.8229 3.0757 11.9466 3.11364 12.0279 3.15519C12.2411 3.26357 12.4136 3.43609 12.522 3.64925C12.5635 3.73054 12.6015 3.85428 12.6222 4.11351C12.6439 4.38086 12.6448 4.7277 12.6448 5.24525V5.74203H1.35449V5.24525C1.35449 4.72861 1.35449 4.38086 1.37707 4.11351C1.39785 3.85428 1.43578 3.73054 1.47733 3.64925C1.58563 3.43647 1.75861 3.26349 1.9714 3.15519C2.05269 3.11364 2.17643 3.0757 2.43565 3.05493C2.52673 3.0475 2.61799 3.04238 2.70933 3.03957ZM5.64481 3.70977C5.46515 3.70977 5.29285 3.78114 5.16581 3.90818C5.03877 4.03522 4.96739 4.20752 4.96739 4.38719C4.96739 4.56685 5.03877 4.73915 5.16581 4.86619C5.29285 4.99323 5.46515 5.06461 5.64481 5.06461H8.35449C8.53415 5.06461 8.70646 4.99323 8.8335 4.86619C8.96054 4.73915 9.03191 4.56685 9.03191 4.38719C9.03191 4.20752 8.96054 4.03522 8.8335 3.90818C8.70646 3.78114 8.53415 3.70977 8.35449 3.70977H5.64481Z" fill="#454C53"/>
<path d="M3.83899 10.0322C4.13843 10.0322 4.4256 9.91328 4.63734 9.70155C4.84907 9.48981 4.96802 9.20264 4.96802 8.9032C4.96802 8.60376 4.84907 8.31659 4.63734 8.10486C4.4256 7.89312 4.13843 7.77417 3.83899 7.77417C3.53955 7.77417 3.25238 7.89312 3.04065 8.10486C2.82891 8.31659 2.70996 8.60376 2.70996 8.9032C2.70996 9.20264 2.82891 9.48981 3.04065 9.70155C3.25238 9.91328 3.53955 10.0322 3.83899 10.0322ZM3.83899 13.1935C4.13843 13.1935 4.4256 13.0746 4.63734 12.8628C4.84907 12.6511 4.96802 12.3639 4.96802 12.0645C4.96802 11.7651 4.84907 11.4779 4.63734 11.2661C4.4256 11.0544 4.13843 10.9355 3.83899 10.9355C3.53955 10.9355 3.25238 11.0544 3.04065 11.2661C2.82891 11.4779 2.70996 11.7651 2.70996 12.0645C2.70996 12.3639 2.82891 12.6511 3.04065 12.8628C3.25238 13.0746 3.53955 13.1935 3.83899 13.1935ZM8.12931 8.9032C8.12931 9.20264 8.01036 9.48981 7.79863 9.70155C7.58689 9.91328 7.29972 10.0322 7.00028 10.0322C6.70084 10.0322 6.41367 9.91328 6.20194 9.70155C5.9902 9.48981 5.87125 9.20264 5.87125 8.9032C5.87125 8.60376 5.9902 8.31659 6.20194 8.10486C6.41367 7.89312 6.70084 7.77417 7.00028 7.77417C7.29972 7.77417 7.58689 7.89312 7.79863 8.10486C8.01036 8.31659 8.12931 8.60376 8.12931 8.9032ZM7.00028 13.1935C7.29972 13.1935 7.58689 13.0746 7.79863 12.8628C8.01036 12.6511 8.12931 12.3639 8.12931 12.0645C8.12931 11.7651 8.01036 11.4779 7.79863 11.2661C7.58689 11.0544 7.29972 10.9355 7.00028 10.9355C6.70084 10.9355 6.41367 11.0544 6.20194 11.2661C5.9902 11.4779 5.87125 11.7651 5.87125 12.0645C5.87125 12.3639 5.9902 12.6511 6.20194 12.8628C6.41367 13.0746 6.70084 13.1935 7.00028 13.1935ZM11.2906 8.9032C11.2906 9.20264 11.1717 9.48981 10.9599 9.70155C10.7482 9.91328 10.461 10.0322 10.1616 10.0322C9.86213 10.0322 9.57496 9.91328 9.36322 9.70155C9.15149 9.48981 9.03254 9.20264 9.03254 8.9032C9.03254 8.60376 9.15149 8.31659 9.36322 8.10486C9.57496 7.89312 9.86213 7.77417 10.1616 7.77417C10.461 7.77417 10.7482 7.89312 10.9599 8.10486C11.1717 8.31659 11.2906 8.60376 11.2906 8.9032Z" fill="#454C53"/>
<path fill-rule="evenodd" clip-rule="evenodd" d="M3.3871 0.322571C3.56676 0.322571 3.73906 0.393941 3.8661 0.520982C3.99314 0.648023 4.06452 0.820327 4.06452 0.99999V1.67741H9.93548V0.99999C9.93548 0.820327 10.0069 0.648023 10.1339 0.520982C10.2609 0.393941 10.4332 0.322571 10.6129 0.322571C10.7926 0.322571 10.9649 0.393941 11.0919 0.520982C11.219 0.648023 11.2903 0.820327 11.2903 0.99999V1.68464C11.4276 1.68825 11.5556 1.69487 11.6742 1.70451C12.0174 1.7316 12.339 1.79302 12.6434 1.94838C13.1108 2.18653 13.4909 2.56659 13.729 3.03405C13.8844 3.33844 13.9458 3.65999 13.9729 4.00322C14 4.33289 14 4.73483 14 5.21805V12.1368C14 12.62 14 13.0219 13.9729 13.3516C13.9458 13.6948 13.8844 14.0164 13.729 14.3208C13.4911 14.7881 13.1114 15.1681 12.6443 15.4064C12.339 15.5618 12.0174 15.6232 11.6742 15.6503C11.3445 15.6774 10.9426 15.6774 10.4603 15.6774H3.54065C3.05742 15.6774 2.65548 15.6774 2.32581 15.6503C1.98258 15.6232 1.66103 15.5618 1.35664 15.4064C0.889452 15.1688 0.509429 14.7894 0.270968 14.3226C0.115613 14.0173 0.0541937 13.6957 0.027097 13.3525C1.9011e-07 13.0228 0 12.6209 0 12.1386V5.21805C0 4.73483 1.9011e-07 4.33289 0.027097 4.00322C0.0541937 3.65999 0.115613 3.33844 0.270968 3.03405C0.509122 2.56659 0.889177 2.18653 1.35664 1.94838C1.66103 1.79302 1.98258 1.7316 2.32581 1.70451C2.44443 1.69487 2.57239 1.68825 2.70968 1.68464V0.99999C2.70968 0.91103 2.7272 0.822941 2.76124 0.740753C2.79529 0.658565 2.84518 0.583886 2.90809 0.520982C2.97099 0.458078 3.04567 0.40818 3.12786 0.374136C3.21005 0.340093 3.29814 0.322571 3.3871 0.322571ZM2.70968 3.25805V3.03947C2.61834 3.04228 2.52708 3.0474 2.436 3.05483C2.17677 3.0756 2.05303 3.11354 1.97174 3.15509C1.75896 3.26339 1.58598 3.43636 1.47768 3.64915C1.43613 3.73044 1.39819 3.85418 1.37742 4.11341C1.35574 4.38076 1.35484 4.7276 1.35484 5.24515V5.74193H12.6452V5.24515C12.6452 4.72851 12.6452 4.38076 12.6226 4.11341C12.6018 3.85418 12.5639 3.73044 12.5223 3.64915C12.414 3.43636 12.241 3.26339 12.0283 3.15509C11.947 3.11354 11.8232 3.0756 11.5631 3.05483C11.4723 3.04742 11.3814 3.0423 11.2903 3.03947V3.25805C11.2903 3.43772 11.219 3.61002 11.0919 3.73706C10.9649 3.8641 10.7926 3.93547 10.6129 3.93547C10.4332 3.93547 10.2609 3.8641 10.1339 3.73706C10.0069 3.61002 9.93548 3.43772 9.93548 3.25805V3.03225H4.06452V3.25805C4.06452 3.43772 3.99314 3.61002 3.8661 3.73706C3.73906 3.8641 3.56676 3.93547 3.3871 3.93547C3.20743 3.93547 3.03513 3.8641 2.90809 3.73706C2.78105 3.61002 2.70968 3.43772 2.70968 3.25805ZM12.6452 6.64515H1.35484V12.1097C1.35484 12.6263 1.35484 12.9741 1.37742 13.2405C1.39819 13.5006 1.43613 13.6244 1.47768 13.7057C1.58606 13.9188 1.75858 14.0913 1.97174 14.1997C2.05303 14.2413 2.17677 14.2792 2.436 14.3C2.70335 14.3217 3.05019 14.3226 3.56774 14.3226H10.4323C10.9489 14.3226 11.2966 14.3226 11.5631 14.3C11.8232 14.2792 11.947 14.2413 12.0283 14.1997C12.241 14.0914 12.414 13.9185 12.5223 13.7057C12.5639 13.6244 12.6018 13.5006 12.6226 13.2405C12.6443 12.9741 12.6452 12.6263 12.6452 12.1097V6.64515Z" fill="#454C53"/>
</svg>
