<svg width="33" height="30" viewBox="0 0 33 30" fill="none" xmlns="http://www.w3.org/2000/svg">
<path d="M16.7188 20.625C19.1652 20.625 21.1484 18.6418 21.1484 16.1953C21.1484 13.7489 19.1652 11.7656 16.7188 11.7656C14.2723 11.7656 12.2891 13.7489 12.2891 16.1953C12.2891 18.6418 14.2723 20.625 16.7188 20.625Z" stroke="currentColor" stroke-width="2.21484"/>
<path d="M13.4378 28.0079H19.9997C24.608 28.0079 26.9129 28.0079 28.5682 26.9226C29.2826 26.4547 29.8977 25.8506 30.3784 25.1448C31.4844 23.5206 31.4844 21.257 31.4844 16.7329C31.4844 12.2087 31.4844 9.94509 30.3784 8.32087C29.8977 7.61507 29.2826 7.01095 28.5682 6.54309C27.505 5.84468 26.1732 5.59514 24.134 5.50655C23.161 5.50655 22.3238 4.78303 22.1333 3.84541C21.9877 3.15862 21.6095 2.54314 21.0626 2.103C20.5156 1.66285 19.8335 1.42504 19.1315 1.42976H14.306C12.8472 1.42976 11.5906 2.4412 11.3042 3.84541C11.1137 4.78303 10.2765 5.50655 9.30345 5.50655C7.2658 5.59514 5.93394 5.84615 4.86934 6.54309C4.15547 7.01111 3.54083 7.61521 3.06055 8.32087C1.95312 9.94509 1.95312 12.2072 1.95312 16.7329C1.95312 21.2585 1.95313 23.5191 3.05907 25.1448C3.53748 25.8477 4.15173 26.4516 4.86934 26.9226C6.52456 28.0079 8.82948 28.0079 13.4378 28.0079Z" stroke="currentColor" stroke-width="2.21484"/>
<path d="M27.0547 11.7656H25.5781" stroke="#A0A1AA" stroke-width="2.21484" stroke-linecap="round"/>
</svg>
