<svg width="24" height="24" viewBox="0 0 24 24" fill="none" xmlns="http://www.w3.org/2000/svg">
<g filter="url(#filter0_ii_663_4097)">
<path d="M21.8502 2.38049H2.14984C0.962518 2.38049 0 3.34301 0 4.53034V14.8616C0 16.049 0.962518 17.0115 2.14984 17.0115H21.8502C23.0375 17.0115 24 16.049 24 14.8616V4.53034C24 3.34301 23.0375 2.38049 21.8502 2.38049Z" fill="url(#paint0_linear_663_4097)"/>
<path d="M21.8502 2.38049H2.14984C0.962518 2.38049 0 3.34301 0 4.53034V14.8616C0 16.049 0.962518 17.0115 2.14984 17.0115H21.8502C23.0375 17.0115 24 16.049 24 14.8616V4.53034C24 3.34301 23.0375 2.38049 21.8502 2.38049Z" fill="url(#paint1_linear_663_4097)"/>
</g>
<path d="M21.8502 2.38049H2.14984C0.962518 2.38049 0 3.34301 0 4.53034V14.8616C0 16.049 0.962518 17.0115 2.14984 17.0115H21.8502C23.0375 17.0115 24 16.049 24 14.8616V4.53034C24 3.34301 23.0375 2.38049 21.8502 2.38049Z" fill="url(#paint2_radial_663_4097)"/>
<g filter="url(#filter1_ii_663_4097)">
<path d="M21.8502 5.711H2.14984C0.962518 5.711 0 6.67352 0 7.86084V18.1921C0 19.3795 0.962518 20.342 2.14984 20.342H21.8502C23.0375 20.342 24 19.3795 24 18.1921V7.86084C24 6.67352 23.0375 5.711 21.8502 5.711Z" fill="url(#paint3_linear_663_4097)"/>
<path d="M21.8502 5.711H2.14984C0.962518 5.711 0 6.67352 0 7.86084V18.1921C0 19.3795 0.962518 20.342 2.14984 20.342H21.8502C23.0375 20.342 24 19.3795 24 18.1921V7.86084C24 6.67352 23.0375 5.711 21.8502 5.711Z" fill="url(#paint4_linear_663_4097)"/>
</g>
<path d="M21.8502 5.711H2.14984C0.962518 5.711 0 6.67352 0 7.86084V18.1921C0 19.3795 0.962518 20.342 2.14984 20.342H21.8502C23.0375 20.342 24 19.3795 24 18.1921V7.86084C24 6.67352 23.0375 5.711 21.8502 5.711Z" fill="url(#paint5_radial_663_4097)"/>
<g filter="url(#filter2_ii_663_4097)">
<path d="M5.46856 7.50916C5.14926 7.50916 4.84304 7.636 4.61727 7.86177C4.39149 8.08755 4.26465 8.39377 4.26465 8.71307V9.17485H10.2842V8.71307C10.2842 8.39377 10.1574 8.08755 9.93159 7.86177C9.70582 7.636 9.3996 7.50916 9.0803 7.50916H5.46856Z" fill="url(#paint6_linear_663_4097)"/>
</g>
<g filter="url(#filter3_ii_663_4097)">
<path d="M10.3348 4.04541C10.1767 4.04541 10.0201 4.07655 9.87405 4.13705C9.72799 4.19755 9.59527 4.28623 9.48348 4.39803C9.37168 4.50982 9.283 4.64254 9.2225 4.78861C9.162 4.93467 9.13086 5.09122 9.13086 5.24932V5.71111H15.1504V5.24932C15.1504 4.93003 15.0236 4.62381 14.7978 4.39803C14.572 4.17225 14.2658 4.04541 13.9465 4.04541H10.3348Z" fill="url(#paint7_linear_663_4097)"/>
</g>
<g filter="url(#filter4_ii_663_4097)">
<path d="M14.9236 0.714844C14.6043 0.714844 14.2981 0.841684 14.0723 1.06746C13.8466 1.29324 13.7197 1.59946 13.7197 1.91876V2.38054H19.7384V1.91876C19.7384 1.59946 19.6116 1.29324 19.3858 1.06746C19.16 0.841684 18.8538 0.714844 18.5345 0.714844H14.9236Z" fill="url(#paint8_linear_663_4097)"/>
</g>
<g filter="url(#filter5_ii_663_4097)">
<path d="M21.8502 9.17493H2.14984C0.962518 9.17493 0 10.1374 0 11.3248V21.6561C0 22.8434 0.962518 23.8059 2.14984 23.8059H21.8502C23.0375 23.8059 24 22.8434 24 21.6561V11.3248C24 10.1374 23.0375 9.17493 21.8502 9.17493Z" fill="url(#paint9_linear_663_4097)"/>
</g>
<path d="M21.8502 9.17493H2.14984C0.962518 9.17493 0 10.1374 0 11.3248V21.6561C0 22.8434 0.962518 23.8059 2.14984 23.8059H21.8502C23.0375 23.8059 24 22.8434 24 21.6561V11.3248C24 10.1374 23.0375 9.17493 21.8502 9.17493Z" fill="url(#paint10_radial_663_4097)"/>
<defs>
<filter id="filter0_ii_663_4097" x="-0.332227" y="2.38049" width="24.3322" height="15.074" filterUnits="userSpaceOnUse" color-interpolation-filters="sRGB">
<feFlood flood-opacity="0" result="BackgroundImageFix"/>
<feBlend mode="normal" in="SourceGraphic" in2="BackgroundImageFix" result="shape"/>
<feColorMatrix in="SourceAlpha" type="matrix" values="0 0 0 0 0 0 0 0 0 0 0 0 0 0 0 0 0 0 127 0" result="hardAlpha"/>
<feOffset dx="-0.332227" dy="0.442969"/>
<feGaussianBlur stdDeviation="0.553711"/>
<feComposite in2="hardAlpha" operator="arithmetic" k2="-1" k3="1"/>
<feColorMatrix type="matrix" values="0 0 0 0 1 0 0 0 0 0.890196 0 0 0 0 0.290196 0 0 0 1 0"/>
<feBlend mode="normal" in2="shape" result="effect1_innerShadow_663_4097"/>
<feColorMatrix in="SourceAlpha" type="matrix" values="0 0 0 0 0 0 0 0 0 0 0 0 0 0 0 0 0 0 127 0" result="hardAlpha"/>
<feOffset dy="0.221484"/>
<feGaussianBlur stdDeviation="0.276855"/>
<feComposite in2="hardAlpha" operator="arithmetic" k2="-1" k3="1"/>
<feColorMatrix type="matrix" values="0 0 0 0 0.976471 0 0 0 0 0.792157 0 0 0 0 0.298039 0 0 0 1 0"/>
<feBlend mode="normal" in2="effect1_innerShadow_663_4097" result="effect2_innerShadow_663_4097"/>
</filter>
<filter id="filter1_ii_663_4097" x="-0.332227" y="5.26803" width="24.3322" height="15.5169" filterUnits="userSpaceOnUse" color-interpolation-filters="sRGB">
<feFlood flood-opacity="0" result="BackgroundImageFix"/>
<feBlend mode="normal" in="SourceGraphic" in2="BackgroundImageFix" result="shape"/>
<feColorMatrix in="SourceAlpha" type="matrix" values="0 0 0 0 0 0 0 0 0 0 0 0 0 0 0 0 0 0 127 0" result="hardAlpha"/>
<feOffset dy="-0.442969"/>
<feGaussianBlur stdDeviation="0.415283"/>
<feComposite in2="hardAlpha" operator="arithmetic" k2="-1" k3="1"/>
<feColorMatrix type="matrix" values="0 0 0 0 0.956863 0 0 0 0 0.6 0 0 0 0 0.407843 0 0 0 1 0"/>
<feBlend mode="normal" in2="shape" result="effect1_innerShadow_663_4097"/>
<feColorMatrix in="SourceAlpha" type="matrix" values="0 0 0 0 0 0 0 0 0 0 0 0 0 0 0 0 0 0 127 0" result="hardAlpha"/>
<feOffset dx="-0.332227" dy="0.442969"/>
<feGaussianBlur stdDeviation="0.553711"/>
<feComposite in2="hardAlpha" operator="arithmetic" k2="-1" k3="1"/>
<feColorMatrix type="matrix" values="0 0 0 0 1 0 0 0 0 0.890196 0 0 0 0 0.290196 0 0 0 1 0"/>
<feBlend mode="normal" in2="effect1_innerShadow_663_4097" result="effect2_innerShadow_663_4097"/>
</filter>
<filter id="filter2_ii_663_4097" x="4.15391" y="7.50916" width="6.24102" height="1.77645" filterUnits="userSpaceOnUse" color-interpolation-filters="sRGB">
<feFlood flood-opacity="0" result="BackgroundImageFix"/>
<feBlend mode="normal" in="SourceGraphic" in2="BackgroundImageFix" result="shape"/>
<feColorMatrix in="SourceAlpha" type="matrix" values="0 0 0 0 0 0 0 0 0 0 0 0 0 0 0 0 0 0 127 0" result="hardAlpha"/>
<feOffset dx="-0.110742"/>
<feGaussianBlur stdDeviation="0.138428"/>
<feComposite in2="hardAlpha" operator="arithmetic" k2="-1" k3="1"/>
<feColorMatrix type="matrix" values="0 0 0 0 1 0 0 0 0 0.25098 0 0 0 0 0.458824 0 0 0 1 0"/>
<feBlend mode="normal" in2="shape" result="effect1_innerShadow_663_4097"/>
<feColorMatrix in="SourceAlpha" type="matrix" values="0 0 0 0 0 0 0 0 0 0 0 0 0 0 0 0 0 0 127 0" result="hardAlpha"/>
<feOffset dx="0.110742" dy="0.110742"/>
<feGaussianBlur stdDeviation="0.138428"/>
<feComposite in2="hardAlpha" operator="arithmetic" k2="-1" k3="1"/>
<feColorMatrix type="matrix" values="0 0 0 0 0.992157 0 0 0 0 0.282353 0 0 0 0 0.262745 0 0 0 1 0"/>
<feBlend mode="normal" in2="effect1_innerShadow_663_4097" result="effect2_innerShadow_663_4097"/>
</filter>
<filter id="filter3_ii_663_4097" x="9.02012" y="4.04541" width="6.24102" height="1.77645" filterUnits="userSpaceOnUse" color-interpolation-filters="sRGB">
<feFlood flood-opacity="0" result="BackgroundImageFix"/>
<feBlend mode="normal" in="SourceGraphic" in2="BackgroundImageFix" result="shape"/>
<feColorMatrix in="SourceAlpha" type="matrix" values="0 0 0 0 0 0 0 0 0 0 0 0 0 0 0 0 0 0 127 0" result="hardAlpha"/>
<feOffset dx="-0.110742"/>
<feGaussianBlur stdDeviation="0.138428"/>
<feComposite in2="hardAlpha" operator="arithmetic" k2="-1" k3="1"/>
<feColorMatrix type="matrix" values="0 0 0 0 0.298039 0 0 0 0 0.611765 0 0 0 0 0.85098 0 0 0 1 0"/>
<feBlend mode="normal" in2="shape" result="effect1_innerShadow_663_4097"/>
<feColorMatrix in="SourceAlpha" type="matrix" values="0 0 0 0 0 0 0 0 0 0 0 0 0 0 0 0 0 0 127 0" result="hardAlpha"/>
<feOffset dx="0.110742" dy="0.110742"/>
<feGaussianBlur stdDeviation="0.138428"/>
<feComposite in2="hardAlpha" operator="arithmetic" k2="-1" k3="1"/>
<feColorMatrix type="matrix" values="0 0 0 0 0.270588 0 0 0 0 0.501961 0 0 0 0 0.768627 0 0 0 1 0"/>
<feBlend mode="normal" in2="effect1_innerShadow_663_4097" result="effect2_innerShadow_663_4097"/>
</filter>
<filter id="filter4_ii_663_4097" x="13.609" y="0.714844" width="6.24004" height="1.77645" filterUnits="userSpaceOnUse" color-interpolation-filters="sRGB">
<feFlood flood-opacity="0" result="BackgroundImageFix"/>
<feBlend mode="normal" in="SourceGraphic" in2="BackgroundImageFix" result="shape"/>
<feColorMatrix in="SourceAlpha" type="matrix" values="0 0 0 0 0 0 0 0 0 0 0 0 0 0 0 0 0 0 127 0" result="hardAlpha"/>
<feOffset dx="-0.110742"/>
<feGaussianBlur stdDeviation="0.138428"/>
<feComposite in2="hardAlpha" operator="arithmetic" k2="-1" k3="1"/>
<feColorMatrix type="matrix" values="0 0 0 0 0.34902 0 0 0 0 0.905882 0 0 0 0 0.603922 0 0 0 1 0"/>
<feBlend mode="normal" in2="shape" result="effect1_innerShadow_663_4097"/>
<feColorMatrix in="SourceAlpha" type="matrix" values="0 0 0 0 0 0 0 0 0 0 0 0 0 0 0 0 0 0 127 0" result="hardAlpha"/>
<feOffset dx="0.110742" dy="0.110742"/>
<feGaussianBlur stdDeviation="0.138428"/>
<feComposite in2="hardAlpha" operator="arithmetic" k2="-1" k3="1"/>
<feColorMatrix type="matrix" values="0 0 0 0 0.239216 0 0 0 0 0.713726 0 0 0 0 0.411765 0 0 0 1 0"/>
<feBlend mode="normal" in2="effect1_innerShadow_663_4097" result="effect2_innerShadow_663_4097"/>
</filter>
<filter id="filter5_ii_663_4097" x="-0.332227" y="8.73196" width="24.3322" height="15.5169" filterUnits="userSpaceOnUse" color-interpolation-filters="sRGB">
<feFlood flood-opacity="0" result="BackgroundImageFix"/>
<feBlend mode="normal" in="SourceGraphic" in2="BackgroundImageFix" result="shape"/>
<feColorMatrix in="SourceAlpha" type="matrix" values="0 0 0 0 0 0 0 0 0 0 0 0 0 0 0 0 0 0 127 0" result="hardAlpha"/>
<feOffset dy="-0.442969"/>
<feGaussianBlur stdDeviation="0.415283"/>
<feComposite in2="hardAlpha" operator="arithmetic" k2="-1" k3="1"/>
<feColorMatrix type="matrix" values="0 0 0 0 0.956863 0 0 0 0 0.6 0 0 0 0 0.407843 0 0 0 1 0"/>
<feBlend mode="normal" in2="shape" result="effect1_innerShadow_663_4097"/>
<feColorMatrix in="SourceAlpha" type="matrix" values="0 0 0 0 0 0 0 0 0 0 0 0 0 0 0 0 0 0 127 0" result="hardAlpha"/>
<feOffset dx="-0.332227" dy="0.442969"/>
<feGaussianBlur stdDeviation="0.553711"/>
<feComposite in2="hardAlpha" operator="arithmetic" k2="-1" k3="1"/>
<feColorMatrix type="matrix" values="0 0 0 0 1 0 0 0 0 0.945098 0 0 0 0 0.317647 0 0 0 1 0"/>
<feBlend mode="normal" in2="effect1_innerShadow_663_4097" result="effect2_innerShadow_663_4097"/>
</filter>
<linearGradient id="paint0_linear_663_4097" x1="11.9996" y1="2.38049" x2="11.9996" y2="6.26053" gradientUnits="userSpaceOnUse">
<stop stop-color="#FFD650"/>
<stop offset="1" stop-color="#FFCD4A"/>
</linearGradient>
<linearGradient id="paint1_linear_663_4097" x1="11.9996" y1="6.33621" x2="11.9996" y2="4.14079" gradientUnits="userSpaceOnUse">
<stop stop-color="#FFBA48"/>
<stop offset="1" stop-color="#FFBA48" stop-opacity="0"/>
</linearGradient>
<radialGradient id="paint2_radial_663_4097" cx="0" cy="0" r="1" gradientUnits="userSpaceOnUse" gradientTransform="translate(23.9991 2.77263) rotate(134.482) scale(1.95859 3.31291)">
<stop stop-color="#FFE857"/>
<stop offset="1" stop-color="#FFE857" stop-opacity="0"/>
</radialGradient>
<linearGradient id="paint3_linear_663_4097" x1="11.9996" y1="5.711" x2="11.9996" y2="20.342" gradientUnits="userSpaceOnUse">
<stop stop-color="#FFDA53"/>
<stop offset="1" stop-color="#FFBA59"/>
</linearGradient>
<linearGradient id="paint4_linear_663_4097" x1="11.9996" y1="10.4243" x2="11.9996" y2="7.43345" gradientUnits="userSpaceOnUse">
<stop stop-color="#FFBA48"/>
<stop offset="1" stop-color="#FFBA48" stop-opacity="0"/>
</linearGradient>
<radialGradient id="paint5_radial_663_4097" cx="0" cy="0" r="1" gradientUnits="userSpaceOnUse" gradientTransform="translate(23.9991 6.10399) rotate(134.482) scale(1.95859 3.31291)">
<stop stop-color="#FFE857"/>
<stop offset="1" stop-color="#FFE857" stop-opacity="0"/>
</radialGradient>
<linearGradient id="paint6_linear_663_4097" x1="7.27443" y1="7.50916" x2="7.27443" y2="9.17485" gradientUnits="userSpaceOnUse">
<stop stop-color="#FF416D"/>
<stop offset="1" stop-color="#FF3A66"/>
</linearGradient>
<linearGradient id="paint7_linear_663_4097" x1="12.1406" y1="4.04541" x2="12.1406" y2="5.71111" gradientUnits="userSpaceOnUse">
<stop stop-color="#4794D7"/>
<stop offset="1" stop-color="#4482CA"/>
</linearGradient>
<linearGradient id="paint8_linear_663_4097" x1="16.7286" y1="0.714844" x2="16.7286" y2="2.38054" gradientUnits="userSpaceOnUse">
<stop stop-color="#4EDC8E"/>
<stop offset="1" stop-color="#54C877"/>
</linearGradient>
<linearGradient id="paint9_linear_663_4097" x1="11.9996" y1="9.17493" x2="11.9996" y2="23.8059" gradientUnits="userSpaceOnUse">
<stop stop-color="#FFDA53"/>
<stop offset="1" stop-color="#FFBA59"/>
</linearGradient>
<radialGradient id="paint10_radial_663_4097" cx="0" cy="0" r="1" gradientUnits="userSpaceOnUse" gradientTransform="translate(23.9991 9.56792) rotate(134.482) scale(1.95859 3.31291)">
<stop stop-color="#FFE857"/>
<stop offset="1" stop-color="#FFE857" stop-opacity="0"/>
</radialGradient>
</defs>
</svg>
