<svg width="26" height="27" viewBox="0 0 26 27" fill="none" xmlns="http://www.w3.org/2000/svg">
<path d="M23.9125 8.6217L17.8191 2.52829C17.0259 1.73504 15.7398 1.73504 14.9465 2.52829L12.0595 5.41528C11.2663 6.20853 11.2663 7.49464 12.0595 8.2879L18.1529 14.3813C18.9462 15.1746 20.2323 15.1746 21.0255 14.3813L23.9125 11.4943C24.7058 10.7011 24.7058 9.41495 23.9125 8.6217Z" fill="url(#paint0_linear_663_4067)"/>
<path d="M23.9125 8.6217L17.8191 2.52829C17.0259 1.73504 15.7398 1.73504 14.9465 2.52829L12.0595 5.41528C11.2663 6.20853 11.2663 7.49464 12.0595 8.2879L18.1529 14.3813C18.9462 15.1746 20.2323 15.1746 21.0255 14.3813L23.9125 11.4943C24.7058 10.7011 24.7058 9.41495 23.9125 8.6217Z" fill="url(#paint1_linear_663_4067)"/>
<path d="M23.9125 8.6217L17.8191 2.52829C17.0259 1.73504 15.7398 1.73504 14.9465 2.52829L12.0595 5.41528C11.2663 6.20853 11.2663 7.49464 12.0595 8.2879L18.1529 14.3813C18.9462 15.1746 20.2323 15.1746 21.0255 14.3813L23.9125 11.4943C24.7058 10.7011 24.7058 9.41495 23.9125 8.6217Z" fill="url(#paint2_linear_663_4067)"/>
<path d="M23.9125 8.6217L17.8191 2.52829C17.0259 1.73504 15.7398 1.73504 14.9465 2.52829L12.0595 5.41528C11.2663 6.20853 11.2663 7.49464 12.0595 8.2879L18.1529 14.3813C18.9462 15.1746 20.2323 15.1746 21.0255 14.3813L23.9125 11.4943C24.7058 10.7011 24.7058 9.41495 23.9125 8.6217Z" fill="url(#paint3_linear_663_4067)"/>
<g filter="url(#filter0_ii_663_4067)">
<path d="M12.3435 7.98221L18.3869 14.2539L14.5754 20.4825C14.2588 21.0002 13.7605 21.3812 13.1779 21.551L2.9445 24.5304C2.80492 24.571 2.65702 24.5733 2.51621 24.5373C2.37541 24.5012 2.24685 24.428 2.14395 24.3254C2.04104 24.2227 1.96756 24.0944 1.93116 23.9536C1.89476 23.8129 1.89678 23.665 1.937 23.5253L4.88394 13.3187C5.05217 12.7359 5.43168 12.2367 5.94831 11.9188L12.3435 7.98221Z" fill="#B2A6BB"/>
</g>
<path d="M12.3435 7.98221L18.3869 14.2539L14.5754 20.4825C14.2588 21.0002 13.7605 21.3812 13.1779 21.551L2.9445 24.5304C2.80492 24.571 2.65702 24.5733 2.51621 24.5373C2.37541 24.5012 2.24685 24.428 2.14395 24.3254C2.04104 24.2227 1.96756 24.0944 1.93116 23.9536C1.89476 23.8129 1.89678 23.665 1.937 23.5253L4.88394 13.3187C5.05217 12.7359 5.43168 12.2367 5.94831 11.9188L12.3435 7.98221Z" fill="url(#paint4_linear_663_4067)"/>
<path d="M12.3435 7.98221L18.3869 14.2539L14.5754 20.4825C14.2588 21.0002 13.7605 21.3812 13.1779 21.551L2.9445 24.5304C2.80492 24.571 2.65702 24.5733 2.51621 24.5373C2.37541 24.5012 2.24685 24.428 2.14395 24.3254C2.04104 24.2227 1.96756 24.0944 1.93116 23.9536C1.89476 23.8129 1.89678 23.665 1.937 23.5253L4.88394 13.3187C5.05217 12.7359 5.43168 12.2367 5.94831 11.9188L12.3435 7.98221Z" fill="url(#paint5_linear_663_4067)"/>
<path d="M12.3435 7.98221L18.3869 14.2539L14.5754 20.4825C14.2588 21.0002 13.7605 21.3812 13.1779 21.551L2.9445 24.5304C2.80492 24.571 2.65702 24.5733 2.51621 24.5373C2.37541 24.5012 2.24685 24.428 2.14395 24.3254C2.04104 24.2227 1.96756 24.0944 1.93116 23.9536C1.89476 23.8129 1.89678 23.665 1.937 23.5253L4.88394 13.3187C5.05217 12.7359 5.43168 12.2367 5.94831 11.9188L12.3435 7.98221Z" fill="url(#paint6_linear_663_4067)"/>
<path d="M12.3435 7.98221L18.3869 14.2539L14.5754 20.4825C14.2588 21.0002 13.7605 21.3812 13.1779 21.551L2.9445 24.5304C2.80492 24.571 2.65702 24.5733 2.51621 24.5373C2.37541 24.5012 2.24685 24.428 2.14395 24.3254C2.04104 24.2227 1.96756 24.0944 1.93116 23.9536C1.89476 23.8129 1.89678 23.665 1.937 23.5253L4.88394 13.3187C5.05217 12.7359 5.43168 12.2367 5.94831 11.9188L12.3435 7.98221Z" fill="url(#paint7_radial_663_4067)"/>
<g filter="url(#filter1_i_663_4067)">
<path d="M21.0777 14.3303L21.0265 14.3815C20.6456 14.7623 20.129 14.9762 19.5904 14.9762C19.0518 14.9762 18.5352 14.7623 18.1543 14.3815L12.0605 8.28772C11.6797 7.90681 11.4658 7.39025 11.4658 6.85163C11.4658 6.31302 11.6797 5.79645 12.0605 5.41554L12.1117 5.36435L21.0777 14.3303Z" fill="url(#paint8_linear_663_4067)"/>
</g>
<path d="M21.0777 14.3303L21.0265 14.3815C20.6456 14.7623 20.129 14.9762 19.5904 14.9762C19.0518 14.9762 18.5352 14.7623 18.1543 14.3815L12.0605 8.28772C11.6797 7.90681 11.4658 7.39025 11.4658 6.85163C11.4658 6.31302 11.6797 5.79645 12.0605 5.41554L12.1117 5.36435L21.0777 14.3303Z" fill="url(#paint9_radial_663_4067)"/>
<g filter="url(#filter2_ii_663_4067)">
<path d="M3.09201 24.3817C2.99451 24.4792 2.87508 24.5596 2.73776 24.5637C2.63023 24.5662 2.52326 24.5474 2.42303 24.5084C2.32279 24.4693 2.23126 24.4109 2.15371 24.3363C2.07615 24.2618 2.01411 24.1727 1.97113 24.0741C1.92816 23.9755 1.90512 23.8693 1.90333 23.7618C1.90251 23.6188 1.98376 23.492 2.08451 23.3905L8.09458 17.3308C8.28714 17.1366 8.32776 16.8433 8.2652 16.5776C8.15336 16.1099 8.19794 15.6183 8.39212 15.1783C8.58629 14.7382 8.91936 14.374 9.34031 14.1413C9.76126 13.9086 10.2469 13.8203 10.7228 13.8899C11.1987 13.9596 11.6387 14.1833 11.9753 14.5268C12.3119 14.8704 12.5267 15.3148 12.5866 15.792C12.6466 16.2692 12.5485 16.753 12.3073 17.1691C12.0661 17.5852 11.6951 17.9108 11.2513 18.096C10.8074 18.2812 10.315 18.3158 9.84958 18.1945C9.57658 18.123 9.2727 18.162 9.07364 18.3627L3.09201 24.3817Z" fill="url(#paint10_linear_663_4067)"/>
<path d="M3.09201 24.3817C2.99451 24.4792 2.87508 24.5596 2.73776 24.5637C2.63023 24.5662 2.52326 24.5474 2.42303 24.5084C2.32279 24.4693 2.23126 24.4109 2.15371 24.3363C2.07615 24.2618 2.01411 24.1727 1.97113 24.0741C1.92816 23.9755 1.90512 23.8693 1.90333 23.7618C1.90251 23.6188 1.98376 23.492 2.08451 23.3905L8.09458 17.3308C8.28714 17.1366 8.32776 16.8433 8.2652 16.5776C8.15336 16.1099 8.19794 15.6183 8.39212 15.1783C8.58629 14.7382 8.91936 14.374 9.34031 14.1413C9.76126 13.9086 10.2469 13.8203 10.7228 13.8899C11.1987 13.9596 11.6387 14.1833 11.9753 14.5268C12.3119 14.8704 12.5267 15.3148 12.5866 15.792C12.6466 16.2692 12.5485 16.753 12.3073 17.1691C12.0661 17.5852 11.6951 17.9108 11.2513 18.096C10.8074 18.2812 10.315 18.3158 9.84958 18.1945C9.57658 18.123 9.2727 18.162 9.07364 18.3627L3.09201 24.3817Z" fill="url(#paint11_radial_663_4067)"/>
<path d="M3.09201 24.3817C2.99451 24.4792 2.87508 24.5596 2.73776 24.5637C2.63023 24.5662 2.52326 24.5474 2.42303 24.5084C2.32279 24.4693 2.23126 24.4109 2.15371 24.3363C2.07615 24.2618 2.01411 24.1727 1.97113 24.0741C1.92816 23.9755 1.90512 23.8693 1.90333 23.7618C1.90251 23.6188 1.98376 23.492 2.08451 23.3905L8.09458 17.3308C8.28714 17.1366 8.32776 16.8433 8.2652 16.5776C8.15336 16.1099 8.19794 15.6183 8.39212 15.1783C8.58629 14.7382 8.91936 14.374 9.34031 14.1413C9.76126 13.9086 10.2469 13.8203 10.7228 13.8899C11.1987 13.9596 11.6387 14.1833 11.9753 14.5268C12.3119 14.8704 12.5267 15.3148 12.5866 15.792C12.6466 16.2692 12.5485 16.753 12.3073 17.1691C12.0661 17.5852 11.6951 17.9108 11.2513 18.096C10.8074 18.2812 10.315 18.3158 9.84958 18.1945C9.57658 18.123 9.2727 18.162 9.07364 18.3627L3.09201 24.3817Z" fill="url(#paint12_linear_663_4067)"/>
</g>
<g filter="url(#filter3_f_663_4067)">
<path d="M23.674 9.2071L17.3014 2.83448C17.0244 2.55747 16.5752 2.55747 16.2982 2.83448C16.0212 3.11148 16.0212 3.56059 16.2982 3.83759L22.6709 10.2102C22.9479 10.4872 23.397 10.4872 23.674 10.2102C23.951 9.93321 23.951 9.4841 23.674 9.2071Z" fill="url(#paint13_linear_663_4067)"/>
</g>
<g filter="url(#filter4_f_663_4067)">
<path d="M10.4301 17.7834C11.3558 17.7834 12.1063 17.033 12.1063 16.1072C12.1063 15.1815 11.3558 14.431 10.4301 14.431C9.50436 14.431 8.75391 15.1815 8.75391 16.1072C8.75391 17.033 9.50436 17.7834 10.4301 17.7834Z" stroke="url(#paint14_linear_663_4067)" stroke-width="0.15"/>
</g>
<g filter="url(#filter5_f_663_4067)">
<path d="M2.36523 24.1307L8.97898 17.3008" stroke="url(#paint15_linear_663_4067)" stroke-width="0.15"/>
</g>
<defs>
<filter id="filter0_ii_663_4067" x="1.90527" y="7.48221" width="16.8564" height="17.0805" filterUnits="userSpaceOnUse" color-interpolation-filters="sRGB">
<feFlood flood-opacity="0" result="BackgroundImageFix"/>
<feBlend mode="normal" in="SourceGraphic" in2="BackgroundImageFix" result="shape"/>
<feColorMatrix in="SourceAlpha" type="matrix" values="0 0 0 0 0 0 0 0 0 0 0 0 0 0 0 0 0 0 127 0" result="hardAlpha"/>
<feOffset dx="0.25" dy="-0.5"/>
<feGaussianBlur stdDeviation="0.75"/>
<feComposite in2="hardAlpha" operator="arithmetic" k2="-1" k3="1"/>
<feColorMatrix type="matrix" values="0 0 0 0 0.619608 0 0 0 0 0.494118 0 0 0 0 0.737255 0 0 0 1 0"/>
<feBlend mode="normal" in2="shape" result="effect1_innerShadow_663_4067"/>
<feColorMatrix in="SourceAlpha" type="matrix" values="0 0 0 0 0 0 0 0 0 0 0 0 0 0 0 0 0 0 127 0" result="hardAlpha"/>
<feOffset dx="1.25"/>
<feGaussianBlur stdDeviation="0.1875"/>
<feComposite in2="hardAlpha" operator="arithmetic" k2="-1" k3="1"/>
<feColorMatrix type="matrix" values="0 0 0 0 0.67451 0 0 0 0 0.65098 0 0 0 0 0.701961 0 0 0 1 0"/>
<feBlend mode="normal" in2="effect1_innerShadow_663_4067" result="effect2_innerShadow_663_4067"/>
</filter>
<filter id="filter1_i_663_4067" x="11.4658" y="5.11435" width="9.6123" height="9.86185" filterUnits="userSpaceOnUse" color-interpolation-filters="sRGB">
<feFlood flood-opacity="0" result="BackgroundImageFix"/>
<feBlend mode="normal" in="SourceGraphic" in2="BackgroundImageFix" result="shape"/>
<feColorMatrix in="SourceAlpha" type="matrix" values="0 0 0 0 0 0 0 0 0 0 0 0 0 0 0 0 0 0 127 0" result="hardAlpha"/>
<feOffset dy="-0.25"/>
<feGaussianBlur stdDeviation="0.375"/>
<feComposite in2="hardAlpha" operator="arithmetic" k2="-1" k3="1"/>
<feColorMatrix type="matrix" values="0 0 0 0 0.784314 0 0 0 0 0.443137 0 0 0 0 0.341176 0 0 0 1 0"/>
<feBlend mode="normal" in2="shape" result="effect1_innerShadow_663_4067"/>
</filter>
<filter id="filter2_ii_663_4067" x="1.65332" y="13.6168" width="10.9752" height="10.9722" filterUnits="userSpaceOnUse" color-interpolation-filters="sRGB">
<feFlood flood-opacity="0" result="BackgroundImageFix"/>
<feBlend mode="normal" in="SourceGraphic" in2="BackgroundImageFix" result="shape"/>
<feColorMatrix in="SourceAlpha" type="matrix" values="0 0 0 0 0 0 0 0 0 0 0 0 0 0 0 0 0 0 127 0" result="hardAlpha"/>
<feOffset dx="-0.25" dy="-0.25"/>
<feGaussianBlur stdDeviation="0.25"/>
<feComposite in2="hardAlpha" operator="arithmetic" k2="-1" k3="1"/>
<feColorMatrix type="matrix" values="0 0 0 0 0.388235 0 0 0 0 0.364706 0 0 0 0 0.427451 0 0 0 1 0"/>
<feBlend mode="normal" in2="shape" result="effect1_innerShadow_663_4067"/>
<feColorMatrix in="SourceAlpha" type="matrix" values="0 0 0 0 0 0 0 0 0 0 0 0 0 0 0 0 0 0 127 0" result="hardAlpha"/>
<feOffset dx="0.025" dy="0.025"/>
<feGaussianBlur stdDeviation="0.1"/>
<feComposite in2="hardAlpha" operator="arithmetic" k2="-1" k3="1"/>
<feColorMatrix type="matrix" values="0 0 0 0 0.505882 0 0 0 0 0.486275 0 0 0 0 0.541176 0 0 0 1 0"/>
<feBlend mode="normal" in2="effect1_innerShadow_663_4067" result="effect2_innerShadow_663_4067"/>
</filter>
<filter id="filter3_f_663_4067" x="15.3408" y="1.87671" width="9.29102" height="9.29126" filterUnits="userSpaceOnUse" color-interpolation-filters="sRGB">
<feFlood flood-opacity="0" result="BackgroundImageFix"/>
<feBlend mode="normal" in="SourceGraphic" in2="BackgroundImageFix" result="shape"/>
<feGaussianBlur stdDeviation="0.375" result="effect1_foregroundBlur_663_4067"/>
</filter>
<filter id="filter4_f_663_4067" x="8.37871" y="14.056" width="4.10293" height="4.10238" filterUnits="userSpaceOnUse" color-interpolation-filters="sRGB">
<feFlood flood-opacity="0" result="BackgroundImageFix"/>
<feBlend mode="normal" in="SourceGraphic" in2="BackgroundImageFix" result="shape"/>
<feGaussianBlur stdDeviation="0.15" result="effect1_foregroundBlur_663_4067"/>
</filter>
<filter id="filter5_f_663_4067" x="2.08652" y="17.0236" width="7.17168" height="7.38423" filterUnits="userSpaceOnUse" color-interpolation-filters="sRGB">
<feFlood flood-opacity="0" result="BackgroundImageFix"/>
<feBlend mode="normal" in="SourceGraphic" in2="BackgroundImageFix" result="shape"/>
<feGaussianBlur stdDeviation="0.1125" result="effect1_foregroundBlur_663_4067"/>
</filter>
<linearGradient id="paint0_linear_663_4067" x1="15.7451" y1="11.3587" x2="20.6199" y2="5.41757" gradientUnits="userSpaceOnUse">
<stop stop-color="#513A63"/>
<stop offset="1" stop-color="#463E67"/>
</linearGradient>
<linearGradient id="paint1_linear_663_4067" x1="13.0029" y1="4.35126" x2="14.7041" y2="6.02714" gradientUnits="userSpaceOnUse">
<stop offset="0.438" stop-color="#3B3559"/>
<stop offset="1" stop-color="#463456" stop-opacity="0"/>
</linearGradient>
<linearGradient id="paint2_linear_663_4067" x1="22.7778" y1="12.6796" x2="21.4576" y2="11.334" gradientUnits="userSpaceOnUse">
<stop stop-color="#473C63"/>
<stop offset="1" stop-color="#473C63" stop-opacity="0"/>
</linearGradient>
<linearGradient id="paint3_linear_663_4067" x1="13.1304" y1="3.84912" x2="13.9152" y2="4.60175" gradientUnits="userSpaceOnUse">
<stop stop-color="#5C5567"/>
<stop offset="1" stop-color="#5C5567" stop-opacity="0"/>
</linearGradient>
<linearGradient id="paint4_linear_663_4067" x1="7.06225" y1="24.0551" x2="6.73238" y2="22.3285" gradientUnits="userSpaceOnUse">
<stop stop-color="#9F80BB"/>
<stop offset="1" stop-color="#9F80BB" stop-opacity="0"/>
</linearGradient>
<linearGradient id="paint5_linear_663_4067" x1="3.02494" y1="18.7226" x2="3.83744" y2="18.977" gradientUnits="userSpaceOnUse">
<stop stop-color="#BEBDC0"/>
<stop offset="1" stop-color="#BEBDC0" stop-opacity="0"/>
</linearGradient>
<linearGradient id="paint6_linear_663_4067" x1="18.5388" y1="14.0256" x2="16.7871" y2="15.5238" gradientUnits="userSpaceOnUse">
<stop offset="0.227" stop-color="#886A8C"/>
<stop offset="1" stop-color="#A08EAA" stop-opacity="0"/>
</linearGradient>
<radialGradient id="paint7_radial_663_4067" cx="0" cy="0" r="1" gradientUnits="userSpaceOnUse" gradientTransform="translate(15.3652 19.1801) rotate(-58.4382) scale(4.1718 2.11575)">
<stop stop-color="#BCAECB"/>
<stop offset="1" stop-color="#BCAECB" stop-opacity="0"/>
</radialGradient>
<linearGradient id="paint8_linear_663_4067" x1="15.0619" y1="11.246" x2="16.6658" y2="9.54466" gradientUnits="userSpaceOnUse">
<stop stop-color="#F2A65B"/>
<stop offset="1" stop-color="#F6AE5E"/>
</linearGradient>
<radialGradient id="paint9_radial_663_4067" cx="0" cy="0" r="1" gradientUnits="userSpaceOnUse" gradientTransform="translate(19.4153 8.23491) rotate(-168.594) scale(8.1095 10.2606)">
<stop offset="0.877" stop-color="#EEB481" stop-opacity="0"/>
<stop offset="1" stop-color="#EEB481"/>
</radialGradient>
<linearGradient id="paint10_linear_663_4067" x1="11.0488" y1="15.2695" x2="2.18689" y2="24.1818" gradientUnits="userSpaceOnUse">
<stop stop-color="#898098"/>
<stop offset="1" stop-color="#9892A2"/>
</linearGradient>
<radialGradient id="paint11_radial_663_4067" cx="0" cy="0" r="1" gradientUnits="userSpaceOnUse" gradientTransform="translate(6.45269 23.4714) rotate(-63.453) scale(10.7371 6.06357)">
<stop offset="0.77" stop-color="#887C98" stop-opacity="0"/>
<stop offset="0.963" stop-color="#6C5981"/>
</radialGradient>
<linearGradient id="paint12_linear_663_4067" x1="2.4412" y1="22.8103" x2="3.38045" y2="23.4961" gradientUnits="userSpaceOnUse">
<stop stop-color="#9083A3"/>
<stop offset="1" stop-color="#9083A3" stop-opacity="0"/>
</linearGradient>
<linearGradient id="paint13_linear_663_4067" x1="16.3488" y1="3.20562" x2="23.6303" y2="10.0999" gradientUnits="userSpaceOnUse">
<stop stop-color="#5C5D7E"/>
<stop offset="1" stop-color="#646585"/>
</linearGradient>
<linearGradient id="paint14_linear_663_4067" x1="8.54672" y1="16.78" x2="9.86703" y2="16.2722" gradientUnits="userSpaceOnUse">
<stop stop-color="#B3AEBB"/>
<stop offset="1" stop-color="#B3AEBB" stop-opacity="0"/>
</linearGradient>
<linearGradient id="paint15_linear_663_4067" x1="2.16211" y1="23.9535" x2="10.0986" y2="16.2023" gradientUnits="userSpaceOnUse">
<stop stop-color="#B3AEBB"/>
<stop offset="1" stop-color="#B3AEBB" stop-opacity="0"/>
</linearGradient>
</defs>
</svg>
