<svg width="27" height="27" viewBox="0 0 27 27" fill="none" xmlns="http://www.w3.org/2000/svg">
<path d="M13.9018 22.3336C9.01744 22.3336 5.06836 18.3845 5.06836 13.5001C5.06836 8.61576 9.01744 4.66669 13.9018 4.66669C18.7862 4.66669 22.7353 8.61576 22.7353 13.5001C22.7353 18.3845 18.7862 22.3336 13.9018 22.3336ZM13.9018 5.70592C9.58901 5.70592 6.10759 9.18734 6.10759 13.5001C6.10759 17.813 9.58901 21.2944 13.9018 21.2944C18.2146 21.2944 21.696 17.813 21.696 13.5001C21.696 9.18734 18.2146 5.70592 13.9018 5.70592Z" fill="#00B140"/>
<path d="M18.2144 14.3835L13.9016 10.0707L9.58879 14.3835L8.86133 13.6561L13.9016 8.61578L18.9419 13.6561L18.2144 14.3835Z" fill="#00B140"/>
<path d="M13.3818 9.3432H14.4211V18.1767H13.3818V9.3432Z" fill="#00B140"/>
</svg>
