<svg width="50" height="47" viewBox="0 0 50 47" fill="none" xmlns="http://www.w3.org/2000/svg">
<path d="M46.6027 34.278C46.6027 36.5749 45.959 38.4343 45.1715 38.4343C44.3809 38.4343 43.7402 36.5749 43.7402 34.278C43.7402 31.9812 44.3809 30.1187 45.1715 30.1187C45.959 30.1187 46.6027 31.9843 46.6027 34.278Z" fill="#2F2F2F"/>
<path d="M44.5508 38.0254C44.5508 38.0254 44.932 38.6348 45.3445 38.841C46.2789 39.3066 47.5789 39.1348 48.3602 38.0723L47.9414 35.541L45.2977 36.0441L44.5508 38.0254Z" fill="#2F2F2F"/>
<path d="M17.4092 39.544C17.4092 41.9972 16.5436 43.9878 15.4811 43.9878C14.4154 43.9878 13.5498 41.9972 13.5498 39.544C13.5498 37.0878 14.4154 35.0972 15.4811 35.0972C16.5436 35.1003 17.4092 37.0878 17.4092 39.544Z" fill="#2F2F2F"/>
<path d="M14.6406 43.5535C14.6406 43.5535 15.1531 44.2066 15.7156 44.4254C16.975 44.9223 18.725 44.7379 19.7781 43.6066L19.2125 40.9004L15.65 41.4379L14.6406 43.5535Z" fill="#2F2F2F"/>
<path d="M20.9219 39.544C20.9219 41.9972 20.0563 43.9878 18.9938 43.9878C17.9281 43.9878 17.0625 41.9972 17.0625 39.544C17.0625 37.0878 17.9281 35.0972 18.9938 35.0972C20.0563 35.1003 20.9219 37.0878 20.9219 39.544Z" fill="#2F2F2F"/>
<path d="M38.3691 39.544C38.3691 41.9972 37.5035 43.9878 36.441 43.9878C35.3754 43.9878 34.5098 41.9972 34.5098 39.544C34.5098 37.0878 35.3754 35.0972 36.441 35.0972C37.5035 35.1003 38.3691 37.0878 38.3691 39.544Z" fill="#2F2F2F"/>
<path d="M35.6006 43.5535C35.6006 43.5535 36.1131 44.2066 36.6756 44.4254C37.935 44.9223 39.685 44.7379 40.7412 43.6066L40.1756 40.9004L36.6131 41.4379L35.6006 43.5535Z" fill="#2F2F2F"/>
<path d="M45.6238 10.8159H15.4082C12.2738 10.8159 10.0488 12.7315 10.0488 15.5503V35.6565C10.0488 38.7878 12.5895 41.3284 15.7207 41.3284H33.1176C37.6863 41.3284 39.1801 40.7378 41.9738 38.8972C44.8457 37.0065 49.9988 33.8815 49.9988 31.319V15.5222C49.9988 12.3909 48.7551 10.8159 45.6238 10.8159" fill="#FCC21B"/>
<mask id="mask0_663_4187" style="mask-type:luminance" maskUnits="userSpaceOnUse" x="10" y="10" width="40" height="32">
<path d="M45.6238 10.8159H15.4082C12.2738 10.8159 10.0488 12.7315 10.0488 15.5503V35.6565C10.0488 38.7878 12.5895 41.3284 15.7207 41.3284H33.1176C37.6863 41.3284 39.1801 40.7378 41.9738 38.8972C44.8457 37.0065 49.9988 33.8815 49.9988 31.319V15.5222C49.9988 12.3909 48.7551 10.8159 45.6238 10.8159" fill="white"/>
</mask>
<g mask="url(#mask0_663_4187)">
<path d="M9.88086 32.6474H36.859V41.8442H9.88086V32.6474ZM36.859 43.7474L51.0371 34.4817V24.1411L36.859 32.6474V43.7474Z" fill="#ED6C30"/>
</g>
<path d="M35.034 28.0096C35.034 29.0596 34.1809 29.9158 33.1277 29.9158H14.8152C13.7652 29.9158 12.9121 29.0596 12.9121 28.0096V15.9033C12.9121 14.8533 13.7652 13.9971 14.8152 13.9971H33.1246C34.1777 13.9971 35.0309 14.8533 35.0309 15.9033V28.0096H35.034Z" fill="#40C0E7"/>
<mask id="mask1_663_4187" style="mask-type:luminance" maskUnits="userSpaceOnUse" x="12" y="13" width="24" height="17">
<path d="M35.034 28.0096C35.034 29.0596 34.1809 29.9158 33.1277 29.9158H14.8152C13.7652 29.9158 12.9121 29.0596 12.9121 28.0096V15.9033C12.9121 14.8533 13.7652 13.9971 14.8152 13.9971H33.1246C34.1777 13.9971 35.0309 14.8533 35.0309 15.9033V28.0096H35.034Z" fill="white"/>
</mask>
<g mask="url(#mask1_663_4187)">
<path d="M12.0654 13.2622H36.1279V18.8497H12.0654V13.2622Z" fill="#2F2F2F"/>
</g>
<mask id="mask2_663_4187" style="mask-type:luminance" maskUnits="userSpaceOnUse" x="12" y="13" width="24" height="17">
<path d="M35.034 28.0096C35.034 29.0596 34.1809 29.9158 33.1277 29.9158H14.8152C13.7652 29.9158 12.9121 29.0596 12.9121 28.0096V15.9033C12.9121 14.8533 13.7652 13.9971 14.8152 13.9971H33.1246C34.1777 13.9971 35.0309 14.8533 35.0309 15.9033V28.0096H35.034Z" fill="white"/>
</mask>
<g mask="url(#mask2_663_4187)">
<path d="M16.3262 15.1128H31.8668V17.644H16.3262V15.1128Z" fill="white"/>
</g>
<path d="M43.8809 22.3032C43.8809 23.1157 43.4059 24.0407 42.784 24.3938L40.4684 25.7094C39.6121 26.1907 38.8652 25.7625 38.8652 24.7094V16.1407C38.8652 15.0907 39.6152 14.2375 40.4684 14.2375H42.784C43.4059 14.2375 43.8809 14.8969 43.8809 15.7032V22.3032ZM47.6059 15.3688C47.6059 14.7532 47.3777 14.2532 47.084 14.2532H46.0402C45.6777 14.2532 45.3652 14.85 45.3652 15.5813V21.5375C45.3652 22.2688 45.6777 22.675 46.0402 22.4469L47.084 21.8094C47.3777 21.6282 47.6059 20.9907 47.6059 20.375V15.3688Z" fill="#40C0E7"/>
<path d="M15.0258 38.5067C16.2115 38.5067 17.1727 37.5469 17.1727 36.363C17.1727 35.179 16.2115 34.2192 15.0258 34.2192C13.8401 34.2192 12.8789 35.179 12.8789 36.363C12.8789 37.5469 13.8401 38.5067 15.0258 38.5067Z" fill="white"/>
<path d="M34.7283 36.363C34.7283 37.5474 33.7658 38.5067 32.5783 38.5067C31.3971 38.5067 30.4346 37.5474 30.4346 36.363C30.4346 35.1755 31.3939 34.2192 32.5783 34.2192C33.7658 34.2192 34.7283 35.1755 34.7283 36.363Z" fill="white"/>
<path d="M41.8818 39.5439C41.8818 41.997 41.0162 43.9876 39.9537 43.9876C38.8881 43.9876 38.0225 41.997 38.0225 39.5439C38.0225 37.0876 38.8881 35.097 39.9537 35.097C41.0162 35.1001 41.8818 37.0876 41.8818 39.5439ZM49.2068 34.2783C49.2068 36.5751 48.5662 38.4345 47.7756 38.4345C46.985 38.4345 46.3443 36.5751 46.3443 34.2783C46.3443 31.9814 46.985 30.1189 47.7756 30.1189C48.5693 30.1189 49.2068 31.9845 49.2068 34.2783Z" fill="#2F2F2F"/>
<g clip-path="url(#clip0_663_4187)">
<path d="M12 23.999C18.6275 23.999 24 18.6265 24 11.999C24 5.373 18.6275 0 12 0C5.3725 0 0 5.3725 0 11.9995C0 18.6265 5.3725 23.999 12 23.999Z" fill="#4D4D4D"/>
<path d="M5.01855 5.85601C5.01855 5.63384 5.10678 5.42077 5.26382 5.26363C5.42087 5.10649 5.63389 5.01814 5.85605 5.01801H12.0001L15.4911 7.95051V18.1435C15.4911 18.2535 15.4694 18.3625 15.4273 18.4641C15.3851 18.5658 15.3234 18.6581 15.2456 18.7359C15.1678 18.8137 15.0754 18.8753 14.9737 18.9174C14.872 18.9595 14.7631 18.9811 14.6531 18.981H5.85605C5.74603 18.981 5.63708 18.9593 5.53544 18.9172C5.4338 18.8751 5.34145 18.8134 5.26368 18.7355C5.1859 18.6577 5.12422 18.5653 5.08216 18.4637C5.0401 18.362 5.01849 18.253 5.01855 18.143V5.85601Z" fill="white"/>
<path d="M12 5.01801V7.11251C11.9999 7.22257 12.0216 7.33157 12.0637 7.43327C12.1057 7.53497 12.1675 7.62738 12.2453 7.70521C12.3231 7.78304 12.4155 7.84476 12.5172 7.88685C12.6189 7.92894 12.7279 7.95057 12.838 7.95051H15.491L12 5.01801Z" fill="#F0F1F1"/>
<path d="M11.1274 8.94499C11.1274 8.97366 11.1218 9.00205 11.1108 9.02853C11.0998 9.05501 11.0837 9.07907 11.0634 9.09932C11.0431 9.11957 11.019 9.13561 10.9925 9.14654C10.966 9.15747 10.9376 9.16306 10.9089 9.16299H6.98192C6.9241 9.16299 6.86866 9.14002 6.82777 9.09914C6.78689 9.05826 6.76392 9.00281 6.76392 8.94499C6.76392 8.88717 6.78689 8.83172 6.82777 8.79084C6.86866 8.74996 6.9241 8.72699 6.98192 8.72699H10.9089C10.9376 8.72692 10.966 8.73251 10.9925 8.74344C11.019 8.75437 11.0431 8.77041 11.0634 8.79066C11.0837 8.81091 11.0998 8.83497 11.1108 8.86145C11.1218 8.88793 11.1274 8.91632 11.1274 8.94499ZM13.7454 10.69C13.7455 10.7187 13.7399 10.7471 13.729 10.7736C13.718 10.8001 13.702 10.8242 13.6817 10.8445C13.6615 10.8648 13.6374 10.8809 13.611 10.8918C13.5845 10.9028 13.5561 10.9085 13.5274 10.9085H6.98192C6.92404 10.9085 6.86853 10.8855 6.8276 10.8446C6.78667 10.8036 6.76367 10.7481 6.76367 10.6902C6.76367 10.6324 6.78667 10.5768 6.8276 10.5359C6.86853 10.495 6.92404 10.472 6.98192 10.472H13.5269C13.5849 10.472 13.6404 10.495 13.6814 10.536C13.7224 10.577 13.7454 10.6325 13.7454 10.6905M13.7454 12.4355C13.7455 12.4642 13.7399 12.4926 13.729 12.5191C13.718 12.5456 13.702 12.5697 13.6817 12.59C13.6615 12.6103 13.6374 12.6264 13.611 12.6373C13.5845 12.6483 13.5561 12.654 13.5274 12.654H6.98192C6.92404 12.654 6.86853 12.631 6.8276 12.5901C6.78667 12.5491 6.76367 12.4936 6.76367 12.4357C6.76367 12.3779 6.78667 12.3223 6.8276 12.2814C6.86853 12.2405 6.92404 12.2175 6.98192 12.2175H13.5269C13.5556 12.2174 13.584 12.223 13.6105 12.2339C13.637 12.2449 13.6611 12.2609 13.6814 12.2812C13.7017 12.3014 13.7178 12.3255 13.7288 12.3519C13.7398 12.3784 13.7454 12.4068 13.7454 12.4355ZM13.7454 14.181C13.7453 14.2388 13.7223 14.2941 13.6814 14.335C13.6406 14.3758 13.5852 14.3989 13.5274 14.399H6.98192C6.92404 14.399 6.86853 14.376 6.8276 14.3351C6.78667 14.2941 6.76367 14.2386 6.76367 14.1807C6.76367 14.1229 6.78667 14.0673 6.8276 14.0264C6.86853 13.9855 6.92404 13.9625 6.98192 13.9625H13.5269C13.5849 13.9625 13.6404 13.9855 13.6814 14.0265C13.7224 14.0675 13.7454 14.123 13.7454 14.181Z" fill="#E2E4E5"/>
<path d="M15.4914 13.09V11.873C15.4914 11.4505 15.6649 11.0565 15.9409 10.737C16.1073 10.5445 16.2295 10.3177 16.2988 10.0728C16.3681 9.82788 16.3828 9.57074 16.3419 9.31952C16.2234 8.55652 15.5849 7.94952 14.8174 7.86502C14.573 7.83705 14.3254 7.86105 14.0909 7.93545C13.8564 8.00985 13.6402 8.13297 13.4566 8.29674C13.273 8.46051 13.1261 8.66123 13.0255 8.88574C12.9249 9.11026 12.8729 9.3535 12.8729 9.59952C12.8725 10.0207 13.0253 10.4277 13.3029 10.7445C13.5779 11.0595 13.7459 11.454 13.7459 11.872V13.091C13.7459 13.7145 13.3174 14.366 12.6939 14.3745C10.9089 14.3995 10.2549 15.7085 10.2549 17.4535H18.9819C18.9819 15.7085 18.3274 14.3995 16.5454 14.374C15.9209 14.365 15.4914 13.714 15.4914 13.09Z" fill="#00B140"/>
<path d="M18.5454 17.89C18.5454 18.0057 18.4995 18.1166 18.4177 18.1985C18.336 18.2803 18.2251 18.3264 18.1094 18.3265H11.1279C11.0705 18.3267 11.0137 18.3155 10.9606 18.2937C10.9076 18.2718 10.8594 18.2397 10.8188 18.1991C10.7782 18.1585 10.7461 18.1103 10.7242 18.0573C10.7024 18.0042 10.6912 17.9474 10.6914 17.89V17.4535H18.5454V17.89Z" fill="#3E3E3F"/>
<path d="M15.4914 11.873C15.4914 11.4505 15.6649 11.0565 15.9409 10.737C16.1073 10.5445 16.2295 10.3177 16.2988 10.0728C16.3681 9.82788 16.3828 9.57074 16.3419 9.31952C16.2234 8.55652 15.5849 7.94952 14.8174 7.86502C14.573 7.83705 14.3254 7.86105 14.0909 7.93545C13.8564 8.00985 13.6402 8.13297 13.4566 8.29674C13.273 8.46051 13.1261 8.66123 13.0255 8.88574C12.9249 9.11026 12.8729 9.3535 12.8729 9.59952C12.8725 10.0207 13.0253 10.4277 13.3029 10.7445C13.5779 11.0595 13.7459 11.454 13.7459 11.872V13.091C13.7459 13.7145 13.3174 14.366 12.6939 14.3745C10.9089 14.3995 10.2549 15.7085 10.2549 17.4535H11.3864L15.5119 13.3285C15.4987 13.2497 15.4919 13.1699 15.4914 13.09V11.873Z" fill="#0EB44A" fill-opacity="0.77"/>
</g>
<defs>
<clipPath id="clip0_663_4187">
<rect width="24" height="24" fill="white"/>
</clipPath>
</defs>
</svg>
