<svg width="39" height="33" viewBox="0 0 39 33" fill="none" xmlns="http://www.w3.org/2000/svg">
<g filter="url(#filter0_i_663_3966)">
<path d="M26.5449 7.70471C26.5449 7.49113 26.6298 7.2863 26.7808 7.13528C26.9318 6.98426 27.1366 6.89941 27.3502 6.89941H33.6556C33.8692 6.89941 34.074 6.98426 34.2251 7.13528C34.3761 7.2863 34.4609 7.49113 34.4609 7.70471V9.16499H26.5449V7.70471Z" fill="url(#paint0_linear_663_3966)"/>
<path d="M26.5449 7.70471C26.5449 7.49113 26.6298 7.2863 26.7808 7.13528C26.9318 6.98426 27.1366 6.89941 27.3502 6.89941H33.6556C33.8692 6.89941 34.074 6.98426 34.2251 7.13528C34.3761 7.2863 34.4609 7.49113 34.4609 7.70471V9.16499H26.5449V7.70471Z" fill="url(#paint1_radial_663_3966)"/>
</g>
<g filter="url(#filter1_i_663_3966)">
<path d="M5.0918 7.6376C5.0918 7.44182 5.16957 7.25406 5.30801 7.11562C5.44644 6.97719 5.6342 6.89941 5.82998 6.89941H9.6806C9.87638 6.89941 10.0641 6.97719 10.2026 7.11562C10.341 7.25406 10.4188 7.44182 10.4188 7.6376V9.16499H5.0918V7.6376Z" fill="url(#paint2_linear_663_3966)"/>
<path d="M5.0918 7.6376C5.0918 7.44182 5.16957 7.25406 5.30801 7.11562C5.44644 6.97719 5.6342 6.89941 5.82998 6.89941H9.6806C9.87638 6.89941 10.0641 6.97719 10.2026 7.11562C10.341 7.25406 10.4188 7.44182 10.4188 7.6376V9.16499H5.0918V7.6376Z" fill="url(#paint3_radial_663_3966)"/>
</g>
<path d="M1.00293 29.8641C1.00293 31.1727 2.06323 32.233 3.37182 32.233H36.131C37.4382 32.233 38.4999 31.1727 38.4999 29.8641C38.4999 29.8417 38.491 29.8202 38.4751 29.8043C38.4593 29.7885 38.4377 29.7795 38.4153 29.7795H1.08749C1.06506 29.7795 1.04355 29.7885 1.0277 29.8043C1.01184 29.8202 1.00293 29.8417 1.00293 29.8641Z" fill="url(#paint4_linear_663_3966)"/>
<path d="M1.00293 29.8641C1.00293 31.1727 2.06323 32.233 3.37182 32.233H36.131C37.4382 32.233 38.4999 31.1727 38.4999 29.8641C38.4999 29.8417 38.491 29.8202 38.4751 29.8043C38.4593 29.7885 38.4377 29.7795 38.4153 29.7795H1.08749C1.06506 29.7795 1.04355 29.7885 1.0277 29.8043C1.01184 29.8202 1.00293 29.8417 1.00293 29.8641Z" fill="url(#paint5_linear_663_3966)"/>
<path d="M1.00293 29.8641C1.00293 31.1727 2.06323 32.233 3.37182 32.233H36.131C37.4382 32.233 38.4999 31.1727 38.4999 29.8641C38.4999 29.8417 38.491 29.8202 38.4751 29.8043C38.4593 29.7885 38.4377 29.7795 38.4153 29.7795H1.08749C1.06506 29.7795 1.04355 29.7885 1.0277 29.8043C1.01184 29.8202 1.00293 29.8417 1.00293 29.8641Z" fill="url(#paint6_linear_663_3966)"/>
<path d="M1.00293 29.8641C1.00293 31.1727 2.06323 32.233 3.37182 32.233H36.131C37.4382 32.233 38.4999 31.1727 38.4999 29.8641C38.4999 29.8417 38.491 29.8202 38.4751 29.8043C38.4593 29.7885 38.4377 29.7795 38.4153 29.7795H1.08749C1.06506 29.7795 1.04355 29.7885 1.0277 29.8043C1.01184 29.8202 1.00293 29.8417 1.00293 29.8641Z" fill="url(#paint7_radial_663_3966)"/>
<path d="M1.00293 29.8641C1.00293 31.1727 2.06323 32.233 3.37182 32.233H36.131C37.4382 32.233 38.4999 31.1727 38.4999 29.8641C38.4999 29.8417 38.491 29.8202 38.4751 29.8043C38.4593 29.7885 38.4377 29.7795 38.4153 29.7795H1.08749C1.06506 29.7795 1.04355 29.7885 1.0277 29.8043C1.01184 29.8202 1.00293 29.8417 1.00293 29.8641Z" fill="url(#paint8_radial_663_3966)"/>
<path d="M1.00134 13.8209C1.00134 13.7319 1.03669 13.6466 1.09962 13.5836C1.16254 13.5207 1.24789 13.4854 1.33688 13.4854H38.1641C38.2531 13.4854 38.3384 13.5207 38.4014 13.5836C38.4643 13.6466 38.4996 13.7319 38.4996 13.8209V29.4437C38.4996 29.5327 38.4643 29.618 38.4014 29.6809C38.3384 29.7439 38.2531 29.7792 38.1641 29.7792H1.33554C1.24655 29.7792 1.1612 29.7439 1.09828 29.6809C1.03535 29.618 1 29.5327 1 29.4437L1.00134 13.8209Z" fill="url(#paint9_linear_663_3966)"/>
<path d="M1.00134 13.8209C1.00134 13.7319 1.03669 13.6466 1.09962 13.5836C1.16254 13.5207 1.24789 13.4854 1.33688 13.4854H38.1641C38.2531 13.4854 38.3384 13.5207 38.4014 13.5836C38.4643 13.6466 38.4996 13.7319 38.4996 13.8209V29.4437C38.4996 29.5327 38.4643 29.618 38.4014 29.6809C38.3384 29.7439 38.2531 29.7792 38.1641 29.7792H1.33554C1.24655 29.7792 1.1612 29.7439 1.09828 29.6809C1.03535 29.618 1 29.5327 1 29.4437L1.00134 13.8209Z" fill="url(#paint10_linear_663_3966)"/>
<path d="M1.00134 13.8209C1.00134 13.7319 1.03669 13.6466 1.09962 13.5836C1.16254 13.5207 1.24789 13.4854 1.33688 13.4854H38.1641C38.2531 13.4854 38.3384 13.5207 38.4014 13.5836C38.4643 13.6466 38.4996 13.7319 38.4996 13.8209V29.4437C38.4996 29.5327 38.4643 29.618 38.4014 29.6809C38.3384 29.7439 38.2531 29.7792 38.1641 29.7792H1.33554C1.24655 29.7792 1.1612 29.7439 1.09828 29.6809C1.03535 29.618 1 29.5327 1 29.4437L1.00134 13.8209Z" fill="url(#paint11_linear_663_3966)"/>
<path d="M1.00134 13.8209C1.00134 13.7319 1.03669 13.6466 1.09962 13.5836C1.16254 13.5207 1.24789 13.4854 1.33688 13.4854H38.1641C38.2531 13.4854 38.3384 13.5207 38.4014 13.5836C38.4643 13.6466 38.4996 13.7319 38.4996 13.8209V29.4437C38.4996 29.5327 38.4643 29.618 38.4014 29.6809C38.3384 29.7439 38.2531 29.7792 38.1641 29.7792H1.33554C1.24655 29.7792 1.1612 29.7439 1.09828 29.6809C1.03535 29.618 1 29.5327 1 29.4437L1.00134 13.8209Z" fill="url(#paint12_linear_663_3966)"/>
<path d="M1.00134 13.8209C1.00134 13.7319 1.03669 13.6466 1.09962 13.5836C1.16254 13.5207 1.24789 13.4854 1.33688 13.4854H38.1641C38.2531 13.4854 38.3384 13.5207 38.4014 13.5836C38.4643 13.6466 38.4996 13.7319 38.4996 13.8209V29.4437C38.4996 29.5327 38.4643 29.618 38.4014 29.6809C38.3384 29.7439 38.2531 29.7792 38.1641 29.7792H1.33554C1.24655 29.7792 1.1612 29.7439 1.09828 29.6809C1.03535 29.618 1 29.5327 1 29.4437L1.00134 13.8209Z" fill="url(#paint13_linear_663_3966)"/>
<path d="M1.00134 13.8209C1.00134 13.7319 1.03669 13.6466 1.09962 13.5836C1.16254 13.5207 1.24789 13.4854 1.33688 13.4854H38.1641C38.2531 13.4854 38.3384 13.5207 38.4014 13.5836C38.4643 13.6466 38.4996 13.7319 38.4996 13.8209V29.4437C38.4996 29.5327 38.4643 29.618 38.4014 29.6809C38.3384 29.7439 38.2531 29.7792 38.1641 29.7792H1.33554C1.24655 29.7792 1.1612 29.7439 1.09828 29.6809C1.03535 29.618 1 29.5327 1 29.4437L1.00134 13.8209Z" fill="url(#paint14_linear_663_3966)"/>
<path d="M1.00134 13.8209C1.00134 13.7319 1.03669 13.6466 1.09962 13.5836C1.16254 13.5207 1.24789 13.4854 1.33688 13.4854H38.1641C38.2531 13.4854 38.3384 13.5207 38.4014 13.5836C38.4643 13.6466 38.4996 13.7319 38.4996 13.8209V29.4437C38.4996 29.5327 38.4643 29.618 38.4014 29.6809C38.3384 29.7439 38.2531 29.7792 38.1641 29.7792H1.33554C1.24655 29.7792 1.1612 29.7439 1.09828 29.6809C1.03535 29.618 1 29.5327 1 29.4437L1.00134 13.8209Z" fill="url(#paint15_radial_663_3966)"/>
<g filter="url(#filter2_f_663_3966)">
<path d="M37.2207 13.9155H37.8502V29.3504H37.2207V13.9155Z" fill="#8D8D92"/>
</g>
<g filter="url(#filter3_f_663_3966)">
<path d="M10.7321 13.1997C10.4619 13.6041 10.2087 14.0551 9.97247 14.5526H9.95905C9.83725 14.8162 9.64254 15.0394 9.39792 15.1958C9.1533 15.3523 8.86901 15.4354 8.57865 15.4354C8.28829 15.4354 8.004 15.3523 7.75939 15.1958C7.51477 15.0394 7.32005 14.8162 7.19825 14.5526H7.19423C6.97396 14.0839 6.72008 13.6318 6.43457 13.1997H10.7321Z" fill="#4E474A"/>
</g>
<g filter="url(#filter4_i_663_3966)">
<path d="M1.00134 10.9153C1.00134 10.2034 1.28415 9.52059 1.78755 9.01718C2.29096 8.51377 2.97372 8.23096 3.68564 8.23096H35.8153C36.5273 8.23096 37.21 8.51377 37.7134 9.01718C38.2168 9.52059 38.4996 10.2034 38.4996 10.9153V13.15C38.4996 13.239 38.4643 13.3243 38.4014 13.3872C38.3384 13.4502 38.2531 13.4855 38.1641 13.4855H1.33554C1.24655 13.4855 1.1612 13.4502 1.09828 13.3872C1.03535 13.3243 1 13.239 1 13.15L1.00134 10.9153Z" fill="#DAD4E6"/>
<path d="M1.00134 10.9153C1.00134 10.2034 1.28415 9.52059 1.78755 9.01718C2.29096 8.51377 2.97372 8.23096 3.68564 8.23096H35.8153C36.5273 8.23096 37.21 8.51377 37.7134 9.01718C38.2168 9.52059 38.4996 10.2034 38.4996 10.9153V13.15C38.4996 13.239 38.4643 13.3243 38.4014 13.3872C38.3384 13.4502 38.2531 13.4855 38.1641 13.4855H1.33554C1.24655 13.4855 1.1612 13.4502 1.09828 13.3872C1.03535 13.3243 1 13.239 1 13.15L1.00134 10.9153Z" fill="url(#paint16_linear_663_3966)"/>
<path d="M1.00134 10.9153C1.00134 10.2034 1.28415 9.52059 1.78755 9.01718C2.29096 8.51377 2.97372 8.23096 3.68564 8.23096H35.8153C36.5273 8.23096 37.21 8.51377 37.7134 9.01718C38.2168 9.52059 38.4996 10.2034 38.4996 10.9153V13.15C38.4996 13.239 38.4643 13.3243 38.4014 13.3872C38.3384 13.4502 38.2531 13.4855 38.1641 13.4855H1.33554C1.24655 13.4855 1.1612 13.4502 1.09828 13.3872C1.03535 13.3243 1 13.239 1 13.15L1.00134 10.9153Z" fill="url(#paint17_linear_663_3966)"/>
<path d="M1.00134 10.9153C1.00134 10.2034 1.28415 9.52059 1.78755 9.01718C2.29096 8.51377 2.97372 8.23096 3.68564 8.23096H35.8153C36.5273 8.23096 37.21 8.51377 37.7134 9.01718C38.2168 9.52059 38.4996 10.2034 38.4996 10.9153V13.15C38.4996 13.239 38.4643 13.3243 38.4014 13.3872C38.3384 13.4502 38.2531 13.4855 38.1641 13.4855H1.33554C1.24655 13.4855 1.1612 13.4502 1.09828 13.3872C1.03535 13.3243 1 13.239 1 13.15L1.00134 10.9153Z" fill="url(#paint18_linear_663_3966)"/>
<path d="M1.00134 10.9153C1.00134 10.2034 1.28415 9.52059 1.78755 9.01718C2.29096 8.51377 2.97372 8.23096 3.68564 8.23096H35.8153C36.5273 8.23096 37.21 8.51377 37.7134 9.01718C38.2168 9.52059 38.4996 10.2034 38.4996 10.9153V13.15C38.4996 13.239 38.4643 13.3243 38.4014 13.3872C38.3384 13.4502 38.2531 13.4855 38.1641 13.4855H1.33554C1.24655 13.4855 1.1612 13.4502 1.09828 13.3872C1.03535 13.3243 1 13.239 1 13.15L1.00134 10.9153Z" fill="url(#paint19_radial_663_3966)"/>
<path d="M1.00134 10.9153C1.00134 10.2034 1.28415 9.52059 1.78755 9.01718C2.29096 8.51377 2.97372 8.23096 3.68564 8.23096H35.8153C36.5273 8.23096 37.21 8.51377 37.7134 9.01718C38.2168 9.52059 38.4996 10.2034 38.4996 10.9153V13.15C38.4996 13.239 38.4643 13.3243 38.4014 13.3872C38.3384 13.4502 38.2531 13.4855 38.1641 13.4855H1.33554C1.24655 13.4855 1.1612 13.4502 1.09828 13.3872C1.03535 13.3243 1 13.239 1 13.15L1.00134 10.9153Z" fill="url(#paint20_linear_663_3966)"/>
</g>
<g filter="url(#filter5_iiii_663_3966)">
<path d="M19.7505 31.0075C24.9511 31.0075 29.167 26.7916 29.167 21.5909C29.167 16.3903 24.9511 12.1743 19.7505 12.1743C14.5499 12.1743 10.334 16.3903 10.334 21.5909C10.334 26.7916 14.5499 31.0075 19.7505 31.0075Z" fill="url(#paint21_radial_663_3966)"/>
</g>
<g filter="url(#filter6_f_663_3966)">
<path d="M19.7492 28.2598C23.4325 28.2598 26.4184 25.2739 26.4184 21.5906C26.4184 17.9073 23.4325 14.9214 19.7492 14.9214C16.066 14.9214 13.0801 17.9073 13.0801 21.5906C13.0801 25.2739 16.066 28.2598 19.7492 28.2598Z" stroke="url(#paint22_linear_663_3966)" stroke-width="0.49834"/>
<path d="M19.7492 28.2598C23.4325 28.2598 26.4184 25.2739 26.4184 21.5906C26.4184 17.9073 23.4325 14.9214 19.7492 14.9214C16.066 14.9214 13.0801 17.9073 13.0801 21.5906C13.0801 25.2739 16.066 28.2598 19.7492 28.2598Z" stroke="url(#paint23_linear_663_3966)" stroke-width="0.49834"/>
</g>
<path d="M19.7492 28.26C23.4325 28.26 26.4184 25.2741 26.4184 21.5908C26.4184 17.9075 23.4325 14.9216 19.7492 14.9216C16.066 14.9216 13.0801 17.9075 13.0801 21.5908C13.0801 25.2741 16.066 28.26 19.7492 28.26Z" fill="url(#paint24_radial_663_3966)"/>
<path d="M19.7492 28.26C23.4325 28.26 26.4184 25.2741 26.4184 21.5908C26.4184 17.9075 23.4325 14.9216 19.7492 14.9216C16.066 14.9216 13.0801 17.9075 13.0801 21.5908C13.0801 25.2741 16.066 28.26 19.7492 28.26Z" fill="url(#paint25_linear_663_3966)"/>
<g filter="url(#filter7_f_663_3966)">
<path d="M19.7463 27.4322C22.9722 27.4322 25.5873 24.817 25.5873 21.5911C25.5873 18.3651 22.9722 15.75 19.7463 15.75C16.5204 15.75 13.9053 18.3651 13.9053 21.5911C13.9053 24.817 16.5204 27.4322 19.7463 27.4322Z" fill="url(#paint26_radial_663_3966)"/>
<path d="M19.7463 27.4322C22.9722 27.4322 25.5873 24.817 25.5873 21.5911C25.5873 18.3651 22.9722 15.75 19.7463 15.75C16.5204 15.75 13.9053 18.3651 13.9053 21.5911C13.9053 24.817 16.5204 27.4322 19.7463 27.4322Z" fill="url(#paint27_radial_663_3966)"/>
</g>
<path d="M19.7493 24.8835C21.5676 24.8835 23.0416 23.4095 23.0416 21.5912C23.0416 19.7729 21.5676 18.2988 19.7493 18.2988C17.931 18.2988 16.457 19.7729 16.457 21.5912C16.457 23.4095 17.931 24.8835 19.7493 24.8835Z" fill="url(#paint28_linear_663_3966)"/>
<path d="M19.7493 24.8835C21.5676 24.8835 23.0416 23.4095 23.0416 21.5912C23.0416 19.7729 21.5676 18.2988 19.7493 18.2988C17.931 18.2988 16.457 19.7729 16.457 21.5912C16.457 23.4095 17.931 24.8835 19.7493 24.8835Z" fill="url(#paint29_radial_663_3966)"/>
<path d="M19.7493 24.8835C21.5676 24.8835 23.0416 23.4095 23.0416 21.5912C23.0416 19.7729 21.5676 18.2988 19.7493 18.2988C17.931 18.2988 16.457 19.7729 16.457 21.5912C16.457 23.4095 17.931 24.8835 19.7493 24.8835Z" fill="url(#paint30_radial_663_3966)"/>
<path d="M23.2845 20.0626C23.7929 19.7069 23.8461 18.9056 23.4034 18.2727C22.9607 17.6398 22.1896 17.415 21.6813 17.7706C21.1729 18.1263 21.1196 18.9276 21.5624 19.5605C22.0051 20.1934 22.7761 20.4182 23.2845 20.0626Z" fill="url(#paint31_linear_663_3966)"/>
<g filter="url(#filter8_f_663_3966)">
<path d="M6.49412 13.2748C5.51569 11.8105 4.26615 11.1314 3.0099 10.5891C2.43278 10.373 2.23817 10.1851 2.23817 9.53286C2.23817 9.39461 2.20327 9.07249 2.23817 8.94499C2.68644 8.60945 3.29444 8.60005 3.8984 8.60005L14.9752 8.23096C15.0852 8.36786 14.9752 8.35041 14.9752 8.60005C14.9752 9.22147 14.5832 9.42146 14.0491 9.65768V9.66036C12.7485 10.2093 11.6292 11.5931 10.6266 13.2748H6.49412Z" fill="#A99A99"/>
</g>
<g filter="url(#filter9_i_663_3966)">
<path d="M9.1521 1.5C9.76278 1.5 10.2902 1.86104 10.5318 2.38046H10.5453C11.6458 4.71314 13.1678 5.97209 14.7985 6.65927V6.66196C15.0682 6.78101 15.2975 6.97589 15.4584 7.22288C15.6194 7.46986 15.7051 7.75831 15.7051 8.05311C15.7051 8.34791 15.6194 8.63636 15.4584 8.88334C15.2975 9.13033 15.0682 9.32521 14.7985 9.44426V9.44829C13.1678 10.1341 11.6472 11.3931 10.5466 13.7258C10.4252 13.9927 10.2283 14.2182 9.98031 14.3747C9.73229 14.5311 9.44394 14.6116 9.15076 14.6062C8.86089 14.6065 8.577 14.5238 8.33271 14.3677C8.08842 14.2117 7.89397 13.9889 7.77237 13.7258H7.76701C6.68255 11.4253 5.19008 10.1704 3.58487 9.47782C3.29491 9.36919 3.04501 9.17464 2.8686 8.92017C2.69218 8.66569 2.59766 8.36343 2.59766 8.05378C2.59766 7.74414 2.69218 7.44187 2.8686 7.1874C3.04501 6.93292 3.29491 6.73837 3.58487 6.62975C5.18874 5.93585 6.68255 4.68093 7.76701 2.38046H7.77237C8.01396 1.86104 8.54008 1.5 9.1521 1.5Z" fill="url(#paint32_radial_663_3966)"/>
<path d="M9.1521 1.5C9.76278 1.5 10.2902 1.86104 10.5318 2.38046H10.5453C11.6458 4.71314 13.1678 5.97209 14.7985 6.65927V6.66196C15.0682 6.78101 15.2975 6.97589 15.4584 7.22288C15.6194 7.46986 15.7051 7.75831 15.7051 8.05311C15.7051 8.34791 15.6194 8.63636 15.4584 8.88334C15.2975 9.13033 15.0682 9.32521 14.7985 9.44426V9.44829C13.1678 10.1341 11.6472 11.3931 10.5466 13.7258C10.4252 13.9927 10.2283 14.2182 9.98031 14.3747C9.73229 14.5311 9.44394 14.6116 9.15076 14.6062C8.86089 14.6065 8.577 14.5238 8.33271 14.3677C8.08842 14.2117 7.89397 13.9889 7.77237 13.7258H7.76701C6.68255 11.4253 5.19008 10.1704 3.58487 9.47782C3.29491 9.36919 3.04501 9.17464 2.8686 8.92017C2.69218 8.66569 2.59766 8.36343 2.59766 8.05378C2.59766 7.74414 2.69218 7.44187 2.8686 7.1874C3.04501 6.93292 3.29491 6.73837 3.58487 6.62975C5.18874 5.93585 6.68255 4.68093 7.76701 2.38046H7.77237C8.01396 1.86104 8.54008 1.5 9.1521 1.5Z" fill="url(#paint33_radial_663_3966)"/>
</g>
<g filter="url(#filter10_f_663_3966)">
<path d="M9.15091 3.29297C9.59382 3.29297 9.97767 3.5547 10.1521 3.93319H10.1629C10.9628 5.627 12.0687 6.54101 13.2525 7.04029V7.04298C13.4485 7.12942 13.6151 7.27098 13.7321 7.45042C13.849 7.62986 13.9113 7.83943 13.9113 8.05363C13.9113 8.26782 13.849 8.4774 13.7321 8.65683C13.6151 8.83627 13.4485 8.97783 13.2525 9.06428V9.06562C12.0674 9.5649 10.9628 10.4789 10.1629 12.1741H10.1521C10.0635 12.3651 9.92206 12.5268 9.74455 12.6401C9.56703 12.7534 9.36083 12.8136 9.15024 12.8136C8.93964 12.8136 8.73344 12.7534 8.55593 12.6401C8.37841 12.5268 8.23699 12.3651 8.14832 12.1741H8.1443C7.35645 10.5031 6.272 9.5904 5.10701 9.08709C4.89656 9.00809 4.71522 8.86676 4.58722 8.68197C4.45921 8.49719 4.39062 8.27775 4.39062 8.05296C4.39062 7.82816 4.45921 7.60872 4.58722 7.42394C4.71522 7.23915 4.89656 7.09782 5.10701 7.01882C6.272 6.51551 7.35645 5.60284 8.1443 3.93184H8.14832C8.23673 3.74054 8.3782 3.57864 8.55593 3.46539C8.73366 3.35214 8.94017 3.2923 9.15091 3.29297Z" fill="url(#paint34_radial_663_3966)"/>
</g>
<defs>
<filter id="filter0_i_663_3966" x="26.5449" y="6.89941" width="7.91602" height="2.51473" filterUnits="userSpaceOnUse" color-interpolation-filters="sRGB">
<feFlood flood-opacity="0" result="BackgroundImageFix"/>
<feBlend mode="normal" in="SourceGraphic" in2="BackgroundImageFix" result="shape"/>
<feColorMatrix in="SourceAlpha" type="matrix" values="0 0 0 0 0 0 0 0 0 0 0 0 0 0 0 0 0 0 127 0" result="hardAlpha"/>
<feOffset dy="0.24917"/>
<feGaussianBlur stdDeviation="0.332227"/>
<feComposite in2="hardAlpha" operator="arithmetic" k2="-1" k3="1"/>
<feColorMatrix type="matrix" values="0 0 0 0 0.701961 0 0 0 0 0.709804 0 0 0 0 0.713726 0 0 0 1 0"/>
<feBlend mode="normal" in2="shape" result="effect1_innerShadow_663_3966"/>
</filter>
<filter id="filter1_i_663_3966" x="5.0918" y="6.89941" width="5.32715" height="2.51473" filterUnits="userSpaceOnUse" color-interpolation-filters="sRGB">
<feFlood flood-opacity="0" result="BackgroundImageFix"/>
<feBlend mode="normal" in="SourceGraphic" in2="BackgroundImageFix" result="shape"/>
<feColorMatrix in="SourceAlpha" type="matrix" values="0 0 0 0 0 0 0 0 0 0 0 0 0 0 0 0 0 0 127 0" result="hardAlpha"/>
<feOffset dy="0.24917"/>
<feGaussianBlur stdDeviation="0.332227"/>
<feComposite in2="hardAlpha" operator="arithmetic" k2="-1" k3="1"/>
<feColorMatrix type="matrix" values="0 0 0 0 0.701961 0 0 0 0 0.709804 0 0 0 0 0.713726 0 0 0 1 0"/>
<feBlend mode="normal" in2="shape" result="effect1_innerShadow_663_3966"/>
</filter>
<filter id="filter2_f_663_3966" x="36.141" y="12.8358" width="2.78936" height="17.5943" filterUnits="userSpaceOnUse" color-interpolation-filters="sRGB">
<feFlood flood-opacity="0" result="BackgroundImageFix"/>
<feBlend mode="normal" in="SourceGraphic" in2="BackgroundImageFix" result="shape"/>
<feGaussianBlur stdDeviation="0.539868" result="effect1_foregroundBlur_663_3966"/>
</filter>
<filter id="filter3_f_663_3966" x="5.35483" y="12.12" width="6.45732" height="4.39519" filterUnits="userSpaceOnUse" color-interpolation-filters="sRGB">
<feFlood flood-opacity="0" result="BackgroundImageFix"/>
<feBlend mode="normal" in="SourceGraphic" in2="BackgroundImageFix" result="shape"/>
<feGaussianBlur stdDeviation="0.539868" result="effect1_foregroundBlur_663_3966"/>
</filter>
<filter id="filter4_i_663_3966" x="1" y="8.23096" width="37.5" height="5.42069" filterUnits="userSpaceOnUse" color-interpolation-filters="sRGB">
<feFlood flood-opacity="0" result="BackgroundImageFix"/>
<feBlend mode="normal" in="SourceGraphic" in2="BackgroundImageFix" result="shape"/>
<feColorMatrix in="SourceAlpha" type="matrix" values="0 0 0 0 0 0 0 0 0 0 0 0 0 0 0 0 0 0 127 0" result="hardAlpha"/>
<feOffset dy="0.166113"/>
<feGaussianBlur stdDeviation="0.24917"/>
<feComposite in2="hardAlpha" operator="arithmetic" k2="-1" k3="1"/>
<feColorMatrix type="matrix" values="0 0 0 0 0.796078 0 0 0 0 0.8 0 0 0 0 0.803922 0 0 0 1 0"/>
<feBlend mode="normal" in2="shape" result="effect1_innerShadow_663_3966"/>
</filter>
<filter id="filter5_iiii_663_3966" x="10.0848" y="11.9251" width="19.3313" height="19.3316" filterUnits="userSpaceOnUse" color-interpolation-filters="sRGB">
<feFlood flood-opacity="0" result="BackgroundImageFix"/>
<feBlend mode="normal" in="SourceGraphic" in2="BackgroundImageFix" result="shape"/>
<feColorMatrix in="SourceAlpha" type="matrix" values="0 0 0 0 0 0 0 0 0 0 0 0 0 0 0 0 0 0 127 0" result="hardAlpha"/>
<feOffset dy="-0.24917"/>
<feGaussianBlur stdDeviation="0.124585"/>
<feComposite in2="hardAlpha" operator="arithmetic" k2="-1" k3="1"/>
<feColorMatrix type="matrix" values="0 0 0 0 0.545098 0 0 0 0 0.529412 0 0 0 0 0.580392 0 0 0 1 0"/>
<feBlend mode="normal" in2="shape" result="effect1_innerShadow_663_3966"/>
<feColorMatrix in="SourceAlpha" type="matrix" values="0 0 0 0 0 0 0 0 0 0 0 0 0 0 0 0 0 0 127 0" result="hardAlpha"/>
<feOffset dx="0.24917"/>
<feGaussianBlur stdDeviation="0.124585"/>
<feComposite in2="hardAlpha" operator="arithmetic" k2="-1" k3="1"/>
<feColorMatrix type="matrix" values="0 0 0 0 0.564706 0 0 0 0 0.54902 0 0 0 0 0.6 0 0 0 1 0"/>
<feBlend mode="normal" in2="effect1_innerShadow_663_3966" result="effect2_innerShadow_663_3966"/>
<feColorMatrix in="SourceAlpha" type="matrix" values="0 0 0 0 0 0 0 0 0 0 0 0 0 0 0 0 0 0 127 0" result="hardAlpha"/>
<feOffset dy="0.24917"/>
<feGaussianBlur stdDeviation="0.124585"/>
<feComposite in2="hardAlpha" operator="arithmetic" k2="-1" k3="1"/>
<feColorMatrix type="matrix" values="0 0 0 0 0.619608 0 0 0 0 0.623529 0 0 0 0 0.631373 0 0 0 1 0"/>
<feBlend mode="normal" in2="effect2_innerShadow_663_3966" result="effect3_innerShadow_663_3966"/>
<feColorMatrix in="SourceAlpha" type="matrix" values="0 0 0 0 0 0 0 0 0 0 0 0 0 0 0 0 0 0 127 0" result="hardAlpha"/>
<feOffset dx="-0.24917" dy="0.166113"/>
<feGaussianBlur stdDeviation="0.207642"/>
<feComposite in2="hardAlpha" operator="arithmetic" k2="-1" k3="1"/>
<feColorMatrix type="matrix" values="0 0 0 0 0.803922 0 0 0 0 0.803922 0 0 0 0 0.823529 0 0 0 1 0"/>
<feBlend mode="normal" in2="effect3_innerShadow_663_3966" result="effect4_innerShadow_663_3966"/>
</filter>
<filter id="filter6_f_663_3966" x="12.1666" y="14.0078" width="15.1658" height="15.1656" filterUnits="userSpaceOnUse" color-interpolation-filters="sRGB">
<feFlood flood-opacity="0" result="BackgroundImageFix"/>
<feBlend mode="normal" in="SourceGraphic" in2="BackgroundImageFix" result="shape"/>
<feGaussianBlur stdDeviation="0.332227" result="effect1_foregroundBlur_663_3966"/>
</filter>
<filter id="filter7_f_663_3966" x="12.6594" y="14.5042" width="14.1733" height="14.1739" filterUnits="userSpaceOnUse" color-interpolation-filters="sRGB">
<feFlood flood-opacity="0" result="BackgroundImageFix"/>
<feBlend mode="normal" in="SourceGraphic" in2="BackgroundImageFix" result="shape"/>
<feGaussianBlur stdDeviation="0.622925" result="effect1_foregroundBlur_663_3966"/>
</filter>
<filter id="filter8_f_663_3966" x="0.976807" y="6.98511" width="15.2935" height="7.53552" filterUnits="userSpaceOnUse" color-interpolation-filters="sRGB">
<feFlood flood-opacity="0" result="BackgroundImageFix"/>
<feBlend mode="normal" in="SourceGraphic" in2="BackgroundImageFix" result="shape"/>
<feGaussianBlur stdDeviation="0.622925" result="effect1_foregroundBlur_663_3966"/>
</filter>
<filter id="filter9_i_663_3966" x="2.59766" y="1.08472" width="13.5227" height="13.5218" filterUnits="userSpaceOnUse" color-interpolation-filters="sRGB">
<feFlood flood-opacity="0" result="BackgroundImageFix"/>
<feBlend mode="normal" in="SourceGraphic" in2="BackgroundImageFix" result="shape"/>
<feColorMatrix in="SourceAlpha" type="matrix" values="0 0 0 0 0 0 0 0 0 0 0 0 0 0 0 0 0 0 127 0" result="hardAlpha"/>
<feOffset dx="0.415283" dy="-0.415283"/>
<feGaussianBlur stdDeviation="0.622925"/>
<feComposite in2="hardAlpha" operator="arithmetic" k2="-1" k3="1"/>
<feColorMatrix type="matrix" values="0 0 0 0 0.823529 0 0 0 0 0.666667 0 0 0 0 0.254902 0 0 0 1 0"/>
<feBlend mode="normal" in2="shape" result="effect1_innerShadow_663_3966"/>
</filter>
<filter id="filter10_f_663_3966" x="1.89893" y="0.80127" width="14.5039" height="14.504" filterUnits="userSpaceOnUse" color-interpolation-filters="sRGB">
<feFlood flood-opacity="0" result="BackgroundImageFix"/>
<feBlend mode="normal" in="SourceGraphic" in2="BackgroundImageFix" result="shape"/>
<feGaussianBlur stdDeviation="1.24585" result="effect1_foregroundBlur_663_3966"/>
</filter>
<linearGradient id="paint0_linear_663_3966" x1="27.0053" y1="8.0322" x2="35.1011" y2="8.0322" gradientUnits="userSpaceOnUse">
<stop offset="0.197" stop-color="#949597"/>
<stop offset="0.624" stop-color="#C1C2C4"/>
</linearGradient>
<radialGradient id="paint1_radial_663_3966" cx="0" cy="0" r="1" gradientUnits="userSpaceOnUse" gradientTransform="translate(32.4168 7.48728) rotate(90) scale(0.293598 2.26488)">
<stop stop-color="#CFD0D2"/>
<stop offset="1" stop-color="#CFD0D2" stop-opacity="0"/>
</radialGradient>
<linearGradient id="paint2_linear_663_3966" x1="5.40183" y1="8.0322" x2="10.8496" y2="8.0322" gradientUnits="userSpaceOnUse">
<stop offset="0.197" stop-color="#949597"/>
<stop offset="0.624" stop-color="#C1C2C4"/>
</linearGradient>
<radialGradient id="paint3_radial_663_3966" cx="0" cy="0" r="1" gradientUnits="userSpaceOnUse" gradientTransform="translate(9.04308 7.48728) rotate(90) scale(0.293598 1.52392)">
<stop stop-color="#CFD0D2"/>
<stop offset="1" stop-color="#CFD0D2" stop-opacity="0"/>
</radialGradient>
<linearGradient id="paint4_linear_663_3966" x1="19.7514" y1="29.7795" x2="19.7514" y2="32.233" gradientUnits="userSpaceOnUse">
<stop stop-color="#CFC6DE"/>
<stop offset="1" stop-color="#C3B4D7"/>
</linearGradient>
<linearGradient id="paint5_linear_663_3966" x1="21.5969" y1="32.233" x2="21.5969" y2="30.3459" gradientUnits="userSpaceOnUse">
<stop stop-color="#AC91C9"/>
<stop offset="1" stop-color="#C2B3D6" stop-opacity="0"/>
</linearGradient>
<linearGradient id="paint6_linear_663_3966" x1="19.7514" y1="29.7795" x2="19.7514" y2="30.4721" gradientUnits="userSpaceOnUse">
<stop stop-color="#CFCBD7"/>
<stop offset="1" stop-color="#CFCBD7" stop-opacity="0"/>
</linearGradient>
<radialGradient id="paint7_radial_663_3966" cx="0" cy="0" r="1" gradientUnits="userSpaceOnUse" gradientTransform="translate(37.5765 29.2561) rotate(90) scale(2.60043 1.68477)">
<stop offset="0.242" stop-color="#F7F4FE"/>
<stop offset="1" stop-color="#C8BCDB" stop-opacity="0"/>
</radialGradient>
<radialGradient id="paint8_radial_663_3966" cx="0" cy="0" r="1" gradientUnits="userSpaceOnUse" gradientTransform="translate(17.4026 26.0685) rotate(90) scale(6.16557 8.70131)">
<stop offset="0.645" stop-color="#9884AF"/>
<stop offset="1" stop-color="#9884AF" stop-opacity="0"/>
</radialGradient>
<linearGradient id="paint9_linear_663_3966" x1="25.4956" y1="21.6323" x2="37.5749" y2="21.6323" gradientUnits="userSpaceOnUse">
<stop stop-color="#66636F"/>
<stop offset="1" stop-color="#6B6873"/>
</linearGradient>
<linearGradient id="paint10_linear_663_3966" x1="1.00134" y1="23.8871" x2="4.60904" y2="23.9287" gradientUnits="userSpaceOnUse">
<stop offset="0.342" stop-color="#5E5C64"/>
<stop offset="1" stop-color="#5E5C64" stop-opacity="0"/>
</linearGradient>
<linearGradient id="paint11_linear_663_3966" x1="0.540985" y1="21.8739" x2="2.09251" y2="21.8739" gradientUnits="userSpaceOnUse">
<stop stop-color="#8F8F91"/>
<stop offset="1" stop-color="#6D6C71" stop-opacity="0"/>
</linearGradient>
<linearGradient id="paint12_linear_663_3966" x1="19.7498" y1="13.4854" x2="19.7498" y2="14.492" gradientUnits="userSpaceOnUse">
<stop stop-color="#706F76"/>
<stop offset="1" stop-color="#706F76" stop-opacity="0"/>
</linearGradient>
<linearGradient id="paint13_linear_663_3966" x1="19.7498" y1="13.4854" x2="19.7498" y2="13.9256" gradientUnits="userSpaceOnUse">
<stop stop-color="#5F5E65"/>
<stop offset="1" stop-color="#5F5E65" stop-opacity="0"/>
</linearGradient>
<linearGradient id="paint14_linear_663_3966" x1="24.1964" y1="29.7792" x2="24.1964" y2="28.9618" gradientUnits="userSpaceOnUse">
<stop stop-color="#5C536A"/>
<stop offset="1" stop-color="#5C536A" stop-opacity="0"/>
</linearGradient>
<radialGradient id="paint15_radial_663_3966" cx="0" cy="0" r="1" gradientUnits="userSpaceOnUse" gradientTransform="translate(16.5628 24.1794) rotate(53.6783) scale(11.4005 11.3569)">
<stop offset="0.597" stop-color="#4B4357"/>
<stop offset="1" stop-color="#524C5D" stop-opacity="0"/>
</radialGradient>
<linearGradient id="paint16_linear_663_3966" x1="19.7498" y1="8.23096" x2="19.7498" y2="10.4227" gradientUnits="userSpaceOnUse">
<stop stop-color="#D8D8DC"/>
<stop offset="1" stop-color="#D8D8DC" stop-opacity="0"/>
</linearGradient>
<linearGradient id="paint17_linear_663_3966" x1="1.00134" y1="12.6883" x2="3.09912" y2="12.6883" gradientUnits="userSpaceOnUse">
<stop offset="0.22" stop-color="#C6C3CC"/>
<stop offset="1" stop-color="#C6C3CC" stop-opacity="0"/>
</linearGradient>
<linearGradient id="paint18_linear_663_3966" x1="38.4983" y1="13.0238" x2="35.0584" y2="13.0238" gradientUnits="userSpaceOnUse">
<stop offset="0.15" stop-color="#F9F7FE"/>
<stop offset="1" stop-color="#D3CDDD" stop-opacity="0"/>
</linearGradient>
<radialGradient id="paint19_radial_663_3966" cx="0" cy="0" r="1" gradientUnits="userSpaceOnUse" gradientTransform="translate(38.4973 9.25017) rotate(135.463) scale(2.29484 2.7863)">
<stop offset="0.15" stop-color="#F9F7FE"/>
<stop offset="1" stop-color="#F9F7FE" stop-opacity="0"/>
</radialGradient>
<linearGradient id="paint20_linear_663_3966" x1="21.9308" y1="13.4855" x2="21.9308" y2="13.0238" gradientUnits="userSpaceOnUse">
<stop stop-color="#B6ADC6"/>
<stop offset="1" stop-color="#B6ADC6" stop-opacity="0"/>
</linearGradient>
<radialGradient id="paint21_radial_663_3966" cx="0" cy="0" r="1" gradientUnits="userSpaceOnUse" gradientTransform="translate(26.9229 17.1759) rotate(143.867) scale(15.0082 15.0083)">
<stop stop-color="#A6A2AE"/>
<stop offset="1" stop-color="#A6A2AF"/>
</radialGradient>
<linearGradient id="paint22_linear_663_3966" x1="24.1528" y1="14.6167" x2="19.7491" y2="28.2584" gradientUnits="userSpaceOnUse">
<stop stop-color="#6A6375"/>
<stop offset="1" stop-color="#6A6375" stop-opacity="0"/>
</linearGradient>
<linearGradient id="paint23_linear_663_3966" x1="15.5134" y1="26.7391" x2="17.9454" y2="23.4254" gradientUnits="userSpaceOnUse">
<stop offset="0.363" stop-color="#B7B6BD"/>
<stop offset="1" stop-color="#B7B6BD" stop-opacity="0"/>
</linearGradient>
<radialGradient id="paint24_radial_663_3966" cx="0" cy="0" r="1" gradientUnits="userSpaceOnUse" gradientTransform="translate(23.3988 19.8174) rotate(143.911) scale(8.61575 8.05)">
<stop offset="0.068" stop-color="#67616D"/>
<stop offset="1" stop-color="#4D3E5C"/>
</radialGradient>
<linearGradient id="paint25_linear_663_3966" x1="24.3635" y1="14.9216" x2="15.0516" y2="26.8225" gradientUnits="userSpaceOnUse">
<stop stop-color="#2C2634"/>
<stop offset="0.599" stop-color="#40344C"/>
</linearGradient>
<radialGradient id="paint26_radial_663_3966" cx="0" cy="0" r="1" gradientUnits="userSpaceOnUse" gradientTransform="translate(22.942 20.0382) rotate(143.911) scale(7.54556 7.05008)">
<stop offset="0.068" stop-color="#67616D"/>
<stop offset="1" stop-color="#4D3E5C"/>
</radialGradient>
<radialGradient id="paint27_radial_663_3966" cx="0" cy="0" r="1" gradientUnits="userSpaceOnUse" gradientTransform="translate(22.9335 19.1475) rotate(147.397) scale(9.80813 9.49016)">
<stop offset="0.78" stop-color="#554863" stop-opacity="0"/>
<stop offset="0.985" stop-color="#554863"/>
</radialGradient>
<linearGradient id="paint28_linear_663_3966" x1="21.4686" y1="24.6419" x2="17.1495" y2="18.8961" gradientUnits="userSpaceOnUse">
<stop stop-color="#463755"/>
<stop offset="1" stop-color="#473F51"/>
</linearGradient>
<radialGradient id="paint29_radial_663_3966" cx="0" cy="0" r="1" gradientUnits="userSpaceOnUse" gradientTransform="translate(17.5681 24.0544) rotate(-48.6143) scale(5.6462 3.87182)">
<stop stop-color="#544E5C"/>
<stop offset="1" stop-color="#544E5C" stop-opacity="0"/>
</radialGradient>
<radialGradient id="paint30_radial_663_3966" cx="0" cy="0" r="1" gradientUnits="userSpaceOnUse" gradientTransform="translate(23.0418 18.8113) rotate(146.088) scale(3.00708 3.00709)">
<stop stop-color="#544E5C"/>
<stop offset="1" stop-color="#544E5C" stop-opacity="0"/>
</radialGradient>
<linearGradient id="paint31_linear_663_3966" x1="22.4826" y1="17.8882" x2="22.9787" y2="20.3208" gradientUnits="userSpaceOnUse">
<stop offset="0.051" stop-color="#F3F2F4"/>
<stop offset="1" stop-color="#F3F2F4" stop-opacity="0"/>
</linearGradient>
<radialGradient id="paint32_radial_663_3966" cx="0" cy="0" r="1" gradientUnits="userSpaceOnUse" gradientTransform="translate(13.294 3.9226) rotate(140.711) scale(4.7689 8.34559)">
<stop stop-color="#FFFF9C"/>
<stop offset="1" stop-color="#EAC73C"/>
</radialGradient>
<radialGradient id="paint33_radial_663_3966" cx="0" cy="0" r="1" gradientUnits="userSpaceOnUse" gradientTransform="translate(12.329 4.09037) rotate(136.735) scale(1.95831 3.55664)">
<stop offset="0.172" stop-color="#FFFCA0"/>
<stop offset="1" stop-color="#FFFCA0" stop-opacity="0"/>
</radialGradient>
<radialGradient id="paint34_radial_663_3966" cx="0" cy="0" r="1" gradientUnits="userSpaceOnUse" gradientTransform="translate(9.14956 8.05363) rotate(90) scale(8.1159 8.11581)">
<stop offset="0.127" stop-color="#FFEDD9"/>
<stop offset="1" stop-color="#FFEDD9" stop-opacity="0"/>
</radialGradient>
</defs>
</svg>
