<svg width="20" height="20" viewBox="0 0 20 20" fill="none" xmlns="http://www.w3.org/2000/svg">
<g clip-path="url(#clip0_663_3751)">
<circle cx="9.6" cy="10.4" r="9.6" fill="#E7E7E7"/>
<path d="M7.0875 6.02499C6.73188 6.02499 6.40781 6.26156 6.32375 6.62374C6.23 7.02812 6.09375 7.72187 6.09375 8.36874C6.09368 8.69834 6.17381 9.023 6.32723 9.31471C6.48066 9.60642 6.70276 9.85642 6.97438 10.0431C7.12063 10.1434 7.1875 10.2659 7.1875 10.3656C7.1874 10.3761 7.18677 10.3865 7.18563 10.3969C7.1675 10.55 7.09031 11.2031 7.0175 11.8794C6.94563 12.5444 6.875 13.2622 6.875 13.525C6.875 13.8565 7.0067 14.1745 7.24112 14.4089C7.47554 14.6433 7.79348 14.775 8.125 14.775C8.45652 14.775 8.77446 14.6433 9.00888 14.4089C9.2433 14.1745 9.375 13.8565 9.375 13.525C9.375 13.2625 9.30406 12.5444 9.2325 11.8794C9.15969 11.2031 9.0825 10.5497 9.06438 10.3966C9.06323 10.3862 9.0626 10.3757 9.0625 10.3653C9.0625 10.2659 9.12938 10.1434 9.27531 10.0431C9.54699 9.85645 9.76915 9.60647 9.92263 9.31476C10.0761 9.02305 10.1563 8.69837 10.1563 8.36874C10.1563 7.72156 10.0203 7.02781 9.92625 6.62374C9.84219 6.26156 9.51813 6.02499 9.1625 6.02499C8.97685 6.02472 8.79688 6.08901 8.65344 6.20687C8.50259 6.08885 8.31653 6.02481 8.125 6.02499C7.92563 6.02499 7.74219 6.09281 7.59656 6.20687C7.45312 6.08901 7.27315 6.02472 7.0875 6.02499ZM8.98438 6.82812C8.98438 6.78088 9.00314 6.73557 9.03655 6.70217C9.06995 6.66876 9.11526 6.64999 9.1625 6.64999C9.24375 6.64999 9.30313 6.70187 9.3175 6.76531C9.40813 7.15562 9.53125 7.79406 9.53125 8.36874C9.53129 8.59699 9.47578 8.82181 9.3695 9.0238C9.26323 9.2258 9.10938 9.39888 8.92125 9.52812C8.67438 9.69781 8.4375 9.98843 8.4375 10.3656C8.4375 10.4004 8.43958 10.4354 8.44375 10.4706C8.46188 10.6228 8.53875 11.2737 8.61125 11.9462C8.68438 12.6297 8.75 13.3047 8.75 13.525C8.75 13.6908 8.68415 13.8497 8.56694 13.9669C8.44973 14.0841 8.29076 14.15 8.125 14.15C7.95924 14.15 7.80027 14.0841 7.68306 13.9669C7.56585 13.8497 7.5 13.6908 7.5 13.525C7.5 13.3047 7.56531 12.6297 7.63875 11.9462C7.71125 11.2737 7.78813 10.6228 7.80625 10.4706C7.81042 10.4352 7.8125 10.4002 7.8125 10.3656C7.8125 9.98843 7.57531 9.69781 7.32875 9.52812C7.14062 9.39888 6.98677 9.2258 6.8805 9.0238C6.77422 8.82181 6.71871 8.59699 6.71875 8.36874C6.71875 7.79374 6.84188 7.15562 6.9325 6.76531C6.94116 6.7312 6.96129 6.70112 6.98952 6.68012C7.01775 6.65912 7.05235 6.64848 7.0875 6.64999C7.13474 6.64999 7.18005 6.66876 7.21345 6.70217C7.24686 6.73557 7.26563 6.78088 7.26563 6.82812V8.52499C7.26563 8.60787 7.29855 8.68736 7.35715 8.74597C7.41576 8.80457 7.49524 8.83749 7.57813 8.83749C7.66101 8.83749 7.74049 8.80457 7.7991 8.74597C7.8577 8.68736 7.89063 8.60787 7.89063 8.52499V6.88437C7.89063 6.82221 7.91532 6.7626 7.95927 6.71864C8.00323 6.67469 8.06284 6.64999 8.125 6.64999C8.18716 6.64999 8.24677 6.67469 8.29073 6.71864C8.33468 6.7626 8.35938 6.82221 8.35938 6.88437V8.52499C8.35938 8.60787 8.3923 8.68736 8.4509 8.74597C8.50951 8.80457 8.589 8.83749 8.67188 8.83749C8.75476 8.83749 8.83424 8.80457 8.89285 8.74597C8.95145 8.68736 8.98438 8.60787 8.98438 8.52499V6.82812ZM11.25 8.36874C11.2499 7.93991 11.4102 7.52655 11.6993 7.20981C11.9884 6.89308 12.3854 6.69585 12.8125 6.65687V10.0875C12.8125 10.1747 12.8297 10.3712 12.8522 10.6056C12.8756 10.8484 12.9075 11.155 12.9409 11.4781V11.4791C13.0294 12.3262 13.125 13.255 13.125 13.525C13.125 13.6908 13.0592 13.8497 12.9419 13.9669C12.8247 14.0841 12.6658 14.15 12.5 14.15C12.3342 14.15 12.1753 14.0841 12.0581 13.9669C11.9408 13.8497 11.875 13.6908 11.875 13.525C11.875 13.3019 11.9413 12.5516 12.015 11.7925C12.0685 11.246 12.1242 10.6998 12.1822 10.1537C12.184 10.1372 12.1853 10.1207 12.1863 10.1041C12.1885 10.0617 12.1821 10.0193 12.1674 9.97945C12.1527 9.93962 12.1301 9.9032 12.1009 9.87241C12.0717 9.84162 12.0365 9.8171 11.9975 9.80036C11.9585 9.78361 11.9165 9.77498 11.8741 9.77499H11.4063C11.3648 9.77499 11.3251 9.75853 11.2958 9.72923C11.2665 9.69993 11.25 9.66018 11.25 9.61874V8.36874ZM12.9688 6.02499C12.3471 6.02499 11.751 6.27192 11.3115 6.71146C10.8719 7.151 10.625 7.74714 10.625 8.36874V9.61874C10.625 9.82595 10.7073 10.0247 10.8538 10.1712C11.0003 10.3177 11.1991 10.4 11.4063 10.4H11.5278C11.4814 10.8438 11.4365 11.2878 11.3931 11.7319C11.3213 12.4725 11.25 13.2631 11.25 13.525C11.25 13.8565 11.3817 14.1745 11.6161 14.4089C11.8505 14.6433 12.1685 14.775 12.5 14.775C12.8315 14.775 13.1495 14.6433 13.3839 14.4089C13.6183 14.1745 13.75 13.8565 13.75 13.525C13.75 13.2172 13.6509 12.2647 13.5669 11.4528L13.5628 11.4147C13.5324 11.1251 13.5029 10.8354 13.4744 10.5456C13.45 10.2962 13.4375 10.1369 13.4375 10.0875V6.33749C13.4375 6.25461 13.4046 6.17513 13.346 6.11652C13.2874 6.05792 13.2079 6.02499 13.125 6.02499H12.9688Z" fill="#838383"/>
</g>
<defs>
<clipPath id="clip0_663_3751">
<rect width="19.2" height="19.2" fill="white" transform="translate(0 0.799988)"/>
</clipPath>
</defs>
</svg>
