<svg width="24" height="24" viewBox="0 0 24 24" fill="currentColor" xmlns="http://www.w3.org/2000/svg">
<path fill-rule="evenodd" clip-rule="evenodd" d="M0.62304 6.98729C5.96046e-08 8.12554 0 9.49859 0 12.2447V14.07C0 18.751 1.19209e-07 21.0916 1.40588 22.5457C2.81178 24 5.07451 24 9.6 24H14.4C18.9254 24 21.1883 24 22.5941 22.5457C24 21.0916 24 18.751 24 14.07V12.2447C24 9.49859 24 8.12554 23.377 6.98729C22.7539 5.84905 21.6157 5.14261 19.3392 3.72974L16.9392 2.24024C14.5327 0.746748 13.3295 0 12 0C10.6705 0 9.46727 0.746748 7.06084 2.24024L4.66084 3.72976C2.38434 5.14261 1.24608 5.84905 0.62304 6.98729ZM8.93593 16.077C8.53662 15.781 7.97296 15.8647 7.67696 16.2641C7.38098 16.6634 7.46474 17.2271 7.86407 17.523C9.03096 18.388 10.458 18.9 12 18.9C13.542 18.9 14.969 18.388 16.1359 17.523C16.5353 17.2271 16.619 16.6634 16.323 16.2641C16.0271 15.8647 15.4634 15.781 15.0641 16.077C14.19 16.7248 13.1351 17.1 12 17.1C10.8649 17.1 9.81 16.7248 8.93593 16.077Z" fill="currentColor"/>
</svg>
