<svg width="20" height="20" viewBox="0 0 20 20" fill="none" xmlns="http://www.w3.org/2000/svg">
<g clip-path="url(#clip0_662_3798)">
<circle cx="9.6" cy="9.6" r="9.6" fill="#EAEFFF"/>
<path d="M6.7207 7.98L6.9807 7.715C7.2707 7.425 7.7507 7.425 8.0507 7.735L8.0607 7.75C8.3057 8 8.6307 8.12 8.9857 8.155C9.4707 8.2 9.9407 8.46 10.2507 8.93C10.5907 9.47 10.5857 10.19 10.2307 10.725C10.0968 10.9367 9.91675 11.1155 9.704 11.2478C9.49126 11.3801 9.25134 11.4625 9.00222 11.489C8.75309 11.5154 8.50121 11.4852 8.26543 11.4005C8.02965 11.3158 7.81608 11.1789 7.6407 11C7.3607 10.725 7.2007 10.37 7.1607 10C7.1207 9.635 6.9757 9.29 6.7207 9.035C6.4307 8.75 6.4307 8.27 6.7207 7.98ZM8.8207 12C8.2357 12 7.6907 11.775 7.2857 11.36C6.9357 11 6.7157 10.55 6.6607 10.06C6.6457 9.91 6.6007 9.715 6.4807 9.535C6.1807 9.95 6.0007 10.45 6.0007 11C6.0007 11.82 6.4007 12.545 7.0157 13H13.5007V12.5C13.5007 10.7 12.3057 9.175 10.6707 8.675C11.1157 9.375 11.1057 10.31 10.6507 11C10.2507 11.625 9.5607 12 8.8207 12ZM11.3907 7.78H12.0257C12.4607 7.78 12.8407 8.085 12.8407 8.63V9H13.4657V8.5C13.4657 7.75 12.8007 7.18 12.0257 7.18H11.3907C10.9757 7.18 10.6207 6.77 10.6207 6.35C10.6207 5.93 10.9757 5.62 11.3907 5.62V5C10.6207 5 10.0007 5.62 10.0007 6.39C10.0007 7.16 10.6207 7.78 11.3907 7.78ZM6.2507 7.775C6.2807 7.725 6.3207 7.675 6.3657 7.625L6.6257 7.365C6.6707 7.32 6.7207 7.285 6.7707 7.25L6.0657 6.535C6.1357 6.4 6.1107 6.225 6.0007 6.11C5.9291 6.0403 5.83313 6.0013 5.7332 6.0013C5.63328 6.0013 5.5373 6.0403 5.4657 6.11C5.3957 6.18 5.3607 6.265 5.3557 6.355C5.2657 6.36 5.1807 6.395 5.1107 6.465C4.9657 6.61 4.9657 6.85 5.1107 7C5.2257 7.11 5.3957 7.135 5.5357 7.065L6.2507 7.775ZM13.1957 6.195C13.4507 5.94 13.6107 5.595 13.6107 5.21H12.9857C12.9857 5.625 12.6357 5.975 12.2207 5.975V6.595C13.1507 6.595 13.8807 7.355 13.8807 8.285V9.5H14.5007V8.285C14.5032 7.84885 14.3819 7.42095 14.1509 7.05099C13.9199 6.68104 13.5887 6.38421 13.1957 6.195ZM6.5007 14.5H13.5007C14.0557 14.5 14.5007 14.055 14.5007 13.5H5.5007C5.5007 13.7652 5.60606 14.0196 5.7936 14.2071C5.98113 14.3946 6.23549 14.5 6.5007 14.5Z" fill="#6A7EBC"/>
</g>
<defs>
<clipPath id="clip0_662_3798">
<rect width="20" height="20" fill="white"/>
</clipPath>
</defs>
</svg>
