<svg width="20" height="20" viewBox="0 0 20 20" fill="none" xmlns="http://www.w3.org/2000/svg">
<g clip-path="url(#clip0_663_3758)">
<circle cx="9.6" cy="9.6" r="9.6" fill="#EDDCFF"/>
<path d="M14.5 5.95L9.1 6.5845V7.3H14.5V7.75H9.1V10H14.5C14.5 10.8145 14.2435 11.557 13.744 12.2275C13.2445 12.898 12.5965 13.3885 11.8 13.7125V14.5H8.2V13.7125C7.408 13.3885 6.7555 12.8935 6.256 12.2275C5.7565 11.5615 5.5 10.8145 5.5 10H6.85V6.4L14.5 5.5V5.95ZM7.3 6.796V7.3H7.75V6.751L7.3 6.796ZM7.3 7.75V10H7.75V7.75H7.3ZM8.65 10V7.75H8.2V10H8.65ZM8.65 7.3V6.6475L8.2 6.688V7.3H8.65Z" fill="#B187DE"/>
</g>
<defs>
<clipPath id="clip0_663_3758">
<rect width="20" height="20" fill="white"/>
</clipPath>
</defs>
</svg>
