<svg width="20" height="20" viewBox="0 0 20 20" fill="none" xmlns="http://www.w3.org/2000/svg">
<circle cx="9.6" cy="9.60009" r="9.6" fill="#FFE8CF"/>
<path d="M9.7761 4.89204C9.70961 4.83294 9.62374 4.80029 9.53477 4.80029C9.44581 4.80029 9.35994 4.83294 9.29344 4.89204C8.84748 5.28759 8.51979 5.79894 8.34671 6.36936C8.17363 6.93979 8.16193 7.54701 8.31291 8.12368C7.59814 7.70139 6.76966 7.51203 5.9424 7.58189C5.8933 7.58592 5.84548 7.59964 5.8017 7.62224C5.75793 7.64485 5.71906 7.67589 5.68733 7.71358C5.6556 7.75128 5.63165 7.79488 5.61685 7.84187C5.60205 7.88886 5.5967 7.93832 5.6011 7.98739C5.67094 8.75616 6.03139 9.51929 6.53095 10.1107C6.3349 10.0979 6.13817 10.0997 5.9424 10.1163C5.8933 10.1203 5.84548 10.134 5.8017 10.1566C5.75793 10.1792 5.71906 10.2103 5.68733 10.248C5.6556 10.2857 5.63165 10.3293 5.61685 10.3763C5.60205 10.4233 5.5967 10.4727 5.6011 10.5218C5.68232 11.4132 6.0938 12.242 6.75476 12.8455C7.41572 13.4491 8.27842 13.7837 9.17348 13.7838H9.89607C10.7909 13.7836 11.6534 13.449 12.3143 12.8455C12.9751 12.2421 13.3865 11.4135 13.4679 10.5224C13.4724 10.4732 13.4671 10.4237 13.4523 10.3767C13.4375 10.3296 13.4136 10.2859 13.3819 10.2482C13.3501 10.2104 13.3112 10.1793 13.2674 10.1567C13.2236 10.1341 13.1757 10.1203 13.1266 10.1163C12.9308 10.0997 12.7341 10.0979 12.538 10.1107C13.0376 9.51929 13.398 8.75616 13.4673 7.98739C13.4716 7.93838 13.4663 7.88899 13.4515 7.84206C13.4367 7.79514 13.4128 7.75159 13.3811 7.71392C13.3495 7.67625 13.3107 7.6452 13.267 7.62254C13.2233 7.59988 13.1756 7.58607 13.1266 7.58189C12.2995 7.51215 11.4712 7.7015 10.7566 8.12368C10.9077 7.54706 10.8961 6.93988 10.7231 6.36945C10.5501 5.79903 10.222 5.28766 9.7761 4.89204ZM9.53505 11.7721C9.05336 11.1039 8.37834 10.5995 7.60103 10.3269L7.58131 10.3123C6.90491 9.85271 6.3327 8.99664 6.18796 8.1327C7.03568 8.11056 7.86181 8.40171 8.50834 8.95046C8.93581 9.3126 9.05352 9.6432 9.15884 9.94057C9.19713 10.0476 9.23374 10.1506 9.28274 10.2486C9.3061 10.2955 9.34205 10.3349 9.38657 10.3625C9.43109 10.39 9.48241 10.4046 9.53477 10.4046C9.58713 10.4046 9.63845 10.39 9.68297 10.3625C9.72749 10.3349 9.76345 10.2955 9.7868 10.2486C9.8358 10.1506 9.87241 10.0476 9.91071 9.94C10.016 9.64376 10.1337 9.3126 10.5618 8.95046C11.2081 8.40164 12.034 8.11029 12.8816 8.13213C12.7368 8.99664 12.1646 9.85215 11.4882 10.3123L11.4685 10.3269C10.6914 10.5996 10.0166 11.104 9.53505 11.7721ZM9.17348 13.2206C8.45303 13.2204 7.75633 12.963 7.20879 12.4948C6.66126 12.0265 6.29886 11.3782 6.18683 10.6665C6.81581 10.6504 7.43724 10.8065 7.98397 11.1178C8.5307 11.4292 8.98194 11.8841 9.28894 12.4333C9.31337 12.477 9.34904 12.5135 9.39225 12.5388C9.43547 12.5642 9.48467 12.5775 9.53477 12.5775C9.58488 12.5775 9.63408 12.5642 9.67729 12.5388C9.72051 12.5135 9.75617 12.477 9.78061 12.4333C10.0876 11.8841 10.5388 11.4292 11.0856 11.1178C11.6323 10.8065 12.2537 10.6504 12.8827 10.6665C12.7707 11.3783 12.4082 12.0267 11.8605 12.495C11.3129 12.9632 10.616 13.2206 9.8955 13.2206H9.17348ZM9.53449 9.17462C9.04586 8.67567 8.7722 8.00512 8.7722 7.30676C8.7722 6.60841 9.04586 5.93785 9.53449 5.43891C10.0231 5.93785 10.2968 6.60841 10.2968 7.30676C10.2968 8.00512 10.0231 8.67567 9.53449 9.17462Z" fill="#FF9246"/>
</svg>
