<svg width="20" height="20" viewBox="0 0 20 20" fill="none" xmlns="http://www.w3.org/2000/svg">
<circle cx="10" cy="9.99982" r="10" fill="#FFEAED"/>
<path d="M8.08333 12.9516V13.5099C8.08333 13.6204 8.12723 13.7264 8.20537 13.8046C8.28351 13.8827 8.38949 13.9266 8.5 13.9266H11.8333C11.9438 13.9266 12.0498 13.8827 12.128 13.8046C12.2061 13.7264 12.25 13.6204 12.25 13.5099V12.9516C12.8834 12.5859 13.4094 12.0599 13.7751 11.4265C14.1408 10.7931 14.3333 10.0746 14.3333 9.34326C14.3333 9.23275 14.2894 9.12677 14.2113 9.04863C14.1332 8.97049 14.0272 8.92659 13.9167 8.92659C13.909 8.67148 13.8361 8.42259 13.7048 8.20373C13.5734 7.98488 13.3882 7.80338 13.1667 7.67659C13.1136 7.31365 12.9314 6.98201 12.6536 6.74248C12.3758 6.50294 12.021 6.37156 11.6542 6.37242C11.5135 6.37283 11.3735 6.39103 11.2375 6.42659C10.9507 6.15278 10.5694 6 10.1729 6C9.7764 6 9.39513 6.15278 9.10833 6.42659C8.97229 6.39103 8.83228 6.37283 8.69167 6.37242C8.32343 6.36955 7.96659 6.50002 7.68705 6.73973C7.40751 6.97945 7.22415 7.31222 7.17083 7.67659C6.94855 7.80286 6.76244 7.98413 6.63038 8.20302C6.49832 8.42191 6.42472 8.67107 6.41667 8.92659C6.30616 8.92659 6.20018 8.97049 6.12204 9.04863C6.0439 9.12677 6 9.23275 6 9.34326C6.00002 10.0746 6.19255 10.7931 6.55825 11.4265C6.92395 12.0599 7.44994 12.5859 8.08333 12.9516ZM7.7125 8.36826L8.05833 8.25992L7.99167 7.88492C7.99275 7.79518 8.01151 7.70654 8.04686 7.62405C8.08221 7.54156 8.13346 7.46684 8.19769 7.40416C8.26192 7.34148 8.33786 7.29206 8.42119 7.25874C8.50452 7.22541 8.59359 7.20882 8.68333 7.20992C8.80363 7.20956 8.92224 7.23815 9.02917 7.29326L9.36667 7.48076L9.575 7.15992C9.64015 7.06281 9.72821 6.98323 9.8314 6.92821C9.93458 6.87318 10.0497 6.84439 10.1667 6.84439C10.2836 6.84439 10.3988 6.87318 10.5019 6.92821C10.6051 6.98323 10.6932 7.06281 10.7583 7.15992L10.9667 7.48076L11.3042 7.29326C11.4111 7.23815 11.5297 7.20956 11.65 7.20992C11.8302 7.20766 12.0041 7.27625 12.1343 7.40094C12.2644 7.52563 12.3404 7.69644 12.3458 7.87659L12.2792 8.23076L12.6208 8.34742C12.7469 8.38687 12.8582 8.46308 12.9407 8.56628C13.0231 8.66948 13.0727 8.79495 13.0833 8.92659H7.25C7.26058 8.79495 7.31027 8.66948 7.39268 8.56628C7.47509 8.46308 7.58646 8.38687 7.7125 8.34742V8.36826ZM13.475 9.75992C13.4055 10.3054 13.2021 10.8253 12.8829 11.2731C12.5638 11.7209 12.1388 12.0828 11.6458 12.3266C11.5765 12.3615 11.5183 12.4152 11.4778 12.4814C11.4373 12.5477 11.4161 12.6239 11.4167 12.7016V13.0933H8.91667V12.7016C8.91721 12.6239 8.89604 12.5477 8.85554 12.4814C8.81505 12.4152 8.75685 12.3615 8.6875 12.3266C8.19455 12.0828 7.76955 11.7209 7.4504 11.2731C7.13125 10.8253 6.92785 10.3054 6.85833 9.75992H13.475Z" fill="#F06485"/>
</svg>
