<svg width="20" height="20" viewBox="0 0 20 20" fill="none" xmlns="http://www.w3.org/2000/svg">
<g clip-path="url(#clip0_662_3752)">
<circle cx="10" cy="10" r="10" fill="#FFFAD8"/>
<path d="M7.004 9.99996H6.999M9.5 12.021C9.7315 12.0975 9.954 12.1855 10.155 12.326M10.155 12.326C10.4154 12.5076 10.6282 12.7494 10.7753 13.0308C10.9224 13.3122 10.9995 13.6249 11 13.9425C10.9999 13.9501 10.9984 13.9577 10.9954 13.9648C10.9924 13.9719 10.988 13.9783 10.9825 13.9837C10.977 13.9891 10.9705 13.9933 10.9634 13.9962C10.9563 13.9991 10.9487 14.0005 10.941 14.0005C9.4825 13.994 8.829 13.747 8.5545 13.3395L8 12.4285C6.754 12.177 5.609 11.3815 5 10.0415C6.5 6.74296 11.25 6.74296 12.75 10.0415M10.155 12.326C11.24 11.996 12.2075 11.2345 12.75 10.0415M12.75 10.0415C12.9165 9.71146 13.8 8.55696 15 8.55696C14.5835 8.96946 13.9 10.5365 14.5 11.526C13.9 11.526 13 10.3715 12.75 10.0415ZM10.155 7.75696C10.4154 7.57534 10.6281 7.33363 10.7752 7.05233C10.9223 6.77102 10.9994 6.4584 11 6.14096C11 5.72796 8.846 6.31196 8.555 6.74396L8 7.65496" stroke="#F7DE3E" stroke-width="0.75" stroke-linecap="round" stroke-linejoin="round"/>
</g>
<defs>
<clipPath id="clip0_662_3752">
<rect width="20" height="20" fill="white"/>
</clipPath>
</defs>
</svg>
