<svg width="20" height="20" viewBox="0 0 20 20" fill="none" xmlns="http://www.w3.org/2000/svg">
<g clip-path="url(#clip0_662_3837)">
<circle cx="9.6" cy="10.2" r="9.6" fill="#E5F8D5"/>
<path d="M6.29134 14.225C6.16148 14.225 6.0527 14.181 5.96501 14.093C5.87731 14.005 5.83331 13.8962 5.83301 13.7666C5.8327 13.6371 5.8767 13.5283 5.96501 13.4403C6.05331 13.3523 6.16209 13.3083 6.29134 13.3083H12.708C12.8379 13.3083 12.9468 13.3523 13.0348 13.4403C13.1228 13.5283 13.1666 13.6371 13.1663 13.7666C13.166 13.8962 13.122 14.0051 13.0343 14.0934C12.9466 14.1817 12.8379 14.2256 12.708 14.225H6.29134ZM7.66634 12.3916C7.16218 12.3916 6.73058 12.2121 6.37155 11.8531C6.01252 11.4941 5.83301 11.0625 5.83301 10.5583V6.99477C5.83301 6.71213 5.93231 6.4715 6.13093 6.27289C6.32954 6.07428 6.57016 5.97498 6.8528 5.97498H13.1663C13.4184 5.97498 13.6343 6.06481 13.814 6.24448C13.9936 6.42414 14.0833 6.63986 14.083 6.89164V8.26664C14.083 8.51873 13.9933 8.7346 13.814 8.91427C13.6346 9.09393 13.4187 9.18361 13.1663 9.18331H12.2497V10.5583C12.2497 11.0625 12.0702 11.4941 11.7111 11.8531C11.3521 12.2121 10.9205 12.3916 10.4163 12.3916H7.66634ZM7.66634 6.89164H11.333H6.74968H7.66634ZM12.2497 8.26664H13.1663V6.89164H12.2497V8.26664ZM10.4163 11.475C10.6684 11.475 10.8843 11.3853 11.064 11.2059C11.2436 11.0266 11.3333 10.8107 11.333 10.5583V6.89164H8.58301V7.07498L9.40801 7.73956C9.42329 7.75484 9.45384 7.81595 9.49968 7.92289V9.87081C9.49968 9.93192 9.47676 9.98539 9.43093 10.0312C9.38509 10.0771 9.33162 10.1 9.27051 10.1H7.43718C7.37606 10.1 7.32259 10.0771 7.27676 10.0312C7.23093 9.98539 7.20801 9.93192 7.20801 9.87081V7.92289C7.20801 7.90761 7.23856 7.8465 7.29968 7.73956L8.12468 7.07498V6.89164H6.74968V10.5583C6.74968 10.8104 6.83951 11.0263 7.01918 11.2059C7.19884 11.3856 7.41456 11.4753 7.66634 11.475H10.4163Z" fill="#27884A"/>
</g>
<defs>
<clipPath id="clip0_662_3837">
<rect width="19.2" height="19.2" fill="white" transform="translate(0 0.599976)"/>
</clipPath>
</defs>
</svg>
